<svg width="40" height="40" viewBox="0 0 40 40" fill="none" xmlns="http://www.w3.org/2000/svg">
<g clip-path="url(#clip0)">
<path fill-rule="evenodd" clip-rule="evenodd" d="M30.13 20.0046L29.0194 21.1155V23.6546C29.0194 25.5589 27.7501 26.8284 25.8463 26.8284C24.8944 26.8284 24.2598 26.1937 24.2598 25.2415C24.2598 24.2893 24.8944 23.6546 25.8463 23.6546V20.4807C25.8463 20.0046 26.005 19.6872 26.3223 19.3698L26.7982 18.8938L26.3223 18.4177C26.005 18.1003 25.8463 17.7829 25.8463 17.3068V14.133C25.053 14.133 24.2598 13.3395 24.2598 12.546C24.2598 11.5939 24.8944 10.9591 25.8463 10.9591C27.7501 10.9591 29.0194 12.2286 29.0194 14.133V16.6721L30.13 17.7829C30.7646 18.4177 30.7646 19.3698 30.13 20.0046ZM22.5146 12.8634L19.3415 25.5589C19.1828 26.3523 18.5482 26.8284 17.755 26.8284C17.5963 26.8284 17.4377 26.8284 17.4377 26.8284C16.6444 26.6697 16.0098 25.7176 16.3271 24.9241L19.5001 12.2286C19.6588 11.4352 20.6107 10.8004 21.404 11.1178C22.3559 11.1178 22.8319 12.07 22.5146 12.8634ZM12.678 19.3698C12.9953 19.6872 13.154 20.0046 13.154 20.4807V23.6546C13.9473 23.6546 14.7405 24.448 14.7405 25.2415C14.7405 26.1937 14.1059 26.8284 13.154 26.8284C11.2502 26.8284 9.98092 25.5589 9.98092 23.6546V21.1155L8.87034 20.0046C8.23573 19.3698 8.23573 18.4177 8.87034 17.7829L9.98092 16.6721V14.133C9.98092 12.2286 11.2502 10.9591 13.154 10.9591C14.1059 10.9591 14.7405 11.5939 14.7405 12.546C14.7405 13.4982 14.1059 14.133 13.154 14.133V17.3068C13.154 17.7829 12.9953 18.1003 12.678 18.4177L12.2021 18.8938L12.678 19.3698ZM33.779 6.1983C25.3703 6.1983 20.6107 1.91358 20.6107 1.91358C19.9761 1.27881 19.0242 1.27881 18.3896 1.91358C18.3896 1.91358 13.63 6.1983 5.2213 6.1983C4.26938 6.1983 3.63477 6.83307 3.63477 7.78523V19.2111C3.63477 25.2415 7.12515 31.5892 12.678 36.0326C14.7405 37.6196 16.803 38.7304 19.1828 39.3652C19.3415 39.3652 19.5002 39.3652 19.6588 39.3652C19.8175 39.3652 19.9761 39.3652 20.1348 39.3652C22.3559 38.7304 24.5771 37.6196 26.6396 36.0326C32.1925 31.7479 35.6828 25.2415 35.6828 19.2111V7.78523C35.3655 6.83307 34.5723 6.1983 33.779 6.1983Z" fill="#F06428" stroke="#F06428" stroke-width="0.798387" stroke-miterlimit="10"/>
</g>
<defs>
<clipPath id="clip0">
<rect width="33" height="39.1972" fill="white" transform="translate(3 0.802734)"/>
</clipPath>
</defs>
</svg>
