<?xml version="1.0" encoding="utf-8"?>
<!-- Generator: Adobe Illustrator 24.1.0, SVG Export Plug-In . SVG Version: 6.00 Build 0)  -->
<svg version="1.1" id="Layer_1" xmlns="http://www.w3.org/2000/svg" xmlns:xlink="http://www.w3.org/1999/xlink" x="0px" y="0px"
	 viewBox="0 0 90 74" style="enable-background:new 0 0 90 74;" xml:space="preserve">
<style type="text/css">
	.st0{clip-path:url(#SVGID_2_);}
	.st1{fill:#C2D7F9;}
</style>
<g>
	<defs>
		<rect id="SVGID_1_" width="90" height="74"/>
	</defs>
	<clipPath id="SVGID_2_">
		<use xlink:href="#SVGID_1_"  style="overflow:visible;"/>
	</clipPath>
	<g class="st0">
		<path class="st1" d="M51.9,53.4v13.9c6.2-3.1,11.5-8,15-13.9H51.9z M53.7,44.4c-1,0-1.8,1-1.8,2.2v3.7h16.5
			c0.9-1.9,1.6-3.8,2.1-5.9H53.7z M36.3,0C16.8,0,1,15.9,1,35.5C1,55,16.8,70.9,36.3,70.9c4.6,0,9-0.9,13.1-2.5V46.6
			c0-2.6,1.9-4.7,4.3-4.7h17.4c0.4-2.1,0.6-4.3,0.6-6.5C71.7,15.9,55.8,0,36.3,0z M49.1,37.8H36c-1,0-1.9-0.8-1.9-1.9V17.5
			c0-1,0.8-1.9,1.9-1.9c1,0,1.9,0.8,1.9,1.9v16.6h11.2c1,0,1.9,0.8,1.9,1.9C50.9,37,50.1,37.8,49.1,37.8z"/>
		<g>
			<path class="st1" d="M51.9,53.4v17.2c0,1.2,0.8,2.2,1.8,2.2h32.8c1,0,1.8-1,1.8-2.3V53.4H51.9z M77,60.2l-8.7,7.2
				c-0.3,0.2-0.6,0.4-1,0.4c-0.4,0-0.8-0.1-1-0.4l-4.1-3.8c-0.6-0.6-0.6-1.5-0.1-2.2c0.6-0.6,1.5-0.7,2.2-0.1l3.1,2.9l7.7-6.4
				c0.6-0.5,1.6-0.5,2.2,0.2C77.8,58.7,77.7,59.7,77,60.2z M86.5,44.4H53.7c-1,0-1.8,1-1.8,2.2v3.7h36.5v-3.7
				C88.4,45.4,87.5,44.4,86.5,44.4z"/>
		</g>
	</g>
</g>
</svg>
