<?xml version="1.0" encoding="utf-8"?>
<!-- Generator: Adobe Illustrator 24.1.0, SVG Export Plug-In . SVG Version: 6.00 Build 0)  -->
<svg version="1.1" id="Layer_1" xmlns="http://www.w3.org/2000/svg" xmlns:xlink="http://www.w3.org/1999/xlink" x="0px" y="0px"
	 viewBox="0 0 92 77" style="enable-background:new 0 0 92 77;" xml:space="preserve">
<style type="text/css">
	.st0{fill:#C2D7F9;}
	.st1{fill:#FFFFFF;}
</style>
<g>
	<path class="st0" d="M65.6,9.1v9.1c0,0.6-0.2,1.2-0.6,1.7c-0.4,0.5-1,0.7-1.7,0.7H6.5c-1.3,0-2.3-1-2.3-2.3V9.1
		c0-0.6,0.2-1.2,0.6-1.6C5.3,7,5.9,6.8,6.5,6.8h56.8C64.6,6.8,65.6,7.8,65.6,9.1z"/>
</g>
<g>
	<path class="st0" d="M65.4,26.7v9.1c0,1.2-1.1,2.3-2.4,2.3H6.3c-1.3,0-2.4-1.1-2.4-2.4v-9c0-1.3,1.1-2.4,2.4-2.4h56.8
		C64.3,24.3,65.4,25.4,65.4,26.7z"/>
	<path class="st1" d="M63.9,40c-0.1,0-0.2,0.1-0.2,0.1c0.1,0,0.3,0,0.4-0.1C64,40,63.9,40,63.9,40z"/>
</g>
<g>
	<path class="st0" d="M61,41.8c-4.3,3.2-7.2,8.2-7.6,13.8H6.8c-1.6,0-2.9-1.3-2.9-3v-7.9c0-1.6,1.3-3,2.9-3H61z"/>
	<path class="st1" d="M63.9,40c-0.1,0-0.2,0.1-0.2,0.1c0.1,0,0.3,0,0.4-0.1C64,40,63.9,40,63.9,40z"/>
</g>
<g>
	<path class="st0" d="M7.3,59.2h46.1c0.5,5.7,3.6,10.8,8,13.9H7.3c-1.9,0-3.4-1.5-3.4-3.4v-7.1C3.9,60.7,5.4,59.2,7.3,59.2z"/>
	<path class="st1" d="M67.3,61.5l-0.3,0.5c0.1,0.1,0.2,0.2,0.3,0.2C67.4,62,67.4,61.8,67.3,61.5z"/>
</g>
<g>
	<path class="st0" d="M72.5,40.7c-2.1,0-4.1,0.4-5.9,1.1c-0.3,0.1-0.6,0.3-1,0.4c-0.3,0.1-0.6,0.3-0.9,0.5
		c-4.6,2.6-7.9,7.3-8.5,12.9c0,0.3,0,0.7-0.1,1c0,0.2,0,0.4,0,0.6v0.1c0,0.1,0,0.2,0,0.3c0,0.2,0,0.4,0,0.6c0,0.3,0,0.7,0.1,1
		c0.6,5.5,3.9,10.2,8.5,12.7c0.3,0.2,0.6,0.3,0.9,0.5c0.3,0.1,0.6,0.3,1,0.4c1.9,0.7,3.9,1.1,6,1.1c9,0,16.4-7.4,16.4-16.6
		S81.5,40.7,72.5,40.7z M77.4,61.4c-0.2,0.5-0.6,0.9-1,1.2c-0.4,0.3-0.9,0.5-1.5,0.7c-0.5,0.1-1.1,0.2-1.7,0.3v2.2h-1.4v-2.2
		c-0.9-0.1-1.7-0.2-2.5-0.5c-0.7-0.2-1.3-0.5-1.9-0.9c-0.1-0.1-0.2-0.1-0.3-0.2l0.3-0.5l1-2.2c0.1,0.1,0.2,0.2,0.4,0.3
		c0.2,0.2,0.5,0.3,0.8,0.5c0.3,0.2,0.7,0.3,1.2,0.5c0.4,0.1,0.8,0.2,1.3,0.3v-2.5l-0.9-0.2c-0.6-0.2-1.2-0.4-1.6-0.6
		c-0.5-0.2-0.8-0.5-1.1-0.8c-0.3-0.3-0.5-0.6-0.6-1c-0.2-0.4-0.2-0.8-0.2-1.3c0-0.6,0.1-1.2,0.3-1.7c0.2-0.5,0.5-0.9,0.9-1.3
		c0.4-0.4,0.8-0.6,1.3-0.9c0.5-0.2,1.1-0.3,1.7-0.4v-1.9h1.3v1.9c0.8,0.1,1.5,0.2,2.2,0.5c0.7,0.3,1.3,0.5,1.8,0.9l-1.3,2.6
		c0-0.1-0.2-0.2-0.3-0.2c-0.2-0.1-0.4-0.2-0.7-0.4c-0.3-0.2-0.6-0.2-0.9-0.4C73.7,53,73.3,53,73,53v2.6l0.6,0.2
		c0.6,0.2,1.2,0.4,1.7,0.5c0.5,0.2,0.9,0.5,1.3,0.8c0.4,0.3,0.6,0.7,0.8,1.1c0.2,0.5,0.3,0.9,0.3,1.6C77.8,60.3,77.6,61,77.4,61.4z"
		/>
	<path class="st0" d="M67.4,62.3c-0.1-0.1-0.2-0.1-0.3-0.2l0.3-0.5C67.4,61.8,67.4,62,67.4,62.3z"/>
	<path class="st0" d="M72.1,53v2.3c-0.5-0.1-0.8-0.3-1-0.5c-0.2-0.2-0.3-0.5-0.3-0.8C70.8,53.4,71.2,53,72.1,53z"/>
	<path class="st0" d="M74.4,60c0,0.6-0.5,0.9-1.5,1v-2.2c0.5,0.2,0.8,0.3,1.1,0.5C74.2,59.5,74.4,59.7,74.4,60z"/>
	<path class="st1" d="M63.9,40c-0.1,0-0.2,0.1-0.2,0.1c0.1,0,0.3,0,0.4-0.1C64,40,63.9,40,63.9,40z"/>
</g>
<g>
	<path class="st1" d="M67.3,61.5l-0.3,0.5c0.1,0.1,0.2,0.2,0.3,0.2C67.4,62,67.4,61.8,67.3,61.5z"/>
</g>
</svg>
