<svg width="25" height="27" viewBox="0 0 25 27" fill="none" xmlns="http://www.w3.org/2000/svg">
<rect x="4.48242" y="2.71313" width="18.7199" height="23.7879" fill="white"/>
<path d="M23.439 0.85083H2.08742C1.35613 0.851245 0.763542 1.48503 0.763672 2.2666V25.0863C0.764189 25.8678 1.35712 26.5011 2.08836 26.5011H13.584V16.5817H10.4668V12.6991H13.584V9.84345C13.584 6.53046 15.477 4.72643 18.2424 4.72643C19.5669 4.72643 20.7052 4.83188 21.0371 4.87897V8.34051H19.1241C17.6241 8.34051 17.334 9.10425 17.334 10.225V12.6991H20.9314L20.4627 16.5817H17.334V26.5011H23.439C23.7903 26.5012 24.1273 26.352 24.3757 26.0865C24.6242 25.821 24.7637 25.4608 24.7637 25.0853V2.2656C24.7633 1.48403 24.1703 0.850692 23.439 0.85083Z" fill="#3B5A9A"/>
</svg>
