<svg width="240" height="180" viewBox="0 0 240 180" fill="none" xmlns="http://www.w3.org/2000/svg">
<g clip-path="url(#clip0)">
<path d="M209.526 158H31.4742C29.5923 158 28 156.388 28 154.482V32.5182C28 30.6125 29.5923 29 31.4742 29H209.671C211.552 29 213.145 30.6125 213.145 32.5182V154.628C213 156.387 211.408 158 209.526 158Z" fill="#2B0E72"/>
<path d="M207.788 156.241H33.2105C31.3287 156.241 29.7363 154.628 29.7363 152.723V32.5182C29.7363 30.6125 31.3287 29 33.2105 29H207.933C209.815 29 211.407 30.6125 211.407 32.5182V152.869C211.262 154.628 209.67 156.241 207.788 156.241Z" fill="#501DA0"/>
<path opacity="0.5" d="M204.46 147.445H36.5413C35.6728 147.445 35.0938 146.712 35.0938 145.979V39.4078C35.0938 38.5283 35.8175 37.9419 36.5413 37.9419H204.605C205.473 37.9419 206.052 38.6748 206.052 39.4078V145.979C206.052 146.712 205.329 147.445 204.46 147.445Z" fill="url(#paint0_linear)"/>
<path opacity="0.27" d="M204.46 147.445H36.5413C35.6728 147.445 35.0938 146.712 35.0938 145.979V39.4078C35.0938 38.5283 35.8175 37.9419 36.5413 37.9419H204.605C205.473 37.9419 206.052 38.6748 206.052 39.4078V145.979C206.052 146.712 205.329 147.445 204.46 147.445Z" fill="url(#paint1_linear)"/>
<path d="M103.79 121.413H74.6934C74.8381 110.566 78.4571 100.744 84.6816 92.8281L107.553 111.299C105.382 114.084 103.934 117.602 103.79 121.413Z" fill="#B6BFFF"/>
<path d="M108.131 110.565L85.2598 91.948C93.6557 81.5401 106.394 74.9435 120.725 74.7969V104.701C115.804 104.848 111.316 107.047 108.131 110.565Z" fill="#9BA1F6"/>
<path d="M121.74 104.702V74.6504C135.492 74.797 147.941 81.1004 156.337 90.7754L133.9 110.272C130.86 106.9 126.517 104.848 121.74 104.702Z" fill="#6270ED"/>
<path d="M134.621 111.005L157.059 91.6553C163.717 99.7178 167.771 110.126 167.915 121.267H138.674C138.385 117.455 136.937 113.79 134.621 111.005Z" fill="#5613BF"/>
<path opacity="0.54" d="M34.8027 56.2661H206.051" stroke="#2B0E72" stroke-width="1.9928" stroke-miterlimit="10"/>
<path opacity="0.56" d="M43.9244 50.9886C45.5234 50.9886 46.8196 49.676 46.8196 48.0568C46.8196 46.4376 45.5234 45.125 43.9244 45.125C42.3255 45.125 41.0293 46.4376 41.0293 48.0568C41.0293 49.676 42.3255 50.9886 43.9244 50.9886Z" fill="#24126A"/>
<path opacity="0.56" d="M52.61 50.9886C54.2089 50.9886 55.5051 49.676 55.5051 48.0568C55.5051 46.4376 54.2089 45.125 52.61 45.125C51.011 45.125 49.7148 46.4376 49.7148 48.0568C49.7148 49.676 51.011 50.9886 52.61 50.9886Z" fill="#24126A"/>
<path opacity="0.56" d="M61.2936 50.9886C62.8925 50.9886 64.1887 49.676 64.1887 48.0568C64.1887 46.4376 62.8925 45.125 61.2936 45.125C59.6946 45.125 58.3984 46.4376 58.3984 48.0568C58.3984 49.676 59.6946 50.9886 61.2936 50.9886Z" fill="#24126A"/>
<path d="M114.5 119.068L118.553 122.732L141.859 96.4927L114.5 119.068Z" fill="url(#paint2_linear)"/>
<path d="M141.859 96.4927L118.553 122.732L122.461 126.397L141.859 96.4927Z" fill="url(#paint3_linear)"/>
<path d="M131.582 124.051C131.292 118.774 126.95 114.669 121.594 114.669C116.238 114.669 111.895 118.774 111.605 124.051H131.582Z" fill="url(#paint4_linear)" stroke="#C8C2FF" stroke-width="0.4504" stroke-miterlimit="10"/>
<path d="M74.6934 122.439C74.6934 124.784 74.9829 127.13 75.2724 129.475H167.193C167.628 127.13 167.772 124.784 167.772 122.439H74.6934Z" fill="#4F09AA"/>
</g>
<defs>
<linearGradient id="paint0_linear" x1="34.9807" y1="92.6163" x2="205.993" y2="92.6163" gradientUnits="userSpaceOnUse">
<stop stop-color="#7B7BFF"/>
<stop offset="0.0255663" stop-color="#8180FF"/>
<stop offset="0.2507" stop-color="#AEAAFF"/>
<stop offset="0.467" stop-color="#D1CBFF"/>
<stop offset="0.6695" stop-color="#EAE3FF"/>
<stop offset="0.8528" stop-color="#FAF1FF"/>
<stop offset="1" stop-color="#FFF6FF"/>
</linearGradient>
<linearGradient id="paint1_linear" x1="34.9807" y1="92.6163" x2="205.993" y2="92.6163" gradientUnits="userSpaceOnUse">
<stop stop-color="#7B7BFF"/>
<stop offset="0.0255663" stop-color="#8180FF"/>
<stop offset="0.2507" stop-color="#AEAAFF"/>
<stop offset="0.467" stop-color="#D1CBFF"/>
<stop offset="0.6695" stop-color="#EAE3FF"/>
<stop offset="0.8528" stop-color="#FAF1FF"/>
<stop offset="1" stop-color="#FFF6FF"/>
</linearGradient>
<linearGradient id="paint2_linear" x1="114.497" y1="109.606" x2="141.835" y2="109.606" gradientUnits="userSpaceOnUse">
<stop stop-color="#7364BD"/>
<stop offset="0.4764" stop-color="#4023A2"/>
<stop offset="0.9987" stop-color="#0C0F54"/>
</linearGradient>
<linearGradient id="paint3_linear" x1="118.512" y1="111.431" x2="141.834" y2="111.431" gradientUnits="userSpaceOnUse">
<stop stop-color="#7364BD"/>
<stop offset="0.4987" stop-color="#4023A2"/>
<stop offset="0.5303" stop-color="#3C219B"/>
<stop offset="0.7345" stop-color="#221775"/>
<stop offset="0.8977" stop-color="#12115D"/>
<stop offset="0.9987" stop-color="#0C0F54"/>
</linearGradient>
<linearGradient id="paint4_linear" x1="111.526" y1="119.354" x2="131.521" y2="119.354" gradientUnits="userSpaceOnUse">
<stop stop-color="#7364BD"/>
<stop offset="0.8339" stop-color="#4023A2"/>
<stop offset="0.9987" stop-color="#3A0F9A"/>
</linearGradient>
<clipPath id="clip0">
<rect width="185" height="129" fill="white" transform="translate(28 29)"/>
</clipPath>
</defs>
</svg>
