<svg width="240" height="180" viewBox="0 0 240 180" fill="none" xmlns="http://www.w3.org/2000/svg">
<g clip-path="url(#clip0)">
<path d="M124.5 134.5L106 123.6L111.2 120.7C111.6 120.8 112.1 120.9 112.6 120.9C113.4 120.9 114.2 120.7 114.8 120.4C115.5 120 115.9 119.4 115.9 118.8C115.9 118.2 115.5 117.6 114.8 117.2C114.2 116.8 113.4 116.7 112.6 116.7C111.8 116.7 111 116.9 110.4 117.2C109.7 117.6 109.3 118.2 109.3 118.8C109.3 119.3 109.5 119.7 110 120.1L103.8 123.6L122.3 134.5L94.4 149.9L118.9 164.6L97.3 176.7L82.5 168.2C82.9 167.8 83.1 167.4 83.1 167C83.1 166.4 82.7 165.8 82 165.4C81.4 165 80.6 164.9 79.8 164.9C79 164.9 78.2 165.1 77.6 165.4C76.9 165.8 76.5 166.4 76.5 167C76.5 167.6 76.9 168.2 77.6 168.6C78.2 169 79 169.1 79.8 169.1C80.4 169.1 81 169 81.5 168.8L97.3 178L121.1 164.6L96.6 149.9L124.5 134.5ZM110.9 118.1C111.3 117.9 111.9 117.7 112.6 117.7C113.2 117.7 113.8 117.8 114.2 118.1C114.5 118.3 114.7 118.5 114.7 118.7C114.7 118.9 114.5 119.1 114.2 119.3C113.4 119.8 111.8 119.8 110.9 119.3C110.6 119.1 110.4 118.9 110.4 118.7C110.4 118.6 110.5 118.3 110.9 118.1ZM78.1 167.5C77.8 167.3 77.6 167.1 77.6 166.9C77.6 166.7 77.8 166.5 78.1 166.3C78.5 166.1 79.1 165.9 79.8 165.9C80.4 165.9 81 166 81.4 166.3C81.7 166.5 81.9 166.7 81.9 166.9C81.9 167.1 81.7 167.3 81.4 167.5C80.6 168 79 168 78.1 167.5Z" fill="url(#paint0_linear)"/>
<path d="M138.8 120C139.2 119.6 139.4 119.2 139.4 118.7C139.4 118.1 139 117.5 138.3 117.1C137.7 116.7 136.9 116.6 136.1 116.6C135.3 116.6 134.5 116.8 133.9 117.1C133.2 117.5 132.8 118.1 132.8 118.7C132.8 119.3 133.2 119.9 133.9 120.3C134.5 120.7 135.3 120.8 136.1 120.8C136.6 120.8 137.1 120.7 137.5 120.6L152.8 129.3L133.5 140.2L141.6 145.6L130.5 151.9L143 159.4L153.5 153.5C154 153.7 154.5 153.7 155.1 153.7C155.9 153.7 156.7 153.5 157.3 153.2C158 152.8 158.4 152.2 158.4 151.6C158.4 151 158 150.4 157.3 150C156.7 149.6 155.9 149.5 155.1 149.5C154.3 149.5 153.5 149.7 152.9 150C152.2 150.4 151.8 151 151.8 151.6C151.8 152 152 152.5 152.4 152.8L143 158L132.7 151.8L143.7 145.6L135.7 140.2L155.2 129.2L138.8 120ZM134.5 119.4C134.2 119.2 134 119 134 118.8C134 118.6 134.2 118.4 134.5 118.2C134.9 118 135.5 117.8 136.1 117.8C136.7 117.8 137.3 118 137.8 118.2C138.1 118.4 138.3 118.6 138.3 118.8C138.3 119 138.1 119.2 137.8 119.4C137 119.9 135.4 119.9 134.5 119.4ZM153.4 151.2C153.8 151 154.4 150.8 155 150.8C155.6 150.8 156.2 151 156.7 151.2C157 151.4 157.2 151.6 157.2 151.8C157.2 152 157 152.2 156.7 152.4C155.9 152.9 154.3 152.9 153.4 152.4C153.1 152.2 152.9 152 152.9 151.8C152.9 151.6 153.1 151.3 153.4 151.2Z" fill="url(#paint1_linear)"/>
<path d="M183.7 141.3C183.7 140.9 183.5 140.4 183.1 140.1L189.7 136.1L150.2 113.6C150.5 113.3 150.6 112.9 150.6 112.5C150.6 111.9 150.2 111.3 149.5 110.9C148.9 110.5 148.1 110.4 147.3 110.4C146.5 110.4 145.7 110.6 145.1 110.9C144.4 111.3 144 111.9 144 112.5C144 113.1 144.4 113.7 145.1 114.1C145.7 114.5 146.5 114.6 147.3 114.6C147.9 114.6 148.5 114.5 149.1 114.3L187.5 136.1L182 139.5C181.5 139.3 181 139.3 180.4 139.3C179.6 139.3 178.8 139.5 178.2 139.8C177.5 140.2 177.1 140.8 177.1 141.4C177.1 142 177.5 142.6 178.2 143C178.8 143.4 179.6 143.5 180.4 143.5C181.2 143.5 182 143.3 182.6 143C183.3 142.5 183.7 141.9 183.7 141.3ZM145.7 113.1C145.4 112.9 145.2 112.7 145.2 112.5C145.2 112.3 145.4 112.1 145.7 111.9C146.1 111.7 146.7 111.5 147.3 111.5C147.9 111.5 148.5 111.7 149 111.9C149.3 112.1 149.5 112.3 149.5 112.5C149.5 112.7 149.3 112.9 149 113.1C148.2 113.6 146.6 113.6 145.7 113.1ZM182.1 141.9C181.3 142.4 179.7 142.4 178.8 141.9C178.5 141.7 178.3 141.5 178.3 141.3C178.3 141.1 178.5 140.9 178.8 140.7C179.2 140.5 179.8 140.3 180.4 140.3C180.9 140.3 181.4 140.4 181.8 140.6L181.9 140.8L182 140.7C182.3 140.9 182.5 141.1 182.5 141.3C182.6 141.5 182.4 141.7 182.1 141.9Z" fill="url(#paint2_linear)"/>
<path d="M212.201 90.3999C211.601 89.9999 210.801 89.8999 210.001 89.8999C209.201 89.8999 208.401 90.0999 207.801 90.3999L188.101 79.4999L193.901 76.0999C194.501 76.3999 195.201 76.5999 196.001 76.5999C196.801 76.5999 197.601 76.3999 198.201 76.0999C198.901 75.6999 199.301 75.0999 199.301 74.4999C199.301 73.8999 198.901 73.2999 198.201 72.8999C197.601 72.4999 196.801 72.3999 196.001 72.3999C195.201 72.3999 194.401 72.5999 193.801 72.8999C193.101 73.2999 192.701 73.8999 192.701 74.4999C192.701 74.7999 192.801 75.0999 193.001 75.3999L185.801 79.5999L207.001 91.1999C206.801 91.3999 206.801 91.6999 206.801 91.9999C206.801 92.5999 207.201 93.1999 207.901 93.5999C208.501 93.9999 209.301 94.0999 210.101 94.0999C210.901 94.0999 211.701 93.8999 212.301 93.5999C213.001 93.1999 213.401 92.5999 213.401 91.9999C213.301 91.3999 212.901 90.7999 212.201 90.3999ZM194.401 73.7999C194.801 73.5999 195.401 73.3999 196.001 73.3999C196.601 73.3999 197.201 73.5999 197.701 73.7999C198.001 73.9999 198.201 74.1999 198.201 74.3999C198.201 74.5999 198.001 74.7999 197.701 74.9999C196.901 75.4999 195.301 75.4999 194.401 74.9999C194.101 74.7999 193.901 74.5999 193.901 74.3999C193.901 74.2999 194.101 73.9999 194.401 73.7999ZM211.601 92.5999C211.201 92.7999 210.601 92.9999 210.001 92.9999C209.401 92.9999 208.801 92.7999 208.301 92.5999C208.001 92.3999 207.801 92.1999 207.801 91.9999C207.801 91.8999 207.801 91.7999 207.901 91.7999L208.101 91.8999L208.401 91.3999C208.801 91.1999 209.401 90.9999 210.001 90.9999C210.601 90.9999 211.201 91.1999 211.701 91.3999C212.001 91.5999 212.201 91.7999 212.201 91.9999C212.201 92.1999 212.001 92.3999 211.601 92.5999Z" fill="url(#paint3_linear)"/>
<path d="M92.3008 107.7C93.0008 107.3 93.4008 106.7 93.4008 106.1C93.4008 105.5 93.0008 104.9 92.3008 104.5C91.7008 104.1 91.0008 104 90.1008 104C89.3008 104 88.5008 104.2 87.9008 104.5C87.2008 104.9 86.8008 105.5 86.8008 106.1C86.8008 106.5 86.9008 106.8 87.2008 107.1L67.1008 118.4L55.5008 112.4L43.8008 119.8L40.4008 117.8C40.7008 117.5 40.9008 117.1 40.9008 116.7C40.9008 116.1 40.5008 115.5 39.8008 115.1C39.2008 114.7 38.4008 114.6 37.6008 114.6C36.8008 114.6 36.0008 114.8 35.4008 115.1C34.7008 115.5 34.3008 116.1 34.3008 116.7C34.3008 117.3 34.7008 117.9 35.4008 118.3C36.0008 118.7 36.8008 118.8 37.6008 118.8C38.4008 118.8 39.1008 118.6 39.7008 118.3L39.5008 118.6L43.7008 121.2L55.5008 113.8L67.0008 119.8L88.0008 107.9C88.6008 108.2 89.2008 108.3 90.0008 108.3C91.0008 108.2 91.7008 108 92.3008 107.7ZM39.3008 117.2C38.5008 117.7 36.9008 117.7 36.0008 117.2C35.7008 117 35.5008 116.8 35.5008 116.6C35.5008 116.4 35.7008 116.2 36.0008 116C36.4008 115.8 37.0008 115.6 37.6008 115.6C38.2008 115.6 38.8008 115.8 39.3008 116C39.6008 116.2 39.8008 116.4 39.8008 116.6C39.8008 116.8 39.7008 117 39.3008 117.2ZM88.0008 106.1C88.0008 105.9 88.2008 105.7 88.5008 105.5C88.9008 105.3 89.5008 105.1 90.2008 105.1C90.8008 105.1 91.4008 105.2 91.8008 105.5C92.1008 105.7 92.3008 105.9 92.3008 106.1C92.3008 106.3 92.1008 106.5 91.8008 106.7C91.0008 107.2 89.4008 107.2 88.5008 106.7C88.2008 106.5 88.0008 106.3 88.0008 106.1Z" fill="url(#paint4_linear)"/>
<path d="M160.699 104.5C160.099 104.1 159.299 104 158.499 104C157.699 104 156.899 104.2 156.299 104.5C155.599 104.9 155.199 105.5 155.199 106.1C155.199 106.7 155.599 107.3 156.299 107.7C156.899 108.1 157.699 108.2 158.499 108.2C159.299 108.2 160.099 108 160.599 107.7L197.599 128.9L197.899 129.1L210.799 121C211.399 121.3 211.999 121.4 212.799 121.4C213.599 121.4 214.399 121.2 214.999 120.9C215.699 120.5 216.099 119.9 216.099 119.3C216.099 118.7 215.699 118.1 214.999 117.7C214.399 117.3 213.599 117.2 212.799 117.2C211.999 117.2 211.199 117.4 210.599 117.7C209.899 118.1 209.499 118.7 209.499 119.3C209.499 119.7 209.599 120 209.899 120.3L197.899 127.8L161.499 106.9C161.699 106.7 161.699 106.3 161.699 106.1C161.799 105.5 161.399 104.9 160.699 104.5ZM211.199 118.7C211.599 118.5 212.199 118.3 212.799 118.3C213.399 118.3 213.999 118.5 214.499 118.7C214.799 118.9 214.999 119.1 214.999 119.3C214.999 119.5 214.799 119.7 214.499 119.9C213.699 120.4 212.099 120.4 211.199 119.9C210.899 119.7 210.699 119.5 210.699 119.3C210.599 119.1 210.799 118.8 211.199 118.7ZM156.899 106.7C156.599 106.5 156.399 106.3 156.399 106.1C156.399 105.9 156.599 105.7 156.899 105.5C157.299 105.3 157.899 105.1 158.499 105.1C159.099 105.1 159.699 105.3 160.199 105.5C160.499 105.7 160.699 105.9 160.699 106.1C160.699 106.3 160.499 106.5 160.199 106.7C159.299 107.2 157.699 107.2 156.899 106.7Z" fill="url(#paint5_linear)"/>
<path d="M85.9 141.5C85.9 142.1 86.3 142.7 87 143.1C87.6 143.5 88.4 143.6 89.2 143.6C90 143.6 90.8 143.4 91.4 143.1C92.1 142.7 92.5 142.1 92.5 141.5C92.5 140.9 92.1 140.3 91.4 139.9C90.8 139.5 90 139.4 89.2 139.4C88.4 139.4 87.7 139.6 87.1 139.9L71.7 131.1L99.6 114.5L99.4 114.1C100 114.4 100.6 114.5 101.4 114.5C102.2 114.5 103 114.3 103.6 114C104.3 113.6 104.7 113 104.7 112.4C104.7 111.8 104.3 111.2 103.6 110.8C103 110.4 102.2 110.3 101.4 110.3C100.6 110.3 99.8 110.5 99.2 110.8C98.5 111.2 98.1 111.8 98.1 112.4C98.1 112.9 98.3 113.3 98.7 113.7L69.5 131.1L86.2 140.6C86 140.9 85.9 141.1 85.9 141.5ZM99.7 111.8C100.1 111.6 100.7 111.4 101.4 111.4C102 111.4 102.6 111.5 103 111.8C103.3 112 103.5 112.2 103.5 112.4C103.5 112.6 103.3 112.8 103 113C102.2 113.5 100.6 113.5 99.7 113C99.4 112.8 99.2 112.6 99.2 112.4C99.1 112.2 99.3 112 99.7 111.8ZM89.2 140.5C89.8 140.5 90.4 140.7 90.9 140.9C91.2 141.1 91.4 141.3 91.4 141.5C91.4 141.7 91.2 141.9 90.9 142.1C90.1 142.6 88.5 142.6 87.6 142.1C87.3 141.9 87.1 141.7 87.1 141.5C87.1 141.3 87.3 141.1 87.6 140.9C88 140.6 88.6 140.5 89.2 140.5Z" fill="url(#paint6_linear)"/>
<path d="M111 30.4C111 31 111.4 31.6 112.1 32C112.7 32.4 113.5 32.5 114.3 32.5C115.1 32.5 115.9 32.3 116.5 32C117.2 31.6 117.6 31 117.6 30.4C117.6 29.8 117.2 29.2 116.5 28.8C115.9 28.4 115.1 28.3 114.3 28.3C113.5 28.3 112.7 28.5 112.1 28.8L93.7996 18.7L109.5 9.2L144.5 28.5L130.4 37.3L130.3 37.2C129.7 36.8 128.9 36.7 128.1 36.7C127.3 36.7 126.5 36.9 125.9 37.2C125.2 37.6 124.8 38.2 124.8 38.8C124.8 39.4 125.2 40 125.9 40.4C126.5 40.8 127.3 40.9 128.1 40.9C128.9 40.9 129.7 40.7 130.3 40.4C131 40 131.4 39.4 131.4 38.8C131.4 38.6 131.3 38.3 131.2 38.1L146.7 28.5L109.7 8.1L109.5 8L91.5996 18.8L111.3 29.7C111.1 29.9 111 30.1 111 30.4ZM129.8 39.5C129.4 39.7 128.8 39.9 128.2 39.9C127.6 39.9 127 39.7 126.5 39.5C126.2 39.3 126 39.1 126 38.9C126 38.7 126.2 38.5 126.5 38.3C126.9 38.1 127.5 37.9 128.1 37.9C128.7 37.9 129.3 38.1 129.8 38.3C130.1 38.5 130.3 38.7 130.3 38.9C130.3 39 130.1 39.3 129.8 39.5ZM115.9 29.8C116.2 30 116.4 30.2 116.4 30.4C116.4 30.6 116.2 30.8 115.9 31C115.1 31.5 113.5 31.5 112.6 31C112.3 30.8 112.1 30.6 112.1 30.4C112.1 30.3 112.1 30.2 112.2 30.1H112.3L112.5 29.8C112.5 29.8 112.6 29.7 112.7 29.7C113.1 29.5 113.7 29.3 114.3 29.3C114.9 29.4 115.5 29.5 115.9 29.8Z" fill="url(#paint7_linear)"/>
<path d="M169.9 28.3L148 41.8L167 52.3L148.1 63.3L148.7 64.3L169.3 52.3L150.3 41.8L171 28.9C171.5 29.1 172 29.2 172.6 29.2C173.4 29.2 174.2 29 174.8 28.7C175.5 28.3 175.9 27.7 175.9 27.1C175.9 26.5 175.5 25.9 174.8 25.5C174.2 25.1 173.4 25 172.6 25C171.8 25 171 25.2 170.4 25.5C169.7 25.9 169.3 26.5 169.3 27.1C169.3 27.5 169.5 27.9 169.9 28.3ZM170.9 26.4C171.3 26.2 171.9 26 172.5 26C173.1 26 173.7 26.2 174.2 26.4C174.5 26.6 174.7 26.8 174.7 27C174.7 27.2 174.5 27.4 174.2 27.6C173.4 28.1 171.8 28.1 170.9 27.6C170.6 27.4 170.4 27.2 170.4 27C170.3 26.8 170.5 26.6 170.9 26.4Z" fill="url(#paint8_linear)"/>
<path d="M182.9 108.3L196.8 100C197.3 100.2 197.9 100.3 198.4 100.3C199.2 100.3 200 100.1 200.6 99.8001C201.3 99.4001 201.7 98.8001 201.7 98.2001C201.7 97.6001 201.3 97.0001 200.6 96.6001C200 96.2001 199.2 96.1001 198.4 96.1001C197.6 96.1001 196.8 96.3001 196.2 96.6001C195.5 97.0001 195.1 97.6001 195.1 98.2001C195.1 98.6001 195.3 99.0001 195.7 99.4001L182.9 107L172.6 100.8C172.8 100.5 173 100.2 173 99.8001C173 99.2001 172.6 98.6001 171.9 98.2001C171.3 97.8001 170.5 97.7001 169.7 97.7001C168.9 97.7001 168.1 97.9001 167.5 98.2001C166.8 98.6001 166.4 99.2001 166.4 99.8001C166.4 100.4 166.8 101 167.5 101.4C168.1 101.8 168.9 101.9 169.7 101.9C170.5 101.9 171.3 101.7 171.9 101.4C171.9 101.4 171.9 101.4 172 101.4L171.8 101.6L182.9 108.3ZM196.8 97.5001C197.2 97.3001 197.8 97.1001 198.4 97.1001C199 97.1001 199.6 97.3001 200.1 97.5001C200.4 97.7001 200.6 97.9001 200.6 98.1001C200.6 98.3001 200.4 98.5001 200.1 98.7001C199.3 99.2001 197.7 99.2001 196.8 98.7001C196.5 98.5001 196.3 98.3001 196.3 98.1001C196.3 97.9001 196.5 97.7001 196.8 97.5001ZM171.4 100.4C170.6 100.9 169 100.9 168.1 100.4C167.8 100.2 167.6 100 167.6 99.8001C167.6 99.6001 167.8 99.4001 168.1 99.2001C168.5 99.0001 169.1 98.8001 169.7 98.8001C170.3 98.8001 170.9 99.0001 171.4 99.2001C171.7 99.4001 171.9 99.6001 171.9 99.8001C171.9 100 171.7 100.2 171.4 100.4Z" fill="url(#paint9_linear)"/>
<path d="M166.1 43.1001C166.4 42.8001 166.5 42.4001 166.5 42.1001C166.5 41.5001 166.1 40.9001 165.4 40.5001C164.8 40.1001 164 40.0001 163.2 40.0001C162.4 40.0001 161.6 40.2001 161 40.5001C160.3 40.9001 159.9 41.5001 159.9 42.1001C159.9 42.7001 160.3 43.3001 161 43.7001C161.6 44.1001 162.4 44.2001 163.2 44.2001C163.9 44.2001 164.5 44.1001 165 43.8001L174.8 49.6001L192.7 38.8001C192.7 38.8001 192.7 38.8001 192.8 38.8001C193.4 39.2001 194.2 39.3001 195 39.3001C195.8 39.3001 196.6 39.1001 197.2 38.8001C197.9 38.4001 198.3 37.8001 198.3 37.2001C198.3 36.6001 197.9 36.0001 197.2 35.6001C196.6 35.2001 195.8 35.1001 195 35.1001C194.2 35.1001 193.4 35.3001 192.8 35.6001C192.1 36.0001 191.7 36.6001 191.7 37.2001C191.7 37.5001 191.8 37.7001 191.9 38.0001L174.9 48.3001L166.1 43.1001ZM161.6 42.7001C161.3 42.5001 161.1 42.3001 161.1 42.1001C161.1 41.9001 161.3 41.7001 161.6 41.5001C162 41.3001 162.6 41.1001 163.2 41.1001C163.8 41.1001 164.4 41.3001 164.9 41.5001C165.2 41.7001 165.4 41.9001 165.4 42.1001C165.4 42.3001 165.3 42.4001 165.1 42.6001H165L164.9 42.8001C164 43.2001 162.4 43.2001 161.6 42.7001ZM193.4 36.6001C193.8 36.4001 194.4 36.2001 195 36.2001C195.6 36.2001 196.2 36.4001 196.7 36.6001C197 36.8001 197.2 37.0001 197.2 37.2001C197.2 37.4001 197 37.6001 196.7 37.8001C195.9 38.3001 194.3 38.3001 193.4 37.8001C193.1 37.6001 192.9 37.4001 192.9 37.2001C192.8 37.0001 193 36.7001 193.4 36.6001Z" fill="url(#paint10_linear)"/>
<path d="M27.7996 126.6C28.0996 126.3 28.1996 125.9 28.1996 125.6C28.1996 125 27.7996 124.4 27.0996 124C26.4996 123.6 25.6996 123.5 24.8996 123.5C24.0996 123.5 23.2996 123.7 22.6996 124C21.9996 124.4 21.5996 125 21.5996 125.6C21.5996 126.2 21.9996 126.8 22.6996 127.2C23.2996 127.6 24.0996 127.7 24.8996 127.7C25.5996 127.7 26.1996 127.6 26.6996 127.3L36.4996 133.1L54.3996 122.3C54.3996 122.3 54.3996 122.3 54.4996 122.3C55.0996 122.7 55.8996 122.8 56.6996 122.8C57.4996 122.8 58.2996 122.6 58.8996 122.3C59.5996 121.9 59.9996 121.3 59.9996 120.7C59.9996 120.1 59.5996 119.5 58.8996 119.1C58.2996 118.7 57.4996 118.6 56.6996 118.6C55.8996 118.6 55.0996 118.8 54.4996 119.1C53.7996 119.5 53.3996 120.1 53.3996 120.7C53.3996 121 53.4996 121.2 53.5996 121.5L36.5996 131.8L27.7996 126.6ZM23.1996 126.2C22.8996 126 22.6996 125.8 22.6996 125.6C22.6996 125.4 22.8996 125.2 23.1996 125C23.5996 124.8 24.1996 124.6 24.7996 124.6C25.3996 124.6 25.9996 124.8 26.4996 125C26.7996 125.2 26.9996 125.4 26.9996 125.6C26.9996 125.8 26.8996 125.9 26.6996 126.1H26.5996L26.4996 126.3C25.6996 126.7 24.0996 126.7 23.1996 126.2ZM54.9996 120.2C55.3996 120 55.9996 119.8 56.5996 119.8C57.1996 119.8 57.7996 120 58.2996 120.2C58.5996 120.4 58.7996 120.6 58.7996 120.8C58.7996 121 58.5996 121.2 58.2996 121.4C57.4996 121.9 55.8996 121.9 54.9996 121.4C54.6996 121.2 54.4996 121 54.4996 120.8C54.4996 120.6 54.6996 120.3 54.9996 120.2Z" fill="url(#paint11_linear)"/>
<path d="M18.2 70.7C18.8 71.1 19.6 71.2 20.4 71.2C21.1 71.2 21.7 71.1 22.2 70.8L50.4 87.3L43.7 91.2L68.9 106.1L77.2 101.4C77.7 101.6 78.4 101.8 79 101.8C79.8 101.8 80.6 101.6 81.2 101.3C81.9 100.9 82.3 100.3 82.3 99.7C82.3 99.1 81.9 98.5 81.2 98.1C80.6 97.7 79.8 97.6 79 97.6C78.2 97.6 77.4 97.8 76.8 98.1C76.1 98.5 75.7 99.1 75.7 99.7C75.7 100.1 75.9 100.5 76.1 100.8L68.9 105L45.8 91.4L52.5 87.5L23.1 70.2C23.4 69.9 23.5 69.5 23.5 69.1C23.5 68.5 23.1 67.9 22.4 67.5C21.8 67.1 21 67 20.2 67C19.4 67 18.6 67.2 18 67.5C17.4 68 17 68.5 17 69.2C17.1 69.7 17.5 70.3 18.2 70.7ZM77.3 99.1C77.7 98.9 78.3 98.7 79 98.7C79.6 98.7 80.2 98.8 80.6 99.1C80.9 99.3 81.1 99.5 81.1 99.7C81.1 99.9 80.9 100.1 80.6 100.3C79.8 100.8 78.2 100.8 77.3 100.3C77 100.1 76.8 99.9 76.8 99.7C76.8 99.6 77 99.3 77.3 99.1ZM18.7 68.4C19.1 68.2 19.7 68 20.4 68C21 68 21.6 68.1 22 68.4C22.3 68.6 22.5 68.8 22.5 69C22.5 69.2 22.4 69.4 22.1 69.5C22.1 69.5 22 69.6 21.9 69.6C21.1 70.1 19.5 70.1 18.6 69.6C18.3 69.4 18.1 69.2 18.1 69C18.2 68.9 18.4 68.6 18.7 68.4Z" fill="url(#paint12_linear)"/>
<path d="M78.1 21.0999C78.7 21.4999 79.5 21.5999 80.3 21.5999C80.8 21.5999 81.3 21.4999 81.7 21.3999L100.2 31.8999L83.5 41.1999L122.5 64.0999L123.1 63.0999L85.6 41.1999L102.4 31.8999L82.9 20.7999C83.3 20.3999 83.6 19.9999 83.6 19.4999C83.6 18.8999 83.2 18.2999 82.5 17.8999C81.9 17.4999 81.1 17.3999 80.3 17.3999C79.5 17.3999 78.7 17.5999 78.1 17.8999C77.4 18.2999 77 18.8999 77 19.4999C77 20.0999 77.4 20.6999 78.1 21.0999ZM78.7 18.7999C79.1 18.5999 79.7 18.3999 80.4 18.3999C81 18.3999 81.6 18.4999 82 18.7999C82.3 18.9999 82.5 19.1999 82.5 19.3999C82.5 19.5999 82.3 19.7999 82 19.9999C81.2 20.4999 79.6 20.4999 78.7 19.9999C78.4 19.7999 78.2 19.5999 78.2 19.3999C78.2 19.2999 78.3 18.9999 78.7 18.7999Z" fill="url(#paint13_linear)"/>
<path d="M35.6996 52.2C36.2996 52.6 37.0996 52.7 37.8996 52.7C38.4996 52.7 39.0996 52.6 39.5996 52.4L56.1996 62.2L50.0996 65.7L86.6996 87.1L87.2996 86.1L52.2996 65.6L58.3996 62.1L40.6996 51.8C40.9996 51.4 41.1996 51 41.1996 50.6C41.1996 50 40.7996 49.4 40.0996 49C39.4996 48.6 38.6996 48.5 37.8996 48.5C37.0996 48.5 36.2996 48.7 35.6996 49C34.9996 49.4 34.5996 50 34.5996 50.6C34.6996 51.3 34.9996 51.8 35.6996 52.2ZM36.2996 50C36.6996 49.8 37.2996 49.6 37.9996 49.6C38.5996 49.6 39.1996 49.7 39.5996 50C39.8996 50.2 40.0996 50.4 40.0996 50.6C40.0996 50.8 39.8996 51 39.5996 51.2C38.7996 51.7 37.1996 51.7 36.2996 51.2C35.9996 51 35.7996 50.8 35.7996 50.6C35.6996 50.4 35.8996 50.2 36.2996 50Z" fill="url(#paint14_linear)"/>
<path d="M227.9 92.9002C228.7 92.9002 229.5 92.7002 230.1 92.4002C230.8 92.0002 231.2 91.4002 231.2 90.8002C231.2 90.2002 230.8 89.6002 230.1 89.2002C229.5 88.8002 228.7 88.7002 227.9 88.7002C227.1 88.7002 226.3 88.9002 225.7 89.2002C225 89.6002 224.6 90.2002 224.6 90.8002C224.6 91.1002 224.7 91.4002 224.9 91.6002L200.4 105.7L200.5 105.9C199.9 105.6 199.1 105.4 198.3 105.4C197.5 105.4 196.7 105.6 196.1 105.9C195.4 106.3 195 106.9 195 107.5C195 108.1 195.4 108.7 196.1 109.1C196.7 109.5 197.5 109.6 198.3 109.6C199.1 109.6 199.9 109.4 200.5 109.1C201.2 108.7 201.6 108.1 201.6 107.5C201.6 107.1 201.5 106.8 201.2 106.5L225.7 92.4002C226.3 92.7002 227.1 92.9002 227.9 92.9002ZM226.2 90.1002C226.6 89.9002 227.2 89.7002 227.8 89.7002C228.4 89.7002 229 89.9002 229.5 90.1002C229.8 90.3002 230 90.5002 230 90.7002C230 90.9002 229.8 91.1002 229.5 91.3002C228.7 91.8002 227.1 91.8002 226.2 91.3002C225.9 91.1002 225.7 90.9002 225.7 90.7002C225.7 90.6002 225.9 90.3002 226.2 90.1002ZM200 108.1C199.2 108.6 197.6 108.6 196.7 108.1C196.4 107.9 196.2 107.7 196.2 107.5C196.2 107.3 196.4 107.1 196.7 106.9C197.1 106.7 197.7 106.5 198.3 106.5C198.9 106.5 199.5 106.7 200 106.9C200.3 107.1 200.5 107.3 200.5 107.5C200.5 107.7 200.3 107.9 200 108.1Z" fill="url(#paint15_linear)"/>
<path d="M181.6 60.8001C182.4 60.8001 183.2 60.6001 183.8 60.3001C184.5 59.9001 184.9 59.3001 184.9 58.7001C184.9 58.1001 184.5 57.5001 183.8 57.1001C183.2 56.7001 182.4 56.6001 181.6 56.6001C180.8 56.6001 180 56.8001 179.4 57.1001C178.7 57.5001 178.3 58.1001 178.3 58.7001C178.3 59.0001 178.4 59.3001 178.6 59.5001L173.8 62.4001L173.9 62.6001C173.3 62.3001 172.5 62.1001 171.7 62.1001C170.9 62.1001 170.1 62.3001 169.5 62.6001C168.8 63.0001 168.4 63.6001 168.4 64.2001C168.4 64.8001 168.8 65.4001 169.5 65.8001C170.1 66.2001 170.9 66.3001 171.7 66.3001C172.5 66.3001 173.3 66.1001 173.9 65.8001C174.6 65.4001 175 64.8001 175 64.2001C175 63.8001 174.9 63.5001 174.6 63.2001L179.4 60.3001C180 60.6001 180.8 60.8001 181.6 60.8001ZM179.9 58.0001C180.3 57.8001 180.9 57.6001 181.5 57.6001C182.1 57.6001 182.7 57.8001 183.2 58.0001C183.5 58.2001 183.7 58.4001 183.7 58.6001C183.7 58.8001 183.5 59.0001 183.2 59.2001C182.4 59.7001 180.8 59.7001 179.9 59.2001C179.6 59.0001 179.4 58.8001 179.4 58.6001C179.4 58.4001 179.6 58.2001 179.9 58.0001ZM173.4 64.8001C172.6 65.3001 171 65.3001 170.1 64.8001C169.8 64.6001 169.6 64.4001 169.6 64.2001C169.6 64.0001 169.8 63.8001 170.1 63.6001C170.5 63.4001 171.1 63.2001 171.7 63.2001C172.3 63.2001 172.9 63.4001 173.4 63.6001C173.7 63.8001 173.9 64.0001 173.9 64.2001C173.9 64.4001 173.7 64.6001 173.4 64.8001Z" fill="url(#paint16_linear)"/>
<path d="M76.0008 57.9002C76.8008 57.9002 77.6008 57.7002 78.2008 57.4002C78.9008 57.0002 79.3008 56.4002 79.3008 55.8002C79.3008 55.2002 78.9008 54.6002 78.2008 54.2002C77.6008 53.8002 76.8008 53.7002 76.0008 53.7002C75.2008 53.7002 74.4008 53.9002 73.8008 54.2002C73.1008 54.6002 72.7008 55.2002 72.7008 55.8002C72.7008 56.1002 72.8008 56.4002 73.0008 56.6002L68.2008 59.5002L68.3008 59.7002C67.7008 59.4002 66.9008 59.2002 66.1008 59.2002C65.3008 59.2002 64.5008 59.4002 63.9008 59.7002C63.2008 60.1002 62.8008 60.7002 62.8008 61.3002C62.8008 61.9002 63.2008 62.5002 63.9008 62.9002C64.5008 63.3002 65.3008 63.4002 66.1008 63.4002C66.9008 63.4002 67.7008 63.2002 68.3008 62.9002C69.0008 62.5002 69.4008 61.9002 69.4008 61.3002C69.4008 60.9002 69.3008 60.6002 69.0008 60.3002L73.8008 57.4002C74.4008 57.7002 75.2008 57.9002 76.0008 57.9002ZM74.3008 55.2002C74.7008 55.0002 75.3008 54.8002 75.9008 54.8002C76.5008 54.8002 77.1008 55.0002 77.6008 55.2002C77.9008 55.4002 78.1008 55.6002 78.1008 55.8002C78.1008 56.0002 77.9008 56.2002 77.6008 56.4002C76.8008 56.9002 75.2008 56.9002 74.3008 56.4002C74.0008 56.2002 73.8008 56.0002 73.8008 55.8002C73.8008 55.6002 74.0008 55.4002 74.3008 55.2002ZM67.8008 61.9002C67.0008 62.4002 65.4008 62.4002 64.5008 61.9002C64.2008 61.7002 64.0008 61.5002 64.0008 61.3002C64.0008 61.1002 64.2008 60.9002 64.5008 60.7002C64.9008 60.5002 65.5008 60.3002 66.1008 60.3002C66.7008 60.3002 67.3008 60.5002 67.8008 60.7002C68.1008 60.9002 68.3008 61.1002 68.3008 61.3002C68.3008 61.5002 68.1008 61.8002 67.8008 61.9002Z" fill="url(#paint17_linear)"/>
<path d="M107.001 80.3998L107.601 79.3998L77.9008 62.0998L88.8008 55.3998L64.0008 40.8998C64.2008 40.5998 64.4008 40.2998 64.4008 39.8998C64.4008 39.2998 64.0008 38.6998 63.3008 38.2998C62.7008 37.8998 61.9008 37.7998 61.1008 37.7998C60.3008 37.7998 59.5008 37.9998 58.9008 38.2998C58.2008 38.6998 57.8008 39.2998 57.8008 39.8998C57.8008 40.4998 58.2008 41.0998 58.9008 41.4998C59.5008 41.8998 60.3008 41.9998 61.1008 41.9998C61.8008 41.9998 62.5008 41.7998 63.1008 41.5998L86.8008 55.3998L75.9008 62.0998L107.001 80.3998ZM59.4008 40.4998C59.1008 40.2998 58.9008 40.0998 58.9008 39.8998C58.9008 39.6998 59.1008 39.4998 59.4008 39.2998C59.8008 39.0998 60.4008 38.8998 61.1008 38.8998C61.7008 38.8998 62.3008 38.9998 62.7008 39.2998C63.0008 39.4998 63.2008 39.6998 63.2008 39.8998C63.2008 40.0998 63.0008 40.2998 62.7008 40.4998C61.9008 40.9998 60.3008 40.9998 59.4008 40.4998Z" fill="url(#paint18_linear)"/>
<path d="M163.5 79.8999L164.1 80.7999L215.9 49.7999L215.8 49.5999C216.4 49.8999 217.1 50.0999 217.9 50.0999C218.7 50.0999 219.5 49.8999 220.1 49.5999C220.8 49.1999 221.2 48.5999 221.2 47.9999C221.2 47.3999 220.8 46.7999 220.1 46.3999C219.5 45.9999 218.7 45.8999 217.9 45.8999C217.1 45.8999 216.3 46.0999 215.7 46.3999C215 46.7999 214.6 47.3999 214.6 47.9999C214.6 48.3999 214.8 48.7999 215.1 49.0999L163.5 79.8999ZM216.2 47.3999C216.6 47.1999 217.2 46.9999 217.8 46.9999C218.4 46.9999 219 47.1999 219.5 47.3999C219.8 47.5999 220 47.7999 220 47.9999C220 48.1999 219.8 48.3999 219.5 48.5999C218.7 49.0999 217.1 49.0999 216.2 48.5999C215.9 48.3999 215.7 48.1999 215.7 47.9999C215.7 47.7999 215.8 47.5999 216.2 47.3999Z" fill="url(#paint19_linear)"/>
<g opacity="0.25">
<path opacity="0.1" d="M122.8 130.7C125.3 130.7 127.6 130.1 129.4 129.1L173.1 103.8C175.5 102.4 176.9 100.2 176.9 97.8C176.9 95.1 175.3 92.6 172.3 91L132.7 68C130.4 66.7 127.6 66 124.7 66C122.2 66 119.9 66.6 118.1 67.6L74.3996 92.8C71.9996 94.2 70.5996 96.4 70.5996 98.8C70.5996 101.5 72.1996 104 75.1996 105.6L114.8 128.5C117.1 129.9 119.9 130.7 122.8 130.7Z" fill="url(#paint20_linear)"/>
<path opacity="0.1818" d="M118.4 67.7001L75.7995 92.4001C73.5995 93.7001 71.9995 95.9001 71.8995 98.1001C71.7995 100.7 73.1995 103.1 76.0995 104.8L115.2 127.4C117.4 128.7 120.2 129.4 123 129.4C124.7 129.4 126.3 129.1 127.7 128.6C128.3 128.4 128.9 128.1 129.4 127.8L172 103.1C174.2 101.8 175.8 99.6001 175.8 97.4001C175.9 94.8001 174.5 92.4001 171.6 90.7001L132.7 68.2001C131.9 67.7001 130.8 67.2001 129.8 66.9001C128.2 66.4001 126.6 66.1001 124.8 66.1001C122.5 66.2001 120.2 66.7001 118.4 67.7001Z" fill="url(#paint21_linear)"/>
<path opacity="0.2636" d="M118.799 67.8999L77.1991 91.9999C75.1991 93.0999 73.3991 95.3999 73.1991 97.3999C72.9991 99.7999 74.1991 102.3 76.9991 104L115.499 126.2C117.699 127.4 120.399 128.1 123.099 128.1C124.799 128.1 126.299 127.8 127.699 127.3C128.199 127.1 128.899 126.8 129.299 126.5L170.699 102.5C172.699 101.4 174.499 99.0999 174.599 97.0999C174.799 94.5999 173.599 92.1999 170.799 90.4999L132.699 68.4999C131.999 68.0999 130.699 67.4999 129.899 67.1999C128.399 66.6999 126.699 66.3999 125.099 66.3999C122.799 66.3999 120.499 66.8999 118.799 67.8999Z" fill="url(#paint22_linear)"/>
<path opacity="0.3455" d="M119.2 68.1002L78.5997 91.6002C76.7997 92.6002 74.7997 95.0002 74.5997 96.7002C74.2997 99.1002 75.1997 101.5 78.0997 103.1L116 125C118.1 126.2 120.8 126.8 123.4 126.8C125 126.8 126.5 126.5 127.8 126C128.2 125.8 129 125.4 129.4 125.2L169.7 102C171.5 101 173.5 98.6002 173.7 96.9002C174 94.5002 173.1 92.1002 170.2 90.5002L132.8 68.9002C132.2 68.5002 130.8 67.9002 130 67.6002C128.5 67.1002 126.9 66.8002 125.3 66.7002C123.1 66.7002 120.8 67.1002 119.2 68.1002Z" fill="url(#paint23_linear)"/>
<path opacity="0.4273" d="M119.499 68.2999L79.9991 91.0999C78.4991 91.9999 75.8991 94.3999 75.8991 95.8999C75.0991 98.0999 76.1991 100.5 78.9991 102.1L116.399 123.7C118.399 124.9 120.999 125.5 123.599 125.5C125.199 125.5 126.599 125.2 127.899 124.7C128.299 124.5 129.099 124.1 129.499 123.9L168.599 101.2C170.099 100.3 172.699 97.9999 172.699 96.3999C173.499 94.1999 172.399 91.7999 169.599 90.1999L132.999 69.0999C132.399 68.7999 130.999 68.0999 130.299 67.7999C128.899 67.2999 127.299 66.8999 125.699 66.8999C123.299 66.8999 121.199 67.2999 119.499 68.2999Z" fill="url(#paint24_linear)"/>
<path opacity="0.5091" d="M119.9 68.5001L81.4005 90.7001C80.1005 91.5001 77.2005 93.9001 77.2005 95.2001C76.2005 97.3001 77.2005 99.7001 80.0005 101.3L116.8 122.6C118.8 123.8 121.3 124.3 123.8 124.3C125.3 124.3 126.8 123.9 128 123.5C128.3 123.4 129.2 122.9 129.5 122.7L167.5 100.7C168.8 99.9001 171.7 97.5001 171.7 96.2001C172.7 94.1001 171.7 91.7001 168.9 90.1001L133.1 69.4001C132.6 69.1001 131.1 68.3001 130.5 68.1001C129.1 67.6001 127.6 67.2001 126 67.1001C123.7 67.1001 121.5 67.5001 119.9 68.5001Z" fill="url(#paint25_linear)"/>
<path opacity="0.5909" d="M120.2 68.5998L82.8001 90.2998C81.7001 90.8998 78.5001 93.3998 78.5001 94.4998C77.2001 96.4998 78.1001 98.8998 80.9001 100.5L117.2 121.4C119.1 122.5 121.6 123.1 124 123C125.5 123 126.8 122.6 128 122.2C128.3 122.1 129.2 121.6 129.4 121.5L166.2 100.2C167.3 99.5998 170.4 97.0998 170.4 95.9998C171.7 93.9998 170.8 91.5998 168 89.9998L132.9 69.6998C132.5 69.4998 130.8 68.5998 130.4 68.3998C129 67.8998 127.6 67.4998 126 67.3998C123.9 67.2998 121.8 67.6998 120.2 68.5998Z" fill="url(#paint26_linear)"/>
<path opacity="0.6727" d="M120.599 68.7999L84.1991 89.8999C83.2991 90.3999 79.7991 92.8999 79.7991 93.7999C78.2991 95.5999 79.0991 97.9999 81.8991 99.5999L117.599 120.2C119.499 121.3 121.899 121.8 124.199 121.8C125.599 121.8 126.999 121.4 128.099 121C128.299 120.9 129.299 120.4 129.499 120.3L165.199 99.5999C166.099 99.0999 169.499 96.5999 169.499 95.6999C170.999 93.8999 170.199 91.4999 167.399 89.8999L133.099 69.9999C132.799 69.7999 130.999 68.8999 130.599 68.6999C129.299 68.1999 127.799 67.6999 126.299 67.6999C124.199 67.4999 122.099 67.8999 120.599 68.7999Z" fill="url(#paint27_linear)"/>
<path opacity="0.7545" d="M120.999 68.9998L85.5995 89.3998C84.9995 89.7998 81.0995 92.3998 81.0995 92.9998C79.3995 94.6998 80.0995 97.0998 82.7995 98.6998L117.999 119C119.799 120 122.199 120.6 124.399 120.5C125.799 120.5 127.099 120.1 128.199 119.6C128.399 119.5 129.399 119 129.499 118.9L164.099 98.8998C164.699 98.4998 168.499 95.9998 168.499 95.2998C170.199 93.5998 169.499 91.1998 166.799 89.5998L133.199 70.1998C132.999 69.9998 131.099 68.9998 130.799 68.8998C129.499 68.3998 128.099 67.8998 126.599 67.7998C124.499 67.7998 122.499 68.0998 120.999 68.9998Z" fill="url(#paint28_linear)"/>
<path opacity="0.8364" d="M121.3 69.1001L87 89.0001C86.6 89.2001 82.4 91.9001 82.4 92.4001C80.5 94.0001 81 96.4001 83.8 97.9001L118.4 117.9C120.2 118.9 122.4 119.4 124.6 119.3C126 119.3 127.2 118.9 128.2 118.4C128.3 118.4 129.4 117.8 129.5 117.7L163 98.3001C163.4 98.1001 167.4 95.5001 167.4 95.0001C169.3 93.4001 168.8 91.0001 166 89.5001L133.2 70.6001C133 70.5001 131 69.4001 130.9 69.3001C129.7 68.8001 128.3 68.3001 126.9 68.2001C124.8 68.0001 122.8 68.3001 121.3 69.1001Z" fill="url(#paint29_linear)"/>
<path opacity="0.9182" d="M121.699 69.2998L88.3991 88.5998C88.1991 88.6998 83.7991 91.3998 83.7991 91.5998C81.6991 93.0998 82.0991 95.3998 84.7991 96.9998L118.899 116.7C120.599 117.7 122.799 118.1 124.899 118C126.199 117.9 127.399 117.6 128.399 117.1L129.599 116.4L161.899 97.6998C162.099 97.5998 166.399 94.8998 166.399 94.6998C168.499 93.1998 168.099 90.8998 165.399 89.2998L133.299 70.7998C133.199 70.7998 131.099 69.5998 130.999 69.4998C129.799 68.9998 128.399 68.4998 126.999 68.2998C125.099 68.1998 123.099 68.4998 121.699 69.2998Z" fill="url(#paint30_linear)"/>
<path opacity="0.2" d="M128.4 115.9L165.3 94.5002C167.6 93.1002 167.3 90.8002 164.7 89.3002L131.2 70.0002C128.5 68.4002 124.4 68.3002 122.1 69.6002L85.0998 90.9002C82.7998 92.3002 83.0998 94.6002 85.6998 96.1002L119.2 115.4C122 117 126.1 117.2 128.4 115.9Z" fill="url(#paint31_linear)"/>
</g>
<path d="M174.7 84.2999H173.7C173.2 83.6999 172.5 83.0999 171.6 82.4999L132.5 59.9999C127.9 57.2999 119.8 57.6999 114.4 60.7999L78.3004 81.5999C76.9004 82.3999 75.8004 83.3999 75.1004 84.2999H73.9004V87.3999C74.1004 88.9999 75.1004 90.3999 77.0004 91.4999L116 114.1C120.6 116.8 128.7 116.4 134.1 113.3L170.3 92.3999C172.8 90.8999 174.3 89.0999 174.6 87.2999H174.7V84.2999Z" fill="#453C9E"/>
<path d="M116.101 111.7L77.0009 89.2002C72.4009 86.5002 73.0009 81.9002 78.3009 78.8002L114.501 57.9002C119.801 54.8002 127.901 54.5002 132.601 57.1002L171.701 79.6002C176.301 82.3002 175.701 86.9002 170.401 90.0002L134.201 110.9C128.801 114 120.701 114.4 116.101 111.7Z" fill="#453C9E"/>
<path opacity="0.4" d="M173.5 78.9002H172.5C172 78.3002 171.3 77.7002 170.4 77.2002L132.2 55.1002C127.7 52.5002 119.8 52.8002 114.6 55.8002L79.4 76.3002C78 77.1002 76.9 78.0002 76.2 79.0002H75V84.5002C75.2 86.0002 76.1 87.4002 78 88.6002L116.2 110.7C120.7 113.3 128.6 113 133.8 110L169.1 89.6002C171.6 88.2002 173 86.4002 173.3 84.6002H173.4L173.5 78.9002Z" fill="#4296EA"/>
<path opacity="0.5" d="M174.601 76.1002H173.601C173.101 75.5002 172.401 74.9002 171.501 74.3002L132.401 51.8002C127.801 49.1002 119.701 49.5002 114.301 52.6002L78.2008 73.5002C76.8008 74.3002 75.7008 75.3002 75.0008 76.2002H73.8008V81.4002C74.0008 83.0002 75.0008 84.4002 76.9008 85.5002L116.001 108.1C120.601 110.8 128.701 110.4 134.101 107.3L170.301 86.4002C172.801 84.9002 174.301 83.1002 174.601 81.3002H174.701L174.601 76.1002Z" fill="url(#paint32_linear)"/>
<path d="M116.001 103.6L77.0009 81C72.4009 78.3 73.0009 73.7 78.3009 70.6L114.501 49.7C119.801 46.6 127.901 46.3 132.601 48.9L171.701 71.4C176.301 74.1 175.701 78.7 170.401 81.8L134.201 102.7C128.701 105.9 120.601 106.2 116.001 103.6Z" fill="url(#paint33_linear)"/>
<path d="M123.9 103.6C121.2 103.6 118.7 103 116.9 102L77.7996 79.4999C76.7996 78.8999 75.5996 77.8999 75.5996 76.4999C75.5996 75.0999 76.8996 73.3999 79.0996 72.0999L115.3 51.1999C117.9 49.6999 121.3 48.8999 124.6 48.8999C127.3 48.8999 129.8 49.4999 131.6 50.4999L170.7 72.9999C171.7 73.5999 172.9 74.5999 172.9 75.9999C172.9 77.3999 171.6 79.0999 169.4 80.3999L133.2 101.3C130.7 102.8 127.3 103.6 123.9 103.6Z" fill="#453C9E"/>
<path d="M117.9 97.3999L87.6004 79.8999C84.0004 77.7999 84.5004 74.1999 88.6004 71.7999L116.6 55.5999C120.7 53.1999 127 52.9999 130.6 54.9999L160.9 72.4999C164.5 74.5999 164 78.1999 159.9 80.5999L131.9 96.7999C127.7 99.1999 121.5 99.4999 117.9 97.3999Z" fill="url(#paint34_linear)"/>
<path d="M170.199 81.1998L134.099 102C128.799 105.1 120.699 105.4 115.999 102.8L76.9994 80.1998C75.1994 79.0998 74.1994 77.6998 73.8994 76.1998C73.5994 78.0998 74.5994 79.9998 76.9994 81.3998L115.999 104C120.599 106.7 128.699 106.3 134.099 103.2L170.299 82.2998C173.499 80.4998 174.999 78.0998 174.699 75.7998C174.299 77.6998 172.899 79.5998 170.199 81.1998Z" fill="url(#paint35_linear)"/>
<path d="M162.4 92.5999L165.3 90.8999L170 93.6999C170.4 93.8999 170.5 94.2999 170.4 94.6999L169.8 99.7999L168 96.1999C167.6 95.7999 167.2 95.3999 166.8 95.0999L162.4 92.5999Z" fill="url(#paint36_linear)"/>
<path d="M168.3 95.9999C167.9 95.5999 167.5 95.1999 167.1 94.8999L162.8 92.3999L162.4 92.5999L166.8 95.1999C167.3 95.4999 167.7 95.7999 168 96.2999L169.8 99.8999V99.7999L168.3 95.9999Z" fill="url(#paint37_radial)"/>
<path d="M151.199 99.0999L154.099 97.3999L158.799 100.2C159.199 100.4 159.299 100.8 159.199 101.2L158.599 106.3L156.799 102.7C156.399 102.3 155.999 101.9 155.599 101.6L151.199 99.0999Z" fill="url(#paint38_linear)"/>
<path d="M157.099 102.4C156.699 102 156.299 101.6 155.899 101.3L151.599 98.7998L151.199 98.9998L155.599 101.6C156.099 101.9 156.499 102.2 156.799 102.7L158.599 106.3V106.2L157.099 102.4Z" fill="url(#paint39_radial)"/>
<path d="M140 105.5L142.9 103.8L147.6 106.6C148 106.8 148.1 107.2 148 107.6L147.4 112.7L145.6 109.1C145.2 108.7 144.8 108.3 144.4 108L140 105.5Z" fill="url(#paint40_linear)"/>
<path d="M145.9 108.9C145.5 108.5 145.1 108.1 144.7 107.8L140.4 105.3L140 105.5L144.4 108.1C144.9 108.4 145.3 108.7 145.6 109.2L147.4 112.8V112.7L145.9 108.9Z" fill="url(#paint41_radial)"/>
<path d="M128.699 112L131.599 110.3L136.299 113.1C136.699 113.3 136.799 113.7 136.699 114.1L136.099 119.2L134.299 115.6C133.899 115.2 133.499 114.8 133.099 114.5L128.699 112Z" fill="url(#paint42_linear)"/>
<path d="M134.701 115.4C134.301 115 133.901 114.6 133.501 114.3L129.201 111.8L128.801 112L133.201 114.6C133.701 114.9 134.101 115.2 134.401 115.7L136.201 119.3V119.2L134.701 115.4Z" fill="url(#paint43_linear)"/>
<path d="M86.2997 92.5999L83.3997 90.8999L78.6997 93.6999C78.2997 93.8999 78.1997 94.2999 78.2997 94.6999L78.8997 99.7999L80.6997 96.1999C81.0997 95.7999 81.4997 95.3999 81.8997 95.0999L86.2997 92.5999Z" fill="#9085C2"/>
<path d="M80.4004 95.9999C80.8004 95.5999 81.2004 95.1999 81.6004 94.8999L85.9004 92.3999L86.3004 92.5999L81.9004 95.1999C81.4004 95.4999 81.0004 95.7999 80.7004 96.2999L78.9004 99.8999V99.7999L80.4004 95.9999Z" fill="url(#paint44_linear)"/>
<path d="M97.5009 99.0999L94.6009 97.3999L89.9009 100.2C89.5009 100.4 89.4009 100.8 89.5009 101.2L90.1009 106.3L91.9009 102.7C92.3009 102.3 92.7009 101.9 93.1009 101.6L97.5009 99.0999Z" fill="url(#paint45_linear)"/>
<path d="M91.6 102.4C92 102 92.4 101.6 92.8 101.3L97.1 98.7998L97.5 98.9998L93 101.6C92.5 101.9 92.1 102.2 91.8 102.7L90 106.3V106.2L91.6 102.4Z" fill="url(#paint46_radial)"/>
<path d="M108.7 105.5L105.8 103.8L101.1 106.6C100.7 106.8 100.6 107.2 100.7 107.6L101.3 112.7L103.1 109.1C103.5 108.7 103.9 108.3 104.3 108L108.7 105.5Z" fill="url(#paint47_linear)"/>
<path d="M102.801 108.9C103.201 108.5 103.601 108.1 104.001 107.8L108.301 105.3L108.701 105.5L104.301 108.1C103.801 108.4 103.401 108.7 103.101 109.2L101.301 112.8V112.7L102.801 108.9Z" fill="url(#paint48_radial)"/>
<path d="M119.8 112L116.9 110.3L112.2 113.1C111.8 113.3 111.7 113.7 111.8 114.1L112.4 119.2L114.2 115.6C114.6 115.2 115 114.8 115.4 114.5L119.8 112Z" fill="#8A80BE"/>
<path d="M113.9 115.4C114.3 115 114.7 114.6 115.1 114.3L119.4 111.8L119.8 112L115.4 114.6C114.9 114.9 114.5 115.2 114.2 115.7L112.4 119.3V119.2L113.9 115.4Z" fill="url(#paint49_linear)"/>
<path d="M111.4 83.4999L111.6 86.0999C111.6 86.0999 113.8 81.1999 113.9 80.9999C114 80.7999 113.7 78.3999 113.7 78.3999L111.4 83.4999Z" fill="url(#paint50_linear)"/>
<path d="M109.5 76.2998L113.7 78.2998L111.4 83.3998H111.5L120 81.2998L124.2 83.2998L109.2 86.6998L106 85.2998L109.5 76.2998Z" fill="url(#paint51_linear)"/>
<path d="M109.199 86.9L109.399 89.5L124.399 86.1L124.199 83.5L109.199 86.9Z" fill="#453C9E"/>
<path d="M109.2 86.8998L106 85.2998L106.2 87.8998L109.3 89.3998L109.2 86.8998Z" fill="#453C9E"/>
<path d="M141.799 77.4001L139.099 79.3001L111.199 74.0001L114.099 72.1001L141.799 77.4001Z" fill="url(#paint52_linear)"/>
<path d="M139 79.2999L139.2 81.8999L142 79.9999L141.8 77.3999L139 79.2999Z" fill="#453C9E"/>
<path d="M111.401 76.6L111.301 74L139.101 79.3L139.301 81.9L111.401 76.6Z" fill="url(#paint53_linear)"/>
<path d="M137.7 68.4999L137.5 65.8999L129 67.9999L129.2 70.5999L137.7 68.4999Z" fill="url(#paint54_linear)"/>
<path d="M137.401 65.9001L129.001 68.0001L124.801 66.0001L139.701 62.6001L142.901 64.1001L139.401 73.1001L135.201 71.1001L137.401 65.9001Z" fill="url(#paint55_linear)"/>
<path d="M143.1 66.7001L142.9 64.1001L139.4 73.1001L139.6 75.7001L143.1 66.7001Z" fill="#453C9E"/>
<path d="M139.599 75.7001L135.399 73.7001L135.199 71.1001L139.399 73.1001" fill="#453C9E"/>
<path d="M125.001 68.4999L124.801 65.8999L129.001 67.8999L129.201 70.4999L125.001 68.4999Z" fill="#453C9E"/>
</g>
<defs>
<linearGradient id="paint0_linear" x1="94.9952" y1="172.574" x2="122.055" y2="121.656" gradientUnits="userSpaceOnUse">
<stop stop-color="#9F19AB"/>
<stop offset="0.0300926" stop-color="#6B22AC"/>
<stop offset="0.5913" stop-color="#4427BD"/>
<stop offset="0.904" stop-color="#26297D"/>
</linearGradient>
<linearGradient id="paint1_linear" x1="148.939" y1="155.034" x2="132.964" y2="117.47" gradientUnits="userSpaceOnUse">
<stop stop-color="#9F19AB"/>
<stop offset="0.0300926" stop-color="#6B22AC"/>
<stop offset="0.5913" stop-color="#4427BD"/>
<stop offset="0.904" stop-color="#26297D"/>
</linearGradient>
<linearGradient id="paint2_linear" x1="185.027" y1="140.368" x2="146.78" y2="109.116" gradientUnits="userSpaceOnUse">
<stop stop-color="#9F19AB"/>
<stop offset="0.0300926" stop-color="#6B22AC"/>
<stop offset="0.5913" stop-color="#4427BD"/>
<stop offset="0.904" stop-color="#26297D"/>
</linearGradient>
<linearGradient id="paint3_linear" x1="185.9" y1="83.2435" x2="213.293" y2="83.2435" gradientUnits="userSpaceOnUse">
<stop stop-color="#9F19AB"/>
<stop offset="0.0300926" stop-color="#6B22AC"/>
<stop offset="0.5913" stop-color="#4427BD"/>
<stop offset="0.904" stop-color="#26297D"/>
</linearGradient>
<linearGradient id="paint4_linear" x1="34.404" y1="112.49" x2="93.4772" y2="112.49" gradientUnits="userSpaceOnUse">
<stop stop-color="#9F19AB"/>
<stop offset="0.0300926" stop-color="#6B22AC"/>
<stop offset="0.5913" stop-color="#4427BD"/>
<stop offset="0.904" stop-color="#26297D"/>
</linearGradient>
<linearGradient id="paint5_linear" x1="212.933" y1="125.012" x2="155.017" y2="109.932" gradientUnits="userSpaceOnUse">
<stop stop-color="#9F19AB"/>
<stop offset="0.0300926" stop-color="#6B22AC"/>
<stop offset="0.5913" stop-color="#4427BD"/>
<stop offset="0.904" stop-color="#26297D"/>
</linearGradient>
<linearGradient id="paint6_linear" x1="69.5059" y1="126.97" x2="104.579" y2="126.97" gradientUnits="userSpaceOnUse">
<stop stop-color="#9F19AB"/>
<stop offset="0.0300926" stop-color="#6B22AC"/>
<stop offset="0.5913" stop-color="#4427BD"/>
<stop offset="0.904" stop-color="#26297D"/>
</linearGradient>
<linearGradient id="paint7_linear" x1="91.6012" y1="24.4804" x2="146.75" y2="24.4804" gradientUnits="userSpaceOnUse">
<stop stop-color="#9F19AB"/>
<stop offset="0.0300926" stop-color="#6B22AC"/>
<stop offset="0.5913" stop-color="#4427BD"/>
<stop offset="0.904" stop-color="#26297D"/>
</linearGradient>
<linearGradient id="paint8_linear" x1="168.448" y1="24.6983" x2="153.878" y2="57.918" gradientUnits="userSpaceOnUse">
<stop stop-color="#9F19AB"/>
<stop offset="0.0300926" stop-color="#6B22AC"/>
<stop offset="0.5913" stop-color="#4427BD"/>
<stop offset="0.904" stop-color="#26297D"/>
</linearGradient>
<linearGradient id="paint9_linear" x1="200.612" y1="100.376" x2="170.307" y2="103.581" gradientUnits="userSpaceOnUse">
<stop stop-color="#9F19AB"/>
<stop offset="0.0300926" stop-color="#6B22AC"/>
<stop offset="0.5913" stop-color="#4427BD"/>
<stop offset="0.904" stop-color="#26297D"/>
</linearGradient>
<linearGradient id="paint10_linear" x1="159.924" y1="42.3321" x2="198.251" y2="42.3321" gradientUnits="userSpaceOnUse">
<stop stop-color="#9F19AB"/>
<stop offset="0.0300926" stop-color="#6B22AC"/>
<stop offset="0.5913" stop-color="#4427BD"/>
<stop offset="0.904" stop-color="#26297D"/>
</linearGradient>
<linearGradient id="paint11_linear" x1="21.5855" y1="125.901" x2="59.913" y2="125.901" gradientUnits="userSpaceOnUse">
<stop stop-color="#9F19AB"/>
<stop offset="0.0300926" stop-color="#6B22AC"/>
<stop offset="0.5913" stop-color="#4427BD"/>
<stop offset="0.904" stop-color="#26297D"/>
</linearGradient>
<linearGradient id="paint12_linear" x1="17.0909" y1="86.6397" x2="82.239" y2="86.6397" gradientUnits="userSpaceOnUse">
<stop stop-color="#9F19AB"/>
<stop offset="0.0300926" stop-color="#6B22AC"/>
<stop offset="0.5913" stop-color="#4427BD"/>
<stop offset="0.904" stop-color="#26297D"/>
</linearGradient>
<linearGradient id="paint13_linear" x1="77.0332" y1="40.7421" x2="123.001" y2="40.7421" gradientUnits="userSpaceOnUse">
<stop stop-color="#9F19AB"/>
<stop offset="0.0300926" stop-color="#6B22AC"/>
<stop offset="0.5913" stop-color="#4427BD"/>
<stop offset="0.904" stop-color="#26297D"/>
</linearGradient>
<linearGradient id="paint14_linear" x1="34.6597" y1="67.836" x2="87.285" y2="67.836" gradientUnits="userSpaceOnUse">
<stop stop-color="#9F19AB"/>
<stop offset="0.0300926" stop-color="#6B22AC"/>
<stop offset="0.5913" stop-color="#4427BD"/>
<stop offset="0.904" stop-color="#26297D"/>
</linearGradient>
<linearGradient id="paint15_linear" x1="195.022" y1="99.0941" x2="231.186" y2="99.0941" gradientUnits="userSpaceOnUse">
<stop stop-color="#9F19AB"/>
<stop offset="0.0300926" stop-color="#6B22AC"/>
<stop offset="0.5913" stop-color="#4427BD"/>
<stop offset="0.904" stop-color="#26297D"/>
</linearGradient>
<linearGradient id="paint16_linear" x1="168.395" y1="61.3856" x2="184.855" y2="61.3856" gradientUnits="userSpaceOnUse">
<stop stop-color="#9F19AB"/>
<stop offset="0.0300926" stop-color="#6B22AC"/>
<stop offset="0.5913" stop-color="#4427BD"/>
<stop offset="0.904" stop-color="#26297D"/>
</linearGradient>
<linearGradient id="paint17_linear" x1="62.8035" y1="58.563" x2="79.2639" y2="58.563" gradientUnits="userSpaceOnUse">
<stop stop-color="#9F19AB"/>
<stop offset="0.0300926" stop-color="#6B22AC"/>
<stop offset="0.5913" stop-color="#4427BD"/>
<stop offset="0.904" stop-color="#26297D"/>
</linearGradient>
<linearGradient id="paint18_linear" x1="57.8113" y1="59.1043" x2="107.553" y2="59.1043" gradientUnits="userSpaceOnUse">
<stop stop-color="#9F19AB"/>
<stop offset="0.0300926" stop-color="#6B22AC"/>
<stop offset="0.5913" stop-color="#4427BD"/>
<stop offset="0.904" stop-color="#26297D"/>
</linearGradient>
<linearGradient id="paint19_linear" x1="219.31" y1="47.205" x2="167.44" y2="78.0937" gradientUnits="userSpaceOnUse">
<stop stop-color="#9F19AB"/>
<stop offset="0.0300926" stop-color="#6B22AC"/>
<stop offset="0.5913" stop-color="#4427BD"/>
<stop offset="0.904" stop-color="#26297D"/>
</linearGradient>
<linearGradient id="paint20_linear" x1="70.5875" y1="98.2924" x2="176.92" y2="98.2924" gradientUnits="userSpaceOnUse">
<stop stop-color="#9F19AB"/>
<stop offset="0.0300926" stop-color="#6B22AC"/>
<stop offset="0.5913" stop-color="#4427BD"/>
<stop offset="0.904" stop-color="#26297D"/>
</linearGradient>
<linearGradient id="paint21_linear" x1="71.8999" y1="97.7723" x2="175.842" y2="97.7723" gradientUnits="userSpaceOnUse">
<stop stop-color="#9F19AB"/>
<stop offset="0.0300926" stop-color="#6B22AC"/>
<stop offset="0.5913" stop-color="#4427BD"/>
<stop offset="0.904" stop-color="#26297D"/>
</linearGradient>
<linearGradient id="paint22_linear" x1="73.208" y1="97.2323" x2="174.776" y2="97.2323" gradientUnits="userSpaceOnUse">
<stop stop-color="#9F19AB"/>
<stop offset="0.0300926" stop-color="#6B22AC"/>
<stop offset="0.5913" stop-color="#4427BD"/>
<stop offset="0.904" stop-color="#26297D"/>
</linearGradient>
<linearGradient id="paint23_linear" x1="74.4919" y1="96.7695" x2="173.813" y2="96.7695" gradientUnits="userSpaceOnUse">
<stop stop-color="#9F19AB"/>
<stop offset="0.0300926" stop-color="#6B22AC"/>
<stop offset="0.5913" stop-color="#4427BD"/>
<stop offset="0.904" stop-color="#26297D"/>
</linearGradient>
<linearGradient id="paint24_linear" x1="75.6417" y1="96.2299" x2="172.938" y2="96.2299" gradientUnits="userSpaceOnUse">
<stop stop-color="#9F19AB"/>
<stop offset="0.0300926" stop-color="#6B22AC"/>
<stop offset="0.5913" stop-color="#4427BD"/>
<stop offset="0.904" stop-color="#26297D"/>
</linearGradient>
<linearGradient id="paint25_linear" x1="76.7525" y1="95.7464" x2="171.954" y2="95.7464" gradientUnits="userSpaceOnUse">
<stop stop-color="#9F19AB"/>
<stop offset="0.0300926" stop-color="#6B22AC"/>
<stop offset="0.5913" stop-color="#4427BD"/>
<stop offset="0.904" stop-color="#26297D"/>
</linearGradient>
<linearGradient id="paint26_linear" x1="77.9454" y1="95.2275" x2="171.155" y2="95.2275" gradientUnits="userSpaceOnUse">
<stop stop-color="#9F19AB"/>
<stop offset="0.0300926" stop-color="#6B22AC"/>
<stop offset="0.5913" stop-color="#4427BD"/>
<stop offset="0.904" stop-color="#26297D"/>
</linearGradient>
<linearGradient id="paint27_linear" x1="79.1046" y1="94.7519" x2="170.241" y2="94.7519" gradientUnits="userSpaceOnUse">
<stop stop-color="#9F19AB"/>
<stop offset="0.0300926" stop-color="#6B22AC"/>
<stop offset="0.5913" stop-color="#4427BD"/>
<stop offset="0.904" stop-color="#26297D"/>
</linearGradient>
<linearGradient id="paint28_linear" x1="80.2358" y1="94.2004" x2="169.431" y2="94.2004" gradientUnits="userSpaceOnUse">
<stop stop-color="#9F19AB"/>
<stop offset="0.0300926" stop-color="#6B22AC"/>
<stop offset="0.5913" stop-color="#4427BD"/>
<stop offset="0.904" stop-color="#26297D"/>
</linearGradient>
<linearGradient id="paint29_linear" x1="81.3457" y1="93.6799" x2="168.602" y2="93.6799" gradientUnits="userSpaceOnUse">
<stop stop-color="#9F19AB"/>
<stop offset="0.0300926" stop-color="#6B22AC"/>
<stop offset="0.5913" stop-color="#4427BD"/>
<stop offset="0.904" stop-color="#26297D"/>
</linearGradient>
<linearGradient id="paint30_linear" x1="82.4483" y1="93.1866" x2="167.78" y2="93.1866" gradientUnits="userSpaceOnUse">
<stop stop-color="#9F19AB"/>
<stop offset="0.0300926" stop-color="#6B22AC"/>
<stop offset="0.5913" stop-color="#4427BD"/>
<stop offset="0.904" stop-color="#26297D"/>
</linearGradient>
<linearGradient id="paint31_linear" x1="83.5506" y1="92.6916" x2="166.876" y2="92.6916" gradientUnits="userSpaceOnUse">
<stop stop-color="#9F19AB"/>
<stop offset="0.0300926" stop-color="#6B22AC"/>
<stop offset="0.5913" stop-color="#4427BD"/>
<stop offset="0.904" stop-color="#26297D"/>
</linearGradient>
<linearGradient id="paint32_linear" x1="73.7527" y1="79.97" x2="174.638" y2="79.97" gradientUnits="userSpaceOnUse">
<stop stop-color="#4613FF"/>
<stop offset="1" stop-color="#FFF6FF"/>
</linearGradient>
<linearGradient id="paint33_linear" x1="138.578" y1="39.3125" x2="97.094" y2="146.398" gradientUnits="userSpaceOnUse">
<stop stop-color="#9F79C8"/>
<stop offset="0.1367" stop-color="#A580CB"/>
<stop offset="0.3288" stop-color="#B492D3"/>
<stop offset="0.5529" stop-color="#CDB0E1"/>
<stop offset="0.5808" stop-color="#D1B4E3"/>
<stop offset="0.7644" stop-color="#DBC4E9"/>
<stop offset="1" stop-color="#EBDEF3"/>
</linearGradient>
<linearGradient id="paint34_linear" x1="139.103" y1="37.8866" x2="106.972" y2="120.828" gradientUnits="userSpaceOnUse">
<stop stop-color="#25054D"/>
<stop offset="1" stop-color="#45108A"/>
</linearGradient>
<linearGradient id="paint35_linear" x1="73.8256" y1="90.8238" x2="174.679" y2="90.8238" gradientUnits="userSpaceOnUse">
<stop offset="0.0353535" stop-color="#B086CC"/>
<stop offset="0.2121" stop-color="#C1A1D5"/>
<stop offset="0.2864" stop-color="#C8ABDA"/>
<stop offset="0.4129" stop-color="#DBC6E7"/>
<stop offset="0.5051" stop-color="#EBDEF3"/>
<stop offset="0.5628" stop-color="#E4D2EE"/>
<stop offset="0.6936" stop-color="#D6BCE6"/>
<stop offset="0.7778" stop-color="#D1B4E3"/>
<stop offset="0.7841" stop-color="#CFB2E2"/>
<stop offset="0.8642" stop-color="#BE9AD6"/>
<stop offset="0.9383" stop-color="#B48BCF"/>
<stop offset="1" stop-color="#B086CC"/>
</linearGradient>
<linearGradient id="paint36_linear" x1="165.182" y1="91.4404" x2="170.814" y2="100.537" gradientUnits="userSpaceOnUse">
<stop stop-color="#998FC8"/>
<stop offset="0.5528" stop-color="#7E73B6"/>
<stop offset="1" stop-color="#6053A2"/>
</linearGradient>
<radialGradient id="paint37_radial" cx="0" cy="0" r="1" gradientUnits="userSpaceOnUse" gradientTransform="translate(166.128 96.3726) scale(3.73461)">
<stop stop-color="white"/>
<stop offset="1"/>
</radialGradient>
<linearGradient id="paint38_linear" x1="153.98" y1="97.912" x2="159.613" y2="107.009" gradientUnits="userSpaceOnUse">
<stop stop-color="#998FC8"/>
<stop offset="0.5528" stop-color="#7E73B6"/>
<stop offset="1" stop-color="#6053A2"/>
</linearGradient>
<radialGradient id="paint39_radial" cx="0" cy="0" r="1" gradientUnits="userSpaceOnUse" gradientTransform="translate(154.924 102.85) scale(3.7376)">
<stop stop-color="white"/>
<stop offset="1"/>
</radialGradient>
<linearGradient id="paint40_linear" x1="142.794" y1="104.376" x2="148.427" y2="113.473" gradientUnits="userSpaceOnUse">
<stop stop-color="#998FC8"/>
<stop offset="0.5528" stop-color="#7E73B6"/>
<stop offset="1" stop-color="#6053A2"/>
</linearGradient>
<radialGradient id="paint41_radial" cx="0" cy="0" r="1" gradientUnits="userSpaceOnUse" gradientTransform="translate(143.725 109.323) scale(3.7376)">
<stop stop-color="white"/>
<stop offset="1"/>
</radialGradient>
<linearGradient id="paint42_linear" x1="128.737" y1="114.793" x2="136.807" y2="114.793" gradientUnits="userSpaceOnUse">
<stop stop-color="#998FC8"/>
<stop offset="0.5528" stop-color="#7E73B6"/>
<stop offset="1" stop-color="#6053A2"/>
</linearGradient>
<linearGradient id="paint43_linear" x1="128.782" y1="115.794" x2="136.272" y2="115.794" gradientUnits="userSpaceOnUse">
<stop stop-color="#998FC8"/>
<stop offset="0.5528" stop-color="#7E73B6"/>
<stop offset="1" stop-color="#6053A2"/>
</linearGradient>
<linearGradient id="paint44_linear" x1="86.2512" y1="96.1375" x2="78.7618" y2="96.1375" gradientUnits="userSpaceOnUse">
<stop stop-color="#998FC8"/>
<stop offset="0.5528" stop-color="#7E73B6"/>
<stop offset="1" stop-color="#6053A2"/>
</linearGradient>
<linearGradient id="paint45_linear" x1="94.6866" y1="97.9072" x2="89.0558" y2="107.001" gradientUnits="userSpaceOnUse">
<stop stop-color="#998FC8"/>
<stop offset="0.5528" stop-color="#7E73B6"/>
<stop offset="1" stop-color="#6053A2"/>
</linearGradient>
<radialGradient id="paint46_radial" cx="0" cy="0" r="1" gradientUnits="userSpaceOnUse" gradientTransform="translate(93.7525 102.612) rotate(180) scale(3.7363)">
<stop stop-color="white"/>
<stop offset="1"/>
</radialGradient>
<linearGradient id="paint47_linear" x1="105.872" y1="104.372" x2="100.241" y2="113.466" gradientUnits="userSpaceOnUse">
<stop stop-color="#998FC8"/>
<stop offset="0.5528" stop-color="#7E73B6"/>
<stop offset="1" stop-color="#6053A2"/>
</linearGradient>
<radialGradient id="paint48_radial" cx="0" cy="0" r="1" gradientUnits="userSpaceOnUse" gradientTransform="translate(104.948 109.083) rotate(180) scale(3.7363)">
<stop stop-color="white"/>
<stop offset="1"/>
</radialGradient>
<linearGradient id="paint49_linear" x1="119.81" y1="115.521" x2="112.32" y2="115.521" gradientUnits="userSpaceOnUse">
<stop stop-color="#998FC8"/>
<stop offset="0.5528" stop-color="#7E73B6"/>
<stop offset="1" stop-color="#6053A2"/>
</linearGradient>
<linearGradient id="paint50_linear" x1="111.359" y1="82.1856" x2="113.87" y2="82.1856" gradientUnits="userSpaceOnUse">
<stop stop-color="#9F19AB"/>
<stop offset="0.0300926" stop-color="#6B22AC"/>
<stop offset="0.5913" stop-color="#4427BD"/>
<stop offset="0.904" stop-color="#26297D"/>
</linearGradient>
<linearGradient id="paint51_linear" x1="105.991" y1="81.568" x2="124.128" y2="81.568" gradientUnits="userSpaceOnUse">
<stop offset="0.0353535" stop-color="#B086CC"/>
<stop offset="0.2121" stop-color="#C1A1D5"/>
<stop offset="0.2864" stop-color="#C8ABDA"/>
<stop offset="0.4129" stop-color="#DBC6E7"/>
<stop offset="0.5051" stop-color="#EBDEF3"/>
<stop offset="0.5628" stop-color="#E4D2EE"/>
<stop offset="0.6936" stop-color="#D6BCE6"/>
<stop offset="0.7778" stop-color="#D1B4E3"/>
<stop offset="0.7841" stop-color="#CFB2E2"/>
<stop offset="0.8642" stop-color="#BE9AD6"/>
<stop offset="0.9383" stop-color="#B48BCF"/>
<stop offset="1" stop-color="#B086CC"/>
</linearGradient>
<linearGradient id="paint52_linear" x1="111.245" y1="75.6651" x2="141.776" y2="75.6651" gradientUnits="userSpaceOnUse">
<stop offset="0.0353535" stop-color="#B086CC"/>
<stop offset="0.2121" stop-color="#C1A1D5"/>
<stop offset="0.2864" stop-color="#C8ABDA"/>
<stop offset="0.4129" stop-color="#DBC6E7"/>
<stop offset="0.5051" stop-color="#EBDEF3"/>
<stop offset="0.5628" stop-color="#E4D2EE"/>
<stop offset="0.6936" stop-color="#D6BCE6"/>
<stop offset="0.7778" stop-color="#D1B4E3"/>
<stop offset="0.7841" stop-color="#CFB2E2"/>
<stop offset="0.8642" stop-color="#BE9AD6"/>
<stop offset="0.9383" stop-color="#B48BCF"/>
<stop offset="1" stop-color="#B086CC"/>
</linearGradient>
<linearGradient id="paint53_linear" x1="111.271" y1="77.9268" x2="139.212" y2="77.9268" gradientUnits="userSpaceOnUse">
<stop stop-color="#9F19AB"/>
<stop offset="0.0300926" stop-color="#6B22AC"/>
<stop offset="0.5913" stop-color="#4427BD"/>
<stop offset="0.904" stop-color="#26297D"/>
</linearGradient>
<linearGradient id="paint54_linear" x1="129.005" y1="68.2646" x2="137.704" y2="68.2646" gradientUnits="userSpaceOnUse">
<stop stop-color="#9F19AB"/>
<stop offset="0.0300926" stop-color="#6B22AC"/>
<stop offset="0.5913" stop-color="#4427BD"/>
<stop offset="0.904" stop-color="#26297D"/>
</linearGradient>
<linearGradient id="paint55_linear" x1="124.815" y1="67.8489" x2="142.927" y2="67.8489" gradientUnits="userSpaceOnUse">
<stop offset="0.0353535" stop-color="#B086CC"/>
<stop offset="0.2121" stop-color="#C1A1D5"/>
<stop offset="0.2864" stop-color="#C8ABDA"/>
<stop offset="0.4129" stop-color="#DBC6E7"/>
<stop offset="0.5051" stop-color="#EBDEF3"/>
<stop offset="0.5628" stop-color="#E4D2EE"/>
<stop offset="0.6936" stop-color="#D6BCE6"/>
<stop offset="0.7778" stop-color="#D1B4E3"/>
<stop offset="0.7841" stop-color="#CFB2E2"/>
<stop offset="0.8642" stop-color="#BE9AD6"/>
<stop offset="0.9383" stop-color="#B48BCF"/>
<stop offset="1" stop-color="#B086CC"/>
</linearGradient>
<clipPath id="clip0">
<rect width="214.2" height="169.9" fill="white" transform="translate(17 8)"/>
</clipPath>
</defs>
</svg>
