<svg width="240" height="180" viewBox="0 0 240 180" fill="none" xmlns="http://www.w3.org/2000/svg">
<g clip-path="url(#clip0)">
<g opacity="0.19">
<path opacity="0.014286" d="M119.38 77.4492C112.176 73.3249 99.465 73.9594 90.8847 78.9297C82.3044 83.7942 81.1392 91.1968 88.3424 95.3212L145.968 128.527C153.171 132.651 165.883 132.017 174.463 127.047C183.043 122.182 184.208 114.779 177.005 110.655L119.38 77.4492Z" fill="url(#paint0_linear)"/>
<path opacity="0.028571" d="M119.591 77.9777C112.6 73.9592 100.1 74.5937 91.8377 79.3525C83.4693 84.217 82.41 91.4081 89.4013 95.3209L145.862 127.892C152.853 131.911 165.353 131.276 173.615 126.518C181.984 121.759 183.043 114.462 176.052 110.549L119.591 77.9777Z" fill="url(#paint1_linear)"/>
<path opacity="0.042857" d="M119.698 78.6125C112.812 74.6997 100.736 75.2285 92.5799 79.8815C84.4234 84.5346 83.47 91.62 90.2495 95.5328L145.439 127.364C152.324 131.277 164.4 130.748 172.557 126.095C180.713 121.442 181.667 114.356 174.887 110.444L119.698 78.6125Z" fill="url(#paint2_linear)"/>
<path opacity="0.057143" d="M119.91 79.247C113.236 75.3342 101.372 75.9687 93.4275 80.516C85.5887 85.0633 84.6354 91.9372 91.3089 95.7442L145.227 126.835C151.901 130.748 163.765 130.113 171.709 125.566C179.548 121.019 180.501 114.145 173.828 110.338L119.91 79.247Z" fill="url(#paint3_linear)"/>
<path opacity="0.071429" d="M120.12 79.7755C113.553 75.9685 102.006 76.4972 94.3795 80.9388C86.7525 85.3803 85.7992 92.0427 92.3668 95.744L145.014 126.095C151.581 129.902 163.128 129.373 170.755 124.931C178.381 120.49 179.335 113.827 172.767 110.126L120.12 79.7755Z" fill="url(#paint4_linear)"/>
<path opacity="0.085714" d="M120.333 80.4102C113.977 76.7089 102.643 77.2377 95.2276 81.4678C87.8125 85.6978 86.9651 92.2544 93.3208 95.8499L144.803 125.566C151.158 129.267 162.493 128.739 169.908 124.509C177.323 120.279 178.17 113.722 171.815 110.126L120.333 80.4102Z" fill="url(#paint5_linear)"/>
<path opacity="0.1" d="M120.545 81.0445C114.296 77.449 103.385 77.872 96.1817 81.9963C88.9785 86.1206 88.237 92.4657 94.4868 96.0612L144.697 125.037C150.947 128.633 161.858 128.21 169.061 124.085C176.264 119.961 177.006 113.616 170.756 110.02L120.545 81.0445Z" fill="url(#paint6_linear)"/>
<path opacity="0.1143" d="M120.651 81.6792C114.613 78.1894 103.914 78.6124 96.923 82.631C89.9316 86.6496 89.1901 92.7831 95.334 96.2729L144.273 124.509C150.311 127.998 161.01 127.575 168.002 123.557C174.993 119.538 175.734 113.405 169.591 109.915L120.651 81.6792Z" fill="url(#paint7_linear)"/>
<path opacity="0.1286" d="M120.862 82.2081C114.93 78.8241 104.655 79.1413 97.8754 83.0541C91.0959 86.9669 90.4603 92.889 96.3924 96.2731L144.061 123.768C149.993 127.152 160.268 126.835 167.047 122.922C173.827 119.01 174.462 113.088 168.53 109.704L120.862 82.2081Z" fill="url(#paint8_linear)"/>
<path opacity="0.1429" d="M121.075 82.8423C115.249 79.564 105.291 79.8813 98.8297 83.5826C92.2621 87.3896 91.6265 93.1002 97.4526 96.4842L143.956 123.239C149.782 126.518 159.739 126.2 166.201 122.499C172.768 118.692 173.404 112.981 167.578 109.597L121.075 82.8423Z" fill="url(#paint9_linear)"/>
<path opacity="0.1571" d="M121.287 83.4771C115.673 80.1988 105.928 80.516 99.6778 84.2173C93.4279 87.8129 92.7923 93.4177 98.4066 96.696L143.638 122.817C149.253 126.095 158.998 125.778 165.248 122.076C171.498 118.481 172.133 112.876 166.519 109.598L121.287 83.4771Z" fill="url(#paint10_linear)"/>
<path opacity="0.1714" d="M121.498 84.0059C115.99 80.8333 106.668 81.1506 100.63 84.6404C94.592 88.1302 94.0624 93.5235 99.5707 96.696L143.531 122.076C149.04 125.249 158.361 124.932 164.399 121.442C170.437 117.952 170.967 112.559 165.459 109.386L121.498 84.0059Z" fill="url(#paint11_linear)"/>
<path opacity="0.1857" d="M121.605 84.7461C116.309 81.6794 107.199 81.8909 101.373 85.2749C95.5465 88.6589 95.1228 93.8408 100.419 96.9076L143.215 121.548C148.511 124.614 157.621 124.403 163.447 121.019C169.273 117.635 169.697 112.453 164.401 109.386L121.605 84.7461Z" fill="url(#paint12_linear)"/>
<path opacity="0.2" d="M121.817 85.2745C116.626 82.3135 107.834 82.525 102.22 85.8033C96.6057 89.0816 96.182 94.0519 101.373 97.1187L142.897 121.018C148.087 123.98 156.88 123.768 162.494 120.49C168.108 117.211 168.532 112.241 163.341 109.174L121.817 85.2745Z" fill="url(#paint13_linear)"/>
<path opacity="0.2143" d="M122.028 85.9092C117.049 83.0539 108.575 83.2654 103.172 86.3322C97.7698 89.399 97.452 94.3693 102.431 97.2246L142.684 120.384C147.663 123.239 156.137 123.028 161.539 119.961C166.942 116.894 167.26 111.924 162.281 109.069L122.028 85.9092Z" fill="url(#paint14_linear)"/>
<path opacity="0.2286" d="M122.239 86.4379C117.367 83.6884 109.21 83.7941 104.019 86.7552C98.829 89.7162 98.6171 94.475 103.384 97.2246L142.366 119.75C147.239 122.499 155.395 122.393 160.586 119.432C165.776 116.471 165.988 111.713 161.221 108.963L122.239 86.4379Z" fill="url(#paint15_linear)"/>
<path opacity="0.2429" d="M122.451 87.0726C117.684 84.4288 109.845 84.5346 104.866 87.3898C99.8877 90.2451 99.6759 94.7924 104.443 97.542L142.259 119.327C146.92 121.971 154.759 121.971 159.738 119.01C164.716 116.154 164.928 111.607 160.162 108.857L122.451 87.0726Z" fill="url(#paint16_linear)"/>
<path opacity="0.2571" d="M122.558 87.7071C118.003 85.0633 110.482 85.169 105.715 87.9186C100.948 90.6681 100.842 95.0039 105.397 97.6477L141.943 118.692C146.498 121.336 154.019 121.23 158.786 118.481C163.552 115.731 163.658 111.395 159.103 108.752L122.558 87.7071Z" fill="url(#paint17_linear)"/>
<path opacity="0.2714" d="M122.769 88.2358C118.426 85.6977 111.117 85.8035 106.668 88.3415C102.113 90.9853 102.113 95.1096 106.456 97.6476L141.73 117.952C146.074 120.49 153.383 120.384 157.832 117.846C162.387 115.202 162.387 111.078 158.044 108.54L122.769 88.2358Z" fill="url(#paint18_linear)"/>
<path opacity="0.2857" d="M122.982 88.9761C118.745 86.5438 111.86 86.5438 107.516 88.9761C103.279 91.4083 103.173 95.4269 107.411 97.8592L141.414 117.529C145.651 119.961 152.536 119.961 156.88 117.529C161.117 115.097 161.223 111.078 156.986 108.646L122.982 88.9761Z" fill="url(#paint19_linear)"/>
<path opacity="0.3" d="M123.192 89.5047C119.167 87.1781 112.494 87.1781 108.468 89.5047C104.443 91.8312 104.443 95.6382 108.468 97.9648L141.306 116.894C145.332 119.221 152.005 119.221 156.03 116.894C160.056 114.568 160.056 110.761 156.03 108.434L123.192 89.5047Z" fill="url(#paint20_linear)"/>
</g>
<path d="M127.006 91.7255V99.8684L129.972 98.0706V89.9277L127.006 91.7255Z" fill="url(#paint21_linear)"/>
<path d="M127.006 91.7252V99.868L105.82 87.6009V79.458L127.006 91.7252Z" fill="url(#paint22_linear)"/>
<path d="M127.006 91.7252V99.868L105.82 87.6009V79.458L127.006 91.7252Z" fill="url(#paint23_linear)"/>
<path d="M107.197 86.4379V81.8906L125.523 92.4658V97.1188L107.197 86.4379Z" fill="#1E1C82"/>
<path d="M105.82 79.4584L127.006 91.7256L129.972 89.9278L108.786 77.6606L105.82 79.4584Z" fill="url(#paint24_linear)"/>
<path d="M114.189 87.8128C114.189 88.13 114.083 88.3415 113.871 88.4473L113.553 88.6588C113.342 88.7645 113.553 88.553 113.236 88.3415C112.706 88.0243 112.282 87.284 112.282 86.7552C112.282 86.438 111.964 86.438 112.176 86.3322L112.494 86.1207C112.706 86.015 112.918 86.015 113.13 86.2265C113.765 86.438 114.189 87.1782 114.189 87.8128Z" fill="url(#paint25_linear)"/>
<path d="M113.872 87.9185C113.872 88.5531 113.448 88.7646 112.918 88.4473C112.389 88.13 111.965 87.3898 111.965 86.861C111.965 86.2265 112.389 86.015 112.918 86.3323C113.448 86.6495 113.872 87.3898 113.872 87.9185Z" fill="url(#paint26_linear)"/>
<path d="M113.659 87.9181C113.659 88.2354 113.554 88.3412 113.448 88.4469L112.918 88.6584C112.812 88.7642 112.918 88.5527 112.6 88.4469C112.176 88.1296 111.753 87.6009 111.753 87.0721C111.753 86.7549 111.541 86.7549 111.647 86.7549L112.176 86.4376C112.282 86.3319 112.494 86.4376 112.706 86.4376C113.236 86.7549 113.659 87.3894 113.659 87.9181Z" fill="url(#paint27_linear)"/>
<path d="M113.128 88.2357C113.128 88.7645 112.811 88.976 112.281 88.6587C111.857 88.3415 111.434 87.8127 111.434 87.284C111.434 86.7552 111.751 86.5437 112.281 86.861C112.811 87.1782 113.128 87.707 113.128 88.2357Z" fill="url(#paint28_linear)"/>
<path d="M112.705 88.0243C112.705 88.3416 112.493 88.4473 112.281 88.3416C111.963 88.2358 111.857 87.8128 111.857 87.4956C111.857 87.1783 112.069 87.0726 112.281 87.1783C112.493 87.3898 112.705 87.8128 112.705 88.0243Z" fill="#1E1C82"/>
<path d="M113.024 86.3322C112.812 86.2264 112.601 86.1207 112.389 86.2264C112.495 86.1207 112.706 86.2264 113.024 86.3322C113.448 86.6494 113.872 87.3897 113.872 87.9184C113.872 88.2357 113.766 88.4472 113.554 88.553C113.766 88.553 113.872 88.2357 113.872 87.9184C113.872 87.2839 113.448 86.6494 113.024 86.3322Z" fill="#E6E7E8"/>
<path d="M112.387 86.7552C112.175 86.6494 111.963 86.6494 111.857 86.6494C111.963 86.6494 112.175 86.6494 112.387 86.7552C112.811 87.0724 113.129 87.7069 113.129 88.1299C113.129 88.4472 113.023 88.5529 112.811 88.6587C113.023 88.6587 113.129 88.3414 113.129 88.1299C113.234 87.6012 112.811 86.9667 112.387 86.7552Z" fill="#1E1C82"/>
<path d="M117.578 89.7161C117.578 90.0333 117.472 90.2448 117.26 90.3506L116.942 90.5621C116.73 90.6678 116.942 90.4563 116.624 90.2448C116.095 89.9276 115.671 89.1873 115.671 88.6586C115.671 88.3413 115.353 88.3413 115.565 88.2356L115.883 88.0241C116.095 87.9183 116.307 87.9183 116.518 88.1298C117.154 88.3413 117.578 89.0816 117.578 89.7161Z" fill="url(#paint29_linear)"/>
<path d="M117.26 89.9278C117.26 90.5623 116.837 90.7738 116.307 90.4566C115.777 90.1393 115.354 89.3991 115.354 88.8703C115.354 88.2358 115.777 88.0243 116.307 88.3416C116.837 88.5531 117.26 89.2933 117.26 89.9278Z" fill="url(#paint30_linear)"/>
<path d="M116.942 89.8217C116.942 90.1389 116.836 90.2447 116.73 90.3504L116.307 90.6677C116.201 90.7734 116.307 90.5619 115.989 90.4562C115.565 90.1389 115.141 89.6102 115.141 89.0814C115.141 88.7642 114.93 88.7642 115.036 88.7642L115.565 88.4469C115.671 88.3412 115.883 88.4469 116.095 88.4469C116.624 88.6584 116.942 89.2929 116.942 89.8217Z" fill="url(#paint31_linear)"/>
<path d="M116.519 90.1391C116.519 90.6678 116.201 90.8793 115.672 90.5621C115.248 90.2448 114.824 89.7161 114.824 89.1873C114.824 88.6585 115.142 88.447 115.672 88.7643C116.201 88.9758 116.519 89.6103 116.519 90.1391Z" fill="url(#paint32_linear)"/>
<path d="M116.307 88.2355C116.096 88.1297 115.884 88.024 115.672 88.1297C115.778 88.1297 115.99 88.1297 116.307 88.2355C116.731 88.5527 117.155 89.293 117.155 89.8218C117.155 90.139 117.049 90.3505 116.837 90.4563C117.049 90.4563 117.155 90.139 117.155 89.8218C117.261 89.293 116.837 88.5527 116.307 88.2355Z" fill="#E6E7E8"/>
<path d="M115.778 88.6585C115.566 88.5527 115.354 88.5527 115.248 88.5527C115.354 88.5527 115.566 88.5527 115.778 88.6585C116.201 88.9757 116.519 89.6103 116.519 90.0333C116.519 90.3505 116.413 90.4563 116.201 90.562C116.413 90.562 116.519 90.2448 116.519 90.0333C116.519 89.6103 116.201 88.9757 115.778 88.6585Z" fill="url(#paint33_radial)"/>
<path d="M116.095 89.9277C116.095 90.2449 115.884 90.3507 115.672 90.2449C115.354 90.1392 115.248 89.7162 115.248 89.3989C115.248 89.0816 115.46 88.9759 115.672 89.0816C115.99 89.2932 116.095 89.7162 116.095 89.9277Z" fill="#1E1C82"/>
<path d="M120.755 91.7254C120.755 92.0426 120.649 92.2541 120.438 92.3599L120.12 92.5714C119.908 92.6771 120.12 92.4656 119.802 92.2541C119.272 91.9369 118.849 91.1966 118.849 90.6678C118.849 90.3506 118.531 90.3506 118.743 90.2448L119.061 90.0333C119.272 89.9276 119.484 89.9276 119.696 90.1391C120.332 90.4563 120.755 91.1966 120.755 91.7254Z" fill="url(#paint34_linear)"/>
<path d="M120.438 91.9371C120.438 92.5716 120.014 92.7831 119.485 92.4659C118.955 92.1486 118.531 91.4084 118.531 90.8796C118.531 90.2451 118.955 90.0336 119.485 90.3508C120.014 90.5623 120.438 91.3026 120.438 91.9371Z" fill="url(#paint35_linear)"/>
<path d="M120.227 91.831C120.227 92.1482 120.121 92.254 120.016 92.3597L119.592 92.677C119.486 92.7827 119.592 92.5712 119.274 92.4655C118.85 92.1482 118.427 91.6195 118.427 91.0907C118.427 90.7734 118.215 90.7734 118.321 90.7734L118.85 90.4562C118.956 90.3504 119.168 90.4562 119.38 90.4562C119.91 90.7734 120.227 91.4079 120.227 91.831Z" fill="url(#paint36_linear)"/>
<path d="M119.802 92.1483C119.802 92.6771 119.485 92.8886 118.955 92.5713C118.531 92.2541 118.107 91.7253 118.107 91.1966C118.107 90.6678 118.425 90.4563 118.955 90.7736C119.379 90.9851 119.802 91.6196 119.802 92.1483Z" fill="url(#paint37_linear)"/>
<path d="M119.273 92.0429C119.273 92.3601 119.061 92.4659 118.85 92.3601C118.638 92.2544 118.426 91.8314 118.426 91.5141C118.426 91.1969 118.638 91.0911 118.85 91.1969C119.167 91.4084 119.273 91.7256 119.273 92.0429Z" fill="#1E1C82"/>
<path d="M119.591 90.2448C119.379 90.139 119.167 90.0333 118.955 90.139C119.061 90.139 119.273 90.2448 119.591 90.2448C120.014 90.562 120.438 91.3023 120.438 91.831C120.438 92.1483 120.332 92.3598 120.12 92.4655C120.332 92.4655 120.438 92.1483 120.438 91.831C120.544 91.3023 120.12 90.562 119.591 90.2448Z" fill="#E6E7E8"/>
<path d="M118.955 90.7736C118.744 90.6678 118.532 90.6678 118.426 90.6678C118.532 90.5621 118.744 90.6678 118.955 90.7736C119.379 91.0908 119.697 91.7253 119.697 92.1483C119.697 92.4656 119.591 92.5713 119.379 92.6771C119.591 92.6771 119.697 92.3598 119.697 92.1483C119.803 91.6196 119.485 90.9851 118.955 90.7736Z" fill="url(#paint38_radial)"/>
<path d="M119.272 92.5716C119.272 92.5716 119.272 92.6773 119.272 92.5716V93.5233C119.272 93.6291 119.167 93.7348 119.061 93.7348C118.955 93.7348 118.849 93.6291 118.849 93.5233V92.6773C118.849 92.5716 118.955 92.4658 119.061 92.4658C119.061 92.4658 119.167 92.4658 119.272 92.5716ZM119.167 94.3693C119.167 94.3693 119.272 94.4751 119.167 94.3693V95.3211C119.167 95.4269 119.061 95.5326 118.955 95.5326C118.849 95.5326 118.743 95.4269 118.743 95.3211V94.4751C118.743 94.3693 118.849 94.2636 118.955 94.2636C119.061 94.2636 119.167 94.3693 119.167 94.3693ZM119.167 96.1671C119.167 96.2729 119.167 96.2729 119.167 96.1671V97.1189C119.167 97.2246 119.061 97.3304 118.955 97.3304C118.849 97.3304 118.743 97.2246 118.743 97.1189V96.2729C118.743 96.1671 118.849 96.0614 118.955 96.0614C119.061 96.0614 119.061 96.1671 119.167 96.1671ZM119.061 98.0706C119.167 98.0706 119.167 98.0706 119.061 98.0706V99.0224C119.061 99.1282 118.955 99.2339 118.849 99.2339C118.743 99.2339 118.637 99.1282 118.637 99.0224V98.1764C118.637 98.0706 118.743 97.9649 118.849 97.9649C118.955 97.8591 119.061 97.9649 119.061 98.0706ZM119.061 99.8684V100.82C119.061 100.926 118.955 101.032 118.849 101.032C118.743 101.032 118.637 100.926 118.637 100.82V99.9742C118.637 99.8684 118.743 99.7627 118.849 99.7627C118.955 99.7627 119.061 99.7627 119.061 99.8684ZM118.955 101.666C119.061 101.666 119.061 101.772 118.955 101.666V102.618C118.955 102.724 118.849 102.829 118.743 102.829C118.637 102.829 118.531 102.724 118.531 102.618V101.772C118.531 101.666 118.637 101.56 118.743 101.56C118.955 101.56 118.955 101.56 118.955 101.666ZM118.955 103.464C118.955 103.57 119.061 103.57 118.955 103.464V104.416C118.955 104.521 118.849 104.627 118.743 104.627C118.637 104.627 118.531 104.521 118.531 104.416V103.57C118.531 103.464 118.637 103.358 118.743 103.358C118.849 103.358 118.955 103.358 118.955 103.464ZM118.955 105.262C118.955 105.367 118.955 105.367 118.955 105.262V106.213C118.955 106.319 118.849 106.425 118.743 106.425C118.637 106.425 118.531 106.319 118.531 106.213V105.367C118.531 105.262 118.637 105.156 118.743 105.156C118.849 105.156 118.849 105.262 118.955 105.262ZM118.849 107.165C118.849 107.165 118.955 107.165 118.849 107.165V108.117C118.849 108.223 118.743 108.329 118.637 108.329C118.531 108.329 118.425 108.223 118.425 108.117V107.271C118.425 107.165 118.531 107.06 118.637 107.06C118.743 107.06 118.849 107.06 118.849 107.165ZM118.849 108.963C118.849 108.963 118.849 109.069 118.849 108.963V109.915C118.849 110.021 118.743 110.126 118.637 110.126C118.531 110.126 118.425 110.021 118.425 109.915V109.069C118.425 108.963 118.531 108.857 118.637 108.857C118.743 108.857 118.743 108.857 118.849 108.963ZM118.743 110.761C118.849 110.761 118.849 110.867 118.743 110.761V111.713C118.743 111.818 118.637 111.924 118.531 111.924C118.425 111.924 118.319 111.818 118.319 111.713V110.867C118.319 110.761 118.425 110.655 118.531 110.655C118.637 110.655 118.743 110.655 118.743 110.761ZM118.743 112.559C118.743 112.664 118.743 112.664 118.743 112.559V113.51C118.743 113.616 118.637 113.722 118.531 113.722C118.425 113.722 118.319 113.616 118.319 113.51V112.664C118.319 112.559 118.425 112.453 118.531 112.453C118.637 112.453 118.743 112.453 118.743 112.559ZM118.743 114.356V115.308C118.743 115.414 118.637 115.52 118.531 115.52C118.425 115.52 118.319 115.414 118.319 115.308V114.462C118.319 114.356 118.425 114.251 118.531 114.251C118.531 114.145 118.637 114.251 118.743 114.356ZM118.637 116.154C118.637 116.154 118.743 116.26 118.637 116.154V117.106C118.637 117.212 118.531 117.317 118.425 117.317C118.319 117.317 118.213 117.212 118.213 117.106V116.26C118.213 116.154 118.319 116.048 118.425 116.048C118.531 116.048 118.637 116.048 118.637 116.154ZM118.637 117.952C118.637 117.952 118.637 118.058 118.637 117.952V118.904C118.637 119.009 118.531 119.115 118.425 119.115C118.319 119.115 118.213 119.009 118.213 118.904V118.058C118.213 117.952 118.319 117.846 118.425 117.846C118.531 117.846 118.531 117.846 118.637 117.952ZM118.531 119.75C118.637 119.855 118.637 119.855 118.531 119.75V120.701C118.531 120.807 118.425 120.913 118.319 120.913C118.213 120.913 118.107 120.807 118.107 120.701V119.855C118.107 119.75 118.213 119.644 118.319 119.644C118.425 119.644 118.531 119.644 118.531 119.75ZM118.531 121.653V122.605C118.531 122.711 118.425 122.816 118.319 122.816C118.213 122.816 118.107 122.711 118.107 122.605V121.759C118.107 121.653 118.213 121.547 118.319 121.547C118.425 121.442 118.531 121.547 118.531 121.653ZM118.425 123.451C118.531 123.451 118.531 123.451 118.425 123.451V124.403C118.425 124.508 118.319 124.614 118.213 124.614C118.107 124.614 118.001 124.508 118.001 124.403V123.557C118.001 123.451 118.107 123.345 118.213 123.345C118.319 123.345 118.425 123.345 118.425 123.451ZM118.425 125.249C118.425 125.249 118.425 125.354 118.425 125.249V126.201C118.425 126.306 118.319 126.412 118.213 126.412C118.107 126.412 118.001 126.306 118.001 126.201V125.354C118.001 125.249 118.107 125.143 118.213 125.143C118.319 125.143 118.425 125.143 118.425 125.249ZM118.425 127.047C118.425 127.152 118.425 127.152 118.425 127.047V127.998C118.425 128.104 118.319 128.21 118.213 128.21C118.107 128.21 118.001 128.104 118.001 127.998V127.152C118.001 127.047 118.107 126.941 118.213 126.941C118.319 126.941 118.319 126.941 118.425 127.047ZM118.319 128.844C118.319 128.95 118.425 128.95 118.319 128.844V129.796C118.319 129.902 118.213 130.008 118.107 130.008C118.001 130.008 117.895 129.902 117.895 129.796V128.95C117.895 128.844 118.001 128.739 118.107 128.739C118.213 128.739 118.319 128.739 118.319 128.844ZM118.319 130.642C118.319 130.748 118.425 130.748 118.319 130.642V131.594C118.319 131.7 118.213 131.805 118.107 131.805C118.001 131.805 117.895 131.7 117.895 131.594V130.748C117.895 130.642 118.001 130.536 118.107 130.536C118.213 130.536 118.319 130.642 118.319 130.642ZM118.319 132.546V133.497C118.319 133.603 118.213 133.709 118.107 133.709C118.001 133.709 117.895 133.603 117.895 133.497V132.651C117.895 132.546 118.001 132.44 118.107 132.44C118.213 132.334 118.213 132.44 118.319 132.546ZM118.213 134.343C118.213 134.343 118.319 134.343 118.213 134.343V135.295C118.213 135.401 118.107 135.507 118.001 135.507C117.895 135.507 117.789 135.401 117.789 135.295V134.449C117.789 134.343 117.895 134.238 118.001 134.238C118.107 134.238 118.213 134.238 118.213 134.343ZM118.213 136.141C118.213 136.141 118.213 136.247 118.213 136.141V137.093C118.213 137.199 118.107 137.304 118.001 137.304C117.895 137.304 117.789 137.199 117.789 137.093V136.247C117.789 136.141 117.895 136.035 118.001 136.035C118.107 136.035 118.107 136.035 118.213 136.141ZM132.408 146.611C132.514 146.716 132.408 146.822 132.302 146.928L131.242 147.457C131.137 147.562 131.031 147.457 130.925 147.351C130.819 147.245 130.925 147.139 131.031 147.034L132.09 146.505C132.196 146.505 132.408 146.505 132.408 146.611ZM130.395 147.774C130.501 147.88 130.395 147.985 130.289 148.091L129.23 148.62C129.124 148.726 129.018 148.62 128.912 148.514C128.806 148.408 128.912 148.303 129.018 148.197L130.077 147.668C130.289 147.562 130.395 147.668 130.395 147.774ZM128.488 148.831C128.594 148.937 128.488 149.043 128.382 149.149L127.323 149.677C127.217 149.783 127.111 149.677 127.005 149.572C126.899 149.466 127.005 149.36 127.111 149.254L128.171 148.726C128.171 148.726 128.382 148.726 128.488 148.831ZM126.37 149.995C126.476 150.1 126.37 150.206 126.264 150.312L125.205 150.841C125.099 150.946 124.993 150.841 124.887 150.735C124.781 150.629 124.887 150.523 124.993 150.418L126.052 149.889C126.264 149.783 126.37 149.889 126.37 149.995ZM124.463 151.052C124.569 151.158 124.463 151.264 124.357 151.369L123.298 151.898C123.192 152.004 123.086 151.898 122.98 151.792C122.874 151.687 122.98 151.581 123.086 151.475L124.145 150.946C124.145 150.946 124.357 150.946 124.463 151.052ZM122.344 152.215C122.45 152.321 122.344 152.427 122.238 152.533L121.179 153.061C121.073 153.167 120.967 153.061 120.861 152.956C120.755 152.85 120.861 152.744 120.967 152.638L122.027 152.11C122.238 152.11 122.344 152.11 122.344 152.215ZM120.438 153.379C120.544 153.484 120.438 153.59 120.332 153.696L119.272 154.225C119.167 154.33 119.061 154.225 118.955 154.119C118.849 154.013 118.955 153.907 119.061 153.802L120.12 153.273C120.12 153.167 120.332 153.167 120.438 153.379ZM118.319 154.436C118.425 154.542 118.319 154.648 118.213 154.753L117.154 155.282C117.048 155.388 116.942 155.282 116.836 155.176C116.73 155.071 116.836 154.965 116.942 154.859L118.001 154.33C118.213 154.33 118.319 154.33 118.319 154.436ZM116.412 155.599C116.518 155.705 116.412 155.811 116.306 155.917L115.247 156.445C115.141 156.551 115.035 156.445 114.929 156.34C114.823 156.234 114.929 156.128 115.035 156.022L116.095 155.494C116.201 155.388 116.306 155.494 116.412 155.599ZM114.4 156.657C114.506 156.763 114.4 156.868 114.294 156.974L113.234 157.503C113.129 157.609 113.023 157.503 112.917 157.397C112.811 157.291 112.917 157.186 113.023 157.08L114.082 156.551C114.188 156.551 114.294 156.551 114.4 156.657ZM112.387 157.82C112.493 157.926 112.387 158.032 112.281 158.137L111.222 158.666C111.116 158.772 111.01 158.666 110.904 158.56C110.798 158.455 110.904 158.349 111.01 158.243L112.069 157.714C112.175 157.714 112.281 157.714 112.387 157.82ZM110.374 158.983C110.48 159.089 110.374 159.195 110.268 159.301L109.209 159.829C109.103 159.935 108.997 159.829 108.891 159.724C108.785 159.618 108.891 159.512 108.997 159.406L110.057 158.878C110.163 158.772 110.268 158.772 110.374 158.983ZM108.362 160.041C108.468 160.147 108.362 160.252 108.256 160.358L107.197 160.887C107.091 160.993 106.985 160.887 106.879 160.781C106.773 160.675 106.879 160.57 106.985 160.464L108.044 159.935C108.15 159.935 108.256 159.935 108.362 160.041ZM106.349 161.204C106.455 161.31 106.349 161.416 106.243 161.521L105.184 162.05C105.078 162.156 104.972 162.05 104.866 161.944C104.76 161.839 104.866 161.733 104.972 161.627L106.031 161.098C106.137 160.993 106.243 161.098 106.349 161.204ZM104.336 162.262C104.442 162.367 104.336 162.473 104.23 162.579L103.171 163.108C103.065 163.213 102.959 163.108 102.853 163.002C102.747 162.896 102.853 162.79 102.959 162.685L104.019 162.156C104.125 162.156 104.23 162.156 104.336 162.262ZM102.324 163.425C102.43 163.531 102.324 163.636 102.218 163.742L101.159 164.271C101.053 164.377 100.947 164.271 100.841 164.165C100.735 164.059 100.841 163.954 100.947 163.848L102.006 163.319C102.112 163.213 102.218 163.319 102.324 163.425ZM133.149 146.082C133.043 146.188 132.937 146.188 132.831 146.188L131.878 145.659C131.772 145.553 131.772 145.447 131.772 145.342C131.878 145.236 131.984 145.236 132.09 145.236L133.043 145.765C133.149 145.87 133.149 145.976 133.149 146.082ZM131.137 145.024C131.031 145.13 130.925 145.13 130.819 145.13L129.865 144.601C129.759 144.495 129.759 144.39 129.759 144.284C129.865 144.178 129.971 144.178 130.077 144.178L131.031 144.707C131.137 144.813 131.137 144.919 131.137 145.024ZM129.124 143.967C129.018 144.072 128.912 144.072 128.806 144.072L127.853 143.544C127.747 143.438 127.747 143.332 127.747 143.226C127.853 143.121 127.959 143.121 128.065 143.121L129.018 143.649C129.124 143.755 129.23 143.861 129.124 143.967ZM127.111 142.909C127.005 143.015 126.899 143.015 126.793 143.015L125.84 142.486C125.734 142.38 125.734 142.275 125.734 142.169C125.84 142.063 125.946 142.063 126.052 142.063L127.005 142.592C127.111 142.698 127.217 142.803 127.111 142.909ZM125.205 141.852C125.099 141.957 124.993 141.957 124.887 141.957L123.933 141.429C123.827 141.323 123.827 141.217 123.827 141.111C123.933 141.006 124.039 141.006 124.145 141.006L125.099 141.534C125.099 141.534 125.205 141.746 125.205 141.852ZM123.192 140.794C123.086 140.9 122.98 140.9 122.874 140.9L121.921 140.371C121.815 140.265 121.815 140.16 121.815 140.054C121.921 139.948 122.027 139.948 122.133 139.948L123.086 140.477C123.192 140.583 123.192 140.688 123.192 140.794ZM121.179 139.737C121.073 139.842 120.967 139.842 120.861 139.842L119.908 139.314C119.802 139.208 119.802 139.102 119.802 138.996C119.908 138.891 120.014 138.891 120.12 138.891L121.073 139.419C121.179 139.419 121.285 139.631 121.179 139.737ZM119.167 138.679C119.061 138.785 118.955 138.785 118.849 138.785L117.895 138.256C117.789 138.15 117.789 138.045 117.789 137.939C117.895 137.833 118.001 137.833 118.107 137.833L119.061 138.362C119.167 138.362 119.272 138.573 119.167 138.679Z" fill="#453C9E" stroke="#453C9E" stroke-miterlimit="10"/>
<path d="M110.798 85.8035C110.798 86.1207 110.692 86.3322 110.481 86.438L110.163 86.6495C109.951 86.7552 110.163 86.5437 109.845 86.3322C109.315 86.015 108.892 85.2747 108.892 84.746C108.892 84.4287 108.574 84.4287 108.786 84.323L109.104 84.1115C109.315 84.0057 109.527 84.0057 109.739 84.2172C110.375 84.5345 110.798 85.2747 110.798 85.8035Z" fill="url(#paint39_linear)"/>
<path d="M110.481 86.0147C110.481 86.6492 110.057 86.8608 109.528 86.5435C108.998 86.2262 108.574 85.486 108.574 84.9572C108.574 84.3227 108.998 84.1112 109.528 84.4285C110.057 84.7457 110.481 85.3802 110.481 86.0147Z" fill="url(#paint40_linear)"/>
<path d="M110.163 86.015C110.163 86.3323 110.057 86.438 109.951 86.5438L109.527 86.861C109.421 86.9668 109.527 86.7553 109.21 86.6495C108.786 86.3323 108.362 85.8035 108.362 85.2748C108.362 84.9575 108.15 84.9575 108.256 84.9575L108.786 84.6403C108.892 84.5345 109.104 84.6403 109.316 84.6403C109.845 84.8518 110.163 85.4863 110.163 86.015Z" fill="url(#paint41_linear)"/>
<path d="M109.74 86.3319C109.74 86.8607 109.422 87.0722 108.892 86.7549C108.469 86.4377 108.045 85.9089 108.045 85.3802C108.045 84.8514 108.363 84.6399 108.892 84.9572C109.422 85.1687 109.74 85.6974 109.74 86.3319Z" fill="url(#paint42_linear)"/>
<path d="M109.316 86.1205C109.316 86.4378 109.104 86.5435 108.892 86.4378C108.575 86.332 108.469 85.909 108.469 85.5918C108.469 85.2745 108.681 85.1688 108.892 85.2745C109.104 85.486 109.316 85.8033 109.316 86.1205Z" fill="#1E1C82"/>
<path d="M109.528 84.3229C109.316 84.2171 109.104 84.1114 108.893 84.2171C109.104 84.2171 109.316 84.3229 109.528 84.3229C109.952 84.6401 110.376 85.3804 110.376 85.9092C110.376 86.2264 110.27 86.4379 110.058 86.5437C110.27 86.5437 110.376 86.2264 110.376 85.9092C110.482 85.3804 110.058 84.7459 109.528 84.3229Z" fill="#E6E7E8"/>
<path d="M108.998 84.8514C108.787 84.7456 108.575 84.7456 108.469 84.7456C108.575 84.7456 108.787 84.7456 108.998 84.8514C109.422 85.1686 109.74 85.8031 109.74 86.2261C109.74 86.5434 109.634 86.6491 109.422 86.7549C109.634 86.7549 109.74 86.4376 109.74 86.2261C109.74 85.6974 109.422 85.0629 108.998 84.8514Z" fill="url(#paint43_radial)"/>
<path d="M151.052 72.1612C149.04 70.998 147.027 70.3635 145.332 70.2577C145.332 70.152 145.332 70.0462 145.332 69.9405C145.332 52.5972 133.044 31.3412 117.896 22.6696C105.715 15.5842 95.3334 18.7568 91.7318 29.3319C90.7785 28.5917 89.8251 27.9572 88.8717 27.3226C78.8084 21.5063 70.7578 26.1594 70.7578 37.6863C70.7578 49.2132 78.9144 63.1724 88.8717 68.8829C93.8504 71.7382 145.12 101.349 151.052 104.733C158.891 109.28 165.247 105.684 165.247 96.5898C165.247 87.6009 158.891 76.7086 151.052 72.1612Z" fill="url(#paint44_linear)"/>
<path opacity="0.5" d="M178.381 56.4044C176.368 55.2411 174.356 54.6066 172.661 54.5009C172.661 54.3951 172.661 54.2894 172.661 54.1836C172.661 36.8404 160.373 15.5844 145.225 6.91275C132.937 -0.172593 122.556 2.99995 118.954 13.5751C118.001 12.8348 117.048 12.2003 116.094 11.5658C106.137 5.74949 97.9805 10.4025 97.9805 21.9294C97.9805 33.3506 106.137 47.4155 116.094 53.1261C121.073 55.9814 172.343 85.5918 178.275 88.9758C186.114 93.5231 192.469 89.9276 192.469 80.833C192.469 71.8441 186.22 60.9517 178.381 56.4044Z" fill="url(#paint45_linear)"/>
<path d="M93.002 33.3505L117.895 16.7476L98.6162 21.6121L93.002 30.4952V33.3505Z" fill="url(#paint46_linear)"/>
<path d="M193 80.5157C193 71.5268 186.645 60.6344 178.806 56.0871C176.793 54.9238 174.781 54.2893 173.086 54.1836C173.086 54.0778 173.086 53.972 173.086 53.8663C173.086 36.5231 160.798 15.267 145.65 6.59543C137.176 1.73086 129.655 2.36537 124.464 5.85517L115.672 10.8255C110.693 8.28745 106.244 8.28745 103.172 10.4025L77.0078 25.6307C80.1857 24.2559 84.4229 24.6789 88.9778 27.3227C89.9312 27.8515 90.8846 28.5917 91.8379 29.332C95.4395 18.7568 105.715 15.5843 118.002 22.6696C133.15 31.447 145.438 52.5973 145.438 69.9405C145.438 70.0463 145.438 70.152 145.438 70.2578C147.239 70.3635 149.146 70.998 151.158 72.1613C158.997 76.7086 165.353 87.601 165.353 96.5899C165.353 100.397 164.188 103.252 162.281 104.944L188.446 89.9275C191.2 88.5528 193 85.3802 193 80.5157Z" fill="url(#paint47_linear)"/>
<path d="M151.052 72.1612C149.04 70.998 147.027 70.3635 145.332 70.2577C145.332 70.152 145.332 70.0462 145.332 69.9405C145.332 52.5972 133.044 31.3412 117.896 22.6696C105.715 15.5842 95.3334 18.7568 91.7318 29.3319C90.7785 28.5917 89.8251 27.9572 88.8717 27.3226C78.8084 21.5063 70.7578 26.1594 70.7578 37.6863C70.7578 49.2132 78.9144 63.1724 88.8717 68.8829C93.8504 71.7382 145.12 101.349 151.052 104.733C158.891 109.28 165.247 105.684 165.247 96.5898C165.247 87.6009 158.891 76.7086 151.052 72.1612ZM161.221 102.406C160.268 103.569 159.103 104.098 157.514 104.098C156.031 104.098 154.23 103.569 152.429 102.512L90.1429 66.6622C80.8211 61.2688 73.3001 48.2614 73.3001 37.6863C73.3001 31.2354 76.0543 27.3226 80.8211 27.3226C82.8338 27.3226 85.2701 28.0629 87.7065 29.4377C88.448 29.8607 89.2955 30.4952 90.3547 31.2355L93.1089 33.3505L94.1682 30.0722C96.0749 24.4674 100.1 21.2948 105.609 21.2948C108.998 21.2948 112.812 22.4581 116.731 24.6789C131.138 33.0332 143.002 53.3375 143.002 69.8347C143.002 69.9405 143.002 70.0462 143.002 70.152V72.4785L145.332 72.5842C146.815 72.69 148.298 73.2188 149.993 74.1705C156.984 78.1891 162.916 88.447 162.916 96.4841C162.81 99.1278 162.281 101.137 161.221 102.406Z" fill="#DFCFFF"/>
<path d="M157.408 104.204C155.925 104.204 154.125 103.675 152.324 102.618L90.1433 66.7681C80.8215 61.3748 73.3006 48.3674 73.3006 37.7922C73.3006 33.2449 74.6776 29.9666 77.2199 28.3804C74.148 29.6494 72.4531 33.0334 72.4531 38.2153C72.4531 48.8961 79.9741 61.9036 89.2959 67.1911L151.582 102.935C153.383 103.993 155.184 104.521 156.667 104.521C157.62 104.521 158.574 104.31 159.315 103.781C158.786 103.993 158.15 104.204 157.408 104.204Z" fill="#DFCFFF"/>
<path d="M151.052 72.1614C149.039 70.9981 147.026 70.3636 145.332 70.2579C145.332 70.1521 145.332 70.0464 145.332 69.9406C145.332 52.5974 133.044 31.3414 117.896 22.6697C110.375 18.3339 103.595 17.9109 98.7227 20.5547C103.595 18.3339 110.057 18.9684 117.048 23.0928C132.196 31.8701 144.484 53.0204 144.484 70.3636C144.484 70.4694 144.484 70.5751 144.484 70.6809C146.285 70.7866 148.192 71.4211 150.204 72.5844C158.043 77.1317 164.399 88.0241 164.399 97.013C164.399 101.455 162.81 104.521 160.374 106.108C163.34 104.839 165.246 101.56 165.246 96.6957C165.246 87.6011 158.891 76.7087 151.052 72.1614Z" fill="#DFCFFF"/>
<path d="M88.0247 27.746C88.9781 28.2748 89.9314 29.015 90.8848 29.7553C90.9907 29.4381 91.0967 29.2266 91.2026 28.9093C90.4611 28.3805 89.6136 27.8518 88.8721 27.323C83.8935 24.362 79.3385 24.1505 76.0547 26.054C79.2326 24.6792 83.4697 25.1022 88.0247 27.746Z" fill="#DFCFFF"/>
<path d="M107.833 121.865C107.833 121.865 107.727 121.865 107.833 121.865L106.985 121.336C106.88 121.336 106.88 121.125 106.88 121.019C106.88 120.913 107.091 120.913 107.197 120.913L107.939 121.336C108.045 121.336 108.045 121.548 108.045 121.653C108.045 121.865 107.939 121.865 107.833 121.865ZM106.35 120.913C106.244 120.913 106.244 120.913 106.35 120.913L105.502 120.384C105.397 120.384 105.397 120.173 105.397 120.067C105.397 119.961 105.608 119.961 105.714 119.961L106.456 120.384C106.562 120.384 106.562 120.596 106.562 120.702C106.456 120.913 106.35 120.913 106.35 120.913ZM104.761 120.067C104.655 120.067 104.655 120.067 104.761 120.067L103.914 119.538C103.808 119.538 103.808 119.327 103.808 119.221C103.808 119.115 104.019 119.115 104.125 119.115L104.867 119.538C104.973 119.538 104.973 119.75 104.973 119.856C104.867 119.961 104.867 120.067 104.761 120.067ZM103.172 119.115C103.066 119.115 103.066 119.115 103.172 119.115L102.325 118.586C102.219 118.586 102.219 118.375 102.219 118.269C102.219 118.163 102.431 118.163 102.536 118.163L103.278 118.586C103.384 118.586 103.384 118.798 103.384 118.904C103.278 119.115 103.172 119.115 103.172 119.115ZM101.583 118.269C101.583 118.269 101.477 118.269 101.583 118.269L100.736 117.74C100.63 117.74 100.63 117.529 100.63 117.423C100.63 117.317 100.842 117.317 100.948 117.317L101.689 117.74C101.795 117.74 101.795 117.952 101.795 118.058C101.689 118.163 101.583 118.269 101.583 118.269ZM99.9942 117.317C99.8882 117.317 99.8882 117.317 99.9942 117.317L99.1467 116.789C99.0408 116.789 99.0408 116.577 99.0408 116.471C99.0408 116.366 99.2526 116.366 99.3586 116.366L100.1 116.789C100.206 116.789 100.206 117 100.206 117.106C100.1 117.317 100.1 117.317 99.9942 117.317ZM98.4052 116.366C98.2993 116.366 98.2993 116.366 98.4052 116.366L97.5578 115.837C97.4518 115.837 97.4518 115.625 97.4518 115.52C97.4518 115.414 97.6637 115.414 97.7696 115.414L98.5111 115.837C98.6171 115.837 98.6171 116.048 98.6171 116.154C98.6171 116.366 98.5111 116.366 98.4052 116.366ZM96.8163 115.52C96.8163 115.52 96.7103 115.52 96.8163 115.52L95.9688 114.991C95.8629 114.991 95.8629 114.779 95.8629 114.674C95.8629 114.568 96.0748 114.568 96.1807 114.568L96.9222 114.991C97.0281 114.991 97.0281 115.202 97.0281 115.308C97.0281 115.414 96.9222 115.52 96.8163 115.52ZM95.2273 114.568C95.2273 114.568 95.1214 114.568 95.2273 114.568L94.3799 114.039C94.274 114.039 94.274 113.828 94.274 113.722C94.274 113.616 94.4858 113.616 94.5918 113.616L95.3333 114.039C95.4392 114.039 95.4392 114.251 95.4392 114.356C95.3333 114.568 95.3333 114.568 95.2273 114.568ZM93.6384 113.722C93.6384 113.722 93.5325 113.722 93.6384 113.722L92.791 113.193C92.685 113.193 92.685 112.982 92.685 112.876C92.685 112.77 92.8969 112.77 93.0028 112.77L93.7443 113.193C93.8502 113.193 93.8502 113.405 93.8502 113.51C93.8502 113.616 93.7443 113.722 93.6384 113.722ZM92.0494 112.77L91.202 112.241C91.0961 112.241 91.0961 112.03 91.0961 111.924C91.0961 111.818 91.3079 111.818 91.4139 111.818L92.1554 112.241C92.2613 112.241 92.2613 112.453 92.2613 112.559C92.2613 112.77 92.1554 112.77 92.0494 112.77ZM90.4605 111.818L89.6131 111.29C89.5071 111.29 89.5071 111.078 89.5071 110.972C89.5071 110.867 89.719 110.867 89.8249 110.867L90.5664 111.29C90.6724 111.29 90.6724 111.501 90.6724 111.607C90.6724 111.818 90.5664 111.818 90.4605 111.818ZM88.9775 110.972C88.9775 110.972 88.8716 110.972 88.9775 110.972L88.1301 110.444C88.0241 110.444 88.0241 110.232 88.0241 110.126C88.0241 110.021 88.236 110.021 88.3419 110.021L89.0834 110.444C89.1894 110.444 89.1894 110.655 89.1894 110.761C89.1894 110.972 89.0834 110.972 88.9775 110.972ZM87.3886 110.126C87.3886 110.126 87.2826 110.126 87.3886 110.126L86.5411 109.598C86.4352 109.598 86.4352 109.386 86.4352 109.28C86.4352 109.175 86.647 109.175 86.753 109.175L87.4945 109.598C87.6004 109.598 87.6004 109.809 87.6004 109.915C87.6004 110.021 87.4945 110.126 87.3886 110.126ZM85.9055 109.175C85.7996 109.175 85.7996 109.175 85.9055 109.175L85.0581 108.646C84.9522 108.646 84.9522 108.434 84.9522 108.329C84.9522 108.223 85.164 108.223 85.27 108.223L86.0115 108.646C86.1174 108.646 86.1174 108.857 86.1174 108.963C86.0115 109.175 85.9055 109.175 85.9055 109.175ZM84.2107 108.223L83.3632 107.694C83.2573 107.694 83.2573 107.483 83.2573 107.377C83.2573 107.271 83.4692 107.271 83.5751 107.271L84.3166 107.694C84.4225 107.694 84.4225 107.906 84.4225 108.011C84.4225 108.223 84.3166 108.223 84.2107 108.223ZM82.6217 107.377L81.7743 106.848C81.6684 106.848 81.6684 106.637 81.6684 106.531C81.6684 106.425 81.8802 106.425 81.9862 106.425L82.7277 106.848C82.8336 106.848 82.8336 107.06 82.8336 107.165C82.8336 107.271 82.7277 107.377 82.6217 107.377ZM81.1387 106.425C81.0328 106.425 81.0328 106.425 81.1387 106.425L80.2913 105.896C80.1854 105.896 80.1854 105.685 80.1854 105.579C80.1854 105.473 80.3972 105.473 80.5031 105.473L81.2446 105.896C81.3506 105.896 81.3506 106.108 81.3506 106.214C81.2447 106.425 81.2447 106.425 81.1387 106.425ZM79.5498 105.579C79.4439 105.579 79.4439 105.579 79.5498 105.579L78.7023 105.05C78.5964 105.05 78.5964 104.839 78.5964 104.733C78.5964 104.627 78.8083 104.627 78.9142 104.627L79.6557 105.05C79.7616 105.05 79.7616 105.262 79.7616 105.368C79.6557 105.473 79.6557 105.579 79.5498 105.579ZM77.9608 104.627C77.8549 104.627 77.8549 104.627 77.9608 104.627L77.1134 104.099C77.0075 104.099 77.0075 103.887 77.0075 103.781C77.0075 103.676 77.2193 103.676 77.3253 103.676L78.0668 104.099C78.1727 104.099 78.1727 104.31 78.1727 104.416C78.0668 104.627 78.0668 104.627 77.9608 104.627ZM76.3719 103.676C76.3719 103.676 76.266 103.676 76.3719 103.676L75.5245 103.147C75.4185 103.147 75.4185 102.935 75.4185 102.83C75.4185 102.724 75.6304 102.724 75.7363 102.724L76.4778 103.147C76.5838 103.147 76.5838 103.358 76.5838 103.464C76.4778 103.676 76.4778 103.676 76.3719 103.676ZM74.783 102.83C74.783 102.83 74.677 102.83 74.783 102.83L73.9355 102.301C73.8296 102.301 73.8296 102.089 73.8296 101.984C73.8296 101.878 74.0415 101.878 74.1474 101.878L74.8889 102.301C74.9948 102.301 74.9948 102.512 74.9948 102.618C74.9948 102.83 74.8889 102.83 74.783 102.83ZM73.194 101.984C73.194 101.984 73.0881 101.984 73.194 101.984L72.3466 101.455C72.2407 101.455 72.2407 101.243 72.2407 101.138C72.2407 101.032 72.4525 101.032 72.5584 101.032L73.2999 101.455C73.4059 101.455 73.4059 101.666 73.4059 101.772C73.4059 101.878 73.2999 101.984 73.194 101.984ZM71.6051 101.032C71.6051 101.032 71.4991 101.032 71.6051 101.032L70.7576 100.503C70.6517 100.503 70.6517 100.292 70.6517 100.186C70.6517 100.08 70.8636 100.08 70.9695 100.08L71.711 100.503C71.8169 100.503 71.8169 100.715 71.8169 100.82C71.8169 101.032 71.711 101.032 71.6051 101.032ZM70.0161 100.08C70.0161 100.08 69.9102 100.08 70.0161 100.08L69.1687 99.5512C69.0628 99.5512 69.0628 99.3397 69.0628 99.234C69.0628 99.1282 69.2746 99.1282 69.3806 99.1282L70.1221 99.5512C70.228 99.5512 70.228 99.7627 70.228 99.8685C70.228 100.08 70.1221 100.08 70.0161 100.08ZM43.0041 113.51C42.8982 113.51 42.8982 113.51 43.0041 113.51L42.1567 112.982C42.0508 112.982 42.0508 112.77 42.0508 112.664C42.0508 112.559 42.2626 112.559 42.3686 112.559L43.1101 112.982C43.216 112.982 43.216 113.193 43.216 113.299C43.1101 113.51 43.0041 113.51 43.0041 113.51ZM108.786 121.653C108.68 121.653 108.574 121.548 108.574 121.442V120.279C108.574 120.173 108.68 120.067 108.786 120.067C108.892 120.067 108.998 120.173 108.998 120.279V121.442C108.998 121.548 108.892 121.653 108.786 121.653ZM108.786 119.327C108.68 119.327 108.574 119.221 108.574 119.115V117.952C108.574 117.846 108.68 117.74 108.786 117.74C108.892 117.74 108.998 117.846 108.998 117.952V119.115C108.998 119.221 108.892 119.327 108.786 119.327ZM108.786 117.106C108.68 117.106 108.574 117 108.574 116.894V115.731C108.574 115.625 108.68 115.52 108.786 115.52C108.892 115.52 108.998 115.625 108.998 115.731V116.894C108.998 117 108.892 117.106 108.786 117.106ZM108.786 114.885C108.68 114.885 108.574 114.779 108.574 114.674V113.51C108.574 113.405 108.68 113.299 108.786 113.299C108.892 113.299 108.998 113.405 108.998 113.51V114.674C108.998 114.779 108.892 114.885 108.786 114.885ZM108.786 112.664C108.68 112.664 108.574 112.559 108.574 112.453V111.29C108.574 111.184 108.68 111.078 108.786 111.078C108.892 111.078 108.998 111.184 108.998 111.29V112.453C108.998 112.453 108.892 112.664 108.786 112.664ZM108.786 110.338C108.68 110.338 108.574 110.232 108.574 110.126V108.963C108.574 108.857 108.68 108.752 108.786 108.752C108.892 108.752 108.998 108.857 108.998 108.963V110.126C108.998 110.232 108.892 110.338 108.786 110.338ZM108.786 108.117C108.68 108.117 108.574 108.011 108.574 107.906V106.742C108.574 106.637 108.68 106.531 108.786 106.531C108.892 106.531 108.998 106.637 108.998 106.742V107.906C108.998 108.011 108.892 108.117 108.786 108.117ZM108.786 105.896C108.68 105.896 108.574 105.791 108.574 105.685V104.522C108.574 104.416 108.68 104.31 108.786 104.31C108.892 104.31 108.998 104.416 108.998 104.522V105.579C108.998 105.791 108.892 105.896 108.786 105.896ZM108.786 103.57C108.68 103.57 108.574 103.464 108.574 103.358V102.195C108.574 102.089 108.68 101.984 108.786 101.984C108.892 101.984 108.998 102.089 108.998 102.195V103.358C108.998 103.464 108.892 103.57 108.786 103.57ZM108.786 101.349C108.68 101.349 108.574 101.243 108.574 101.138V99.9742C108.574 99.8685 108.68 99.7627 108.786 99.7627C108.892 99.7627 108.998 99.8685 108.998 99.9742V101.138C108.998 101.243 108.892 101.349 108.786 101.349ZM108.786 99.1282C108.68 99.1282 108.574 99.0225 108.574 98.9167V97.7535C108.574 97.6477 108.68 97.542 108.786 97.542C108.892 97.542 108.998 97.6477 108.998 97.7535V98.9167C108.998 99.0225 108.892 99.1282 108.786 99.1282ZM108.786 96.8017C108.68 96.8017 108.574 96.696 108.574 96.5902V95.4269C108.574 95.3212 108.68 95.2154 108.786 95.2154C108.892 95.2154 108.998 95.3212 108.998 95.4269V96.5902C108.998 96.8017 108.892 96.8017 108.786 96.8017ZM108.786 94.5809C108.68 94.5809 108.574 94.4752 108.574 94.3694V93.2062C108.574 93.1004 108.68 92.9947 108.786 92.9947C108.892 92.9947 108.998 93.1004 108.998 93.2062V94.3694C108.998 94.4752 108.892 94.5809 108.786 94.5809ZM108.786 92.3601C108.68 92.3601 108.574 92.2544 108.574 92.1486V90.9854C108.574 90.8796 108.68 90.7739 108.786 90.7739C108.892 90.7739 108.998 90.8796 108.998 90.9854V92.1486C108.998 92.2544 108.892 92.3601 108.786 92.3601ZM108.786 90.1394C108.68 90.1394 108.574 90.0336 108.574 89.9279V88.7646C108.574 88.6588 108.68 88.5531 108.786 88.5531C108.892 88.5531 108.998 88.6588 108.998 88.7646V89.9279C108.998 89.9279 108.892 90.1394 108.786 90.1394ZM108.786 87.8128C108.68 87.8128 108.574 87.7071 108.574 87.6013V86.4381C108.574 86.3323 108.68 86.2266 108.786 86.2266C108.892 86.2266 108.998 86.3323 108.998 86.4381V87.6013C108.998 87.7071 108.892 87.8128 108.786 87.8128ZM43.7457 113.722C43.6397 113.722 43.6397 113.722 43.5338 113.616C43.5338 113.51 43.5338 113.405 43.6397 113.299L44.3812 112.876C44.4872 112.876 44.5931 112.876 44.699 112.982C44.699 113.087 44.699 113.193 44.5931 113.299L43.8516 113.722C43.7457 113.722 43.7457 113.722 43.7457 113.722ZM45.3346 112.876C45.2287 112.876 45.2287 112.876 45.1227 112.77C45.1227 112.664 45.1227 112.559 45.2287 112.453L45.9702 112.03C46.0761 112.03 46.182 112.03 46.288 112.136C46.288 112.241 46.288 112.347 46.182 112.453L45.4405 112.876C45.3346 112.77 45.3346 112.876 45.3346 112.876ZM46.8176 111.924C46.7117 111.924 46.7117 111.924 46.6057 111.818C46.6057 111.713 46.6057 111.607 46.7117 111.501L47.4532 111.078C47.5591 111.078 47.665 111.078 47.771 111.184C47.771 111.29 47.771 111.395 47.665 111.501L46.9235 111.924C46.9235 111.924 46.9235 111.924 46.8176 111.924ZM48.4065 111.078C48.3006 111.078 48.3006 111.078 48.1947 110.972C48.1947 110.867 48.1947 110.761 48.3006 110.655L49.0421 110.232C49.148 110.232 49.254 110.232 49.3599 110.338C49.3599 110.444 49.3599 110.549 49.254 110.655L48.5125 111.078C48.5125 110.972 48.5125 111.078 48.4065 111.078ZM49.9955 110.126C49.8896 110.126 49.8896 110.126 49.7836 110.021C49.7836 109.915 49.7836 109.809 49.8896 109.703L50.6311 109.28C50.737 109.28 50.8429 109.28 50.9488 109.386C50.9488 109.492 50.9488 109.598 50.8429 109.703L50.1014 110.126C50.1014 110.126 50.1014 110.126 49.9955 110.126ZM51.5844 109.175C51.4785 109.175 51.4785 109.175 51.3726 109.069C51.3726 108.963 51.3726 108.857 51.4785 108.752L52.22 108.329C52.3259 108.329 52.4319 108.329 52.5378 108.434C52.5378 108.54 52.5378 108.646 52.4319 108.752L51.6904 109.175C51.6904 109.175 51.5844 109.175 51.5844 109.175ZM53.1734 108.329C53.0674 108.329 53.0674 108.329 52.9615 108.223C52.9615 108.117 52.9615 108.011 53.0674 107.906L53.8089 107.483C53.9149 107.483 54.0208 107.483 54.1267 107.588C54.1267 107.694 54.1267 107.8 54.0208 107.906L53.2793 108.329C53.2793 108.329 53.1734 108.329 53.1734 108.329ZM54.7623 107.377C54.6564 107.377 54.6564 107.377 54.5504 107.271C54.5504 107.165 54.5504 107.06 54.6564 106.954L55.3979 106.531C55.5038 106.531 55.6097 106.531 55.7157 106.637C55.7157 106.742 55.7157 106.848 55.6097 106.954L54.8682 107.377C54.8682 107.377 54.8682 107.377 54.7623 107.377ZM56.3512 106.531C56.2453 106.531 56.2453 106.531 56.1394 106.425C56.1394 106.319 56.1394 106.214 56.2453 106.108L56.9868 105.685C57.0928 105.685 57.1987 105.685 57.3046 105.791C57.3046 105.896 57.3046 106.002 57.1987 106.108L56.4572 106.531C56.4572 106.531 56.3512 106.531 56.3512 106.531ZM57.9402 105.579C57.8343 105.579 57.8343 105.579 57.7283 105.473C57.7283 105.368 57.7283 105.262 57.8343 105.156L58.5758 104.733C58.6817 104.733 58.7876 104.733 58.8936 104.839C58.8936 104.945 58.8936 105.05 58.7876 105.156L58.0461 105.579H57.9402ZM59.5291 104.627C59.4232 104.627 59.4232 104.627 59.3173 104.522C59.3173 104.416 59.3173 104.31 59.4232 104.204L60.1647 103.781C60.2706 103.781 60.3766 103.781 60.4825 103.887C60.4825 103.993 60.4825 104.099 60.3766 104.204L59.6351 104.627C59.6351 104.627 59.5291 104.627 59.5291 104.627ZM61.0121 103.781C60.9062 103.781 60.9062 103.781 60.8003 103.676C60.8003 103.57 60.8003 103.464 60.9062 103.358L61.6477 102.935C61.7536 102.935 61.8596 102.935 61.9655 103.041C61.9655 103.147 61.9655 103.253 61.8596 103.358L61.1181 103.781C61.1181 103.781 61.1181 103.781 61.0121 103.781ZM62.707 102.83C62.6011 102.83 62.6011 102.83 62.4951 102.724C62.4951 102.618 62.4952 102.512 62.6011 102.407L63.3426 101.984C63.4485 101.984 63.5544 101.984 63.6604 102.089C63.6604 102.195 63.6604 102.301 63.5544 102.407L62.8129 102.83C62.707 102.83 62.707 102.83 62.707 102.83ZM64.2959 101.984C64.19 101.984 64.19 101.984 64.0841 101.878C64.0841 101.772 64.0841 101.666 64.19 101.561L64.9315 101.138C65.0375 101.138 65.1434 101.138 65.2493 101.243C65.2493 101.349 65.2493 101.455 65.1434 101.561L64.4019 101.984C64.296 101.984 64.2959 101.984 64.2959 101.984ZM65.779 101.032C65.673 101.032 65.673 101.032 65.5671 100.926C65.5671 100.82 65.5671 100.715 65.673 100.609L66.4145 100.186C66.5205 100.186 66.6264 100.186 66.7323 100.292C66.7323 100.397 66.7323 100.503 66.6264 100.609L65.8849 101.032C65.8849 101.032 65.8849 101.032 65.779 101.032ZM67.3679 100.08C67.262 100.08 67.262 100.08 67.156 99.9742C67.156 99.8685 67.156 99.7627 67.262 99.657L68.0035 99.234C68.1094 99.234 68.2153 99.234 68.3213 99.3397C68.3213 99.4455 68.3213 99.5512 68.2153 99.657L67.4738 100.08C67.4738 100.08 67.4738 100.08 67.3679 100.08Z" fill="#453C9E" stroke="#453C9E" stroke-miterlimit="10"/>
<path d="M98.0877 174C107.727 174 115.566 170.087 115.566 165.117C115.566 160.252 107.727 156.233 98.0877 156.233C88.4481 156.233 80.6094 160.146 80.6094 165.117C80.6094 170.087 88.4481 174 98.0877 174Z" fill="#24126A"/>
<path d="M111.116 157.714H83.0449V161.944V162.05C83.0449 166.597 89.4007 170.193 97.1335 170.193C104.866 170.193 111.222 166.492 111.222 162.05C111.222 161.944 111.222 161.944 111.222 161.944V157.714H111.116Z" fill="url(#paint48_linear)"/>
<path d="M97.0281 165.963C104.761 165.963 111.117 162.262 111.117 157.82C111.117 153.273 104.867 149.677 97.0281 149.677C89.1893 149.677 82.9395 153.379 82.9395 157.82C83.0454 162.367 89.2952 165.963 97.0281 165.963Z" fill="url(#paint49_linear)"/>
<path d="M97.0281 165.857C89.4011 165.857 83.1513 162.261 82.9395 157.82C82.9395 157.926 82.9395 157.926 82.9395 157.926C82.9395 162.473 89.2952 166.068 97.0281 166.068C104.761 166.068 111.117 162.367 111.117 157.926C111.117 157.82 111.117 157.82 111.117 157.82C111.011 162.367 104.761 165.857 97.0281 165.857Z" fill="url(#paint50_linear)"/>
<path d="M110.163 153.378H83.8926V156.974V157.08C83.8926 161.31 89.7187 164.694 96.9219 164.694C104.125 164.694 109.951 161.31 109.951 157.08V156.974L110.163 153.378Z" fill="url(#paint51_linear)"/>
<path opacity="0.5" d="M110.163 152.744H83.8926V156.339V156.445C83.8926 160.675 89.7187 164.059 96.9219 164.059C104.125 164.059 109.951 160.675 109.951 156.445V156.339L110.163 152.744Z" fill="#DBDBFC"/>
<path d="M111.116 150.1H83.0449V154.33V154.436C83.0449 158.983 89.4007 162.579 97.1335 162.579C104.866 162.579 111.222 158.877 111.222 154.436C111.222 154.33 111.222 154.33 111.222 154.33V150.1H111.116Z" fill="url(#paint52_linear)"/>
<path d="M97.0281 158.243C104.761 158.243 111.117 154.541 111.117 150.1C111.117 145.553 104.867 141.957 97.0281 141.957C89.1893 141.957 82.9395 145.658 82.9395 150.1C83.0454 154.647 89.2952 158.243 97.0281 158.243Z" fill="url(#paint53_linear)"/>
<path d="M97.0281 158.243C89.4011 158.243 83.1513 154.647 82.9395 150.206C82.9395 150.311 82.9395 150.311 82.9395 150.311C82.9395 154.859 89.2952 158.454 97.0281 158.454C104.761 158.454 111.117 154.753 111.117 150.311C111.117 150.206 111.117 150.206 111.117 150.206C111.011 154.647 104.761 158.243 97.0281 158.243Z" fill="url(#paint54_linear)"/>
<path d="M110.163 145.764H83.8926V149.36V149.465C83.8926 153.696 89.7187 157.08 96.9219 157.08C104.125 157.08 109.951 153.696 109.951 149.465V149.36L110.163 145.764Z" fill="url(#paint55_linear)"/>
<path opacity="0.5" d="M110.163 145.024H83.8926V148.619V148.725C83.8926 152.955 89.7187 156.339 96.9219 156.339C104.125 156.339 109.951 152.955 109.951 148.725V148.619L110.163 145.024Z" fill="#DBDBFC"/>
<path d="M111.116 142.592H83.0449V146.822V146.928C83.0449 151.475 89.4007 155.07 97.1335 155.07C104.866 155.07 111.222 151.369 111.222 146.928C111.222 146.822 111.222 146.822 111.222 146.822V142.592H111.116Z" fill="url(#paint56_linear)"/>
<path d="M97.0281 150.84C104.761 150.84 111.117 147.139 111.117 142.698C111.117 138.15 104.867 134.555 97.0281 134.555C89.1893 134.555 82.9395 138.256 82.9395 142.698C83.0454 147.139 89.2952 150.84 97.0281 150.84Z" fill="url(#paint57_linear)"/>
<path d="M97.0281 150.734C89.4011 150.734 83.1513 147.139 82.9395 142.697C82.9395 142.803 82.9395 142.803 82.9395 142.803C82.9395 147.35 89.2952 150.946 97.0281 150.946C104.761 150.946 111.117 147.245 111.117 142.803C111.117 142.697 111.117 142.697 111.117 142.697C111.011 147.245 104.761 150.734 97.0281 150.734Z" fill="url(#paint58_linear)"/>
<path d="M110.163 138.256H83.8926V141.851V141.957C83.8926 146.187 89.7187 149.571 96.9219 149.571C104.125 149.571 109.951 146.187 109.951 141.957V141.851L110.163 138.256Z" fill="url(#paint59_linear)"/>
<path opacity="0.5" d="M110.163 137.622H83.8926V141.217V141.323C83.8926 145.553 89.7187 148.937 96.9219 148.937C104.125 148.937 109.951 145.553 109.951 141.323V141.217L110.163 137.622Z" fill="#DBDBFC"/>
<path d="M111.116 134.978H83.0449V139.208V139.313C83.0449 143.861 89.4007 147.456 97.1335 147.456C104.866 147.456 111.222 143.755 111.222 139.313C111.222 139.208 111.222 139.208 111.222 139.208V134.978H111.116Z" fill="url(#paint60_linear)"/>
<path d="M97.0281 143.226C104.761 143.226 111.117 139.525 111.117 135.083C111.117 130.642 104.867 126.94 97.0281 126.94C89.1893 126.94 82.9395 130.642 82.9395 135.083C82.9395 139.525 89.2952 143.226 97.0281 143.226Z" fill="url(#paint61_linear)"/>
<path d="M97.0281 143.226C89.4011 143.226 83.1513 139.631 82.9395 135.189C82.9395 135.295 82.9395 135.295 82.9395 135.295C82.9395 139.842 89.2952 143.438 97.0281 143.438C104.761 143.438 111.117 139.736 111.117 135.295C111.117 135.189 111.117 135.189 111.117 135.189C111.011 139.631 104.761 143.226 97.0281 143.226Z" fill="url(#paint62_linear)"/>
<path d="M110.163 130.642H83.8926V134.237V134.343C83.8926 138.573 89.7187 141.957 96.9219 141.957C104.125 141.957 109.951 138.573 109.951 134.343V134.237L110.163 130.642Z" fill="url(#paint63_linear)"/>
<path opacity="0.5" d="M110.163 130.007H83.8926V133.603V133.709C83.8926 137.939 89.7187 141.323 96.9219 141.323C104.125 141.323 109.951 137.939 109.951 133.709V133.603L110.163 130.007Z" fill="#DBDBFC"/>
<path d="M111.116 127.469H83.0449V131.699V131.805C83.0449 136.352 89.4007 139.948 97.1335 139.948C104.866 139.948 111.222 136.247 111.222 131.805C111.222 131.699 111.222 131.699 111.222 131.699V127.469H111.116Z" fill="url(#paint64_linear)"/>
<path d="M97.0281 135.718C104.761 135.718 111.117 132.017 111.117 127.575C111.117 123.028 104.867 119.432 97.0281 119.432C89.1893 119.432 82.9395 123.133 82.9395 127.575C83.0454 132.017 89.2952 135.718 97.0281 135.718Z" fill="url(#paint65_linear)"/>
<path d="M97.0281 135.718C89.4011 135.718 83.1513 132.122 82.9395 127.681C82.9395 127.786 82.9395 127.786 82.9395 127.786C82.9395 132.334 89.2952 135.929 97.0281 135.929C104.761 135.929 111.117 132.228 111.117 127.786C111.117 127.681 111.117 127.681 111.117 127.681C111.011 132.122 104.761 135.718 97.0281 135.718Z" fill="url(#paint66_linear)"/>
<path d="M98.0875 130.536C102.007 130.536 105.185 128.95 105.185 126.94C105.185 124.931 102.007 123.345 98.0875 123.345C94.1681 123.345 90.9902 124.931 90.9902 126.94C90.9902 128.95 94.1681 130.536 98.0875 130.536Z" fill="#24126A"/>
<path d="M102.749 124.826H91.4141V127.046C91.4141 127.046 91.4141 127.046 91.4141 127.152C91.4141 128.95 93.9564 130.431 97.0283 130.431C100.1 130.431 102.643 128.95 102.643 127.152C102.643 127.152 102.643 127.152 102.643 127.046V124.826H102.749Z" fill="url(#paint67_linear)"/>
<path opacity="0.5" d="M91.4141 124.826C91.4141 126.623 93.9564 128.104 97.0283 128.104C100.1 128.104 102.643 126.623 102.643 124.826C102.643 123.028 100.1 121.547 97.0283 121.547C93.9564 121.547 91.4141 123.028 91.4141 124.826Z" fill="#DBDBFC"/>
<path d="M93.5332 124.826C93.5332 125.989 95.1221 126.835 97.0289 126.835C98.9356 126.835 100.525 125.883 100.525 124.826C100.525 123.768 98.9356 122.816 97.0289 122.816C95.1221 122.816 93.5332 123.768 93.5332 124.826Z" fill="url(#paint68_linear)"/>
<path opacity="0.5" d="M97.0284 124.72C98.4055 124.72 99.5707 125.143 100.206 125.777C100.524 125.46 100.63 125.143 100.63 124.826C100.63 123.662 99.0411 122.816 97.1343 122.816C95.2276 122.816 93.6387 123.768 93.6387 124.826C93.6387 125.249 93.7446 125.46 94.0624 125.777C94.4861 125.143 95.7573 124.72 97.0284 124.72Z" fill="#DBDBFC"/>
<path opacity="0.5" d="M97.0283 128.104C93.9564 128.104 91.52 126.729 91.4141 124.826V124.931C91.4141 126.729 93.9564 128.21 97.0283 128.21C100.1 128.21 102.643 126.729 102.643 124.931V124.826C102.643 126.729 100.1 128.104 97.0283 128.104Z" fill="#DBDBFC"/>
<path d="M51.4783 144.389C61.1179 144.389 68.9567 140.476 68.9567 135.506C68.9567 130.642 61.1179 126.623 51.4783 126.623C41.8388 126.729 34 130.642 34 135.612C34 140.476 41.8388 144.389 51.4783 144.389Z" fill="#24126A"/>
<path d="M64.5068 128.104H36.4355V132.334V132.44C36.4355 136.987 42.7913 140.583 50.5242 140.583C58.257 140.583 64.6128 136.881 64.6128 132.44C64.6128 132.334 64.6128 132.334 64.6128 132.334V128.104H64.5068Z" fill="url(#paint69_linear)"/>
<path d="M50.4187 136.353C58.1515 136.353 64.5073 132.651 64.5073 128.21C64.5073 123.662 58.2575 120.067 50.4187 120.067C42.5799 120.067 36.3301 123.768 36.3301 128.21C36.436 132.757 42.6858 136.353 50.4187 136.353Z" fill="url(#paint70_linear)"/>
<path d="M50.4187 136.247C42.7918 136.247 36.5419 132.651 36.3301 128.209C36.3301 128.315 36.3301 128.315 36.3301 128.315C36.3301 132.863 42.6858 136.458 50.4187 136.458C58.1515 136.458 64.5073 132.757 64.5073 128.315C64.5073 128.209 64.5073 128.209 64.5073 128.209C64.4014 132.757 58.1515 136.247 50.4187 136.247Z" fill="url(#paint71_linear)"/>
<path d="M63.5537 123.768H37.2832V127.364V127.469C37.2832 131.699 43.1093 135.083 50.3125 135.083C57.5157 135.083 63.3418 131.699 63.3418 127.469V127.364L63.5537 123.768Z" fill="url(#paint72_linear)"/>
<path opacity="0.5" d="M63.5537 123.133H37.2832V126.729V126.835C37.2832 131.065 43.1093 134.449 50.3125 134.449C57.5157 134.449 63.3418 131.065 63.3418 126.835V126.729L63.5537 123.133Z" fill="#DBDBFC"/>
<path d="M64.5068 120.49H36.4355V124.72V124.826C36.4355 129.373 42.7913 132.968 50.5242 132.968C58.257 132.968 64.6128 129.267 64.6128 124.826C64.6128 124.72 64.6128 124.72 64.6128 124.72V120.49H64.5068Z" fill="url(#paint73_linear)"/>
<path d="M50.4187 128.632C58.1515 128.632 64.5073 124.931 64.5073 120.49C64.5073 115.942 58.2575 112.347 50.4187 112.347C42.5799 112.347 36.3301 116.048 36.3301 120.49C36.436 125.037 42.6858 128.632 50.4187 128.632Z" fill="url(#paint74_linear)"/>
<path d="M50.4187 128.632C42.7918 128.632 36.5419 125.037 36.3301 120.595C36.3301 120.701 36.3301 120.701 36.3301 120.701C36.3301 125.248 42.6858 128.844 50.4187 128.844C58.1515 128.844 64.5073 125.143 64.5073 120.701C64.5073 120.595 64.5073 120.595 64.5073 120.595C64.4014 125.037 58.1515 128.632 50.4187 128.632Z" fill="url(#paint75_linear)"/>
<path d="M63.5537 116.154H37.2832V119.749V119.855C37.2832 124.085 43.1093 127.469 50.3125 127.469C57.5157 127.469 63.3418 124.085 63.3418 119.855V119.749L63.5537 116.154Z" fill="url(#paint76_linear)"/>
<path opacity="0.5" d="M63.5537 115.414H37.2832V119.009V119.115C37.2832 123.345 43.1093 126.729 50.3125 126.729C57.5157 126.729 63.3418 123.345 63.3418 119.115V119.009L63.5537 115.414Z" fill="#DBDBFC"/>
<path d="M64.5068 112.981H36.4355V117.212V117.317C36.4355 121.865 42.7913 125.46 50.5242 125.46C58.257 125.46 64.6128 121.759 64.6128 117.317C64.6128 117.212 64.6128 117.212 64.6128 117.212V112.981H64.5068Z" fill="url(#paint77_linear)"/>
<path d="M50.4187 121.23C58.1515 121.23 64.5073 117.529 64.5073 113.087C64.5073 108.54 58.2575 104.944 50.4187 104.944C42.5799 104.944 36.3301 108.646 36.3301 113.087C36.436 117.529 42.6858 121.23 50.4187 121.23Z" fill="url(#paint78_linear)"/>
<path d="M50.4187 121.124C42.7918 121.124 36.5419 117.528 36.3301 113.087C36.3301 113.193 36.3301 113.193 36.3301 113.193C36.3301 117.74 42.6858 121.336 50.4187 121.336C58.1515 121.336 64.5073 117.634 64.5073 113.193C64.5073 113.087 64.5073 113.087 64.5073 113.087C64.4014 117.634 58.1515 121.124 50.4187 121.124Z" fill="url(#paint79_linear)"/>
<path d="M63.5537 108.646H37.2832V112.241V112.347C37.2832 116.577 43.1093 119.961 50.3125 119.961C57.5157 119.961 63.3418 116.577 63.3418 112.347V112.241L63.5537 108.646Z" fill="url(#paint80_linear)"/>
<path opacity="0.5" d="M63.5537 108.011H37.2832V111.607V111.713C37.2832 115.943 43.1093 119.327 50.3125 119.327C57.5157 119.327 63.3418 115.943 63.3418 111.713V111.607L63.5537 108.011Z" fill="#DBDBFC"/>
<path d="M64.5068 105.367H36.4355V109.597V109.703C36.4355 114.25 42.7913 117.846 50.5242 117.846C58.257 117.846 64.6128 114.145 64.6128 109.703C64.6128 109.597 64.6128 109.597 64.6128 109.597V105.367H64.5068Z" fill="url(#paint81_linear)"/>
<path d="M50.4182 113.616C58.1511 113.616 64.5068 109.915 64.5068 105.473C64.5068 101.031 58.257 97.3301 50.4182 97.3301C42.5795 97.3301 36.4355 100.926 36.4355 105.473C36.4355 110.02 42.6854 113.616 50.4182 113.616Z" fill="url(#paint82_linear)"/>
<path d="M50.4187 113.616C42.7918 113.616 36.5419 110.02 36.3301 105.579C36.3301 105.684 36.3301 105.684 36.3301 105.684C36.3301 110.232 42.6858 113.827 50.4187 113.827C58.1515 113.827 64.5073 110.126 64.5073 105.684C64.5073 105.579 64.5073 105.579 64.5073 105.579C64.4014 110.02 58.1515 113.616 50.4187 113.616Z" fill="url(#paint83_linear)"/>
<path d="M63.5537 101.031H37.2832V104.627V104.733C37.2832 108.963 43.1093 112.347 50.3125 112.347C57.5157 112.347 63.3418 108.963 63.3418 104.733V104.627L63.5537 101.031Z" fill="url(#paint84_linear)"/>
<path opacity="0.5" d="M63.5537 100.397H37.2832V103.993V104.098C37.2832 108.328 43.1093 111.712 50.3125 111.712C57.5157 111.712 63.3418 108.328 63.3418 104.098V103.993L63.5537 100.397Z" fill="#DBDBFC"/>
<path d="M64.5068 97.8589H36.4355V102.089V102.195C36.4355 106.742 42.7913 110.338 50.5242 110.338C58.257 110.338 64.6128 106.636 64.6128 102.195C64.6128 102.089 64.6128 102.089 64.6128 102.089V97.8589H64.5068Z" fill="url(#paint85_linear)"/>
<path d="M50.4182 106.107C58.1511 106.107 64.5068 102.406 64.5068 97.9646C64.5068 93.4173 58.257 89.8218 50.4182 89.8218C42.5795 89.8218 36.4355 93.4173 36.4355 97.8589C36.4355 102.406 42.6854 106.107 50.4182 106.107Z" fill="url(#paint86_linear)"/>
<path d="M50.4187 106.107C42.7918 106.107 36.5419 102.512 36.3301 98.0703C36.3301 98.1761 36.3301 98.1761 36.3301 98.1761C36.3301 102.723 42.6858 106.319 50.4187 106.319C58.1515 106.319 64.5073 102.618 64.5073 98.1761C64.5073 98.0703 64.5073 98.0703 64.5073 98.0703C64.4014 102.512 58.1515 106.107 50.4187 106.107Z" fill="url(#paint87_linear)"/>
<path d="M51.4781 100.925C55.3975 100.925 58.5754 99.3392 58.5754 97.3299C58.5754 95.3206 55.3975 93.7344 51.4781 93.7344C47.5587 93.7344 44.3809 95.3206 44.3809 97.3299C44.3809 99.3392 47.5587 100.925 51.4781 100.925Z" fill="#24126A"/>
<path d="M56.1391 95.2153H44.8047V97.4361C44.8047 97.4361 44.8047 97.4361 44.8047 97.5419C44.8047 99.3396 47.347 100.82 50.4189 100.82C53.4909 100.82 56.0332 99.3396 56.0332 97.5419C56.0332 97.5419 56.0332 97.5419 56.0332 97.4361V95.2153H56.1391Z" fill="url(#paint88_linear)"/>
<path opacity="0.5" d="M44.8047 95.2153C44.8047 97.0131 47.347 98.4936 50.4189 98.4936C53.4909 98.4936 56.0332 97.0131 56.0332 95.2153C56.0332 93.4175 53.4909 91.937 50.4189 91.937C47.347 91.937 44.8047 93.4175 44.8047 95.2153Z" fill="#DBDBFC"/>
<path d="M46.9238 95.2153C46.9238 96.3786 48.5128 97.2246 50.4195 97.2246C52.3262 97.2246 53.9152 96.2728 53.9152 95.2153C53.9152 94.1578 52.3262 93.2061 50.4195 93.2061C48.5128 93.2061 46.9238 94.1578 46.9238 95.2153Z" fill="url(#paint89_linear)"/>
<path opacity="0.5" d="M50.419 95.1096C51.7961 95.1096 52.9613 95.5326 53.5969 96.1671C53.9147 95.8498 54.0206 95.5326 54.0206 95.2153C54.0206 94.0521 52.4317 93.2061 50.525 93.2061C48.6182 93.2061 47.0293 94.1578 47.0293 95.2153C47.0293 95.6383 47.1352 95.8498 47.453 96.1671C47.8767 95.5326 49.1479 95.1096 50.419 95.1096Z" fill="#DBDBFC"/>
<path opacity="0.5" d="M50.4189 98.4936C47.347 98.4936 44.9106 97.1189 44.8047 95.2153V95.3211C44.8047 97.1189 47.347 98.5994 50.4189 98.5994C53.4909 98.5994 56.0332 97.1189 56.0332 95.3211V95.2153C56.0332 97.1189 53.4909 98.4936 50.4189 98.4936Z" fill="#DBDBFC"/>
</g>
<defs>
<linearGradient id="paint0_linear" x1="83.6301" y1="102.961" x2="181.752" y2="102.961" gradientUnits="userSpaceOnUse">
<stop stop-color="#9F19AB"/>
<stop offset="0.0300926" stop-color="#6B22AC"/>
<stop offset="0.5913" stop-color="#4427BD"/>
<stop offset="0.904" stop-color="#26297D"/>
</linearGradient>
<linearGradient id="paint1_linear" x1="84.7161" y1="102.961" x2="180.57" y2="102.961" gradientUnits="userSpaceOnUse">
<stop stop-color="#9F19AB"/>
<stop offset="0.0300926" stop-color="#6B22AC"/>
<stop offset="0.5913" stop-color="#4427BD"/>
<stop offset="0.904" stop-color="#26297D"/>
</linearGradient>
<linearGradient id="paint2_linear" x1="85.7946" y1="102.984" x2="179.404" y2="102.984" gradientUnits="userSpaceOnUse">
<stop stop-color="#9F19AB"/>
<stop offset="0.0300926" stop-color="#6B22AC"/>
<stop offset="0.5913" stop-color="#4427BD"/>
<stop offset="0.904" stop-color="#26297D"/>
</linearGradient>
<linearGradient id="paint3_linear" x1="86.9161" y1="103.007" x2="178.327" y2="103.007" gradientUnits="userSpaceOnUse">
<stop stop-color="#9F19AB"/>
<stop offset="0.0300926" stop-color="#6B22AC"/>
<stop offset="0.5913" stop-color="#4427BD"/>
<stop offset="0.904" stop-color="#26297D"/>
</linearGradient>
<linearGradient id="paint4_linear" x1="87.9905" y1="102.984" x2="177.202" y2="102.984" gradientUnits="userSpaceOnUse">
<stop stop-color="#9F19AB"/>
<stop offset="0.0300926" stop-color="#6B22AC"/>
<stop offset="0.5913" stop-color="#4427BD"/>
<stop offset="0.904" stop-color="#26297D"/>
</linearGradient>
<linearGradient id="paint5_linear" x1="89.0671" y1="103.006" x2="176.062" y2="103.006" gradientUnits="userSpaceOnUse">
<stop stop-color="#9F19AB"/>
<stop offset="0.0300926" stop-color="#6B22AC"/>
<stop offset="0.5913" stop-color="#4427BD"/>
<stop offset="0.904" stop-color="#26297D"/>
</linearGradient>
<linearGradient id="paint6_linear" x1="90.1665" y1="103.052" x2="174.899" y2="103.052" gradientUnits="userSpaceOnUse">
<stop stop-color="#9F19AB"/>
<stop offset="0.0300926" stop-color="#6B22AC"/>
<stop offset="0.5913" stop-color="#4427BD"/>
<stop offset="0.904" stop-color="#26297D"/>
</linearGradient>
<linearGradient id="paint7_linear" x1="91.2338" y1="103.052" x2="173.737" y2="103.052" gradientUnits="userSpaceOnUse">
<stop stop-color="#9F19AB"/>
<stop offset="0.0300926" stop-color="#6B22AC"/>
<stop offset="0.5913" stop-color="#4427BD"/>
<stop offset="0.904" stop-color="#26297D"/>
</linearGradient>
<linearGradient id="paint8_linear" x1="92.3542" y1="103.029" x2="172.66" y2="103.029" gradientUnits="userSpaceOnUse">
<stop stop-color="#9F19AB"/>
<stop offset="0.0300926" stop-color="#6B22AC"/>
<stop offset="0.5913" stop-color="#4427BD"/>
<stop offset="0.904" stop-color="#26297D"/>
</linearGradient>
<linearGradient id="paint9_linear" x1="93.4765" y1="103.098" x2="171.54" y2="103.098" gradientUnits="userSpaceOnUse">
<stop stop-color="#9F19AB"/>
<stop offset="0.0300926" stop-color="#6B22AC"/>
<stop offset="0.5913" stop-color="#4427BD"/>
<stop offset="0.904" stop-color="#26297D"/>
</linearGradient>
<linearGradient id="paint10_linear" x1="94.5695" y1="103.097" x2="170.399" y2="103.097" gradientUnits="userSpaceOnUse">
<stop stop-color="#9F19AB"/>
<stop offset="0.0300926" stop-color="#6B22AC"/>
<stop offset="0.5913" stop-color="#4427BD"/>
<stop offset="0.904" stop-color="#26297D"/>
</linearGradient>
<linearGradient id="paint11_linear" x1="95.6443" y1="103.074" x2="169.232" y2="103.074" gradientUnits="userSpaceOnUse">
<stop stop-color="#9F19AB"/>
<stop offset="0.0300926" stop-color="#6B22AC"/>
<stop offset="0.5913" stop-color="#4427BD"/>
<stop offset="0.904" stop-color="#26297D"/>
</linearGradient>
<linearGradient id="paint12_linear" x1="96.713" y1="103.12" x2="168.074" y2="103.12" gradientUnits="userSpaceOnUse">
<stop stop-color="#9F19AB"/>
<stop offset="0.0300926" stop-color="#6B22AC"/>
<stop offset="0.5913" stop-color="#4427BD"/>
<stop offset="0.904" stop-color="#26297D"/>
</linearGradient>
<linearGradient id="paint13_linear" x1="97.7888" y1="103.143" x2="166.955" y2="103.143" gradientUnits="userSpaceOnUse">
<stop stop-color="#9F19AB"/>
<stop offset="0.0300926" stop-color="#6B22AC"/>
<stop offset="0.5913" stop-color="#4427BD"/>
<stop offset="0.904" stop-color="#26297D"/>
</linearGradient>
<linearGradient id="paint14_linear" x1="98.8903" y1="103.12" x2="165.894" y2="103.12" gradientUnits="userSpaceOnUse">
<stop stop-color="#9F19AB"/>
<stop offset="0.0300926" stop-color="#6B22AC"/>
<stop offset="0.5913" stop-color="#4427BD"/>
<stop offset="0.904" stop-color="#26297D"/>
</linearGradient>
<linearGradient id="paint15_linear" x1="99.9826" y1="103.12" x2="164.712" y2="103.12" gradientUnits="userSpaceOnUse">
<stop stop-color="#9F19AB"/>
<stop offset="0.0300926" stop-color="#6B22AC"/>
<stop offset="0.5913" stop-color="#4427BD"/>
<stop offset="0.904" stop-color="#26297D"/>
</linearGradient>
<linearGradient id="paint16_linear" x1="101.054" y1="103.188" x2="163.591" y2="103.188" gradientUnits="userSpaceOnUse">
<stop stop-color="#9F19AB"/>
<stop offset="0.0300926" stop-color="#6B22AC"/>
<stop offset="0.5913" stop-color="#4427BD"/>
<stop offset="0.904" stop-color="#26297D"/>
</linearGradient>
<linearGradient id="paint17_linear" x1="102.129" y1="103.166" x2="162.474" y2="103.166" gradientUnits="userSpaceOnUse">
<stop stop-color="#9F19AB"/>
<stop offset="0.0300926" stop-color="#6B22AC"/>
<stop offset="0.5913" stop-color="#4427BD"/>
<stop offset="0.904" stop-color="#26297D"/>
</linearGradient>
<linearGradient id="paint18_linear" x1="103.196" y1="103.166" x2="161.318" y2="103.166" gradientUnits="userSpaceOnUse">
<stop stop-color="#9F19AB"/>
<stop offset="0.0300926" stop-color="#6B22AC"/>
<stop offset="0.5913" stop-color="#4427BD"/>
<stop offset="0.904" stop-color="#26297D"/>
</linearGradient>
<linearGradient id="paint19_linear" x1="104.312" y1="103.211" x2="160.199" y2="103.211" gradientUnits="userSpaceOnUse">
<stop stop-color="#9F19AB"/>
<stop offset="0.0300926" stop-color="#6B22AC"/>
<stop offset="0.5913" stop-color="#4427BD"/>
<stop offset="0.904" stop-color="#26297D"/>
</linearGradient>
<linearGradient id="paint20_linear" x1="105.446" y1="103.211" x2="159.065" y2="103.211" gradientUnits="userSpaceOnUse">
<stop stop-color="#9F19AB"/>
<stop offset="0.0300926" stop-color="#6B22AC"/>
<stop offset="0.5913" stop-color="#4427BD"/>
<stop offset="0.904" stop-color="#26297D"/>
</linearGradient>
<linearGradient id="paint21_linear" x1="127.69" y1="95.0957" x2="138.043" y2="91.991" gradientUnits="userSpaceOnUse">
<stop stop-color="#7364BD"/>
<stop offset="0.8339" stop-color="#4023A2"/>
<stop offset="0.9987" stop-color="#3A0F9A"/>
</linearGradient>
<linearGradient id="paint22_linear" x1="85.5533" y1="96.5143" x2="148.672" y2="82.3413" gradientUnits="userSpaceOnUse">
<stop stop-color="#25054D"/>
<stop offset="1" stop-color="#45108A"/>
</linearGradient>
<linearGradient id="paint23_linear" x1="131.398" y1="105.57" x2="112.689" y2="85.567" gradientUnits="userSpaceOnUse">
<stop stop-color="#7364BD"/>
<stop offset="0.8339" stop-color="#4023A2"/>
<stop offset="0.9987" stop-color="#3A0F9A"/>
</linearGradient>
<linearGradient id="paint24_linear" x1="122.13" y1="76.5758" x2="116.971" y2="86.4248" gradientUnits="userSpaceOnUse">
<stop offset="0.7374" stop-color="#45108A"/>
<stop offset="1" stop-color="#3746A3"/>
</linearGradient>
<linearGradient id="paint25_linear" x1="113.933" y1="88.3593" x2="112.509" y2="85.8869" gradientUnits="userSpaceOnUse">
<stop offset="0.2879" stop-color="#838091"/>
<stop offset="0.4656" stop-color="#A5A2B1"/>
<stop offset="0.5859" stop-color="#B7B4C2"/>
<stop offset="0.8081" stop-color="#9B98A7"/>
</linearGradient>
<linearGradient id="paint26_linear" x1="112.464" y1="88.1496" x2="113.723" y2="85.976" gradientUnits="userSpaceOnUse">
<stop offset="0.0353535" stop-color="#9D9EB3"/>
<stop offset="0.5808" stop-color="#D4D1D8"/>
<stop offset="1" stop-color="#EEEBF2"/>
</linearGradient>
<linearGradient id="paint27_linear" x1="113.3" y1="88.49" x2="112.077" y2="86.367" gradientUnits="userSpaceOnUse">
<stop offset="0.1667" stop-color="#838091"/>
<stop offset="0.4167" stop-color="#A5A2B1"/>
<stop offset="0.5859" stop-color="#B7B4C2"/>
<stop offset="0.9091" stop-color="#9B98A7"/>
</linearGradient>
<linearGradient id="paint28_linear" x1="111.962" y1="88.3654" x2="113.043" y2="86.4997" gradientUnits="userSpaceOnUse">
<stop offset="0.0353535" stop-color="#9D9EB3"/>
<stop offset="0.5808" stop-color="#D4D1D8"/>
<stop offset="1" stop-color="#EEEBF2"/>
</linearGradient>
<linearGradient id="paint29_linear" x1="117.277" y1="90.2913" x2="115.853" y2="87.8189" gradientUnits="userSpaceOnUse">
<stop offset="0.2879" stop-color="#838091"/>
<stop offset="0.4656" stop-color="#A5A2B1"/>
<stop offset="0.5859" stop-color="#B7B4C2"/>
<stop offset="0.8081" stop-color="#9B98A7"/>
</linearGradient>
<linearGradient id="paint30_linear" x1="115.822" y1="90.0798" x2="117.081" y2="87.9061" gradientUnits="userSpaceOnUse">
<stop offset="0.0353535" stop-color="#9D9EB3"/>
<stop offset="0.5808" stop-color="#D4D1D8"/>
<stop offset="1" stop-color="#EEEBF2"/>
</linearGradient>
<linearGradient id="paint31_linear" x1="116.672" y1="90.4057" x2="115.449" y2="88.2828" gradientUnits="userSpaceOnUse">
<stop offset="0.1667" stop-color="#838091"/>
<stop offset="0.4167" stop-color="#A5A2B1"/>
<stop offset="0.5859" stop-color="#B7B4C2"/>
<stop offset="0.9091" stop-color="#9B98A7"/>
</linearGradient>
<linearGradient id="paint32_linear" x1="115.318" y1="90.2934" x2="116.399" y2="88.4266" gradientUnits="userSpaceOnUse">
<stop offset="0.0353535" stop-color="#9D9EB3"/>
<stop offset="0.5808" stop-color="#D4D1D8"/>
<stop offset="1" stop-color="#EEEBF2"/>
</linearGradient>
<radialGradient id="paint33_radial" cx="0" cy="0" r="1" gradientUnits="userSpaceOnUse" gradientTransform="translate(116.097 89.4477) scale(0.882389 0.880913)">
<stop stop-color="white"/>
<stop offset="1"/>
</radialGradient>
<linearGradient id="paint34_linear" x1="120.515" y1="92.3402" x2="119.091" y2="89.8679" gradientUnits="userSpaceOnUse">
<stop offset="0.2879" stop-color="#838091"/>
<stop offset="0.4656" stop-color="#A5A2B1"/>
<stop offset="0.5859" stop-color="#B7B4C2"/>
<stop offset="0.8081" stop-color="#9B98A7"/>
</linearGradient>
<linearGradient id="paint35_linear" x1="119.062" y1="92.1257" x2="120.321" y2="89.9509" gradientUnits="userSpaceOnUse">
<stop offset="0.0353535" stop-color="#9D9EB3"/>
<stop offset="0.5808" stop-color="#D4D1D8"/>
<stop offset="1" stop-color="#EEEBF2"/>
</linearGradient>
<linearGradient id="paint36_linear" x1="119.911" y1="92.4547" x2="118.688" y2="90.3327" gradientUnits="userSpaceOnUse">
<stop offset="0.1667" stop-color="#838091"/>
<stop offset="0.4167" stop-color="#A5A2B1"/>
<stop offset="0.5859" stop-color="#B7B4C2"/>
<stop offset="0.9091" stop-color="#9B98A7"/>
</linearGradient>
<linearGradient id="paint37_linear" x1="118.562" y1="92.3412" x2="119.642" y2="90.4756" gradientUnits="userSpaceOnUse">
<stop offset="0.0353535" stop-color="#9D9EB3"/>
<stop offset="0.5808" stop-color="#D4D1D8"/>
<stop offset="1" stop-color="#EEEBF2"/>
</linearGradient>
<radialGradient id="paint38_radial" cx="0" cy="0" r="1" gradientUnits="userSpaceOnUse" gradientTransform="translate(119.34 91.4957) scale(0.882398 0.880908)">
<stop stop-color="white"/>
<stop offset="1"/>
</radialGradient>
<linearGradient id="paint39_linear" x1="110.526" y1="86.425" x2="109.102" y2="83.9526" gradientUnits="userSpaceOnUse">
<stop offset="0.2879" stop-color="#838091"/>
<stop offset="0.4656" stop-color="#A5A2B1"/>
<stop offset="0.5859" stop-color="#B7B4C2"/>
<stop offset="0.8081" stop-color="#9B98A7"/>
</linearGradient>
<linearGradient id="paint40_linear" x1="109.071" y1="86.2326" x2="110.33" y2="84.0579" gradientUnits="userSpaceOnUse">
<stop offset="0.0353535" stop-color="#9D9EB3"/>
<stop offset="0.5808" stop-color="#D4D1D8"/>
<stop offset="1" stop-color="#EEEBF2"/>
</linearGradient>
<linearGradient id="paint41_linear" x1="109.893" y1="86.5562" x2="108.67" y2="84.4331" gradientUnits="userSpaceOnUse">
<stop offset="0.1667" stop-color="#838091"/>
<stop offset="0.4167" stop-color="#A5A2B1"/>
<stop offset="0.5859" stop-color="#B7B4C2"/>
<stop offset="0.9091" stop-color="#9B98A7"/>
</linearGradient>
<linearGradient id="paint42_linear" x1="108.55" y1="86.4371" x2="109.631" y2="84.5714" gradientUnits="userSpaceOnUse">
<stop offset="0.0353535" stop-color="#9D9EB3"/>
<stop offset="0.5808" stop-color="#D4D1D8"/>
<stop offset="1" stop-color="#EEEBF2"/>
</linearGradient>
<radialGradient id="paint43_radial" cx="0" cy="0" r="1" gradientUnits="userSpaceOnUse" gradientTransform="translate(109.329 85.5925) scale(0.882389 0.880906)">
<stop stop-color="white"/>
<stop offset="1"/>
</radialGradient>
<linearGradient id="paint44_linear" x1="70.728" y1="62.7348" x2="165.251" y2="62.7348" gradientUnits="userSpaceOnUse">
<stop stop-color="#998FC8"/>
<stop offset="0.5528" stop-color="#7E73B6"/>
<stop offset="1" stop-color="#6053A2"/>
</linearGradient>
<linearGradient id="paint45_linear" x1="151.081" y1="39.9923" x2="133.581" y2="72.7759" gradientUnits="userSpaceOnUse">
<stop stop-color="#4613FF"/>
<stop offset="1" stop-color="#FFF6FF"/>
</linearGradient>
<linearGradient id="paint46_linear" x1="101.51" y1="19.5731" x2="119.917" y2="45.1718" gradientUnits="userSpaceOnUse">
<stop stop-color="#7364BD"/>
<stop offset="0.8339" stop-color="#4023A2"/>
<stop offset="0.9987" stop-color="#3A0F9A"/>
</linearGradient>
<linearGradient id="paint47_linear" x1="109.125" y1="6.59479" x2="166.358" y2="101.629" gradientUnits="userSpaceOnUse">
<stop stop-color="#7364BD"/>
<stop offset="0.8339" stop-color="#4023A2"/>
<stop offset="0.9987" stop-color="#3A0F9A"/>
</linearGradient>
<linearGradient id="paint48_linear" x1="83.1332" y1="163.993" x2="110.817" y2="163.993" gradientUnits="userSpaceOnUse">
<stop stop-color="#7364BD"/>
<stop offset="0.8339" stop-color="#4023A2"/>
<stop offset="0.9987" stop-color="#3A0F9A"/>
</linearGradient>
<linearGradient id="paint49_linear" x1="113.593" y1="140.117" x2="91.35" y2="164.009" gradientUnits="userSpaceOnUse">
<stop stop-color="#9F79C8"/>
<stop offset="0.1367" stop-color="#A580CB"/>
<stop offset="0.3288" stop-color="#B492D3"/>
<stop offset="0.5529" stop-color="#CDB0E1"/>
<stop offset="0.5808" stop-color="#D1B4E3"/>
<stop offset="0.7644" stop-color="#DBC4E9"/>
<stop offset="1" stop-color="#EBDEF3"/>
</linearGradient>
<linearGradient id="paint50_linear" x1="83.0265" y1="162.294" x2="111.127" y2="162.294" gradientUnits="userSpaceOnUse">
<stop offset="0.010101" stop-color="#C1A1D5"/>
<stop offset="0.0487861" stop-color="#C8ABDA"/>
<stop offset="0.1149" stop-color="#DAC6E6"/>
<stop offset="0.1998" stop-color="#F7F2F9"/>
<stop offset="0.2222" stop-color="white"/>
<stop offset="0.2513" stop-color="#F9F5FB"/>
<stop offset="0.3001" stop-color="#E9DBF2"/>
<stop offset="0.3586" stop-color="#D1B4E3"/>
<stop offset="0.4264" stop-color="#B395D6"/>
<stop offset="0.4949" stop-color="#9C7DCB"/>
<stop offset="0.5583" stop-color="#8E6EC5"/>
<stop offset="0.6111" stop-color="#8969C3"/>
<stop offset="0.755" stop-color="#9471C6"/>
<stop offset="1" stop-color="#B086CC"/>
</linearGradient>
<linearGradient id="paint51_linear" x1="84.0918" y1="159.044" x2="109.871" y2="159.044" gradientUnits="userSpaceOnUse">
<stop stop-color="#25054D"/>
<stop offset="0.2172" stop-color="#45108A"/>
<stop offset="0.4192" stop-color="#25054D"/>
<stop offset="0.5555" stop-color="#270651"/>
<stop offset="0.6984" stop-color="#2E085E"/>
<stop offset="0.8438" stop-color="#390C73"/>
<stop offset="0.9646" stop-color="#45108A"/>
</linearGradient>
<linearGradient id="paint52_linear" x1="83.1332" y1="156.344" x2="110.817" y2="156.344" gradientUnits="userSpaceOnUse">
<stop stop-color="#7364BD"/>
<stop offset="0.8339" stop-color="#4023A2"/>
<stop offset="0.9987" stop-color="#3A0F9A"/>
</linearGradient>
<linearGradient id="paint53_linear" x1="113.573" y1="132.414" x2="91.3296" y2="156.304" gradientUnits="userSpaceOnUse">
<stop stop-color="#9F79C8"/>
<stop offset="0.1367" stop-color="#A580CB"/>
<stop offset="0.3288" stop-color="#B492D3"/>
<stop offset="0.5529" stop-color="#CDB0E1"/>
<stop offset="0.5808" stop-color="#D1B4E3"/>
<stop offset="0.7644" stop-color="#DBC4E9"/>
<stop offset="1" stop-color="#EBDEF3"/>
</linearGradient>
<linearGradient id="paint54_linear" x1="83.0265" y1="154.645" x2="111.127" y2="154.645" gradientUnits="userSpaceOnUse">
<stop offset="0.010101" stop-color="#C1A1D5"/>
<stop offset="0.0487861" stop-color="#C8ABDA"/>
<stop offset="0.1149" stop-color="#DAC6E6"/>
<stop offset="0.1998" stop-color="#F7F2F9"/>
<stop offset="0.2222" stop-color="white"/>
<stop offset="0.2513" stop-color="#F9F5FB"/>
<stop offset="0.3001" stop-color="#E9DBF2"/>
<stop offset="0.3586" stop-color="#D1B4E3"/>
<stop offset="0.4264" stop-color="#B395D6"/>
<stop offset="0.4949" stop-color="#9C7DCB"/>
<stop offset="0.5583" stop-color="#8E6EC5"/>
<stop offset="0.6111" stop-color="#8969C3"/>
<stop offset="0.755" stop-color="#9471C6"/>
<stop offset="1" stop-color="#B086CC"/>
</linearGradient>
<linearGradient id="paint55_linear" x1="84.0918" y1="151.392" x2="109.871" y2="151.392" gradientUnits="userSpaceOnUse">
<stop stop-color="#25054D"/>
<stop offset="0.2172" stop-color="#45108A"/>
<stop offset="0.4192" stop-color="#25054D"/>
<stop offset="0.5555" stop-color="#270651"/>
<stop offset="0.6984" stop-color="#2E085E"/>
<stop offset="0.8438" stop-color="#390C73"/>
<stop offset="0.9646" stop-color="#45108A"/>
</linearGradient>
<linearGradient id="paint56_linear" x1="83.1332" y1="148.842" x2="110.817" y2="148.842" gradientUnits="userSpaceOnUse">
<stop stop-color="#7364BD"/>
<stop offset="0.8339" stop-color="#4023A2"/>
<stop offset="0.9987" stop-color="#3A0F9A"/>
</linearGradient>
<linearGradient id="paint57_linear" x1="113.595" y1="124.965" x2="91.3521" y2="148.854" gradientUnits="userSpaceOnUse">
<stop stop-color="#9F79C8"/>
<stop offset="0.1367" stop-color="#A580CB"/>
<stop offset="0.3288" stop-color="#B492D3"/>
<stop offset="0.5529" stop-color="#CDB0E1"/>
<stop offset="0.5808" stop-color="#D1B4E3"/>
<stop offset="0.7644" stop-color="#DBC4E9"/>
<stop offset="1" stop-color="#EBDEF3"/>
</linearGradient>
<linearGradient id="paint58_linear" x1="83.0265" y1="147.137" x2="111.127" y2="147.137" gradientUnits="userSpaceOnUse">
<stop offset="0.010101" stop-color="#C1A1D5"/>
<stop offset="0.0487861" stop-color="#C8ABDA"/>
<stop offset="0.1149" stop-color="#DAC6E6"/>
<stop offset="0.1998" stop-color="#F7F2F9"/>
<stop offset="0.2222" stop-color="white"/>
<stop offset="0.2513" stop-color="#F9F5FB"/>
<stop offset="0.3001" stop-color="#E9DBF2"/>
<stop offset="0.3586" stop-color="#D1B4E3"/>
<stop offset="0.4264" stop-color="#B395D6"/>
<stop offset="0.4949" stop-color="#9C7DCB"/>
<stop offset="0.5583" stop-color="#8E6EC5"/>
<stop offset="0.6111" stop-color="#8969C3"/>
<stop offset="0.755" stop-color="#9471C6"/>
<stop offset="1" stop-color="#B086CC"/>
</linearGradient>
<linearGradient id="paint59_linear" x1="84.0918" y1="143.892" x2="109.871" y2="143.892" gradientUnits="userSpaceOnUse">
<stop stop-color="#25054D"/>
<stop offset="0.2172" stop-color="#45108A"/>
<stop offset="0.4192" stop-color="#25054D"/>
<stop offset="0.5555" stop-color="#270651"/>
<stop offset="0.6984" stop-color="#2E085E"/>
<stop offset="0.8438" stop-color="#390C73"/>
<stop offset="0.9646" stop-color="#45108A"/>
</linearGradient>
<linearGradient id="paint60_linear" x1="83.1332" y1="141.267" x2="110.817" y2="141.267" gradientUnits="userSpaceOnUse">
<stop stop-color="#7364BD"/>
<stop offset="0.8339" stop-color="#4023A2"/>
<stop offset="0.9987" stop-color="#3A0F9A"/>
</linearGradient>
<linearGradient id="paint61_linear" x1="113.583" y1="117.401" x2="91.3402" y2="141.291" gradientUnits="userSpaceOnUse">
<stop stop-color="#9F79C8"/>
<stop offset="0.1367" stop-color="#A580CB"/>
<stop offset="0.3288" stop-color="#B492D3"/>
<stop offset="0.5529" stop-color="#CDB0E1"/>
<stop offset="0.5808" stop-color="#D1B4E3"/>
<stop offset="0.7644" stop-color="#DBC4E9"/>
<stop offset="1" stop-color="#EBDEF3"/>
</linearGradient>
<linearGradient id="paint62_linear" x1="83.0265" y1="139.642" x2="111.127" y2="139.642" gradientUnits="userSpaceOnUse">
<stop offset="0.010101" stop-color="#C1A1D5"/>
<stop offset="0.0487861" stop-color="#C8ABDA"/>
<stop offset="0.1149" stop-color="#DAC6E6"/>
<stop offset="0.1998" stop-color="#F7F2F9"/>
<stop offset="0.2222" stop-color="white"/>
<stop offset="0.2513" stop-color="#F9F5FB"/>
<stop offset="0.3001" stop-color="#E9DBF2"/>
<stop offset="0.3586" stop-color="#D1B4E3"/>
<stop offset="0.4264" stop-color="#B395D6"/>
<stop offset="0.4949" stop-color="#9C7DCB"/>
<stop offset="0.5583" stop-color="#8E6EC5"/>
<stop offset="0.6111" stop-color="#8969C3"/>
<stop offset="0.755" stop-color="#9471C6"/>
<stop offset="1" stop-color="#B086CC"/>
</linearGradient>
<linearGradient id="paint63_linear" x1="84.0918" y1="136.316" x2="109.871" y2="136.316" gradientUnits="userSpaceOnUse">
<stop stop-color="#25054D"/>
<stop offset="0.2172" stop-color="#45108A"/>
<stop offset="0.4192" stop-color="#25054D"/>
<stop offset="0.5555" stop-color="#270651"/>
<stop offset="0.6984" stop-color="#2E085E"/>
<stop offset="0.8438" stop-color="#390C73"/>
<stop offset="0.9646" stop-color="#45108A"/>
</linearGradient>
<linearGradient id="paint64_linear" x1="83.1332" y1="133.765" x2="110.817" y2="133.765" gradientUnits="userSpaceOnUse">
<stop stop-color="#7364BD"/>
<stop offset="0.8339" stop-color="#4023A2"/>
<stop offset="0.9987" stop-color="#3A0F9A"/>
</linearGradient>
<linearGradient id="paint65_linear" x1="113.572" y1="109.838" x2="91.3293" y2="133.727" gradientUnits="userSpaceOnUse">
<stop stop-color="#7364BD"/>
<stop offset="0.8339" stop-color="#4023A2"/>
<stop offset="0.9987" stop-color="#3A0F9A"/>
</linearGradient>
<linearGradient id="paint66_linear" x1="83.0265" y1="132.061" x2="111.127" y2="132.061" gradientUnits="userSpaceOnUse">
<stop offset="0.010101" stop-color="#C1A1D5"/>
<stop offset="0.0487861" stop-color="#C8ABDA"/>
<stop offset="0.1149" stop-color="#DAC6E6"/>
<stop offset="0.1998" stop-color="#F7F2F9"/>
<stop offset="0.2222" stop-color="white"/>
<stop offset="0.2513" stop-color="#F9F5FB"/>
<stop offset="0.3001" stop-color="#E9DBF2"/>
<stop offset="0.3586" stop-color="#D1B4E3"/>
<stop offset="0.4264" stop-color="#B395D6"/>
<stop offset="0.4949" stop-color="#9C7DCB"/>
<stop offset="0.5583" stop-color="#8E6EC5"/>
<stop offset="0.6111" stop-color="#8969C3"/>
<stop offset="0.755" stop-color="#9471C6"/>
<stop offset="1" stop-color="#B086CC"/>
</linearGradient>
<linearGradient id="paint67_linear" x1="91.491" y1="127.577" x2="102.569" y2="127.577" gradientUnits="userSpaceOnUse">
<stop stop-color="#7364BD"/>
<stop offset="0.8339" stop-color="#4023A2"/>
<stop offset="0.9987" stop-color="#3A0F9A"/>
</linearGradient>
<linearGradient id="paint68_linear" x1="101.18" y1="124.875" x2="92.4835" y2="124.875" gradientUnits="userSpaceOnUse">
<stop stop-color="#25054D"/>
<stop offset="0.2172" stop-color="#45108A"/>
<stop offset="0.4192" stop-color="#25054D"/>
<stop offset="0.5555" stop-color="#270651"/>
<stop offset="0.6984" stop-color="#2E085E"/>
<stop offset="0.8438" stop-color="#390C73"/>
<stop offset="0.9646" stop-color="#45108A"/>
</linearGradient>
<linearGradient id="paint69_linear" x1="36.5238" y1="134.383" x2="64.2072" y2="134.383" gradientUnits="userSpaceOnUse">
<stop stop-color="#7364BD"/>
<stop offset="0.8339" stop-color="#4023A2"/>
<stop offset="0.9987" stop-color="#3A0F9A"/>
</linearGradient>
<linearGradient id="paint70_linear" x1="66.9836" y1="110.507" x2="44.7407" y2="134.398" gradientUnits="userSpaceOnUse">
<stop stop-color="#9F79C8"/>
<stop offset="0.1367" stop-color="#A580CB"/>
<stop offset="0.3288" stop-color="#B492D3"/>
<stop offset="0.5529" stop-color="#CDB0E1"/>
<stop offset="0.5808" stop-color="#D1B4E3"/>
<stop offset="0.7644" stop-color="#DBC4E9"/>
<stop offset="1" stop-color="#EBDEF3"/>
</linearGradient>
<linearGradient id="paint71_linear" x1="36.4168" y1="132.684" x2="64.5172" y2="132.684" gradientUnits="userSpaceOnUse">
<stop offset="0.010101" stop-color="#C1A1D5"/>
<stop offset="0.0487861" stop-color="#C8ABDA"/>
<stop offset="0.1149" stop-color="#DAC6E6"/>
<stop offset="0.1998" stop-color="#F7F2F9"/>
<stop offset="0.2222" stop-color="white"/>
<stop offset="0.2513" stop-color="#F9F5FB"/>
<stop offset="0.3001" stop-color="#E9DBF2"/>
<stop offset="0.3586" stop-color="#D1B4E3"/>
<stop offset="0.4264" stop-color="#B395D6"/>
<stop offset="0.4949" stop-color="#9C7DCB"/>
<stop offset="0.5583" stop-color="#8E6EC5"/>
<stop offset="0.6111" stop-color="#8969C3"/>
<stop offset="0.755" stop-color="#9471C6"/>
<stop offset="1" stop-color="#B086CC"/>
</linearGradient>
<linearGradient id="paint72_linear" x1="37.4825" y1="129.434" x2="63.2619" y2="129.434" gradientUnits="userSpaceOnUse">
<stop stop-color="#25054D"/>
<stop offset="0.2172" stop-color="#45108A"/>
<stop offset="0.4192" stop-color="#25054D"/>
<stop offset="0.5555" stop-color="#270651"/>
<stop offset="0.6984" stop-color="#2E085E"/>
<stop offset="0.8438" stop-color="#390C73"/>
<stop offset="0.9646" stop-color="#45108A"/>
</linearGradient>
<linearGradient id="paint73_linear" x1="36.5238" y1="126.733" x2="64.2072" y2="126.733" gradientUnits="userSpaceOnUse">
<stop stop-color="#7364BD"/>
<stop offset="0.8339" stop-color="#4023A2"/>
<stop offset="0.9987" stop-color="#3A0F9A"/>
</linearGradient>
<linearGradient id="paint74_linear" x1="66.9633" y1="102.804" x2="44.7202" y2="126.694" gradientUnits="userSpaceOnUse">
<stop stop-color="#9F79C8"/>
<stop offset="0.1367" stop-color="#A580CB"/>
<stop offset="0.3288" stop-color="#B492D3"/>
<stop offset="0.5529" stop-color="#CDB0E1"/>
<stop offset="0.5808" stop-color="#D1B4E3"/>
<stop offset="0.7644" stop-color="#DBC4E9"/>
<stop offset="1" stop-color="#EBDEF3"/>
</linearGradient>
<linearGradient id="paint75_linear" x1="36.4168" y1="125.031" x2="64.5172" y2="125.031" gradientUnits="userSpaceOnUse">
<stop offset="0.010101" stop-color="#C1A1D5"/>
<stop offset="0.0487861" stop-color="#C8ABDA"/>
<stop offset="0.1149" stop-color="#DAC6E6"/>
<stop offset="0.1998" stop-color="#F7F2F9"/>
<stop offset="0.2222" stop-color="white"/>
<stop offset="0.2513" stop-color="#F9F5FB"/>
<stop offset="0.3001" stop-color="#E9DBF2"/>
<stop offset="0.3586" stop-color="#D1B4E3"/>
<stop offset="0.4264" stop-color="#B395D6"/>
<stop offset="0.4949" stop-color="#9C7DCB"/>
<stop offset="0.5583" stop-color="#8E6EC5"/>
<stop offset="0.6111" stop-color="#8969C3"/>
<stop offset="0.755" stop-color="#9471C6"/>
<stop offset="1" stop-color="#B086CC"/>
</linearGradient>
<linearGradient id="paint76_linear" x1="37.4825" y1="121.782" x2="63.2619" y2="121.782" gradientUnits="userSpaceOnUse">
<stop stop-color="#25054D"/>
<stop offset="0.2172" stop-color="#45108A"/>
<stop offset="0.4192" stop-color="#25054D"/>
<stop offset="0.5555" stop-color="#270651"/>
<stop offset="0.6984" stop-color="#2E085E"/>
<stop offset="0.8438" stop-color="#390C73"/>
<stop offset="0.9646" stop-color="#45108A"/>
</linearGradient>
<linearGradient id="paint77_linear" x1="36.5238" y1="119.231" x2="64.2072" y2="119.231" gradientUnits="userSpaceOnUse">
<stop stop-color="#7364BD"/>
<stop offset="0.8339" stop-color="#4023A2"/>
<stop offset="0.9987" stop-color="#3A0F9A"/>
</linearGradient>
<linearGradient id="paint78_linear" x1="66.9853" y1="95.3548" x2="44.7427" y2="119.244" gradientUnits="userSpaceOnUse">
<stop stop-color="#9F79C8"/>
<stop offset="0.1367" stop-color="#A580CB"/>
<stop offset="0.3288" stop-color="#B492D3"/>
<stop offset="0.5529" stop-color="#CDB0E1"/>
<stop offset="0.5808" stop-color="#D1B4E3"/>
<stop offset="0.7644" stop-color="#DBC4E9"/>
<stop offset="1" stop-color="#EBDEF3"/>
</linearGradient>
<linearGradient id="paint79_linear" x1="36.4168" y1="117.528" x2="64.5172" y2="117.528" gradientUnits="userSpaceOnUse">
<stop offset="0.010101" stop-color="#C1A1D5"/>
<stop offset="0.0487861" stop-color="#C8ABDA"/>
<stop offset="0.1149" stop-color="#DAC6E6"/>
<stop offset="0.1998" stop-color="#F7F2F9"/>
<stop offset="0.2222" stop-color="white"/>
<stop offset="0.2513" stop-color="#F9F5FB"/>
<stop offset="0.3001" stop-color="#E9DBF2"/>
<stop offset="0.3586" stop-color="#D1B4E3"/>
<stop offset="0.4264" stop-color="#B395D6"/>
<stop offset="0.4949" stop-color="#9C7DCB"/>
<stop offset="0.5583" stop-color="#8E6EC5"/>
<stop offset="0.6111" stop-color="#8969C3"/>
<stop offset="0.755" stop-color="#9471C6"/>
<stop offset="1" stop-color="#B086CC"/>
</linearGradient>
<linearGradient id="paint80_linear" x1="37.4825" y1="114.282" x2="63.2619" y2="114.282" gradientUnits="userSpaceOnUse">
<stop stop-color="#25054D"/>
<stop offset="0.2172" stop-color="#45108A"/>
<stop offset="0.4192" stop-color="#25054D"/>
<stop offset="0.5555" stop-color="#270651"/>
<stop offset="0.6984" stop-color="#2E085E"/>
<stop offset="0.8438" stop-color="#390C73"/>
<stop offset="0.9646" stop-color="#45108A"/>
</linearGradient>
<linearGradient id="paint81_linear" x1="36.5238" y1="111.656" x2="64.2072" y2="111.656" gradientUnits="userSpaceOnUse">
<stop stop-color="#7364BD"/>
<stop offset="0.8339" stop-color="#4023A2"/>
<stop offset="0.9987" stop-color="#3A0F9A"/>
</linearGradient>
<linearGradient id="paint82_linear" x1="66.9733" y1="87.791" x2="44.7304" y2="111.68" gradientUnits="userSpaceOnUse">
<stop stop-color="#9F79C8"/>
<stop offset="0.1367" stop-color="#A580CB"/>
<stop offset="0.3288" stop-color="#B492D3"/>
<stop offset="0.5529" stop-color="#CDB0E1"/>
<stop offset="0.5808" stop-color="#D1B4E3"/>
<stop offset="0.7644" stop-color="#DBC4E9"/>
<stop offset="1" stop-color="#EBDEF3"/>
</linearGradient>
<linearGradient id="paint83_linear" x1="36.4168" y1="110.032" x2="64.5172" y2="110.032" gradientUnits="userSpaceOnUse">
<stop offset="0.010101" stop-color="#C1A1D5"/>
<stop offset="0.0487861" stop-color="#C8ABDA"/>
<stop offset="0.1149" stop-color="#DAC6E6"/>
<stop offset="0.1998" stop-color="#F7F2F9"/>
<stop offset="0.2222" stop-color="white"/>
<stop offset="0.2513" stop-color="#F9F5FB"/>
<stop offset="0.3001" stop-color="#E9DBF2"/>
<stop offset="0.3586" stop-color="#D1B4E3"/>
<stop offset="0.4264" stop-color="#B395D6"/>
<stop offset="0.4949" stop-color="#9C7DCB"/>
<stop offset="0.5583" stop-color="#8E6EC5"/>
<stop offset="0.6111" stop-color="#8969C3"/>
<stop offset="0.755" stop-color="#9471C6"/>
<stop offset="1" stop-color="#B086CC"/>
</linearGradient>
<linearGradient id="paint84_linear" x1="37.4825" y1="106.705" x2="63.2619" y2="106.705" gradientUnits="userSpaceOnUse">
<stop stop-color="#25054D"/>
<stop offset="0.2172" stop-color="#45108A"/>
<stop offset="0.4192" stop-color="#25054D"/>
<stop offset="0.5555" stop-color="#270651"/>
<stop offset="0.6984" stop-color="#2E085E"/>
<stop offset="0.8438" stop-color="#390C73"/>
<stop offset="0.9646" stop-color="#45108A"/>
</linearGradient>
<linearGradient id="paint85_linear" x1="36.5238" y1="104.155" x2="64.2072" y2="104.155" gradientUnits="userSpaceOnUse">
<stop stop-color="#7364BD"/>
<stop offset="0.8339" stop-color="#4023A2"/>
<stop offset="0.9987" stop-color="#3A0F9A"/>
</linearGradient>
<linearGradient id="paint86_linear" x1="66.9621" y1="80.2273" x2="44.7195" y2="104.116" gradientUnits="userSpaceOnUse">
<stop stop-color="#7364BD"/>
<stop offset="0.8339" stop-color="#4023A2"/>
<stop offset="0.9987" stop-color="#3A0F9A"/>
</linearGradient>
<linearGradient id="paint87_linear" x1="36.4168" y1="102.451" x2="64.5172" y2="102.451" gradientUnits="userSpaceOnUse">
<stop offset="0.010101" stop-color="#C1A1D5"/>
<stop offset="0.0487861" stop-color="#C8ABDA"/>
<stop offset="0.1149" stop-color="#DAC6E6"/>
<stop offset="0.1998" stop-color="#F7F2F9"/>
<stop offset="0.2222" stop-color="white"/>
<stop offset="0.2513" stop-color="#F9F5FB"/>
<stop offset="0.3001" stop-color="#E9DBF2"/>
<stop offset="0.3586" stop-color="#D1B4E3"/>
<stop offset="0.4264" stop-color="#B395D6"/>
<stop offset="0.4949" stop-color="#9C7DCB"/>
<stop offset="0.5583" stop-color="#8E6EC5"/>
<stop offset="0.6111" stop-color="#8969C3"/>
<stop offset="0.755" stop-color="#9471C6"/>
<stop offset="1" stop-color="#B086CC"/>
</linearGradient>
<linearGradient id="paint88_linear" x1="44.8816" y1="97.9667" x2="55.9597" y2="97.9667" gradientUnits="userSpaceOnUse">
<stop stop-color="#7364BD"/>
<stop offset="0.8339" stop-color="#4023A2"/>
<stop offset="0.9987" stop-color="#3A0F9A"/>
</linearGradient>
<linearGradient id="paint89_linear" x1="54.5706" y1="95.2651" x2="45.8742" y2="95.2651" gradientUnits="userSpaceOnUse">
<stop stop-color="#25054D"/>
<stop offset="0.2172" stop-color="#45108A"/>
<stop offset="0.4192" stop-color="#25054D"/>
<stop offset="0.5555" stop-color="#270651"/>
<stop offset="0.6984" stop-color="#2E085E"/>
<stop offset="0.8438" stop-color="#390C73"/>
<stop offset="0.9646" stop-color="#45108A"/>
</linearGradient>
<clipPath id="clip0">
<rect width="159" height="171" fill="white" transform="translate(34 3)"/>
</clipPath>
</defs>
</svg>
