<svg width="46" height="46" viewBox="0 0 46 46" fill="none" xmlns="http://www.w3.org/2000/svg">
<circle cx="22.838" cy="22.838" r="22.838" fill="#F06428"/>
<path fill-rule="evenodd" clip-rule="evenodd" d="M16.7407 12H29.2593V17.7778H36V33.1852H29.2593H22.2706V33.2083H10V17.4318H16.7407V12Z" fill="white"/>
<path fill-rule="evenodd" clip-rule="evenodd" d="M28.2968 12.963H17.7042V33.1852H28.2968V12.963ZM16.7412 12V34.1481H29.2597V12H16.7412Z" fill="#F06428"/>
<path d="M19.6299 15.8516H21.5558V17.7775H19.6299V15.8516Z" fill="#F06428"/>
<path d="M19.6299 21.6289H21.5558V23.5548H19.6299V21.6289Z" fill="#F06428"/>
<path d="M19.6299 27.4082H21.5558V29.3341H19.6299V27.4082Z" fill="#F06428"/>
<path d="M24.4443 15.8516H26.3703V17.7775H24.4443V15.8516Z" fill="#F06428"/>
<path d="M24.4443 21.6289H26.3703V23.5548H24.4443V21.6289Z" fill="#F06428"/>
<path d="M31.667 21.6289H33.5929V23.5548H31.667V21.6289Z" fill="#F06428"/>
<path d="M31.667 27.4062H33.5929V29.3322H31.667V27.4062Z" fill="#F06428"/>
<path d="M12.4072 21.6289H14.3332V23.5548H12.4072V21.6289Z" fill="#F06428"/>
<path d="M12.4072 27.4062H14.3332V29.3322H12.4072V27.4062Z" fill="#F06428"/>
<path d="M24.4443 27.4082H26.3703V29.3341H24.4443V27.4082Z" fill="#F06428"/>
</svg>
