<svg width="417" height="236" viewBox="0 0 417 236" fill="none" xmlns="http://www.w3.org/2000/svg">
<rect width="417" height="236" rx="9" fill="#080E26"/>
<path d="M299.075 142.843C275.958 119.314 275.752 94.9584 279.674 77.8271C285.453 52.0271 316.206 37.7855 332.718 25.4015C342.213 17.9711 350.882 9.50871 358.519 0.220703C358.519 0.220703 350.469 50.3759 325.701 59.2511C325.494 59.2511 262.13 71.4287 299.075 142.843Z" fill="#141D40"/>
<path d="M344.281 54.9164C342.63 55.9484 335.818 60.0764 335.818 60.0764C342.423 59.6636 349.028 60.902 355.014 63.3788C384.529 49.7564 382.052 17.3516 382.052 17.3516C382.052 17.3516 375.654 34.4828 344.281 54.9164Z" fill="#141D40"/>
<path d="M408.671 146.971C408.052 147.384 407.433 147.59 406.814 147.796C405.163 148.622 403.305 149.241 401.447 149.654C400.209 150.067 398.971 150.273 397.526 150.686C396.081 151.099 394.43 151.305 392.779 151.512C391.127 151.718 389.063 151.924 387.206 151.924C385.348 151.924 383.078 151.718 381.014 151.512C376.886 150.892 372.758 149.86 368.63 148.622C367.185 148.209 365.947 147.59 364.708 147.177C362.025 146.145 359.548 144.7 357.071 143.256C355.833 142.636 354.801 141.811 353.769 141.192C352.737 140.572 351.499 139.54 350.467 138.921L349.022 137.889L348.403 137.476L347.577 137.064C345.513 135.825 343.449 134.793 341.179 133.968C338.908 133.142 336.638 132.729 334.367 132.729C332.097 132.729 329.827 132.936 327.763 133.761C325.699 134.38 320.538 136.651 319.919 142.017C319.3 148.209 323.428 152.544 327.35 156.259C329.207 157.91 331.271 159.561 333.335 161.006C334.78 161.832 349.435 171.739 352.531 174.216C357.278 178.344 361.612 183.091 365.327 188.457C358.103 179.995 349.435 172.977 339.321 168.024C337.67 167.198 336.019 166.166 334.574 165.134C333.129 164.102 331.271 163.07 329.827 162.244C322.19 157.084 313.727 151.305 313.727 142.017C313.727 138.715 314.759 135.412 316.617 132.729C318.887 130.046 321.571 127.982 324.873 126.744C327.969 125.505 331.271 125.092 334.78 125.299C337.876 125.505 340.972 126.124 344.068 127.363C346.751 128.395 349.435 129.84 351.911 131.697L352.737 132.316L353.563 132.936L355.007 134.174C355.833 135 356.865 135.825 357.897 136.444C361.612 139.334 365.534 141.811 369.868 143.875C371.932 144.907 373.996 145.732 376.06 146.352C379.775 147.59 383.697 148.622 387.825 149.035C389.683 149.241 391.334 149.448 392.985 149.448C394.636 149.448 396.081 149.448 397.732 149.241C399.177 149.035 400.415 149.035 401.654 148.828C403.511 148.622 405.369 148.209 407.227 147.796C408.259 147.177 408.878 146.971 408.671 146.971Z" fill="#141D40"/>
<path d="M266.051 82.5742C266.051 82.5742 205.163 144.701 289.787 187.219C289.787 187.219 223.326 149.448 266.051 82.5742Z" fill="#141D40"/>
<path fill-rule="evenodd" clip-rule="evenodd" d="M379.367 99.0854C370.699 63.791 337.675 58.631 314.558 70.6022C295.156 80.7158 284.011 102.801 307.127 142.842C307.127 142.842 296.601 117.042 305.683 106.309C304.238 115.391 306.302 124.473 311.668 131.903C311.668 131.903 304.238 112.914 323.227 107.754C339.326 103.42 356.663 117.455 375.652 130.871C382.463 135.618 389.687 136.444 399.595 135.412C399.595 135.618 386.385 127.775 379.367 99.0854Z" fill="#141D40"/>
<path d="M278.228 63.3809C269.147 73.2881 260.891 83.8145 253.048 94.9601C250.777 98.6753 248.507 102.39 246.443 106.106C244.585 109.821 242.934 113.742 241.696 117.87C237.568 129.635 237.155 142.432 240.664 154.61C241.902 158.738 243.347 162.659 245.204 166.581C247.062 170.503 249.332 174.218 252.016 177.727C254.699 181.442 257.588 184.744 260.684 188.047C274.72 202.495 292.676 211.989 312.284 218.594C291.025 215.498 271.211 206.623 254.905 192.587C251.396 189.491 248.094 185.983 245.204 182.267C242.315 178.759 239.632 174.837 237.361 170.915C235.091 166.994 233.44 162.866 231.995 158.531C227.867 145.734 228.073 131.906 232.201 119.109C233.646 114.774 235.297 110.646 237.361 106.725C238.806 104.042 240.457 101.358 242.108 98.8817C243.76 96.4049 248.094 91.2449 250.158 88.7681C258.827 78.6545 266.464 73.0817 276.371 65.0321L278.228 63.3809Z" fill="#141D40"/>
<path d="M385.146 223.752C385.558 224.99 369.253 231.595 352.328 235.517C354.805 209.717 344.485 184.33 324.67 167.611C324.67 167.405 371.11 184.742 385.146 223.752Z" fill="#141D40"/>
</svg>
