<svg width="45" height="42" viewBox="0 0 45 42" fill="none" xmlns="http://www.w3.org/2000/svg">
<g clip-path="url(#clip0)">
<path d="M19.1 29H42C43.7 29 45.1 27.6 45.1 25.9V3.1C45 1.4 43.6 0 41.9 0H19.1C17.4 0 16 1.4 16 3.1V26C16 27.6 17.4 29 19.1 29Z" fill="#F06428"/>
<path d="M3.5 42H17.4C19.4 42 20.9 40.4 20.9 38.5V24.5C20.9 22.5 19.3 21 17.4 21H3.5C1.5 21 0 22.6 0 24.5V38.4C0 40.4 1.6 42 3.5 42Z" fill="#F06428"/>
<path d="M25.6 26.1V18.5H18V16.6H27.5V26.1H25.6Z" fill="white" stroke="white" stroke-miterlimit="10"/>
<path d="M25.455 17.5524L14 29.0074L15.3435 30.3509L26.7985 18.8959L25.455 17.5524Z" fill="white" stroke="white" stroke-miterlimit="10"/>
</g>
<defs>
<clipPath id="clip0">
<rect width="45" height="42" fill="white"/>
</clipPath>
</defs>
</svg>
