<svg width="38" height="38" viewBox="0 0 38 38" fill="none" xmlns="http://www.w3.org/2000/svg">
<path d="M26.8452 19.7308C26.8452 24.4464 23.341 28.2692 19.0183 28.2692C14.6956 28.2692 11.1914 24.4464 11.1914 19.7308C11.1914 15.0152 14.6956 11.1924 19.0183 11.1924C23.341 11.1924 26.8452 15.0152 26.8452 19.7308Z" fill="#F06428"/>
<path fill-rule="evenodd" clip-rule="evenodd" d="M19.0196 0.835938C20.0239 0.835938 20.838 1.65005 20.838 2.6543V4.47267C20.838 5.47693 20.0239 6.29104 19.0196 6.29104C18.0154 6.29104 17.2012 5.47693 17.2012 4.47267V2.6543C17.2012 1.65005 18.0154 0.835938 19.0196 0.835938ZM6.16174 6.16174C6.87186 5.45162 8.02318 5.45162 8.7333 6.16174L10.0189 7.44733C10.729 8.15744 10.729 9.30877 10.0189 10.0189C9.30877 10.729 8.15744 10.729 7.44733 10.0189L6.16174 8.7333C5.45162 8.02318 5.45162 6.87186 6.16174 6.16174ZM31.8775 6.16174C32.5876 6.87186 32.5876 8.02319 31.8775 8.7333L30.5919 10.0189C29.8818 10.729 28.7304 10.729 28.0203 10.0189C27.3102 9.30877 27.3102 8.15744 28.0203 7.44732L29.3059 6.16174C30.016 5.45162 31.1674 5.45162 31.8775 6.16174ZM19.0196 11.7478C17.5811 11.7478 16.175 12.1744 14.9789 12.9735C13.7828 13.7726 12.8506 14.9085 12.3 16.2374C11.7494 17.5664 11.6053 19.0287 11.8858 20.4396C12.1662 21.8502 12.8586 23.146 13.8753 24.1632L14.8721 25.1582C15.2228 25.5089 15.5374 25.8891 15.8134 26.2931H22.2257C22.503 25.8875 22.8179 25.5075 23.167 25.1583L24.1634 24.1637L24.1645 24.1627C25.1809 23.1455 25.8731 21.85 26.1535 20.4396C26.434 19.0287 26.2898 17.5664 25.7392 16.2374C25.1887 14.9085 24.2564 13.7726 23.0603 12.9735C21.8643 12.1744 20.4581 11.7478 19.0196 11.7478ZM20.8837 29.9298H17.1554C17.1858 30.2118 17.2012 30.4964 17.2012 30.7826V31.7482C17.2012 32.2304 17.3928 32.6929 17.7338 33.034C18.0748 33.375 18.5373 33.5665 19.0196 33.5665C19.5019 33.5665 19.9644 33.375 20.3054 33.034C20.6464 32.6929 20.838 32.2304 20.838 31.7482V30.7829C20.8379 30.4974 20.8533 30.2125 20.8837 29.9298ZM13.1088 28.8518C13.1239 28.8857 13.14 28.919 13.1571 28.9518C13.4227 29.5194 13.5645 30.1439 13.5645 30.7826V31.7482C13.5645 33.195 14.1392 34.5825 15.1623 35.6055C16.1853 36.6285 17.5728 37.2033 19.0196 37.2033C20.4664 37.2033 21.8539 36.6285 22.8769 35.6055C23.9 34.5825 24.4747 33.195 24.4747 31.7482V30.7826C24.4746 30.2157 24.5862 29.6541 24.8031 29.1303C25.02 28.6065 25.338 28.1306 25.7388 27.7297L26.7353 26.735C28.2608 25.209 29.2996 23.265 29.7204 21.1487C30.1411 19.0324 29.9249 16.8389 29.099 14.8455C28.2732 12.8521 26.8748 11.1483 25.0807 9.9496C23.2866 8.7509 21.1773 8.1111 19.0196 8.1111C16.8619 8.1111 14.7526 8.7509 12.9585 9.9496C11.1644 11.1483 9.76602 12.8521 8.94017 14.8455C8.11432 16.8389 7.89809 19.0324 8.31883 21.1487C8.73957 23.265 9.77838 25.209 11.3039 26.735L12.3005 27.7298L12.3017 27.731C12.632 28.0615 12.9034 28.4407 13.1088 28.8518ZM0.835938 19.0196C0.835938 18.0154 1.65005 17.2012 2.6543 17.2012H4.47267C5.47693 17.2012 6.29104 18.0154 6.29104 19.0196C6.29104 20.0239 5.47693 20.838 4.47267 20.838H2.6543C1.65005 20.838 0.835938 20.0239 0.835938 19.0196ZM31.7482 19.0196C31.7482 18.0154 32.5623 17.2012 33.5665 17.2012H35.3849C36.3892 17.2012 37.2033 18.0154 37.2033 19.0196C37.2033 20.0239 36.3892 20.838 35.3849 20.838H33.5665C32.5623 20.838 31.7482 20.0239 31.7482 19.0196Z" fill="#F06428"/>
</svg>
