<svg width="15" height="25" viewBox="0 0 15 25" fill="none" xmlns="http://www.w3.org/2000/svg">
<path d="M0.232666 12.7713C0.232666 12.2113 0.468507 11.6513 0.845856 11.2313L9.80789 1.57163C10.2796 1.05831 10.8928 0.77832 11.6003 0.77832C12.2135 0.77832 12.7795 1.01165 13.2512 1.43163C14.2417 2.31827 14.2889 3.85823 13.3927 4.8382L6.7891 11.9313L5.8929 12.8646L6.7891 13.7979L13.3927 20.891C14.2889 21.871 14.2417 23.3643 13.2512 24.2976C12.7795 24.7176 12.2135 24.9509 11.6003 24.9509C10.8928 24.9509 10.2796 24.6709 9.80789 24.1576L0.845856 14.4979C0.468507 14.0779 0.232666 13.5179 0.232666 12.958V12.9113V12.8646V12.7713Z" fill="white"/>
</svg>
