<svg width="155" height="31" viewBox="0 0 155 31" fill="none" xmlns="http://www.w3.org/2000/svg">
<path d="M50.3017 16.4817C51.0793 16.7074 51.8318 17.0335 52.5091 17.4348C53.2114 17.8613 53.8385 18.4382 54.3653 19.0904C54.9171 19.7927 55.3435 20.5703 55.6195 21.4231C55.9455 22.4014 56.096 23.4298 56.071 24.4583V25.9884C56.096 26.6405 55.5944 27.1924 54.9422 27.2175C54.29 27.2425 53.7382 26.7409 53.7131 26.0887C53.7131 26.0636 53.7131 26.0134 53.7131 25.9884V24.4583C53.7382 23.5552 53.5626 22.6522 53.2365 21.7994C52.9606 21.0971 52.5342 20.47 51.9823 19.9432C51.4556 19.4666 50.8285 19.0904 50.1763 18.8897C48.8218 18.4382 47.3419 18.4382 45.9873 18.8897C44.5827 19.3663 43.4539 20.4198 42.9271 21.7994C42.6011 22.6522 42.4255 23.5552 42.4506 24.4583V25.9884C42.4756 26.6405 41.974 27.1924 41.3218 27.2175C40.6696 27.2425 40.1178 26.7409 40.0927 26.0887C40.0927 26.0636 40.0927 26.0134 40.0927 25.9884V5.06862C40.0676 4.41645 40.5693 3.86461 41.2215 3.83952C41.8736 3.81444 42.4255 4.31611 42.4506 4.96829C42.4506 4.99337 42.4506 5.04354 42.4506 5.06862V16.9332C42.4506 17.1088 42.5258 17.3094 42.6512 17.4348C42.7766 17.5853 42.9773 17.6606 43.178 17.6606C43.3034 17.6355 43.4539 17.5853 43.5542 17.5101C44.3067 17.0586 45.1345 16.7074 45.9873 16.4566C46.2633 16.3813 46.5141 16.2308 46.6897 16.0051L49.7248 11.6154C49.9506 11.2894 50.3268 11.1138 50.7031 11.1138C51.0292 11.1138 51.3302 11.2392 51.5308 11.49C51.7315 11.6907 51.8569 11.9917 51.8569 12.2927C51.8569 12.5435 51.7817 12.7944 51.6312 12.995L49.9756 15.4282C49.9004 15.5536 49.8502 15.7041 49.8251 15.8546C49.775 16.1305 50.0007 16.4315 50.3017 16.4817Z" fill="#F06428"/>
<path d="M59.9844 7.8027C59.9844 7.50169 60.0847 7.22577 60.2603 7.00002C60.762 6.52343 61.5396 6.52343 62.0412 7.00002C62.2168 7.22577 62.3422 7.50169 62.3172 7.8027C62.3172 8.07862 62.2168 8.35453 62.0412 8.58029C61.5396 9.05688 60.762 9.05688 60.2603 8.58029C60.0847 8.35453 59.9844 8.07862 59.9844 7.8027ZM59.9844 12.8696C60.0095 12.2174 60.5613 11.7157 61.2135 11.7408C61.8155 11.7659 62.3172 12.2676 62.3422 12.8696V20.6204C62.3422 21.5987 62.6182 22.5769 63.1198 23.4298C63.5964 24.3077 64.2988 25.0351 65.1265 25.587C65.3021 25.6873 65.4526 25.8378 65.5529 26.0385C65.6282 26.2141 65.6784 26.4147 65.6784 26.5903C65.6784 26.8913 65.5529 27.1923 65.3523 27.4181C65.1516 27.6438 64.8506 27.7943 64.5245 27.7693C64.2235 27.7693 63.9225 27.6689 63.6717 27.4933C63.3456 27.2927 63.0697 27.0669 62.7937 26.791C62.2419 26.2642 61.7653 25.6873 61.3389 25.0602C60.9376 24.408 60.6115 23.7308 60.3606 23.0034C60.1098 22.2759 59.9844 21.5234 59.9844 20.7458V12.8696Z" fill="#F06428"/>
<path d="M72.4756 19.4415C72.4505 20.3445 72.6261 21.2476 72.9522 22.1004C73.2281 22.8027 73.6796 23.4298 74.2315 23.9566C74.7582 24.4332 75.3853 24.8094 76.0375 25.0352C76.7147 25.2609 77.4171 25.3863 78.1194 25.3863C78.7716 25.3863 79.2984 25.9131 79.2984 26.5653C79.2984 27.2175 78.7716 27.7442 78.1194 27.7442C77.1161 27.7442 76.1378 27.5686 75.2097 27.2425C74.2566 26.9165 73.3786 26.3897 72.6512 25.6874C71.8736 24.9599 71.2465 24.082 70.8201 23.1037C70.3184 21.9499 70.0927 20.6957 70.1178 19.4415V14.7509C70.1178 14.475 70.0174 14.2241 69.8168 14.0235C69.6161 13.8479 69.3653 13.7476 69.1144 13.7476H68.1362C67.5843 13.7225 67.1579 13.296 67.1328 12.7442C67.1328 12.4683 67.2331 12.2175 67.4338 12.0168C67.6345 11.8412 67.8853 11.7158 68.1362 11.7158H69.1144C69.6663 11.6907 70.0927 11.2643 70.1178 10.7124V5.06862C70.0927 4.41645 70.5943 3.86461 71.2465 3.83952C71.8987 3.81444 72.4505 4.31611 72.4756 4.96829C72.4756 4.99337 72.4756 5.04354 72.4756 5.06862V10.7124C72.5007 11.2643 72.9271 11.6907 73.479 11.7158H77.0157C77.2917 11.7158 77.5425 11.8161 77.7181 12.0168C77.9188 12.1924 78.0191 12.4683 78.0191 12.7442C77.994 13.296 77.5676 13.7225 77.0157 13.7476H73.479C73.203 13.7476 72.9522 13.8479 72.7766 14.0235C72.576 14.1991 72.4756 14.475 72.4756 14.7509V19.4415Z" fill="#F06428"/>
<path d="M93.2955 12.5434C93.7971 12.8946 94.048 13.2709 94.048 13.6471C94.0731 13.9732 93.9476 14.2993 93.7219 14.525C93.4961 14.7257 93.1951 14.826 92.8941 14.826C92.5931 14.826 92.2921 14.7508 92.0162 14.5752C90.9125 13.8478 89.8088 13.4715 88.7553 13.4715C86.3222 13.4715 85.1182 14.1488 85.1182 15.5033C85.1182 16.7324 86.3975 17.3595 88.9309 17.3595C92.9694 17.3595 94.9761 18.9648 94.9761 22.1755C94.9761 25.8879 92.844 27.7441 88.6048 27.7441C85.344 27.7441 83.0363 26.4398 81.6818 23.8561C81.6065 23.6555 81.5563 23.4548 81.5312 23.2541C81.5312 22.9531 81.6316 22.6521 81.8573 22.4264C82.0831 22.2006 82.3841 22.0752 82.7102 22.0752C83.0614 22.0501 83.3874 22.2257 83.6132 22.5016C83.8139 22.7775 84.0396 23.0535 84.2403 23.3043C85.4443 24.709 86.9242 25.4113 88.6299 25.4113C91.2888 25.4113 92.6182 24.3578 92.6182 22.2759C92.6182 20.52 91.3139 19.6421 88.7052 19.6421C84.742 19.6421 82.7604 18.2374 82.7604 15.4531C82.7604 12.5434 84.767 11.1137 88.7804 11.1388C90.3858 11.1638 91.966 11.6404 93.2955 12.5434Z" fill="#F06428"/>
<path d="M115.092 12.8696V19.4415C115.118 20.6957 114.892 21.9499 114.39 23.1037C113.964 24.082 113.337 24.985 112.559 25.6873C111.807 26.3646 110.929 26.8913 109.975 27.2425C108.094 27.9198 106.037 27.9198 104.131 27.2425C103.178 26.9164 102.3 26.3897 101.572 25.6873C100.795 24.9599 100.168 24.082 99.7413 23.1037C99.2397 21.9499 99.0139 20.6957 99.039 19.4415V12.8696C99.0641 12.2174 99.6159 11.7158 100.268 11.7408C100.87 11.7659 101.372 12.2676 101.397 12.8696V19.4415C101.372 20.3445 101.547 21.2475 101.899 22.1004C102.2 22.8027 102.626 23.4298 103.178 23.9566C103.705 24.4331 104.307 24.8094 104.984 25.0352C105.661 25.2609 106.363 25.3863 107.066 25.3863C107.768 25.3863 108.496 25.2609 109.148 25.0352C109.825 24.8094 110.452 24.4331 110.954 23.9566C111.506 23.4298 111.932 22.8027 112.233 22.1004C112.584 21.2475 112.76 20.3445 112.735 19.4415V12.8696C112.735 12.5686 112.86 12.2676 113.061 12.0418C113.286 11.8161 113.587 11.6907 113.888 11.6907C114.215 11.6907 114.516 11.8161 114.741 12.0418C114.992 12.2676 115.118 12.5686 115.092 12.8696Z" fill="#F06428"/>
<path d="M135.586 26.0134C135.586 26.3394 135.461 26.6405 135.235 26.8411C135.01 27.0669 134.709 27.1923 134.382 27.1923C134.081 27.1923 133.755 27.0669 133.555 26.8411C133.329 26.6154 133.204 26.3144 133.229 26.0134V19.4415C133.254 18.5384 133.078 17.6354 132.727 16.7826C132.426 16.0802 132 15.4532 131.448 14.9264C130.921 14.4498 130.319 14.0736 129.642 13.8478C128.964 13.6221 128.262 13.4966 127.56 13.4966C126.857 13.4966 126.155 13.6221 125.478 13.8478C124.801 14.0736 124.199 14.4498 123.672 14.9264C123.12 15.4532 122.694 16.0802 122.393 16.7826C122.041 17.6354 121.866 18.5384 121.891 19.4415V25.9883C121.916 26.6404 121.414 27.1923 120.762 27.2174C120.11 27.2425 119.558 26.7408 119.533 26.0886C119.533 26.0635 119.533 26.0134 119.533 25.9883V19.4415C119.508 18.1873 119.759 16.9331 120.26 15.7792C120.687 14.801 121.314 13.9231 122.091 13.1705C122.844 12.4933 123.697 11.9665 124.65 11.6154C126.531 10.9381 128.588 10.9381 130.495 11.6154C131.448 11.9415 132.326 12.4682 133.078 13.1705C133.856 13.898 134.483 14.7759 134.909 15.7542C135.386 16.908 135.637 18.1622 135.612 19.4164L135.586 26.0134Z" fill="#F06428"/>
<path d="M139.499 19.4414C139.474 18.413 139.624 17.4096 139.95 16.4314C140.226 15.5785 140.628 14.8009 141.179 14.0986C141.932 13.1454 142.91 12.3678 144.014 11.8912C145.143 11.3896 146.372 11.1387 147.601 11.1638C148.554 11.1638 149.507 11.3143 150.41 11.6153C151.213 11.8912 151.99 12.2926 152.643 12.8193C153.245 13.321 153.746 13.923 154.123 14.6254C154.474 15.3026 154.649 16.0802 154.649 16.8578C154.649 17.6354 154.474 18.413 154.123 19.0902C153.771 19.7926 153.27 20.3946 152.643 20.8963C151.94 21.423 151.163 21.8494 150.335 22.1003C149.357 22.4013 148.328 22.5518 147.3 22.5518C146.623 22.5518 145.945 22.4765 145.293 22.3009C144.766 22.1504 144.24 21.9498 143.738 21.724C143.337 21.5234 142.96 21.2725 142.609 20.9966C142.358 20.7959 142.107 20.5702 141.882 20.3193C141.957 21.0969 142.183 21.8745 142.534 22.5769C142.86 23.1789 143.286 23.7307 143.838 24.1571C144.34 24.5585 144.942 24.8846 145.544 25.0852C146.171 25.2859 146.823 25.3862 147.5 25.3862C148.353 25.3862 149.206 25.2106 149.984 24.8595C150.059 24.8344 150.159 24.8093 150.235 24.7842C150.31 24.7591 150.41 24.7591 150.485 24.7591C151.138 24.7591 151.664 25.2859 151.664 25.9381C151.664 26.1638 151.589 26.4147 151.464 26.6153C151.338 26.816 151.163 26.9414 150.937 27.0417C149.858 27.5183 148.679 27.7692 147.475 27.7692C146.472 27.7692 145.494 27.5936 144.566 27.2675C143.612 26.9414 142.735 26.4147 142.007 25.7123C141.23 24.9849 140.602 24.107 140.176 23.1287C139.699 21.9498 139.474 20.7207 139.499 19.4414ZM147.576 13.5468C146.974 13.5468 146.372 13.622 145.795 13.7976C145.243 13.9481 144.691 14.1989 144.189 14.4999C143.738 14.7759 143.362 15.127 143.036 15.5535C142.76 15.9297 142.584 16.3812 142.584 16.8578C142.584 17.2842 142.735 17.7106 142.985 18.0618C143.286 18.4882 143.638 18.8394 144.064 19.1153C144.541 19.4414 145.092 19.6922 145.644 19.8678C146.949 20.2692 148.328 20.2441 149.633 19.8428C150.159 19.6672 150.661 19.4163 151.112 19.0902C151.489 18.8143 151.79 18.4381 151.99 18.0116C152.166 17.6605 152.266 17.2591 152.291 16.8327C152.291 16.4815 152.191 16.1304 152.041 15.8043C151.84 15.3779 151.564 15.0267 151.213 14.7257C150.786 14.3494 150.285 14.0735 149.758 13.8729C149.056 13.6471 148.328 13.5217 147.576 13.5468Z" fill="#F06428"/>
<path fill-rule="evenodd" clip-rule="evenodd" d="M15.8878 30.0252C24.1653 30.0001 30.8627 23.2526 30.8376 14.9499C30.8125 6.67231 24.065 -0.0250134 15.7623 7.02301e-05C7.48474 0.0502375 0.8125 6.77265 0.8125 15.0252C0.837584 23.3278 7.58508 30.0502 15.8878 30.0252Z" fill="#F06428"/>
<path d="M12.477 18.4883C9.66763 15.6288 9.64255 12.6689 10.1191 10.587C10.8215 7.4515 14.5589 5.72074 16.5656 4.21572C17.7195 3.31271 18.773 2.28428 19.7011 1.15552C19.7011 1.15552 18.7228 7.25084 15.7128 8.32943C15.6877 8.32943 7.98703 9.80936 12.477 18.4883Z" fill="white"/>
<path d="M17.9698 7.80277C17.7692 7.92818 16.9414 8.42986 16.9414 8.42986C17.7441 8.37969 18.5468 8.53019 19.2742 8.83119C22.8611 7.17568 22.5601 3.23755 22.5601 3.23755C22.5601 3.23755 21.7825 5.31949 17.9698 7.80277Z" fill="white"/>
<path d="M25.7963 18.99C25.721 19.0402 25.6458 19.0653 25.5705 19.0904C25.3699 19.1907 25.1441 19.266 24.9183 19.3161C24.7678 19.3663 24.6173 19.3914 24.4418 19.4415C24.2662 19.4917 24.0655 19.5168 23.8648 19.5419C23.6642 19.567 23.4133 19.592 23.1876 19.592C22.9618 19.592 22.6859 19.567 22.4351 19.5419C21.9334 19.4666 21.4317 19.3412 20.9301 19.1907C20.7545 19.1405 20.604 19.0653 20.4535 19.0151C20.1274 18.8897 19.8264 18.7141 19.5254 18.5385C19.3749 18.4633 19.2495 18.3629 19.124 18.2877C18.9986 18.2124 18.8481 18.087 18.7227 18.0118L18.5471 17.8864L18.4719 17.8362L18.3715 17.786C18.1207 17.6355 17.8699 17.5101 17.5939 17.4098C17.318 17.3094 17.0421 17.2593 16.7662 17.2593C16.4903 17.2593 16.2143 17.2844 15.9635 17.3847C15.7127 17.4599 15.0856 17.7359 15.0103 18.388C14.9351 19.1405 15.4367 19.6673 15.9133 20.1188C16.1391 20.3195 16.3899 20.5201 16.6408 20.6957C16.8163 20.7961 18.5973 22.0001 18.9735 22.3011C19.5505 22.8027 20.0772 23.3797 20.5287 24.0318C19.6508 23.0034 18.5973 22.1506 17.3682 21.5486C17.1675 21.4482 16.9668 21.3228 16.7913 21.1974C16.6157 21.072 16.3899 20.9466 16.2143 20.8462C15.2862 20.2191 14.2578 19.5168 14.2578 18.388C14.2578 17.9867 14.3832 17.5854 14.609 17.2593C14.8849 16.9332 15.211 16.6823 15.6123 16.5318C15.9886 16.3813 16.3899 16.3312 16.8163 16.3563C17.1926 16.3813 17.5689 16.4566 17.9451 16.6071C18.2712 16.7325 18.5973 16.9081 18.8983 17.1338L18.9986 17.2091L19.099 17.2844L19.2745 17.4349C19.3749 17.5352 19.5003 17.6355 19.6257 17.7108C20.0772 18.0619 20.5538 18.3629 21.0806 18.6138C21.3314 18.7392 21.5822 18.8395 21.8331 18.9148C22.2846 19.0653 22.7612 19.1907 23.2628 19.2409C23.4886 19.266 23.6893 19.291 23.8899 19.291C24.0906 19.291 24.2662 19.291 24.4668 19.266C24.6424 19.2409 24.7929 19.2409 24.9434 19.2158C25.1692 19.1907 25.3949 19.1405 25.6207 19.0904C25.7461 19.0151 25.8214 18.99 25.7963 18.99Z" fill="white"/>
<path d="M24.2656 17.2844C24.2656 17.2844 24.2907 17.5854 24.3158 17.7108C24.667 19.7175 26.774 18.2376 26.774 18.2376C25.871 18.062 25.0432 17.7359 24.2656 17.2844Z" fill="white"/>
<path d="M8.4645 11.1638C8.4645 11.1638 1.06483 18.714 11.3491 23.8812C11.3491 23.8812 3.27219 19.2909 8.4645 11.1638Z" fill="white"/>
<path fill-rule="evenodd" clip-rule="evenodd" d="M22.235 13.1705C21.1815 8.88117 17.1681 8.25408 14.3588 9.70893C12.0009 10.938 10.6464 13.622 13.4558 18.4882C13.4558 18.4882 12.1765 15.3527 13.2802 14.0484C13.1046 15.1521 13.3554 16.2557 14.0076 17.1588C14.0076 17.1588 13.1046 14.8511 15.4123 14.224C17.3688 13.6972 19.4758 15.4029 21.7835 17.0333C22.6113 17.6103 23.4892 17.7106 24.6932 17.5852C24.6932 17.6103 23.0879 16.6571 22.235 13.1705Z" fill="white"/>
<path fill-rule="evenodd" clip-rule="evenodd" d="M19.6758 12.3428C19.6758 12.3428 20.5537 14.7257 21.4316 13.7475L19.6758 12.3428Z" fill="#F06428"/>
<path d="M9.94361 8.83105C8.83994 10.0351 7.83659 11.3143 6.88341 12.6688C6.60749 13.1204 6.33157 13.5719 6.08074 14.0234C5.85499 14.4749 5.65432 14.9515 5.50381 15.4531C5.00214 16.8829 4.95198 18.4381 5.3784 19.918C5.5289 20.4197 5.70448 20.8963 5.93024 21.3729C6.15599 21.8495 6.43191 22.301 6.758 22.7274C7.08408 23.1789 7.43525 23.5802 7.81151 23.9816C9.51719 25.7374 11.6995 26.8913 14.0824 27.6939C11.4988 27.3177 9.09077 26.2391 7.10917 24.5334C6.68274 24.1571 6.28141 23.7307 5.93024 23.2792C5.57907 22.8528 5.25298 22.3762 4.97706 21.8996C4.70114 21.423 4.50047 20.9214 4.32488 20.3946C3.82321 18.8394 3.8483 17.1588 4.34997 15.6036C4.52555 15.0769 4.72622 14.5752 4.97706 14.0986C5.15264 13.7725 5.35331 13.4464 5.55398 13.1454C5.75465 12.8444 6.28141 12.2173 6.53224 11.9163C7.58575 10.6872 8.51385 10.01 9.71786 9.03172L9.94361 8.83105Z" fill="white"/>
<path d="M22.9354 28.321C22.9856 28.4715 21.004 29.2742 18.9471 29.7508C19.2481 26.6153 17.994 23.53 15.5859 21.4983C15.5859 21.4732 21.2297 23.5802 22.9354 28.321Z" fill="white"/>
</svg>
