<svg width="40" height="40" viewBox="0 0 40 40" fill="none" xmlns="http://www.w3.org/2000/svg">
<g clip-path="url(#clip0)">
<path d="M20.6798 32.4862C27.2447 32.4862 32.5666 27.0422 32.5666 20.3266C32.5666 13.611 27.2447 8.16699 20.6798 8.16699C14.1149 8.16699 8.79297 13.611 8.79297 20.3266C8.79297 27.0422 14.1149 32.4862 20.6798 32.4862Z" fill="#F06428"/>
<path d="M37.5755 25.1901L38 19.892L32.8208 18.6761L32.0566 15.4624L35.6226 10.946L32.4811 6.86385L28.066 10.0775L24.8396 8.07981V2.78169L19.3208 2L18.1321 7.29812L14.9906 8.51408L11.3396 4.8662L7.00943 8.51408L9.81132 13.0305C9.04717 13.8122 8.19811 15.8967 8.19811 15.8967L2.84906 16.0704L2 21.716L7.60377 22.4977L8.36792 26.1455L4.80189 29.7934L7.9434 34.3967L12.6981 31.1831L15.5 32.8333L15.6698 38.3052L21.2736 39.0869L22.0377 33.7887L25.1792 33.007L29.1698 36.6549L33.5849 33.007L30.4434 28.4906L32.3962 25.277H37.5755V25.1901ZM20.2547 30.4883C14.8208 30.4883 10.4906 26.0587 10.4906 20.5C10.4906 14.9413 14.8208 10.5117 20.2547 10.5117C25.6038 10.5117 30.0189 15.0282 30.0189 20.5C30.0189 25.9718 25.6038 30.4883 20.2547 30.4883Z" fill="#F06428"/>
<path d="M14.1406 20.3261L17.2821 24.6688L26.5369 15.9834" stroke="white" stroke-width="3" stroke-miterlimit="10" stroke-linecap="round" stroke-linejoin="round"/>
</g>
<defs>
<clipPath id="clip0">
<rect width="36" height="37" fill="white" transform="translate(2 2)"/>
</clipPath>
</defs>
</svg>
