<svg width="436" height="529" viewBox="0 0 436 529" fill="none" xmlns="http://www.w3.org/2000/svg">
<g clip-path="url(#clip0)">
<path opacity="0.16" d="M196.3 355.7L202.1 306.4C236.2 308.5 269.9 314.7 300.3 325.2L253.9 366.7C235.9 360.9 216.3 357.2 196.3 355.7Z" fill="url(#paint0_linear)"/>
<path d="M196.3 337.3L202.1 288C236.2 290.1 269.9 296.3 300.3 306.8L253.9 348.3C235.9 342.4 216.3 338.7 196.3 337.3Z" fill="#3C2C9B"/>
<path d="M196.3 232.8L252.7 235.3L253.7 243.7V348.1L209.8 331.6L196.2 337.2V232.8H196.3Z" fill="#3C2C9B"/>
<path d="M300.2 202.1V306.7L253.8 348.2V243.8L300.2 202.1Z" fill="#24126A"/>
<path d="M196.3 232.8L202.1 183.5C236.2 185.6 269.9 191.8 300.3 202.3L253.9 243.8C235.9 237.9 216.3 234.2 196.3 232.8Z" fill="url(#paint1_linear)"/>
<path d="M253.8 246C235.9 240.1 216.3 236.4 196.3 235.1L196.2 236.6C216.1 238.1 235.8 241.6 253.8 247.5L300.2 206C300.2 205.7 300.2 205 300.2 204.5L253.8 246Z" fill="url(#paint2_linear)"/>
<path opacity="0.16" d="M178.7 354.9C141 354.6 103.2 362.3 73.4 377.6L13 342.7C61.2 316.8 123.1 304.4 184.5 305.5L178.7 354.9Z" fill="url(#paint3_linear)"/>
<path d="M178.7 336.5C141 336.2 103.2 343.9 73.4 359.2L13 324.4C61.2 298.5 123.1 286.1 184.5 287.2L178.7 336.5Z" fill="#453C9E"/>
<path d="M178.7 336.5V300.5L184.5 251.3V287.3L178.7 336.5Z" fill="#453C9E"/>
<path d="M73.4004 323.4L140.8 262.8L178.8 300.5V336.5L80.9004 335.9L73.5004 359.4V323.4H73.4004Z" fill="#453C9E"/>
<path d="M13 288.4V324.6L73.4 359.5V323.5L13 288.4Z" fill="#453C9E"/>
<path d="M178.7 300.5C141 300.2 103.2 307.9 73.4 323.2L13 288.4C61.2 262.5 123.1 250.1 184.5 251.2L178.7 300.5Z" fill="url(#paint4_linear)"/>
<path d="M178.7 302.6C141 302.3 103.2 310 73.4 325.3L13 290.4C13 290.7 13 291.1 13 291.4L73.4 326.3C103.2 310.8 141.1 303.3 178.7 303.6L184.5 254.3H184.4L178.7 302.6Z" fill="url(#paint5_linear)"/>
<path opacity="0.16" d="M309.6 491.2C346.5 456.6 339.1 410.5 287.1 380.6C281.2 377.2 275 374.2 268.5 371.4L314.9 329.9C326.4 334.5 337.4 339.8 347.5 345.7C429.2 392.8 440 465.5 379.7 519.4L309.6 491.2Z" fill="url(#paint6_linear)"/>
<path d="M309.6 473.5C346.5 438.9 339.1 392.8 287.1 362.9C281.2 359.5 275 356.5 268.5 353.7L314.9 312.2C326.4 316.8 337.4 322.1 347.5 328C429.2 375.1 440 447.8 379.7 501.7L309.6 473.5Z" fill="#983BE9"/>
<path d="M268.6 289.6V353.9L309.7 369.1C309.7 369.1 363 340 363 339.4C363 338.7 354 277.2 347.5 274.4C340.8 271.4 268.6 289.6 268.6 289.6Z" fill="#983BE9"/>
<path d="M309.6 473.5V409.2L379.8 437.6V501.7L309.6 473.5Z" fill="#983BE9"/>
<path d="M379.8 397.2V501.8C379.8 501.8 416.4 470.9 418.1 429.9L418 362.8L375.3 356.6L379.8 397.2Z" fill="#721BD5"/>
<path d="M309.6 409.2C346.5 374.6 339.1 328.5 287.1 298.6C281.2 295.2 275 292.2 268.5 289.4L314.9 247.9C326.4 252.5 337.4 257.8 347.5 263.7C429.2 310.8 440 383.5 379.7 437.4L309.6 409.2Z" fill="#8A2AE3"/>
<path d="M379.8 439.9L309.5 411.7C309.5 412.3 309.5 412.9 309.5 413.3L379.8 441.5C405.5 418.5 418.4 392 418.1 365.6C417.9 391.5 405 417.3 379.8 439.9Z" fill="#8A2AE3"/>
<path d="M332.7 366.1C333.3 342.6 318.2 319.1 287.2 301.1C281.7 298 274.6 294.6 268.6 291.9V293.5C275.1 296.2 281.3 299.3 287.2 302.7C317.5 320.3 332.5 343.2 332.7 366.1Z" fill="#8A2AE3"/>
<path opacity="0.69" d="M111.7 302.7C130.5 302.7 145.7 293.9 145.7 283.1C145.7 272.2 130.5 263.5 111.7 263.5C92.9002 263.5 77.7002 272.3 77.7002 283.1C77.7002 293.9 92.9002 302.7 111.7 302.7Z" fill="url(#paint7_linear)"/>
<path d="M137.5 273H130.1C129.5 272.7 129.1 272.3 128.5 272C116.4 265.1 96.8998 265.1 84.7998 272C84.0998 272.4 83.2998 272.9 82.6998 273.3H75.7998V284.5C75.7998 289.1 78.7998 293.7 84.7998 297.1C96.8998 304 116.4 304 128.5 297.1C134.6 293.6 137.5 289 137.5 284.5V273V273Z" fill="#2D1C8E"/>
<path d="M105.5 266.8C98.0002 266.9 90.4002 268.7 84.7002 272C84.0002 272.4 83.2002 272.9 82.6002 273.3H75.7002V284.5C75.7002 289.1 78.7002 293.7 84.7002 297.1C90.5002 300.5 98.0002 302.1 105.5 302.3V266.8V266.8Z" fill="url(#paint8_linear)"/>
<path d="M79.8996 273.5H75.5996V284.7C75.5996 287.8 77.0996 290.9 79.8996 293.7V273.5Z" fill="url(#paint9_linear)"/>
<path d="M106.5 290.9C123.6 290.9 137.4 282.9 137.4 273C137.4 263.1 123.6 255.1 106.5 255.1C89.3996 255.1 75.5996 263.1 75.5996 273C75.5996 282.9 89.4996 290.9 106.5 290.9Z" fill="url(#paint10_linear)"/>
<path d="M128.4 285.7C116.3 292.6 96.8001 292.6 84.7001 285.7C78.9001 282.4 76.0001 278.2 75.7001 273.7C75.4001 278.4 78.4001 283.3 84.7001 287C96.8001 293.9 116.3 293.9 128.4 287C134.8 283.3 137.7 278.4 137.4 273.7C137.2 278 134.1 282.3 128.4 285.7Z" fill="url(#paint11_linear)"/>
<path d="M129 268.1H123.7C123.3 267.8 123 267.5 122.5 267.4C113.8 262.4 99.6002 262.4 90.7002 267.4C90.1002 267.7 89.7002 268 89.2002 268.4H84.2002V272.2C84.2002 275.5 86.4002 278.8 90.7002 281.4C99.4002 286.4 113.6 286.4 122.5 281.4C126.9 278.9 129 275.5 129 272.2V268.1Z" fill="#2D1C8E"/>
<path d="M105.8 263.7C100.3 263.8 94.9002 265 90.7002 267.5C90.1002 267.8 89.7002 268.1 89.2002 268.5H84.2002V272.3C84.2002 275.6 86.4002 278.9 90.7002 281.5C94.8002 283.9 100.3 285.2 105.8 285.3V263.7Z" fill="url(#paint12_linear)"/>
<path d="M87.1996 268.4H84.0996V272.2C84.0996 274.4 85.0996 276.8 87.1996 278.7V268.4Z" fill="url(#paint13_linear)"/>
<path d="M122.5 277.3C113.8 282.3 99.5998 282.3 90.6998 277.3C81.9998 272.3 81.9998 264 90.6998 259C99.3998 254 113.6 254 122.5 259C131.2 264 131.2 272.3 122.5 277.3Z" fill="#8A2AE3"/>
<path d="M65.6001 229.1C58.1001 229.1 51.1001 225.1 47.3001 218.8L35.5001 199.3C34.0001 196.9 34.0001 194.1 35.4001 191.8C36.7001 189.4 39.1001 188 41.9001 188H65.0001V194.1H41.8001C41.1001 194.1 40.8001 194.5 40.6001 194.8C40.5001 195.1 40.3001 195.5 40.6001 196.1L52.4001 215.6C55.2001 220.3 60.4001 223.1 65.8001 223L86.0001 222.7L86.1001 228.8L66.0001 229C65.7001 229.1 65.7001 229.1 65.6001 229.1Z" fill="url(#paint14_linear)"/>
<path d="M147.6 229.1C147.5 229.1 147.5 229.1 147.3 229.1L127.1 228.8L127.2 222.7L147.4 223C152.9 223.1 158 220.2 160.8 215.6L172.6 196.1C172.9 195.5 172.7 194.9 172.6 194.8C172.5 194.5 172.2 194.1 171.4 194.1H148.2V188H171.4C174.1 188 176.6 189.5 177.9 191.8C179.2 194.2 179.2 197 177.8 199.3L166 218.9C162 225.2 155.1 229.1 147.6 229.1Z" fill="url(#paint15_linear)"/>
<path d="M166.3 206.4L160.7 215.7C157.9 220.4 152.7 223.2 147.3 223.1L127.1 222.8L127 228.9L147.2 229.2C147.3 229.2 147.3 229.2 147.5 229.2C154.3 229.2 160.6 225.9 164.6 220.6C167.4 213.8 166.9 208.8 166.3 206.4Z" fill="url(#paint16_linear)"/>
<path d="M94.4998 257.7C101.1 261.5 111.9 261.5 118.6 257.7C125.2 253.9 125.2 247.7 118.6 243.8C112 240 101.2 240 94.4998 243.8C87.8998 247.6 87.8998 253.8 94.4998 257.7Z" fill="white"/>
<path d="M86.6996 260.5C90.1996 257.8 89.6996 255.2 89.6996 255.2L92.3996 258.4C100.7 254.4 112.6 254.4 120.9 258.4L123.6 255.2C123.6 255.2 122.9 257.9 126.6 260.5C130.1 263.2 129 268.3 129 268.3C129 271.6 126.8 274.9 122.5 277.5C113.8 282.5 99.7996 282.5 90.9996 277.5C86.6996 275 84.4996 271.7 84.4996 268.3C84.2996 268.3 83.1996 263.1 86.6996 260.5Z" fill="url(#paint17_linear)"/>
<path d="M119.1 261.2C119.1 261.2 112.6 257.4 112.6 256.6C112.6 256.5 112.7 256.3 112.9 256C115.7 256.4 118.4 257.3 120.7 258.4L123.4 255.1C123.4 255.1 122.7 257.8 126.4 260.4C129.9 263.1 128.8 268.2 128.8 268.2C128.8 270 128.1 271.7 126.9 273.5C126.9 273.1 127.6 267.7 123.6 266C119.4 264.3 119.1 261.2 119.1 261.2Z" fill="url(#paint18_linear)"/>
<path opacity="0.5" d="M94.4998 261.5C101.1 265.3 111.9 265.3 118.6 261.5C125.2 257.7 125.2 251.5 118.6 247.6C112 243.8 101.2 243.8 94.4998 247.6C87.8998 251.4 87.8998 257.7 94.4998 261.5Z" fill="url(#paint19_linear)"/>
<path d="M151 188.4C150.6 213.2 137.9 216.2 130.9 225.5C124.5 234.2 125.3 246.6 125.4 248.2V248.3C125.4 251.1 123.6 253.9 119.9 256C112.5 260.3 100.5 260.3 93.1996 256C89.7996 253.9 87.8996 251.4 87.6996 248.8V248.2V248C87.7996 246.4 88.5996 233.8 82.1996 225.3C75.3996 216 62.5996 213 62.0996 188.2H151V188.4Z" fill="#DBDBFC"/>
<path opacity="0.5" d="M118.5 215.3C118.5 215.3 117.5 218.3 114.2 226.7C110.9 235.1 112.4 256.5 112.4 256.5L117.9 256.9C118.5 256.6 119.2 256.3 119.8 256C123.5 253.9 125.3 251.1 125.3 248.3V248.2C125.2 246.6 124.4 234 130.8 225.5C137.6 216.2 150.4 213.2 150.9 188.4H146L118.5 215.3Z" fill="#DBDBFC"/>
<path d="M106.5 214.1C131.1 214.1 151 202.6 151 188.4C151 174.2 131.1 162.7 106.5 162.7C82 162.7 62 174.2 62 188.4C62 202.6 82 214.1 106.5 214.1Z" fill="url(#paint20_linear)"/>
<path d="M75.1999 206.5C92.5999 216.5 120.7 216.5 138.1 206.5C146.2 201.8 150.7 195.7 151.1 189.5C151.7 196.4 147.3 203.5 138.1 208.7C120.7 218.7 92.5999 218.7 75.1999 208.7C65.9999 203.4 61.7999 196.3 62.1999 189.5C62.5999 195.6 66.8999 201.8 75.1999 206.5Z" fill="white"/>
<path opacity="0.5" d="M106.5 209.9C127.1 209.9 143.9 200.2 143.9 188.3C143.9 176.4 127.2 166.7 106.5 166.7C85.8996 166.7 69.0996 176.4 69.0996 188.3C69.0996 200.3 85.8996 209.9 106.5 209.9Z" fill="url(#paint21_linear)"/>
<path d="M80.2 203.6C86.3 207.1 93.9 209.2 101.9 209.7C103.1 208.1 103.7 206.4 103.1 204.7C99.3 193 100.7 169.1 100.7 169.1L93.6 168.2C88.7 169.2 84 170.9 80.2 173.2C65.6 181.6 65.6 195.2 80.2 203.6Z" fill="url(#paint22_linear)"/>
<path d="M132.9 175.1C118.3 166.7 94.5998 166.7 80.1998 175.1C73.3998 179.1 69.6998 184.3 69.2998 189.4C68.8998 183.6 72.5998 177.7 80.1998 173.1C94.7998 164.7 118.5 164.7 132.9 173.1C140.6 177.5 144.3 183.4 143.8 189.4C143.4 184.1 139.7 179.1 132.9 175.1Z" fill="white"/>
<path d="M124.8 207.1C113.4 210.8 99.4998 210.8 88.2998 207.1C88.6998 206.8 88.9998 206.7 89.4998 206.4C98.9998 200.9 114.2 200.9 123.6 206.4C124.1 206.7 124.4 206.8 124.8 207.1Z" fill="url(#paint23_linear)"/>
<path d="M87.7002 248.2C87.7002 248.1 87.7002 247.6 87.7002 247.2C88.0002 249.7 89.8002 252.2 93.2002 254.1C100.6 258.4 112.6 258.4 119.9 254.1C123.1 252.2 125.1 249.8 125.4 247.3C125.4 247.7 125.4 248 125.4 248.2V248.3C125.4 251.1 123.6 253.9 119.9 256C112.5 260.3 100.5 260.3 93.2002 256C89.8002 253.9 87.9002 251.4 87.7002 248.8V248.2C87.7002 248.3 87.7002 248.2 87.7002 248.2Z" fill="url(#paint24_linear)"/>
<path opacity="0.16" d="M241.4 223.2C253.1 223.2 262.5 217.7 262.5 210.9C262.5 204.1 253 198.6 241.4 198.6C229.7 198.6 220.3 204.1 220.3 210.9C220.3 217.7 229.7 223.2 241.4 223.2Z" fill="url(#paint25_linear)"/>
<path d="M254.7 45.4C254.7 45.4 254.1 58 253.1 66.4C252.2 74.8 231.8 59.9 231.8 59.9V50.3L254.7 45.4Z" fill="#173D7A"/>
<path d="M243.9 201.5C243.6 202.2 238.3 208.7 233.1 210.2C230.9 210.9 229.3 210.9 228.2 210.9C227.2 210.8 226.6 209.7 226.9 208.8C227.8 206.3 230.4 201 236.9 197.7C246 193.2 243.9 201.5 243.9 201.5Z" fill="#173D7A"/>
<path d="M245.7 204C245.7 204 243.8 208.6 243 212.6C242.6 215 243.9 218.1 245.1 220.1C245.8 221.4 247.5 221.7 248.5 220.7C250.3 219.1 252.3 216.4 252.8 212.6C253.4 206.1 252.8 204.9 252.8 204.9L245.7 204Z" fill="#173D7A"/>
<path d="M258.4 124.7C258.4 124.7 259.1 133 258.4 142.1C257.7 151.3 255.3 194.1 254.9 204.3C254.9 204.3 255.2 207.4 249.1 206.7C243 206 243.5 202.6 243.5 202.6C243.5 202.6 235.1 202.5 234.8 197.4C234.5 192.4 226.1 137.7 226.1 118.1L258.4 124.7Z" fill="url(#paint26_linear)"/>
<path d="M228.8 82L223.9 112L219.5 111.9L219.9 84.6L228.8 82Z" fill="#FFC2B0"/>
<path d="M230.9 55.6C230.9 55.6 224.3 55.5 222 64.9C219.6 74.5 217.9 86.3 219.9 87.4C226 90.4 229.7 87 229.7 87L230.9 55.6Z" fill="#24126A"/>
<path d="M229 56C230.2 55.6 231.4 55.4 232.5 55.9C238.1 57.5 259.2 63.7 262.8 66.7C266.8 70.1 256.7 89.4 256.9 95.8C257 102.2 257.8 109.5 258.4 116.5C259 123.4 259.7 127.1 254.1 130.1C248.5 133.1 238.9 133.2 231.6 127.7C224.4 122.2 225.7 118.4 226 114.6C226.3 110.6 228.8 93.3 228.5 88.5C228.5 88.5 226 86.6 224.1 83.5C222.2 80.3 225.6 74.3 226.9 70.6C228.2 66.8 226.2 62.3 226.6 59.2C226.8 57.3 227.8 56.5 229 56Z" fill="#24126A"/>
<path d="M251.5 64.6C251.9 61.1 248.8 57.8 244.4 57.3C240 56.7 236.1 59.1 235.7 62.6C235.3 66.1 238.4 69.4 242.8 69.9C247.2 70.5 251.1 68.1 251.5 64.6Z" fill="white"/>
<path d="M238 62.8C237.7 65.3 239.9 67.7 243 68C246.1 68.4 248.9 66.7 249.2 64.2C249.5 61.7 247.3 59.3 244.2 59C241.1 58.7 238.3 60.4 238 62.8Z" fill="#FFC2B0"/>
<path d="M241.1 54.7C241.1 54.7 244.9 51.6 245.7 53.2C246.4 54.8 247 61.6 247 61.6L239.5 63.7L240.7 56.8C240.6 56.8 239 55.4 241.1 54.7Z" fill="#FFC2B0"/>
<path d="M245.8 56.6C251.4 53.7 253.5 46.8 250.5 41.2C247.6 35.6 240.7 33.5 235.1 36.5C229.5 39.4 227.4 46.3 230.4 51.9C233.4 57.4 240.3 59.6 245.8 56.6Z" fill="#FFC2B0"/>
<path d="M246.1 55.1C246.1 55.4 246.2 55.8 246.2 56.3C245.5 60.3 239.6 61.9 239.6 61.9L240.5 56.7C240.5 56.7 239.8 56.1 240.1 55.5C242.4 54.7 245.4 54.1 246.1 55.1Z" fill="#EA9C92"/>
<path d="M245.8 56.6C251.4 53.7 253.5 46.8 250.5 41.2C247.6 35.6 240.7 33.5 235.1 36.5C229.5 39.4 227.4 46.3 230.4 51.9C233.4 57.4 240.3 59.6 245.8 56.6Z" fill="#FFC2B0"/>
<path d="M268.4 94.4L267.1 124.7L262.7 125.1L259.8 98L268.4 94.4Z" fill="#FFC2B0"/>
<path d="M253.8 91.9C255.3 85.4 258.1 71.2 258.1 71.2L259.3 85.4C257.8 89.7 256.6 93.4999 256.6 95.6999C256.7 99.3999 256.9 103.5 257.3 107.7C257.5 107.7 252.3 98.4 253.8 91.9Z" fill="#453C9E"/>
<path d="M261.9 65.9C261.9 65.9 265.4 67.2 267.4 78.2C269.5 89.1 270.9 99.9 267.4 101.4C263.9 102.7 260.9 103.9 259.9 101C258.9 98 258.1 84.2 258.1 79C257.8 73.9 257.6 66.9 261.9 65.9Z" fill="#24126A"/>
<path d="M243.3 202.7C243.3 202.7 242.3 202.7 240.9 202.4L239.3 135.9L243.3 202.7Z" fill="url(#paint27_linear)"/>
<path d="M249.8 166.8L252.2 163.7L277 149.4C277.7 149 278.5 147.8 278.5 146.6V126.4L280 124.5L278.7 123.8C278.4 123.7 278.1 123.7 277.7 123.8L249.6 140C248.9 140.4 248.1 141.6 248.1 142.8V164.8C248.1 165.4 248.2 165.8 248.7 166L249.8 166.8Z" fill="#983BE9"/>
<path d="M266.9 155.1L268.7 154.1L278.3 137.3V126.2L279.8 124.3L278.5 123.6C278.2 123.5 277.9 123.5 277.5 123.6L249.4 139.8C249 140.1 248.7 140.5 248.4 141L266.9 155.1Z" fill="#D29FFF"/>
<path d="M279 125.3L279.6 124.4L278.3 123.7C278 123.6 277.7 123.6 277.3 123.7L276.9 124L279 125.3Z" fill="#D29FFF"/>
<path d="M249.1 140.2C248.5 140.6 248.1 141.7 247.9 142.6L250.7 144.2L252 142L249.1 140.2Z" fill="#983BE9"/>
<path d="M250.7 140.8L278.8 124.6C279.5 124.2 280.3 124.6 280.3 125.6V147.6C280.3 148.6 279.7 150 278.8 150.4L250.7 166.7C250 167.1 249.2 166.7 249.2 165.7V143.7C249.2 142.4 249.9 141.2 250.7 140.8Z" fill="#9C79B4"/>
<path d="M268.1 145.2C268.1 146.5 267.2 148.2 266 148.9C264.8 149.6 263.9 149 263.9 147.7C263.9 146.4 264.8 144.7 266 144C267.1 143.3 268.1 143.8 268.1 145.2Z" fill="#D29FFF"/>
<path d="M267.1 124.4C267.1 124.4 268.3 131.5 268.1 133.7C268 135.9 266.8 139.8 265.7 139.6C264.8 139.5 265.7 130.4 264.1 131.5C262.5 132.4 262.3 134 261.6 133.4C260.9 132.8 262.9 125.1 262.3 121.9C261.8 118.4 267.1 124.4 267.1 124.4Z" fill="#FFC2B0"/>
<path d="M219.5 111.9C219.5 111.9 218.3 119 218.5 121.2C218.6 123.4 219.8 127.3 220.9 127.1C221.8 127 220.9 117.9 222.5 119C224.1 119.9 224.3 121.5 225 120.9C225.7 120.3 223.7 112.6 224.3 109.4C224.8 105.8 219.5 111.9 219.5 111.9Z" fill="#FFC2B0"/>
<path d="M236.2 47.6C230.6 49.7 229.4 48.3 229.4 48.3C229.4 48 229.3 47.6 229.3 47.3C229.2 46.1 229.3 44.8 229.7 43.8L244.5 41.9C244.3 41.7 242 45.5 236.2 47.6Z" fill="#EA9C92"/>
<path d="M228.8 35.9C230.1 34.7 235 29.1 243.6 30.4C249.1 31.3 253.5 35 254.5 43.3C255.2 48.9 253.2 54.5 249.3 58.7C249.2 58.6 248.9 58.6 248.7 58.4C246.5 56.9 246.3 56.2 246.3 56.2L245.9 51.9C245.9 51.3 246.3 50.7 246.9 50.7C247.3 50.7 247.9 50.4 248.5 49.7C249.7 48.1 249.2 45.6 246.7 45.4C245.4 45.4 244.9 44.7 244.8 43.9C244.7 43.3 244.1 43 243.5 43.2C240.7 44.2 233.7 46.4 229.2 45.1C223.4 43.8 227.5 37.1 228.8 35.9Z" fill="#173D7A"/>
<path d="M235.3 52.5999L231.9 51.7C231.9 51.7 233.5 54.4 235.9 54.9C238.3 55.5 238.7 53.5999 238.7 53.5999L235.3 52.5999Z" fill="white"/>
<path d="M261.2 133.1L264.2 131.5L263.2 133.3L261.7 133.9L261.2 133.1Z" fill="#D29FFF"/>
<path d="M322.2 369C322.2 369 318.7 367.2 316.4 369.9C314.2 372.6 311.1 378.9 310.9 383.2C310.8 387.5 314.3 387.2 316.4 386.2C318.5 385.2 324.5 376.4 324.8 374.7C325.1 372.9 324.4 370.7 323.8 370.3C323.4 369.6 322.2 369 322.2 369Z" fill="#173D7A"/>
<path d="M323.1 368.1L323.2 371.8C323.2 372.5 322.9 373.3 322.2 373.7C321.6 374 320.7 374.3 319.4 374.1C316.7 373.7 316.4 372.9 316.3 369.2C316.1 365.6 323.1 368.1 323.1 368.1Z" fill="#E8A200"/>
<path d="M309.2 361.9C309.2 361.9 305.7 360.1 303.4 362.8C301.1 365.5 298.1 371.8 297.9 376.1C297.8 380.4 301.3 380.1 303.4 379.1C305.5 378.1 311.5 369.3 311.8 367.6C312.1 365.8 311.4 363.6 310.8 363.2C310.4 362.5 309.2 361.9 309.2 361.9Z" fill="#173D7A"/>
<path d="M309.9 361.1L310 364.8C310 365.5 309.7 366.3 309 366.7C308.4 367 307.5 367.3 306.2 367.1C303.5 366.7 303.2 365.9 303.1 362.2C303 358.5 309.9 361.1 309.9 361.1Z" fill="#E8A200"/>
<path d="M341.8 293.3C340.8 276.2 323.2 295.8 323.2 295.8L311.2 307.6L300.4 319.4C298.3 321.8 297.3 324.9 297.7 328L302.1 361.2C302.2 362.8 303.7 364 305.3 364C305.7 364 306.3 364 306.9 363.9C310.7 363.3 310.4 359.6 310.4 359.6L309.7 328.4L332.4 314.7C332.5 314.8 342.9 310.4 341.8 293.3Z" fill="#DFCFFF"/>
<path d="M354.8 299.8C353.8 282.7 336.2 302.3 336.2 302.3L324.2 314.1L313.4 325.9C311.3 328.3 310.3 331.4 310.7 334.5L315.1 367.7C315.2 369.3 316.7 370.5 318.4 370.5C318.8 370.5 319.4 370.5 320 370.4C323.8 369.8 323.5 366.1 323.5 366.1L322.8 334.9L345.5 321.2C345.5 321.3 355.9 316.9 354.8 299.8Z" fill="#DFCFFF"/>
<path d="M344.5 244.7C357.8 250.2 357.5 258.1 357.5 258.1C357.5 258.1 354.8 286.9 355.7 306.1C356.1 314.1 313 314.8 319.4 293.2C326.9 267.9 324.1 247.4 327.7 244.3C331.3 241.3 341.1 243.2 344.5 244.7Z" fill="#453C9E"/>
<path d="M348.8 251.6C348.1 254.3 344.5 255.7 341 254.9C337.3 254 334.9 251.1 335.7 248.3C336.4 245.6 340 244.2 343.5 245C347 246 349.4 248.9 348.8 251.6Z" fill="#FFC2B0"/>
<path d="M343.2 255.7C342.5 255.7 341.6 255.6 340.8 255.4C338.9 255 337.3 253.9 336.1 252.6C334.9 251.1 334.5 249.6 334.9 248C335.3 246.5 336.4 245.3 338.2 244.6C339.8 244 341.7 243.9 343.7 244.3C347.7 245.3 350.3 248.6 349.6 251.7C349.2 253.2 348.1 254.4 346.4 255.1C345.2 255.6 344.2 255.7 343.2 255.7ZM341.1 245.4C340.2 245.4 339.3 245.5 338.6 245.8C337.3 246.4 336.4 247.3 336.1 248.3C335.8 249.3 336.1 250.7 337 251.7C337.9 252.9 339.4 253.8 341 254.1C342.6 254.5 344.2 254.4 345.7 254C347 253.4 347.9 252.5 348.2 251.5C348.8 249.1 346.6 246.5 343.3 245.7C342.4 245.4 341.8 245.4 341.1 245.4Z" fill="white"/>
<path d="M339.2 244.1C339.2 244.1 339.3 244.7 339.1 248.8C339.1 250.1 343.7 251.3 344.9 250.1C346.1 248.9 345.6 247.6 345.9 243.2C346.1 238.7 339.2 244.1 339.2 244.1Z" fill="#FFC2B0"/>
<path d="M345.8 243.2C345.8 243.2 344.6 247.3 339 249L339.1 245.2L345.8 243.2Z" fill="#EA9C92"/>
<path d="M349.4 232.5C350.9 238 347.5 243.6 342 244.9C336.5 246.4 330.9 243 329.6 237.5C328.1 232 331.5 226.4 337 225.1C342.4 223.8 347.9 227.1 349.4 232.5Z" fill="#FFC2B0"/>
<path d="M341.8 235.5C341.8 235.5 336.2 237.9 332.2 238C328.4 238 329.1 234.7 329.1 234.7L340.6 233.1L341.8 235.5Z" fill="#EA9C92"/>
<path d="M331 236.2C331 236.2 335.9 234.1 340.2 235C341.2 235.1 342.1 235.7 342.9 236.5C343 236.8 343.3 236.9 343.6 237.1C344.3 237.2 345.7 234.1 347.1 234C348.6 234 349.6 235 348.4 237C347.2 238.9 347.7 241.1 348.1 241.4C348.7 241.7 354.6 237.1 349.4 226.8C344.2 216.5 330.8 222.1 328.7 224.1C328.7 224.1 326.5 226 324.7 224.2C324.8 224.3 322.9 239.2 331 236.2Z" fill="#24126A"/>
<path d="M321.3 242.3L314.2 239.2C313.3 238.9 312.7 238.2 312.4 237.3L305.3 216.8L302.1 217.4L307.9 242.8C308.2 244 308.9 245 310 245.6L322 252.2L321.3 242.3Z" fill="#FFC2B0"/>
<path d="M395.6 245.7L397.2 245C398.5 244.4 399.9 243.5 400.9 242.3L402.1 241.1C402.7 240.5 403 239.5 402.5 238.7C402.2 238.1 401.5 237.8 400.9 238.1L397.5 239.9C397.5 239.9 398.1 238.4 397.8 238C397.5 237.6 394.8 240.5 393.7 242.6C392.5 244.7 395.6 245.7 395.6 245.7Z" fill="#FFC2B0"/>
<path d="M367.1 253.8L373.2 253.1C374.7 253 376 252.5 377.3 251.8L393.7 242.5L395.6 245.6L378.9 258.6C378.3 259 377.9 259.3 377.3 259.6L367.3 263.9L367.1 253.8Z" fill="#FFC2B0"/>
<path d="M302.1 217.5L301.5 216.8C300.8 215.9 300.3 215 300.2 213.8L299.8 210.8C299.7 209.9 300.1 208.9 300.8 208.4C300.8 208.4 300.8 208.4 300.9 208.4C301.6 207.8 302.8 208.3 303.1 209.1L304.6 212.6C304.6 212.6 304.2 210.8 304.7 210.5C305.1 210.4 306 212.6 305.4 213.9C305 215.2 305.4 216.9 305.4 216.9L302.1 217.5Z" fill="#FFC2B0"/>
<path d="M335.3 242.1L332.6 241.4C332.6 241.4 333.9 243.3 335.7 243.9C337.5 244.3 337.8 242.9 337.8 242.9L335.3 242.1Z" fill="white"/>
<path d="M331.5 242.9C331.5 242.9 319.5 240.5 315.8 239.5C312.1 238.3 310.6 248.4 310.9 251C311.2 253.5 323.6 256.3 325.1 260.7C326.6 265 331.5 242.9 331.5 242.9Z" fill="#453C9E"/>
<path d="M349.7 247.3C349.7 247.3 358.4 251 373 252.9C373.6 253 374 253.3 374.3 253.9C374.9 255.5 375.8 259.1 375 262.6C374.7 264.1 373.4 265.1 371.7 265.1C367.1 265.1 357.2 265.5 355.7 269.8C353.8 275.5 349.7 247.3 349.7 247.3Z" fill="#453C9E"/>
<path d="M196.3 37.5H193.6V45H196.3V37.5Z" fill="#8A2AE3"/>
<path d="M199 42H196.3V49.5H199V42Z" fill="#8A2AE3"/>
<path d="M304.2 112.7L306.2 115.5L314 110L312 107.2L304.2 112.7Z" fill="url(#paint28_linear)"/>
<path d="M307.1 106.7L309.1 109.5L317 104L315 101.2L307.1 106.7Z" fill="url(#paint29_linear)"/>
<path d="M309.9 100.7L311.9 103.5L319.8 98L317.8 95.2L309.9 100.7Z" fill="url(#paint30_linear)"/>
<path d="M312.7 94.7L314.7 97.5L322.6 92L320.6 89.2L312.7 94.7Z" fill="url(#paint31_linear)"/>
<path d="M112.8 112.4L112.2 110L104.9 111.9L105.5 114.3L112.8 112.4Z" fill="url(#paint32_linear)"/>
<path d="M109.1 116.2L108.4 113.6L101.1 115.5L101.8 118.1L109.1 116.2Z" fill="url(#paint33_linear)"/>
<path d="M105.4 119.7L104.8 117.3L97.5 119.2L98.1 121.6L105.4 119.7Z" fill="url(#paint34_linear)"/>
<path d="M101.6 123.3L101 120.9L93.7002 122.8L94.3002 125.2L101.6 123.3Z" fill="url(#paint35_linear)"/>
<path d="M358.4 187.9L360.7 186.9L357.6 180L355.3 181L358.4 187.9Z" fill="#24126A"/>
<path d="M354.1 185L356.4 184L353.3 177.1L351 178.1L354.1 185Z" fill="#24126A"/>
<path d="M349.8 182L352.2 180.9L349.1 174L346.7 175.1L349.8 182Z" fill="#24126A"/>
<path d="M345.6 179.1L348 178L344.9 171.1L342.5 172.2L345.6 179.1Z" fill="#24126A"/>
<path d="M163 72.6L160.5 69L149.8 76.4L152.3 80L163 72.6Z" fill="#453C9E"/>
<path d="M270.9 22.3L272.3 20L265.9 16L264.5 18.3L270.9 22.3Z" fill="#9C79B4"/>
<path d="M308.5 151.2L307.1 149.1L304.8 150.7L306.2 152.8L308.5 151.2Z" fill="url(#paint36_linear)"/>
<path d="M343.1 71L341.2 68.2L338.2 70.2999L340.1 73.0999L343.1 71Z" fill="url(#paint37_linear)"/>
<path d="M327.1 64.9L325.2 62.1L322.2 64.2L324 67L327.1 64.9Z" fill="#A384EF"/>
<path d="M202.4 104L200.9 101.8L198.6 103.4L200.1 105.6L202.4 104Z" fill="#9C79B4"/>
<path d="M283.8 64.4001L282 61C282 61 283.6 60.1 284.1 58.3C284.5 56.8 284.1 55.2 282.9 53.3C278.8 46.5 281.6 40.9 283.8 38.8L286.5 41.6L285.2 40.3L286.5 41.6C286.1 42 282.7 45.7 286.2 51.3C288 54.1 288.6 56.9001 287.8 59.4001C286.9 62.8001 284.1 64.3001 283.8 64.4001Z" fill="#453C9E"/>
<path d="M330.9 136.8L332.4 134.3C332.4 134.3 333.6 135 335.1 134.6C336.1 134.3 337.2 133.3 337.9 131.6C340.6 126 345.6 125.7 347.8 126.1L347 129L347.3 127.5L347 129C346.6 128.9 342.7 128.1 340.5 132.8C339.3 135.2 337.8 136.6 335.9 137.2C333.3 138.1 331 137 330.9 136.8Z" fill="#9C79B4"/>
<path d="M134.9 143.6L135.8 138.6C135.8 138.6 138.2 139 140.2 137.6C141.7 136.4 142.7 134.3 143 131.2C144 120.6 151.9 117 155.9 116.7L156.5 121.7L156.2 119.2L156.5 121.7C155.8 121.8 149.1 122.9 148.2 131.7C147.8 136.1 146.1 139.5 143.3 141.6C139.4 144.3 135.3 143.8 134.9 143.6Z" fill="#9C79B4"/>
<path d="M197.2 136.2L200.2 136.6C200.2 136.6 200.1 138.1 200.9 139.1C201.6 140 202.8 140.4 204.6 140.6C210.8 140.9 213 145.3 213.3 147.7L210.3 148.1L211.8 148L210.3 148.3C210.3 147.9 209.4 144 204.2 143.7C201.5 143.6 199.6 142.7 198.3 141.2C196.9 138.9 197.2 136.4 197.2 136.2Z" fill="url(#paint38_linear)"/>
<path opacity="0.16" d="M156.1 436.7C170.4 445 193.8 445 208.1 436.7C222.4 428.4 222.4 415 208.1 406.7C193.8 398.4 170.4 398.4 156.1 406.7C141.7 414.8 141.7 428.3 156.1 436.7Z" fill="url(#paint39_linear)"/>
<path d="M164.6 412.5C162.5 413.4 161.2 415.8 161.4 418.1C161.5 419.3 161.7 420.3 161.8 420.9C162.4 422.2 164.6 424.2 168 422.8C171.4 421.5 179.1 414.2 179.4 409.5C180.1 400.8 170 410.2 164.6 412.5Z" fill="#173D7A"/>
<path d="M184.8 426.9C184.8 426.9 183.9 431.9 184.4 432.8C184.8 433.7 187.2 435.8 190.8 435.3C194.4 434.8 204.5 431.3 206.8 424.7C210.3 414.2 187.2 425.4 187.2 425.4L184.8 426.9Z" fill="#173D7A"/>
<path d="M194.8 346.3L195.5 425C195.4 427.8 193.6 430 191.2 430.5C190.9 430.5 190.6 430.6 190.3 430.6C187.8 430.7 186.5 429.7 185.6 428.7C185 427.8 184.6 426.6 184.6 425.4L183.6 391.7L178.6 361.7L171.7 414.9C171.6 416.4 171 417.7 169.8 418.4C169.1 418.8 168 419.3 166.7 419.3C164.8 419.3 163.3 418.1 162.6 417.2C161.9 416.5 161.6 415.4 161.6 414.4L164.4 382.3L165.4 341.5L194.8 346.3Z" fill="#24126A"/>
<path d="M184.5 275.8L183.3 283C183.3 283 183.3 285.5 186 286.1C188.8 286.8 189.5 285.1 189.5 285.1L190.7 277L184.5 275.8Z" fill="#FCDCD4"/>
<path d="M199.5 273.9C202.4 268.1 200.6 261.4 195.5 258.8C190.4 256.2 183.9 258.8 181 264.6C178.1 270.4 179.9 277.1 185 279.7C190.1 282.3 196.6 279.7 199.5 273.9Z" fill="#FCDCD4"/>
<path d="M184.9 283.2C184.8 283.1 173.4 275.8 169.1 283.5C162.2 296.1 162.6 336.4 164.8 341.6C166.9 346.5 171.9 350 175.3 351.9C178.4 353.7 181.9 354.9 185.5 354.9C189 354.9 195.8 351.8 195.7 347.1C194.5 325.7 196.4 307.7 198.2 290.1C198.2 290 196 287.6 184.9 283.2Z" fill="#983BE9"/>
<path opacity="0.16" d="M178.6 361.9L171.7 415.1C171.6 416.6 171 417.9 169.8 418.6C169.7 418.7 169.4 418.9 169.2 418.9C170.7 417.9 174.8 373.1 175.7 368.2C176.4 363.3 178.6 361.9 178.6 361.9Z" fill="url(#paint40_linear)"/>
<path d="M221.4 285.6L227.6 265.2L224.2 263.9L217 279.9L221.4 285.6Z" fill="#FCDCD4"/>
<path d="M158.9 269.6L163.5 248.3L167.2 248.4L165.9 265.8L158.9 269.6Z" fill="#FCDCD4"/>
<path d="M198.2 290C198.2 290 209.3 292.2 216.4 279.2C217 278 218.6 277.9 219.4 278.9C220.6 280.7 222.1 283.3 221.3 286.1C217.9 298.8 199.1 301.6 195.7 308.8C192.3 316.4 198.2 290 198.2 290Z" fill="#983BE9"/>
<path d="M177.7 280.5C177.7 280.5 168.8 281.2 167.7 273.6C167.1 269.6 166.8 267.4 166.8 265.9C166.8 265 165.9 264.3 165 264.4C162.9 264.7 159.7 265.3 159.2 266.8C158.6 268.9 157.3 279.2 166 295.2C171.7 305.5 177.7 280.5 177.7 280.5Z" fill="#983BE9"/>
<path d="M163.5 248.5L163.6 246.1C163.6 245.2 163.9 244.5 164.3 243.7L166.8 239.7L167.4 239C168 238.3 169 238.1 169.9 238.6L170.5 238.9C171.2 239.3 171.7 240.2 171.5 241L170.2 244.4L171.8 244.1C172.1 244.1 172.4 244.2 172.5 244.5C172.5 244.8 172.4 245.1 172.2 245.1L169.5 246.1L167.1 249.5L163.5 248.5Z" fill="#FCDCD4"/>
<path d="M227.6 265.3L228.3 262.9C228.6 262.2 228.6 261.3 228.4 260.4L227.5 255.8L227.2 254.8C226.9 253.9 226 253.3 225 253.6L224.4 253.7C223.5 253.8 222.9 254.4 222.6 255.3V259L221.3 258.1C221 258 220.7 258.1 220.6 258.2C220.5 258.5 220.5 258.8 220.7 258.9L222.8 260.8L224 265.2L227.6 265.3Z" fill="#FCDCD4"/>
<path d="M193.1 305.4C192.1 310 194.9 346 185.7 354.9C189.2 354.9 196 351.8 195.9 347.1C195.2 332.8 195.8 319.9 196.8 307.7C200.5 303 210.4 300 216.7 294C216 294 194 300.8 193.1 305.4Z" fill="#721BD5"/>
<path d="M180.8 281.1L182.4 279.5C182.4 279.5 185.1 282.2 187.1 282.6C187.1 282.6 189.6 283.3 190.8 283.3L191.8 286.1C191.9 286.3 183.6 285.7 180.8 281.1Z" fill="white"/>
<path d="M192 273C192.4 273 192.9 273 193.2 272.6C193.8 272 193.9 269.2 195.4 268.9C197.6 268.5 202 272 203.8 264.6C204.7 260.8 203.1 259.4 203.4 257.4C203.4 257.4 203.4 258.4 193.7 256.1C183.9 253.7 179.2 262 178.2 266.1C177.3 270.2 178.1 277.5 184.7 279.5C185.7 279.8 191.2 276.8 191.2 276.4C191.2 275.8 189.4 275.7 189.9 274.2C190 273.2 190.9 272.9 192 273Z" fill="#173D7A"/>
<path d="M391.2 376.4L373.2 365.9L355.2 376.4L373.2 386.7L391.2 376.4Z" fill="#721BD5"/>
<path d="M373.1 377.2V365.4L394.7 353V364.8L373.1 377.2Z" fill="url(#paint41_linear)"/>
<path d="M373.1 365.3L351.5 352.9V364.7L373.1 377.1V365.3Z" fill="url(#paint42_linear)"/>
<path d="M394.7 352.9L373.1 340.5L351.5 352.9L373.1 365.3L394.7 352.9Z" fill="#DFCFFF"/>
</g>
<defs>
<linearGradient id="paint0_linear" x1="196.319" y1="336.533" x2="300.314" y2="336.533" gradientUnits="userSpaceOnUse">
<stop stop-color="#9F19AB"/>
<stop offset="0.0300926" stop-color="#6B22AC"/>
<stop offset="0.5913" stop-color="#4427BD"/>
<stop offset="0.904" stop-color="#26297D"/>
</linearGradient>
<linearGradient id="paint1_linear" x1="196.319" y1="213.63" x2="300.314" y2="213.63" gradientUnits="userSpaceOnUse">
<stop stop-color="#4613FF"/>
<stop offset="1" stop-color="#FFF6FF"/>
</linearGradient>
<linearGradient id="paint2_linear" x1="196.173" y1="225.965" x2="300.167" y2="225.965" gradientUnits="userSpaceOnUse">
<stop stop-color="#9C74FF"/>
<stop offset="1" stop-color="#FFF6FF"/>
</linearGradient>
<linearGradient id="paint3_linear" x1="13" y1="341.526" x2="184.502" y2="341.526" gradientUnits="userSpaceOnUse">
<stop stop-color="#9F19AB"/>
<stop offset="0.0300926" stop-color="#6B22AC"/>
<stop offset="0.5913" stop-color="#4427BD"/>
<stop offset="0.904" stop-color="#26297D"/>
</linearGradient>
<linearGradient id="paint4_linear" x1="13" y1="287.165" x2="184.502" y2="287.165" gradientUnits="userSpaceOnUse">
<stop stop-color="#7364BD"/>
<stop offset="0.8339" stop-color="#4023A2"/>
<stop offset="0.9987" stop-color="#3A0F9A"/>
</linearGradient>
<linearGradient id="paint5_linear" x1="13" y1="290.297" x2="184.502" y2="290.297" gradientUnits="userSpaceOnUse">
<stop stop-color="#9C74FF"/>
<stop offset="1" stop-color="#FFF6FF"/>
</linearGradient>
<linearGradient id="paint6_linear" x1="268.554" y1="424.648" x2="418.141" y2="424.648" gradientUnits="userSpaceOnUse">
<stop stop-color="#9F19AB"/>
<stop offset="0.0300926" stop-color="#6B22AC"/>
<stop offset="0.5913" stop-color="#4427BD"/>
<stop offset="0.904" stop-color="#26297D"/>
</linearGradient>
<linearGradient id="paint7_linear" x1="77.7006" y1="283.059" x2="145.652" y2="283.059" gradientUnits="userSpaceOnUse">
<stop stop-color="#9F19AB"/>
<stop offset="0.0300926" stop-color="#6B22AC"/>
<stop offset="0.5913" stop-color="#4427BD"/>
<stop offset="0.904" stop-color="#26297D"/>
</linearGradient>
<linearGradient id="paint8_linear" x1="75.6326" y1="284.536" x2="105.473" y2="284.536" gradientUnits="userSpaceOnUse">
<stop stop-color="#7364BD"/>
<stop offset="0.8339" stop-color="#4023A2"/>
<stop offset="0.9987" stop-color="#3A0F9A"/>
</linearGradient>
<linearGradient id="paint9_linear" x1="75.632" y1="283.576" x2="79.916" y2="283.576" gradientUnits="userSpaceOnUse">
<stop stop-color="#4613FF"/>
<stop offset="1" stop-color="#FFF6FF"/>
</linearGradient>
<linearGradient id="paint10_linear" x1="75.63" y1="273.014" x2="137.377" y2="273.014" gradientUnits="userSpaceOnUse">
<stop stop-color="#7364BD"/>
<stop offset="0.8339" stop-color="#4023A2"/>
<stop offset="0.9987" stop-color="#3A0F9A"/>
</linearGradient>
<linearGradient id="paint11_linear" x1="75.6124" y1="283.003" x2="137.4" y2="283.003" gradientUnits="userSpaceOnUse">
<stop stop-color="#9C74FF"/>
<stop offset="1" stop-color="#FFF6FF"/>
</linearGradient>
<linearGradient id="paint12_linear" x1="84.2006" y1="274.565" x2="105.768" y2="274.565" gradientUnits="userSpaceOnUse">
<stop stop-color="#7364BD"/>
<stop offset="0.8339" stop-color="#4023A2"/>
<stop offset="0.9987" stop-color="#3A0F9A"/>
</linearGradient>
<linearGradient id="paint13_linear" x1="84.052" y1="273.605" x2="87.154" y2="273.605" gradientUnits="userSpaceOnUse">
<stop stop-color="#4613FF"/>
<stop offset="1" stop-color="#FFF6FF"/>
</linearGradient>
<linearGradient id="paint14_linear" x1="34.3263" y1="208.534" x2="86.2685" y2="208.534" gradientUnits="userSpaceOnUse">
<stop stop-color="#7364BD"/>
<stop offset="0.8339" stop-color="#4023A2"/>
<stop offset="0.9987" stop-color="#3A0F9A"/>
</linearGradient>
<linearGradient id="paint15_linear" x1="127.04" y1="208.608" x2="178.982" y2="208.608" gradientUnits="userSpaceOnUse">
<stop stop-color="#7364BD"/>
<stop offset="0.8339" stop-color="#4023A2"/>
<stop offset="0.9987" stop-color="#3A0F9A"/>
</linearGradient>
<linearGradient id="paint16_linear" x1="126.891" y1="217.766" x2="166.772" y2="217.766" gradientUnits="userSpaceOnUse">
<stop stop-color="#7364BD"/>
<stop offset="0.8339" stop-color="#4023A2"/>
<stop offset="0.9987" stop-color="#3A0F9A"/>
</linearGradient>
<linearGradient id="paint17_linear" x1="84.1598" y1="268.176" x2="129.002" y2="268.176" gradientUnits="userSpaceOnUse">
<stop stop-color="#7364BD"/>
<stop offset="0.8339" stop-color="#4023A2"/>
<stop offset="0.9987" stop-color="#3A0F9A"/>
</linearGradient>
<linearGradient id="paint18_linear" x1="112.563" y1="264.372" x2="128.854" y2="264.372" gradientUnits="userSpaceOnUse">
<stop stop-color="#7364BD"/>
<stop offset="0.8339" stop-color="#4023A2"/>
<stop offset="0.9987" stop-color="#3A0F9A"/>
</linearGradient>
<linearGradient id="paint19_linear" x1="89.5552" y1="254.549" x2="123.605" y2="254.549" gradientUnits="userSpaceOnUse">
<stop stop-color="#4613FF"/>
<stop offset="1" stop-color="#FFF6FF"/>
</linearGradient>
<linearGradient id="paint20_linear" x1="62.0434" y1="188.37" x2="150.97" y2="188.37" gradientUnits="userSpaceOnUse">
<stop stop-color="#7364BD"/>
<stop offset="0.8339" stop-color="#4023A2"/>
<stop offset="0.9987" stop-color="#3A0F9A"/>
</linearGradient>
<linearGradient id="paint21_linear" x1="69.132" y1="188.37" x2="143.879" y2="188.37" gradientUnits="userSpaceOnUse">
<stop stop-color="#4613FF"/>
<stop offset="0.0936964" stop-color="#4F1EFF"/>
<stop offset="0.256" stop-color="#663AFF"/>
<stop offset="0.4676" stop-color="#8B68FF"/>
<stop offset="0.7202" stop-color="#BFA7FF"/>
<stop offset="1" stop-color="#FFF6FF"/>
</linearGradient>
<linearGradient id="paint22_linear" x1="69.2444" y1="188.887" x2="103.341" y2="188.887" gradientUnits="userSpaceOnUse">
<stop stop-color="#7364BD"/>
<stop offset="0.8339" stop-color="#4023A2"/>
<stop offset="0.9987" stop-color="#3A0F9A"/>
</linearGradient>
<linearGradient id="paint23_linear" x1="88.3372" y1="206.097" x2="124.823" y2="206.097" gradientUnits="userSpaceOnUse">
<stop stop-color="#7364BD"/>
<stop offset="0.8339" stop-color="#4023A2"/>
<stop offset="0.9987" stop-color="#3A0F9A"/>
</linearGradient>
<linearGradient id="paint24_linear" x1="87.7466" y1="253.201" x2="125.415" y2="253.201" gradientUnits="userSpaceOnUse">
<stop stop-color="#7364BD"/>
<stop offset="0.8339" stop-color="#4023A2"/>
<stop offset="0.9987" stop-color="#3A0F9A"/>
</linearGradient>
<linearGradient id="paint25_linear" x1="220.25" y1="210.971" x2="262.497" y2="210.971" gradientUnits="userSpaceOnUse">
<stop stop-color="#9F19AB"/>
<stop offset="0.0300926" stop-color="#6B22AC"/>
<stop offset="0.5913" stop-color="#4427BD"/>
<stop offset="0.904" stop-color="#26297D"/>
</linearGradient>
<linearGradient id="paint26_linear" x1="226.01" y1="162.429" x2="258.689" y2="162.429" gradientUnits="userSpaceOnUse">
<stop stop-color="#998FC8"/>
<stop offset="0.5528" stop-color="#7E73B6"/>
<stop offset="1" stop-color="#6053A2"/>
</linearGradient>
<linearGradient id="paint27_linear" x1="239.305" y1="169.315" x2="243.294" y2="169.315" gradientUnits="userSpaceOnUse">
<stop stop-color="#7364BD"/>
<stop offset="0.8339" stop-color="#4023A2"/>
<stop offset="0.9987" stop-color="#3A0F9A"/>
</linearGradient>
<linearGradient id="paint28_linear" x1="304.227" y1="111.383" x2="314.038" y2="111.383" gradientUnits="userSpaceOnUse">
<stop stop-color="#7364BD"/>
<stop offset="0.8339" stop-color="#4023A2"/>
<stop offset="0.9987" stop-color="#3A0F9A"/>
</linearGradient>
<linearGradient id="paint29_linear" x1="307.057" y1="105.351" x2="316.868" y2="105.351" gradientUnits="userSpaceOnUse">
<stop stop-color="#7364BD"/>
<stop offset="0.8339" stop-color="#4023A2"/>
<stop offset="0.9987" stop-color="#3A0F9A"/>
</linearGradient>
<linearGradient id="paint30_linear" x1="309.89" y1="99.3187" x2="319.701" y2="99.3187" gradientUnits="userSpaceOnUse">
<stop stop-color="#7364BD"/>
<stop offset="0.8339" stop-color="#4023A2"/>
<stop offset="0.9987" stop-color="#3A0F9A"/>
</linearGradient>
<linearGradient id="paint31_linear" x1="312.731" y1="93.2831" x2="322.542" y2="93.2831" gradientUnits="userSpaceOnUse">
<stop stop-color="#7364BD"/>
<stop offset="0.8339" stop-color="#4023A2"/>
<stop offset="0.9987" stop-color="#3A0F9A"/>
</linearGradient>
<linearGradient id="paint32_linear" x1="104.889" y1="112.118" x2="112.81" y2="112.118" gradientUnits="userSpaceOnUse">
<stop stop-color="#998FC8"/>
<stop offset="0.5528" stop-color="#7E73B6"/>
<stop offset="1" stop-color="#6053A2"/>
</linearGradient>
<linearGradient id="paint33_linear" x1="101.118" y1="115.851" x2="109.076" y2="115.851" gradientUnits="userSpaceOnUse">
<stop stop-color="#998FC8"/>
<stop offset="0.5528" stop-color="#7E73B6"/>
<stop offset="1" stop-color="#6053A2"/>
</linearGradient>
<linearGradient id="paint34_linear" x1="97.4834" y1="119.398" x2="105.404" y2="119.398" gradientUnits="userSpaceOnUse">
<stop stop-color="#998FC8"/>
<stop offset="0.5528" stop-color="#7E73B6"/>
<stop offset="1" stop-color="#6053A2"/>
</linearGradient>
<linearGradient id="paint35_linear" x1="93.7006" y1="123.045" x2="101.622" y2="123.045" gradientUnits="userSpaceOnUse">
<stop stop-color="#998FC8"/>
<stop offset="0.5528" stop-color="#7E73B6"/>
<stop offset="1" stop-color="#6053A2"/>
</linearGradient>
<linearGradient id="paint36_linear" x1="304.729" y1="150.951" x2="308.465" y2="150.951" gradientUnits="userSpaceOnUse">
<stop stop-color="#7364BD"/>
<stop offset="0.8339" stop-color="#4023A2"/>
<stop offset="0.9987" stop-color="#3A0F9A"/>
</linearGradient>
<linearGradient id="paint37_linear" x1="338.124" y1="70.6884" x2="343.093" y2="70.6884" gradientUnits="userSpaceOnUse">
<stop stop-color="#4613FF"/>
<stop offset="1" stop-color="#FFF6FF"/>
</linearGradient>
<linearGradient id="paint38_linear" x1="197.181" y1="142.281" x2="213.307" y2="142.281" gradientUnits="userSpaceOnUse">
<stop stop-color="#7364BD"/>
<stop offset="0.8339" stop-color="#4023A2"/>
<stop offset="0.9987" stop-color="#3A0F9A"/>
</linearGradient>
<linearGradient id="paint39_linear" x1="145.283" y1="421.693" x2="218.884" y2="421.693" gradientUnits="userSpaceOnUse">
<stop stop-color="#9F19AB"/>
<stop offset="0.0300926" stop-color="#6B22AC"/>
<stop offset="0.5913" stop-color="#4427BD"/>
<stop offset="0.904" stop-color="#26297D"/>
</linearGradient>
<linearGradient id="paint40_linear" x1="169.141" y1="390.451" x2="178.595" y2="390.451" gradientUnits="userSpaceOnUse">
<stop stop-color="#9F19AB"/>
<stop offset="0.0300926" stop-color="#6B22AC"/>
<stop offset="0.5913" stop-color="#4427BD"/>
<stop offset="0.904" stop-color="#26297D"/>
</linearGradient>
<linearGradient id="paint41_linear" x1="373.14" y1="365.043" x2="394.707" y2="365.043" gradientUnits="userSpaceOnUse">
<stop stop-color="#7364BD"/>
<stop offset="0.8339" stop-color="#4023A2"/>
<stop offset="0.9987" stop-color="#3A0F9A"/>
</linearGradient>
<linearGradient id="paint42_linear" x1="351.573" y1="365.043" x2="373.14" y2="365.043" gradientUnits="userSpaceOnUse">
<stop stop-color="#7364BD"/>
<stop offset="0.8339" stop-color="#4023A2"/>
<stop offset="0.9987" stop-color="#3A0F9A"/>
</linearGradient>
<clipPath id="clip0">
<rect width="405.1" height="503.4" fill="white" transform="translate(13 16)"/>
</clipPath>
</defs>
</svg>
