<svg width="46" height="42" viewBox="0 0 46 42" fill="none" xmlns="http://www.w3.org/2000/svg">
<path d="M42.7 42H3.3C1.5 42 0 40.5 0 38.7V3.3C0 1.5 1.5 0 3.3 0H42.8C44.5 0 46 1.5 46 3.3V38.8C46 40.5 44.5 42 42.7 42Z" fill="#F06428"/>
<path d="M36.9005 21.7C36.9005 14.2 30.8005 8.1 23.3005 8.1C18.5412 8.1 14.3345 10.5653 11.8996 14.3043L10.9018 15.8526L9.5 16L10.9018 13.8284C13.5219 9.72077 18.1089 7 23.3005 7C31.4006 7 38.0005 13.5 38.0005 21.6C38.0005 29.7 31.4006 36.3 23.3005 36.3C19.0005 36.3 14.9005 34.4 12.1005 31.1C11.9005 30.9 12.0005 30.6 12.2005 30.4C12.4005 30.2 12.7005 30.3 12.9005 30.5C15.5005 33.5 19.3005 35.3 23.3005 35.3C30.8005 35.3 36.9005 29.2 36.9005 21.7Z" stroke="white" stroke-width="1.3" stroke-miterlimit="10"/>
<path d="M8.63095 16.3125H9.32495H10.8518H11.407C12.9338 16.3125 14.0442 17.5617 14.0442 18.9497V21.1705H14.877C15.2934 21.1705 15.571 21.4481 15.571 21.8645C15.571 22.2809 15.2934 22.5585 14.877 22.5585H12.6562V26.3062C12.6562 26.7226 12.3786 27.0002 11.9622 27.0002C11.5458 27.0002 11.2682 26.7226 11.2682 26.3062V22.5585H8.63095V26.3062C8.63095 26.7226 8.35335 27.0002 7.93695 27.0002C7.52054 27.0002 7.24294 26.7226 7.24294 26.3062V22.5585H5.02213C4.60573 22.5585 4.32812 22.2809 4.32812 21.8645C4.32812 21.4481 4.60573 21.1705 5.02213 21.1705H5.99373V18.9497C5.99373 17.4229 7.24294 16.3125 8.63095 16.3125Z" stroke="white" stroke-width="1.6" stroke-miterlimit="10"/>
<path d="M12.9991 18.8314C12.9991 18.1975 12.3652 17.5635 11.7312 17.5635H9.9877H8.40274C7.76875 17.5635 7.13477 18.1975 7.13477 18.8314V21.3674H12.9991V18.8314Z" stroke="white" stroke-width="1.1419" stroke-miterlimit="10"/>
<path d="M19.2012 14.5996V27.8996L30.7012 21.2996L19.2012 14.5996Z" fill="white"/>
<path d="M19.2012 14.5996V27.8996L30.7012 21.2996L19.2012 14.5996Z" stroke="white" stroke-width="1.438" stroke-miterlimit="10" stroke-linecap="round" stroke-linejoin="round"/>
</svg>
