<svg width="46" height="42" viewBox="0 0 46 42" fill="none" xmlns="http://www.w3.org/2000/svg">
<path d="M42.7 42H3.3C1.5 42 0 40.5 0 38.7V3.3C0 1.5 1.5 0 3.3 0H42.8C44.5 0 46 1.5 46 3.3V38.8C46 40.5 44.5 42 42.7 42Z" fill="#F06428"/>
<path d="M28.4 10.5996V16.2996H34.1V17.7996H27V10.5996H28.4Z" fill="white" stroke="white" stroke-miterlimit="10" stroke-linecap="round" stroke-linejoin="round"/>
<path d="M36.2208 7.34466L27.5234 16.042L28.5134 17.0319L37.2107 8.3346L36.2208 7.34466Z" fill="white" stroke="white" stroke-miterlimit="10" stroke-linecap="round" stroke-linejoin="round"/>
<path d="M16.8992 32.4002V26.7002H11.1992V25.2002H18.2992V32.4002H16.8992Z" fill="white" stroke="white" stroke-miterlimit="10" stroke-linecap="round" stroke-linejoin="round"/>
<path d="M16.8048 25.9618L8.10742 34.6592L9.09736 35.6491L17.7947 26.9518L16.8048 25.9618Z" fill="white" stroke="white" stroke-miterlimit="10" stroke-linecap="round" stroke-linejoin="round"/>
<path d="M34.6996 26.7998H28.9996V32.4998H27.5996V25.2998H34.6996V26.7998Z" fill="white" stroke="white" stroke-miterlimit="10" stroke-linecap="round" stroke-linejoin="round"/>
<path d="M29.2224 25.847L28.2324 26.8369L36.9298 35.5342L37.9197 34.5443L29.2224 25.847Z" fill="white" stroke="white" stroke-miterlimit="10" stroke-linecap="round" stroke-linejoin="round"/>
<path d="M11.9004 16.2H17.7004V10.5H19.1004V17.6L11.9004 17.7V16.2Z" fill="white" stroke="white" stroke-miterlimit="10" stroke-linecap="round" stroke-linejoin="round"/>
<path d="M9.64033 7.44658L8.65039 8.43652L17.3477 17.1339L18.3377 16.1439L9.64033 7.44658Z" fill="white" stroke="white" stroke-miterlimit="10" stroke-linecap="round" stroke-linejoin="round"/>
</svg>
