<svg width="292" height="287" viewBox="0 0 292 287" fill="none" xmlns="http://www.w3.org/2000/svg">
<path d="M238.303 50.6162C270.792 142.082 320.637 134.803 270.792 221.136C233.147 286.341 153.28 301.884 84.6229 271.069C-12.9913 227.257 0.210442 152.501 34.7809 84.8752C60.2879 34.9789 200.047 -57.0875 238.303 50.6162Z" fill="#FAFAFA"/>
<path d="M42.9064 244.72C42.9064 244.72 44.0166 236.687 44.9309 230.417C45.8453 224.148 47.282 221.078 44.1472 214.417C41.0124 207.755 41.992 203.053 39.9675 200.375C38.0082 197.698 37.2898 195.02 29.0609 195.085C20.832 195.15 20.832 195.412 20.832 195.412C20.832 195.412 30.3671 202.073 33.5672 208.212C36.702 214.351 35.853 213.241 37.551 216.637C39.2491 219.968 40.294 230.613 40.294 230.613L41.339 244.654L42.9064 244.72Z" fill="#FF725E"/>
<path d="M0 198.809C0 198.809 0.0653064 193.977 6.33494 190.972C12.6046 187.968 16.1313 188.752 20.5069 189.601C24.9479 190.45 30.4339 192.605 31.2176 193.454C32.0013 194.238 36.1157 196.328 36.1157 196.328C36.1157 196.328 23.7071 195.544 20.8335 195.544C17.9599 195.544 14.9557 195.413 10.9065 195.152C6.85741 194.891 8.49013 197.438 4.24506 198.156C0 198.809 0 198.809 0 198.809Z" fill="#F06428"/>
<g opacity="0.3">
<g opacity="0.3">
<path opacity="0.3" d="M42.9064 244.72C42.9064 244.72 44.0166 236.687 44.9309 230.417C45.8453 224.148 47.282 221.078 44.1472 214.417C41.0124 207.755 41.992 203.053 39.9675 200.375C38.0082 197.698 37.2898 195.02 29.0609 195.085C20.832 195.15 20.832 195.412 20.832 195.412C20.832 195.412 30.3671 202.073 33.5672 208.212C36.702 214.351 35.853 213.241 37.551 216.637C39.2491 219.968 40.294 230.613 40.294 230.613L41.6002 254.712L42.9064 244.72Z" fill="#F06428"/>
</g>
</g>
<path d="M73.4064 216.179C72.1002 215.461 67.398 213.24 63.0876 222.84C58.7773 232.376 55.5118 230.939 52.7689 233.159C50.0259 235.38 45.5196 240.147 44.9318 242.433C44.4093 244.719 44.0828 247.397 44.0828 247.397L41.9929 247.266C41.9929 247.266 41.5358 242.433 45.4543 236.033C49.3728 229.633 49.6994 228.784 52.5729 224.408C55.5118 219.967 55.3812 218.008 58.7773 217.224C62.108 216.375 64.7203 216.375 64.7203 216.375L73.4064 216.179Z" fill="#FF725E"/>
<g opacity="0.3">
<g opacity="0.3">
<path opacity="0.3" d="M73.4064 216.179C72.1002 215.461 67.398 213.24 63.0876 222.84C58.7773 232.376 55.5118 230.939 52.7689 233.159C50.0259 235.38 45.5196 240.147 44.9318 242.433C44.4093 244.719 44.0828 247.397 44.0828 247.397L41.9929 247.266C41.9929 247.266 41.5358 242.433 45.4543 236.033C49.3728 229.633 49.6994 228.784 52.5729 224.408C55.5118 219.967 55.3812 218.008 58.7773 217.224C62.108 216.375 64.7203 216.375 64.7203 216.375L73.4064 216.179Z" fill="#F06428"/>
</g>
</g>
<path d="M77.5851 214.09C79.2832 214.678 80.3934 216.311 80.1975 218.14C80.0669 219.446 79.675 220.425 78.3689 219.38C76.0831 217.617 75.2993 217.944 71.0543 217.486C66.8092 217.029 58.7109 217.095 58.7109 217.095C58.7109 217.095 71.1849 212.719 74.0585 213.176C75.2993 213.372 76.5402 213.699 77.5851 214.09Z" fill="#F06428"/>
<path d="M67.2695 176.014C62.8938 178.169 59.3672 181.761 56.7548 185.875C54.1425 189.99 52.3791 194.561 50.8117 199.198C45.3911 215.656 41.6685 232.832 42.2563 250.139V250.988C44.738 239.494 48.4606 228.261 53.3588 217.55C56.4283 210.823 59.9549 204.358 62.6979 197.5C65.4409 190.643 67.4654 183.394 67.2695 176.014Z" fill="#F06428"/>
<path d="M13.4547 200.503C13.1282 203.768 14.369 207.099 16.067 209.907C17.8304 212.716 20.0509 215.197 21.8795 218.006C23.251 220.03 24.4266 222.186 25.9286 224.079C29.2594 228.194 34.1575 230.937 37.2271 235.247C41.0803 240.668 41.5374 247.721 41.4068 254.317C42.2558 254.513 43.1048 253.86 43.4314 253.011C43.7579 252.162 43.6273 251.313 43.562 250.399C42.6477 243.019 41.7987 235.639 40.8843 228.194C40.2966 223.296 39.5129 218.006 36.1168 214.479C33.831 212.128 30.6962 210.822 28.3451 208.536C26.7777 207.034 25.6674 205.14 24.3612 203.377C23.0551 201.613 21.553 199.915 19.5937 199.066C17.6344 198.217 15.0221 198.348 13.5853 199.915" fill="#F06428"/>
<path d="M36.3774 231.979C36.3774 231.979 33.961 231.718 32.1977 231.979C30.4343 232.24 28.2792 229.301 26.1893 232.763C24.0994 236.224 24.8831 240.861 21.5524 244.518C18.1563 248.11 18.1563 256.013 18.4175 261.499C18.6135 265.678 19.2012 269.27 19.4625 270.707C19.5278 270.968 19.8543 271.034 19.9849 270.838C20.638 269.793 21.9442 267.572 21.5524 265.809C21.0952 263.458 23.6422 261.956 25.4709 255.36C27.2995 248.763 29.3894 247.457 31.0221 243.539C32.6548 239.62 33.8957 238.379 33.8957 238.379L36.3774 231.979Z" fill="#F06428"/>
<path d="M41.3408 248.702C41.3408 248.702 40.6877 253.143 40.6877 251.184C40.6877 241.061 33.9609 238.187 33.9609 238.187L36.3121 231.983C36.3121 231.983 37.6182 231.526 39.1856 236.75C40.8837 241.975 41.3408 248.702 41.3408 248.702Z" fill="#FF725E"/>
<g opacity="0.3">
<g opacity="0.3">
<path opacity="0.3" d="M41.3408 248.702C41.3408 248.702 40.6877 253.143 40.6877 251.184C40.6877 241.061 33.9609 238.187 33.9609 238.187L36.3121 231.983C36.3121 231.983 37.6182 231.526 39.1856 236.75C40.8837 241.975 41.3408 248.702 41.3408 248.702Z" fill="black"/>
</g>
</g>
<path d="M59.2344 189.729C59.2344 189.729 59.1691 189.924 59.0385 190.251C58.8425 190.643 58.6466 191.1 58.3201 191.753C57.9935 192.406 57.6017 193.19 57.2098 194.17C56.818 195.084 56.2955 196.194 55.773 197.37C54.7281 199.721 53.5525 202.594 52.377 205.794C51.2014 208.995 50.0259 212.587 48.9156 216.374C47.8054 220.162 46.891 223.82 46.1726 227.216C45.4542 230.546 44.9318 233.616 44.5399 236.163C44.344 237.469 44.1481 238.579 44.0175 239.624C43.8868 240.669 43.7562 241.518 43.6909 242.237C43.6256 242.955 43.5603 243.478 43.495 243.869C43.4297 244.261 43.4297 244.457 43.4297 244.457C43.4297 244.457 43.4297 244.261 43.4297 243.869C43.495 243.478 43.495 242.89 43.5603 242.171C43.6256 241.453 43.6909 240.539 43.8215 239.559C43.9521 238.514 44.0828 237.339 44.2787 236.098C44.6705 233.551 45.193 230.481 45.8461 227.085C46.5645 223.754 47.4788 220.032 48.5238 216.244C49.634 212.456 50.8749 208.864 52.0504 205.664C53.2913 202.464 54.4669 199.59 55.5118 197.239C56.0343 196.063 56.5567 195.019 57.0139 194.039C57.471 193.125 57.8629 192.341 58.1894 191.688C58.516 191.035 58.7772 190.578 58.9731 190.186C59.1038 189.924 59.2344 189.729 59.2344 189.729Z" fill="#263238"/>
<path d="M41.8626 253.41C41.8626 253.41 41.8626 253.214 41.8626 252.822C41.8626 252.43 41.8626 251.908 41.8626 251.189C41.8626 249.753 41.8626 247.663 41.6014 245.116C41.1442 240.022 39.7074 233.034 36.3114 225.98C35.4623 224.217 34.548 222.519 33.5031 221.017C32.4581 219.515 31.2826 218.208 29.9111 217.164C28.6049 216.119 27.1681 215.335 25.9926 214.421C24.7517 213.506 23.7721 212.461 22.9884 211.482C21.421 209.457 20.5067 207.563 19.8536 206.257C19.527 205.604 19.3311 205.081 19.1352 204.755C19.0046 204.428 18.8739 204.232 18.9392 204.232C18.9392 204.232 19.0699 204.428 19.2005 204.755C19.3964 205.147 19.6576 205.604 19.9842 206.192C20.6373 207.433 21.6169 209.326 23.1843 211.286C23.968 212.265 24.9476 213.31 26.1232 214.159C27.2988 215.074 28.7356 215.857 30.107 216.902C31.4785 217.947 32.7194 219.253 33.7643 220.821C34.8093 222.323 35.7236 224.021 36.5726 225.784C40.034 232.838 41.4054 239.956 41.7973 245.05C41.9932 247.597 41.9932 249.687 41.9279 251.124C41.9279 251.842 41.8626 252.365 41.8626 252.757C41.9279 253.214 41.9279 253.41 41.8626 253.41Z" fill="#263238"/>
<path d="M21.0938 256.805C21.0938 256.805 21.1591 256.413 21.355 255.76C21.6162 255.041 21.8775 254.062 22.2693 252.952C23.053 250.6 24.098 247.335 25.4041 243.743C26.0572 241.98 26.645 240.282 27.2328 238.714C27.494 237.93 27.7552 237.212 28.0165 236.494C28.2777 235.775 28.5389 235.188 28.8002 234.6C29.3226 233.49 30.041 232.64 30.6941 232.314C31.0207 232.118 31.2819 232.053 31.4778 232.053C31.6738 232.053 31.7391 232.053 31.7391 232.053C31.7391 232.118 31.3472 232.118 30.7594 232.445C30.1717 232.771 29.5186 233.555 28.9961 234.73C28.7349 235.253 28.4736 235.906 28.2777 236.624C28.0165 237.343 27.7552 238.061 27.494 238.845C26.9062 240.412 26.3184 242.11 25.6654 243.874C24.3592 247.466 23.2489 250.731 22.3999 253.082C22.0081 254.192 21.6815 255.172 21.4203 255.825C21.2897 256.413 21.0938 256.805 21.0938 256.805Z" fill="#263238"/>
<path d="M26.1885 191.298C26.1885 191.298 25.8619 191.298 25.2742 191.232C24.6864 191.167 23.7721 191.102 22.7271 190.971C21.6822 190.906 20.376 190.906 18.9392 190.906C17.5024 190.971 15.935 191.102 14.3023 191.363C12.6696 191.624 11.1675 192.016 9.79601 192.408C8.42452 192.8 7.24897 193.257 6.20403 193.649C5.2244 194.041 4.37539 194.432 3.85292 194.694C3.33045 194.955 3.00391 195.086 3.00391 195.086C3.00391 195.086 3.26514 194.89 3.78761 194.563C4.31008 194.237 5.09378 193.845 6.07341 193.453C7.05304 192.996 8.29391 192.538 9.66539 192.147C11.0369 191.755 12.6043 191.363 14.237 191.102C15.8697 190.84 17.4371 190.71 18.8739 190.645C20.3107 190.645 21.6169 190.645 22.6618 190.775C23.7721 190.906 24.6211 190.971 25.2089 191.102C25.8619 191.167 26.1885 191.232 26.1885 191.298Z" fill="#263238"/>
<path d="M56.0345 237.926C54.8589 237.599 53.6181 237.273 52.3772 237.404C49.2424 237.73 46.4994 240.996 45.1279 243.869C43.8217 246.743 41.6666 248.114 42.3197 251.706C42.189 249.616 43.7565 247.722 45.7157 246.939C47.675 246.155 49.8955 246.416 51.8547 247.004C53.8793 247.592 55.7733 248.506 57.7978 249.094C60.9326 250.008 64.3287 250.269 67.0716 252.098C68.4431 253.012 69.5534 254.253 70.8596 255.298C72.1657 256.278 73.8637 257.061 75.4965 256.67C73.08 247.526 65.0471 240.604 56.0345 237.926Z" fill="#F06428"/>
<path d="M70.3386 251.248C70.2733 251.248 70.2733 250.791 69.8161 250.072C69.4243 249.354 68.5099 248.505 67.2038 247.852C65.8976 247.199 64.1342 246.742 62.4362 245.697C60.7382 244.717 59.0402 243.346 57.0809 242.301C56.1013 241.778 55.0563 241.386 54.0114 241.19C52.9665 240.994 51.9868 241.06 51.0072 241.321C49.1132 241.843 47.6765 242.888 46.6315 243.868C45.5213 244.848 44.8029 245.762 44.2151 246.415C43.9539 246.676 43.7579 246.938 43.562 247.133C43.4314 247.264 43.3661 247.395 43.3008 247.395C43.3008 247.395 43.3661 247.264 43.4967 247.133C43.6273 246.938 43.8233 246.676 44.0845 246.35C44.607 245.697 45.3253 244.782 46.4356 243.737C47.4805 242.692 48.9826 241.582 50.9419 241.06C51.9215 240.799 52.9665 240.668 54.0767 240.864C55.187 241.06 56.2319 241.452 57.2115 241.974C59.2361 243.019 60.8688 244.456 62.5668 245.435C64.1996 246.415 65.9629 246.938 67.2691 247.656C68.6406 248.374 69.4896 249.289 69.8814 250.007C70.0774 250.399 70.208 250.66 70.208 250.921C70.3386 251.117 70.3386 251.248 70.3386 251.248Z" fill="#263238"/>
<path d="M29.457 255.426L32.6572 276.52H51.3354L55.6458 255.752L29.457 255.426Z" fill="#263238"/>
<path d="M53.0289 268.953C53.0289 269.018 48.2614 269.083 42.3836 269.083C36.5058 269.083 31.7383 269.018 31.7383 268.953C31.7383 268.888 36.5058 268.822 42.3836 268.822C48.2614 268.822 53.0289 268.888 53.0289 268.953Z" fill="#455A64"/>
<path d="M53.097 267.915C53.097 267.98 48.2642 268.045 42.3864 268.045C36.4433 268.045 31.6758 267.98 31.6758 267.915C31.6758 267.849 36.5086 267.784 42.3864 267.784C48.2642 267.849 53.097 267.849 53.097 267.915Z" fill="#455A64"/>
<path d="M53.0306 266.748C53.0306 266.813 48.1978 266.878 42.32 266.878C36.3769 266.878 31.6094 266.813 31.6094 266.748C31.6094 266.683 36.4422 266.617 42.32 266.617C48.2631 266.682 53.0306 266.683 53.0306 266.748Z" fill="#455A64"/>
<path d="M34.8099 275.354C34.7446 275.354 34.4833 274.179 34.2221 272.677C33.9609 271.175 33.8302 269.999 33.8955 269.999C33.9609 269.999 34.2221 271.175 34.4833 272.677C34.6792 274.113 34.8752 275.289 34.8099 275.354Z" fill="#455A64"/>
<path d="M36.0503 275.096C35.985 275.096 35.9197 273.92 35.789 272.483C35.7237 271.047 35.5931 269.871 35.6584 269.871C35.7237 269.871 35.9197 271.047 35.985 272.483C36.1809 273.92 36.1156 275.096 36.0503 275.096Z" fill="#455A64"/>
<path d="M38.4003 275.099C38.335 275.099 38.0737 273.924 37.9431 272.422C37.7472 270.92 37.7472 269.744 37.8125 269.744C37.8778 269.744 38.0084 270.92 38.139 272.422C38.2697 273.924 38.4656 275.099 38.4003 275.099Z" fill="#455A64"/>
<path d="M40.0344 275.229C39.9691 275.229 39.8385 274.053 39.7731 272.551C39.7078 271.049 39.7731 269.808 39.8385 269.874C39.9038 269.874 39.9038 271.114 39.9691 272.551C40.0344 273.988 40.0997 275.229 40.0344 275.229Z" fill="#455A64"/>
<path d="M42.909 275.093C42.8437 275.093 42.7784 273.918 42.713 272.546C42.6477 271.109 42.6477 269.999 42.713 269.999C42.7784 269.999 42.8437 271.175 42.909 272.546C42.9743 273.983 42.909 275.093 42.909 275.093Z" fill="#455A64"/>
<path d="M44.9986 275.226C44.9333 275.226 44.868 274.051 44.9333 272.549C44.9333 271.112 44.9986 269.871 45.0639 269.871C45.1292 269.871 45.1945 271.047 45.1292 272.549C45.0639 274.051 45.0639 275.226 44.9986 275.226Z" fill="#455A64"/>
<path d="M46.9553 274.962C46.89 274.962 46.9553 273.722 47.0859 272.22C47.2165 270.717 47.4125 269.477 47.4778 269.477C47.5431 269.477 47.4778 270.717 47.3472 272.22C47.1512 273.722 47.0206 274.962 46.9553 274.962Z" fill="#455A64"/>
<path d="M49.5049 274.636C49.4396 274.636 49.5702 273.591 49.8315 272.285C50.0927 270.979 50.4846 269.999 50.5499 269.999C50.6152 269.999 50.3539 271.044 50.0927 272.35C49.7008 273.656 49.5702 274.636 49.5049 274.636Z" fill="#455A64"/>
<path d="M27.3008 251.254V255.172C27.3008 256.021 28.0192 256.74 28.8682 256.74H55.8407C56.6897 256.74 57.4081 256.021 57.4081 255.172V251.254H27.3008Z" fill="#263238"/>
<path d="M55.0558 256.807C55.0558 256.873 49.3087 257.003 42.19 257.003C35.0714 257.003 29.3242 256.938 29.3242 256.807C29.3242 256.677 35.0714 256.611 42.19 256.611C49.3087 256.611 55.0558 256.677 55.0558 256.807Z" fill="#455A64"/>
<path d="M252.181 228.394H233.001C232.815 228.394 232.535 228.394 232.349 228.394H184.213C175.927 228.394 169.316 235.097 169.316 243.291C169.316 251.577 176.02 258.187 184.213 258.187H232.442C240.729 258.187 247.339 251.484 247.339 243.291C247.339 240.497 246.594 237.89 245.198 235.656L252.181 228.394Z" fill="#EFF3F8"/>
<path d="M190.73 239.934V247.196H189.706V243.937H185.516V247.196H184.492V239.934H185.516V243.006H189.706V239.934H190.73Z" fill="#263238"/>
<path d="M197.712 244.781H193.243C193.336 245.713 194.174 246.364 195.198 246.364C195.85 246.364 196.409 246.178 196.781 245.713L197.34 246.364C196.874 246.923 196.129 247.295 195.198 247.295C193.429 247.295 192.219 246.085 192.219 244.502C192.219 242.919 193.429 241.709 195.012 241.709C196.595 241.709 197.712 242.826 197.712 244.502C197.712 244.595 197.712 244.688 197.712 244.781ZM193.243 244.13H196.781C196.688 243.199 195.943 242.547 195.012 242.547C194.081 242.547 193.429 243.106 193.243 244.13Z" fill="#263238"/>
<path d="M199.109 239.565H200.134V247.293H199.109V239.565Z" fill="#263238"/>
<path d="M201.996 239.565H203.02V247.293H201.996V239.565Z" fill="#263238"/>
<path d="M204.418 244.502C204.418 242.826 205.628 241.709 207.304 241.709C208.98 241.709 210.191 242.826 210.191 244.502C210.191 246.178 208.98 247.295 207.304 247.295C205.628 247.295 204.418 246.085 204.418 244.502ZM209.073 244.502C209.073 243.292 208.328 242.547 207.211 242.547C206.187 242.547 205.349 243.292 205.349 244.502C205.349 245.713 206.187 246.457 207.211 246.457C208.328 246.364 209.073 245.619 209.073 244.502Z" fill="#263238"/>
<path d="M211.309 246.637C211.309 246.265 211.588 245.985 211.96 245.985C212.333 245.985 212.612 246.265 212.612 246.637C212.612 247.01 212.333 247.289 211.96 247.289C211.588 247.289 211.309 247.01 211.309 246.637ZM211.402 239.934H212.612L212.426 244.868H211.681L211.402 239.934Z" fill="#263238"/>
<path d="M214.008 246.637C214.008 246.265 214.287 245.985 214.66 245.985C215.032 245.985 215.311 246.265 215.311 246.637C215.311 247.01 215.032 247.289 214.66 247.289C214.287 247.289 214.008 247.01 214.008 246.637ZM214.101 239.934H215.311L215.125 244.868H214.38L214.101 239.934Z" fill="#263238"/>
<path d="M223.226 243.944C223.226 243.665 223.039 243.386 222.853 243.107C222.667 242.92 222.388 242.734 222.108 242.641C221.829 242.548 221.457 242.641 221.177 242.827C220.991 242.92 220.898 243.107 220.805 243.2C220.712 243.013 220.619 242.92 220.433 242.827C220.153 242.641 219.874 242.548 219.501 242.641C219.222 242.734 218.943 242.827 218.757 243.107C218.57 243.293 218.384 243.572 218.384 243.851C218.291 244.224 218.384 244.596 218.57 244.969C218.757 245.341 219.129 245.62 219.408 245.807C219.967 246.179 220.712 246.645 220.712 246.645C220.712 246.645 221.364 246.179 221.922 245.9C222.295 245.714 222.574 245.434 222.853 245.155C223.133 244.782 223.226 244.317 223.226 243.944Z" fill="#080E26"/>
<path d="M229.929 243.944C229.929 243.665 229.743 243.386 229.556 243.107C229.37 242.92 229.091 242.734 228.812 242.641C228.532 242.548 228.16 242.641 227.88 242.827C227.694 242.92 227.601 243.107 227.508 243.2C227.415 243.013 227.322 242.92 227.136 242.827C226.856 242.641 226.577 242.548 226.205 242.641C225.925 242.734 225.646 242.827 225.46 243.107C225.274 243.293 225.087 243.572 225.087 243.851C224.994 244.224 225.087 244.596 225.274 244.969C225.46 245.341 225.832 245.62 226.111 245.807C226.67 246.179 227.415 246.645 227.415 246.645C227.415 246.645 228.067 246.179 228.625 245.9C228.998 245.714 229.277 245.434 229.556 245.155C229.929 244.782 230.022 244.317 229.929 243.944Z" fill="#080E26"/>
<path d="M162.114 254.018C167.495 248.637 167.495 239.912 162.114 234.531C156.732 229.149 148.008 229.149 142.626 234.531C137.245 239.912 137.245 248.637 142.626 254.018C148.008 259.399 156.732 259.399 162.114 254.018Z" fill="white"/>
<path d="M157.213 239.652C157.213 242.352 154.978 244.587 152.278 244.587C149.578 244.587 147.344 242.352 147.344 239.652C147.344 236.952 149.578 234.718 152.278 234.718C155.072 234.811 157.213 236.952 157.213 239.652Z" fill="#F06428"/>
<path d="M142.688 252.408C142.688 252.408 145.76 245.239 152.65 245.239C159.54 245.239 162.333 252.129 162.333 252.129C162.333 252.129 159.353 256.971 152.743 256.971C145.853 257.064 142.688 252.408 142.688 252.408Z" fill="#F06428"/>
<path d="M72.7492 61.5191C75.1401 46.636 65.013 32.6326 50.1299 30.2418C35.2467 27.8509 21.2433 37.978 18.8525 52.8612C16.4616 67.7444 26.5886 81.7477 41.4718 84.1385C56.355 86.5294 70.3584 76.4023 72.7492 61.5191Z" fill="#080E26"/>
<path d="M62.0222 75.9773C72.5034 67.1285 73.8266 51.4584 64.9778 40.9773C56.129 30.4961 40.459 29.1729 29.9778 38.0217C19.4967 46.8705 18.1734 62.5406 27.0222 73.0217C35.871 83.5029 51.5411 84.8261 62.0222 75.9773Z" fill="#FAFAFA"/>
<path d="M21.1762 55.4561C21.1762 55.4561 21.1762 55.6257 21.1762 55.88C21.1762 56.1343 21.1762 56.5581 21.1762 57.0667C21.1762 57.321 21.1762 57.5753 21.1762 57.9144C21.1762 58.2535 21.261 58.5925 21.261 58.9316C21.261 59.2707 21.3457 59.6945 21.3457 60.1183C21.3457 60.5422 21.5152 60.966 21.6 61.4746C21.9391 63.4243 22.6172 65.713 23.8887 68.256C25.1602 70.7142 27.0251 73.342 29.7377 75.7155C30.0767 75.9698 30.4158 76.3089 30.7549 76.5632C31.094 76.8175 31.5178 77.0718 31.8569 77.3261C32.2807 77.5804 32.6197 77.9194 33.0436 78.089C33.4674 78.3433 33.8912 78.5128 34.3151 78.7671C34.4846 78.8519 34.7389 79.0214 34.9085 79.1062C35.1628 79.1909 35.3323 79.2757 35.5866 79.3605C36.0104 79.53 36.5191 79.7843 36.9429 79.9538C37.3667 80.1234 37.8753 80.2929 38.3839 80.4625C38.8925 80.632 39.3163 80.8015 39.8249 80.8863C40.8421 81.1406 41.8594 81.3949 42.9613 81.4797C43.4699 81.5644 44.0633 81.6492 44.5719 81.6492C45.0805 81.6492 45.6739 81.6492 46.1825 81.6492C46.4368 81.6492 46.7758 81.6492 47.0302 81.6492C47.2845 81.6492 47.6235 81.5644 47.8778 81.5644C48.4712 81.4796 48.9798 81.4797 49.5732 81.3949C50.6751 81.1406 51.8619 81.0558 52.9639 80.632L53.8115 80.3777C53.9811 80.2929 54.0658 80.2929 54.2354 80.2929L54.6592 80.1234C55.1678 79.8691 55.7612 79.6995 56.2698 79.4452C56.7784 79.1909 57.3718 78.9366 57.8804 78.5976C58.1347 78.428 58.389 78.3433 58.6433 78.1737L59.4062 77.6651C60.4234 77.0718 61.3558 76.2241 62.373 75.4612C62.7969 75.0374 63.3055 74.6135 63.7293 74.1897L64.0684 73.8506L64.4074 73.5115L65.0008 72.8334L65.5942 72.0705L66.1028 71.3076L66.6114 70.5447L66.8657 70.1208C66.9505 69.9513 67.0352 69.8665 67.12 69.697C67.459 69.1036 67.7134 68.595 68.0524 68.0017C68.3068 67.4083 68.561 66.8149 68.8153 66.2216C69.7478 63.7633 70.4259 61.2203 70.5955 58.5078C70.765 55.7952 70.5107 53.1674 69.8325 50.6244C69.663 50.031 69.4935 49.3529 69.324 48.7595C69.0697 48.1662 68.8153 47.5728 68.561 46.9794L68.3915 46.5556L68.1372 46.1318L67.7134 45.2841L67.2895 44.4364L66.7809 43.6735L66.2723 42.9106L66.018 42.4868L65.7637 42.1477C65.3399 41.6391 65.0008 41.1305 64.577 40.7067C63.7293 39.859 62.8816 38.9265 61.9492 38.1636L61.2711 37.5703C61.0168 37.4007 60.7625 37.2312 60.5082 37.0617C59.9995 36.7226 59.5757 36.3835 59.0671 36.0445C58.5585 35.7902 58.0499 35.4511 57.5413 35.1968L57.1175 34.9425C56.9479 34.8577 56.8632 34.8577 56.6936 34.773L55.9307 34.4339C54.9135 33.9253 53.8115 33.5862 52.7096 33.2471C52.201 33.0776 51.6076 32.9928 51.099 32.9081C50.8447 32.8233 50.5904 32.8233 50.2513 32.7386C49.997 32.6538 49.7427 32.6538 49.4037 32.6538C48.8951 32.569 48.3017 32.4842 47.7931 32.4842C47.2845 32.3995 46.6911 32.4842 46.1825 32.3995C45.0805 32.3147 44.0633 32.4842 43.0461 32.569C42.5375 32.569 42.0289 32.7385 41.5203 32.8233C41.0117 32.9081 40.5031 32.9928 40.0793 33.0776C39.5707 33.2472 39.1468 33.3319 38.6382 33.5015C38.3839 33.5862 38.1296 33.671 37.9601 33.671C37.7058 33.7557 37.5362 33.8405 37.2819 33.9253C36.8581 34.0948 36.4343 34.2644 35.9257 34.4339C35.5018 34.6034 35.078 34.8577 34.6542 35.0273C34.2303 35.2816 33.8065 35.4511 33.4674 35.7054C33.1283 35.9597 32.7045 36.214 32.3654 36.4683C29.3986 38.4179 27.1946 40.7914 25.5841 43.0801C23.9735 45.3688 22.9563 47.5728 22.4477 49.5224C22.2781 50.031 22.1086 50.4549 22.0238 50.8787C21.9391 51.3026 21.8543 51.7264 21.7695 52.0655C21.6848 52.4045 21.6 52.7436 21.5153 53.0827C21.5153 53.4217 21.4305 53.676 21.4305 53.9303C21.3457 54.4389 21.3457 54.8628 21.261 55.1171C21.1762 55.2866 21.1762 55.4561 21.1762 55.4561C21.1762 55.4561 21.1762 55.2866 21.1762 55.0323C21.1762 54.778 21.261 54.3542 21.261 53.8456C21.261 53.5913 21.3457 53.337 21.3457 52.9979C21.4305 52.6588 21.5153 52.3197 21.5153 51.9807C21.6 51.6416 21.6848 51.2178 21.7695 50.7939C21.8543 50.3701 22.0238 49.9463 22.1934 49.4377C22.702 47.5728 23.804 45.2841 25.3298 42.9954C26.9404 40.7066 29.1443 38.2484 32.1112 36.2988C32.4502 36.0445 32.874 35.7902 33.2131 35.5359C33.6369 35.2816 34.0608 35.112 34.3999 34.8577C34.8237 34.6882 35.2475 34.4339 35.6714 34.2644C36.0952 34.0948 36.519 33.9253 37.0276 33.7557C37.2819 33.671 37.4515 33.5862 37.7058 33.5015C37.9601 33.4167 38.2144 33.3319 38.3839 33.3319C38.8925 33.1624 39.3163 33.0776 39.8249 32.9081C40.3335 32.7385 40.8422 32.7385 41.3508 32.569C41.8594 32.4842 42.368 32.3147 42.8766 32.3147C43.8938 32.2299 44.9958 32.0604 46.013 32.1452C46.5216 32.1452 47.1149 32.1452 47.6235 32.1452C48.1321 32.2299 48.7255 32.2299 49.2341 32.3147C49.4884 32.3147 49.8275 32.3995 50.0818 32.3995C50.3361 32.4842 50.5904 32.4842 50.9295 32.569C51.4381 32.7385 52.0314 32.8233 52.6248 32.9081C53.7268 33.2471 54.8288 33.5862 55.846 34.0948L56.6936 34.4339C56.8632 34.5187 56.9479 34.5186 57.1175 34.6034L57.5413 34.8577C58.0499 35.112 58.5585 35.4511 59.0671 35.7054C59.5757 36.0445 60.0843 36.3835 60.5929 36.7226C60.8472 36.8921 61.1015 37.0617 61.3558 37.2312L62.034 37.8246C62.9664 38.5875 63.8141 39.5199 64.7465 40.4523C65.1703 40.9609 65.5094 41.4696 65.9333 41.8934L66.1876 42.2325L66.4419 42.6563L66.9504 43.4192L67.4591 44.1821L67.8829 45.0298L68.3067 45.8775L68.561 46.3013L68.7306 46.7251C68.9849 47.3185 69.2391 47.9119 69.4935 48.5052C69.663 49.0986 69.8325 49.7767 70.0868 50.3701C70.765 52.9131 71.0193 55.6257 70.8498 58.3382C70.5955 61.0508 70.0021 63.6786 69.0696 66.1368C68.8153 66.7302 68.561 67.3236 68.3067 67.9169C67.9677 68.5103 67.6286 69.0189 67.3743 69.6123C67.2895 69.7818 67.2047 69.8666 67.12 70.0361L66.8657 70.4599L66.2723 71.2228L65.6789 71.9857L65.0856 72.7486L64.4922 73.5115L64.1531 73.8506L63.8141 74.1897C63.3903 74.6135 62.8816 75.0374 62.4578 75.4612C61.4406 76.2241 60.5081 77.0718 59.4909 77.6651L58.7281 78.1737C58.4738 78.3433 58.2194 78.428 57.9651 78.5976C57.4565 78.8519 56.8631 79.1909 56.3545 79.4452C55.7612 79.6995 55.2526 79.8691 54.6592 80.1234L54.2354 80.2929C54.0658 80.3777 53.9811 80.3777 53.8115 80.4625L52.9639 80.7167C51.8619 81.0558 50.6751 81.2254 49.5732 81.4797C48.9798 81.5644 48.4712 81.5644 47.8778 81.6492C47.6235 81.6492 47.2845 81.734 47.0302 81.734C46.7758 81.734 46.4368 81.734 46.1825 81.734C45.5891 81.734 45.0805 81.734 44.4871 81.734C43.9785 81.734 43.3852 81.6492 42.8766 81.5644C41.7746 81.4796 40.7574 81.2254 39.7402 80.9711C39.2316 80.8863 38.723 80.632 38.2144 80.5472C37.7058 80.3777 37.1972 80.2081 36.7733 80.0386C36.3495 79.8691 35.8409 79.6148 35.4171 79.4452C35.1628 79.3605 34.9932 79.2757 34.7389 79.1062C34.4846 79.0214 34.3151 78.8519 34.0608 78.7671C33.6369 78.5128 33.2131 78.2585 32.7893 78.089C32.3654 77.8347 32.0264 77.5804 31.6026 77.3261C31.2635 77.0718 30.8396 76.8175 30.5006 76.5632C30.1615 76.3089 29.8225 75.9698 29.4834 75.7155C26.7708 73.342 24.9059 70.7142 23.6344 68.256C22.3629 65.713 21.6848 63.4243 21.3457 61.4746C21.2609 60.966 21.1762 60.5422 21.0914 60.1183C21.0914 59.6945 21.0067 59.2707 21.0067 58.9316C21.0067 58.5925 20.9219 58.1687 20.9219 57.9144C20.9219 57.5753 20.9219 57.321 20.9219 57.0667C20.9219 56.5581 20.9219 56.1343 20.9219 55.88C21.1762 55.5409 21.1762 55.4561 21.1762 55.4561Z" fill="#263238"/>
<path d="M57.367 57.5468C57.367 57.5468 57.0279 57.5468 56.5193 57.6315C55.926 57.6315 55.0783 57.6315 54.0611 57.7163C52.0267 57.7163 49.1446 57.801 45.9235 57.801H45.7539V57.6315C45.7539 57.1229 45.7539 56.5296 45.7539 56.021C45.7539 52.4607 45.7539 49.1548 45.8387 46.7813C45.8387 45.6793 45.8387 44.6622 45.9235 43.984C45.9235 43.3059 45.9235 42.9668 46.0082 42.9668C46.0082 42.9668 46.093 43.3059 46.093 43.984C46.093 44.6622 46.093 45.6793 46.1777 46.7813C46.1777 49.1548 46.2625 52.376 46.2625 56.021C46.2625 56.6143 46.2625 57.1229 46.2625 57.6315L46.093 57.462C49.3141 57.462 52.1962 57.462 54.2306 57.5468C55.2478 57.5468 56.0108 57.5468 56.6889 57.6315C57.1127 57.5468 57.367 57.5468 57.367 57.5468Z" fill="#263238"/>
<path d="M46.0094 36.0547C46.0942 36.0547 46.1789 36.9871 46.1789 38.1739C46.1789 39.3606 46.0942 40.293 46.0094 40.293C45.9246 40.293 45.8398 39.3606 45.8398 38.1739C45.8398 36.9871 45.9246 36.0547 46.0094 36.0547Z" fill="#263238"/>
<path d="M57.3694 39.4358C57.4542 39.5206 56.8609 40.1987 56.0132 41.0464C55.2503 41.8093 54.4874 42.4874 54.4026 42.4026C54.3178 42.3179 54.9112 41.6397 55.7589 40.7921C56.6066 39.9444 57.2847 39.351 57.3694 39.4358Z" fill="#263238"/>
<path d="M63.9819 46.6174C63.9819 46.7021 63.219 47.2107 62.2865 47.7193C61.3541 48.3127 60.5064 48.8213 60.5064 48.7366C60.4217 48.6518 61.1846 48.0584 62.117 47.4651C63.0495 46.8717 63.9819 46.5326 63.9819 46.6174Z" fill="#263238"/>
<path d="M67.8813 57.3941C67.8813 57.4789 66.6098 57.5637 64.9992 57.5637C63.3887 57.5637 62.1172 57.4789 62.1172 57.3941C62.1172 57.3094 63.3887 57.2246 64.9992 57.2246C66.6098 57.2246 67.8813 57.3094 67.8813 57.3941Z" fill="#263238"/>
<path d="M28.3782 56.9742C28.3782 57.059 27.1915 57.1438 25.6657 57.1438C24.1399 57.1438 22.9531 57.059 22.9531 56.9742C22.9531 56.8894 24.1399 56.8047 25.6657 56.8047C27.1915 56.8047 28.3782 56.8894 28.3782 56.9742Z" fill="#263238"/>
<path d="M31.1773 64.9229C31.2621 65.0076 30.3296 65.8553 29.1429 66.7877C27.9561 67.7202 26.9389 68.4831 26.9389 68.3983C26.8542 68.3135 27.7866 67.4659 28.9733 66.5334C30.0753 65.601 31.0925 64.9229 31.1773 64.9229Z" fill="#263238"/>
<path d="M38.0409 71.1074C38.1257 71.1922 37.4475 72.2094 36.6846 73.4809C35.9217 74.7524 35.3284 75.8544 35.2436 75.8544C35.1588 75.8544 35.6674 74.6676 36.4303 73.3114C37.1932 72.0399 37.9561 71.1074 38.0409 71.1074Z" fill="#263238"/>
<path d="M46.0094 79.1069C45.9246 79.1069 45.8398 77.8354 45.8398 76.2249C45.8398 74.6143 45.9246 73.3428 46.0094 73.3428C46.0942 73.3428 46.1789 74.6143 46.1789 76.2249C46.1789 77.8354 46.0942 79.1069 46.0094 79.1069Z" fill="#263238"/>
<path d="M58.3036 75.3787C58.2189 75.4634 57.1168 74.7853 55.9301 73.7681C54.7434 72.7509 53.9805 71.7337 53.9805 71.6489C54.0652 71.5642 54.9129 72.4966 56.0996 73.5138C57.3712 74.531 58.3884 75.2939 58.3036 75.3787Z" fill="#263238"/>
<path d="M64.0641 69.1598C63.9794 69.2446 63.1317 68.4817 62.1992 67.4645C61.182 66.4473 60.5039 65.5996 60.5039 65.5996C60.5039 65.5996 61.4364 66.2777 62.3688 67.295C63.386 68.2274 64.1489 69.0751 64.0641 69.1598Z" fill="#263238"/>
<path d="M30.9209 49.3096C30.8361 49.3943 30.0732 48.7162 29.2255 47.8685C28.3778 47.0209 27.6997 46.258 27.7845 46.1732C27.8693 46.0884 28.6322 46.7665 29.4799 47.6142C30.3275 48.4619 31.0056 49.2248 30.9209 49.3096Z" fill="#263238"/>
<path d="M38.0399 41.8869C37.9551 41.9717 37.277 41.2935 36.4293 40.4459C35.5816 39.5982 34.9883 38.9201 34.9883 38.8353C35.073 38.7505 35.7512 39.4287 36.5988 40.2763C37.4465 41.0393 38.0399 41.8021 38.0399 41.8869Z" fill="#263238"/>
<path d="M23.9708 57.1368C23.9708 43.9979 34.2276 33.2324 47.1969 32.4695C46.6883 32.4695 46.1797 32.3848 45.7559 32.3848C32.1084 32.3848 21.0039 43.4893 21.0039 57.1368C21.0039 70.7843 32.1084 81.8888 45.7559 81.8888C46.2645 81.8888 46.7731 81.8888 47.1969 81.804C34.3123 81.0411 23.9708 70.2757 23.9708 57.1368Z" fill="#E0E0E0"/>
<path d="M10.2266 277.871H265.227" stroke="#455A64"/>
<path d="M255.905 218.505H106.842C104.794 218.505 103.211 216.829 103.211 214.874V75.0286C103.211 72.9803 104.887 71.3975 106.842 71.3975H255.905C257.953 71.3975 259.536 73.0734 259.536 75.0286V214.781C259.629 216.829 257.953 218.505 255.905 218.505Z" fill="white"/>
<path d="M255.903 218.502C255.903 218.502 256.462 218.595 257.393 218.13C257.859 217.943 258.417 217.571 258.79 216.919C259.255 216.267 259.534 215.43 259.441 214.405C259.441 210.402 259.441 204.536 259.441 196.901C259.441 181.725 259.441 159.659 259.348 132.565C259.348 118.972 259.348 104.075 259.348 88.1536C259.348 84.1501 259.348 80.0534 259.348 75.9567C259.348 75.3981 259.348 74.9326 259.255 74.467C259.162 74.0015 258.976 73.536 258.697 73.1635C258.138 72.3256 257.207 71.767 256.276 71.6738C254.227 71.6738 252.086 71.6738 249.945 71.6738C241.472 71.6738 232.627 71.6738 223.689 71.6738C187.75 71.6738 148.273 71.6738 106.748 71.6738C105.537 71.6738 104.327 72.3256 103.768 73.4429C103.489 74.0015 103.303 74.5602 103.303 75.2119V77.1671C103.303 79.7741 103.303 82.2879 103.303 84.8949C103.303 90.0157 103.303 95.1366 103.303 100.164C103.303 110.22 103.303 120.182 103.303 129.958C103.303 149.51 103.303 168.411 103.303 186.38C103.303 195.412 103.303 204.164 103.303 212.636V214.219C103.303 214.778 103.303 215.243 103.396 215.709C103.582 216.64 104.327 217.571 105.165 217.943C105.63 218.13 106.096 218.316 106.561 218.316C107.027 218.316 107.585 218.316 108.144 218.316C109.168 218.316 110.192 218.316 111.217 218.316C115.313 218.316 119.41 218.316 123.414 218.316C139.428 218.316 154.325 218.316 167.825 218.316C195.012 218.316 216.985 218.409 232.161 218.409C239.796 218.409 245.662 218.409 249.665 218.409C251.62 218.409 253.203 218.409 254.227 218.409C255.438 218.502 255.903 218.502 255.903 218.502C255.903 218.502 255.345 218.502 254.321 218.502C253.296 218.502 251.807 218.502 249.758 218.502C245.755 218.502 239.889 218.502 232.254 218.502C217.078 218.502 195.012 218.502 167.918 218.595C154.325 218.595 139.428 218.595 123.507 218.595C119.503 218.595 115.406 218.595 111.31 218.595C110.286 218.595 109.261 218.595 108.237 218.595C107.679 218.595 107.213 218.595 106.654 218.595C106.096 218.595 105.537 218.409 105.072 218.13C104.047 217.664 103.303 216.64 103.116 215.616C102.93 215.057 103.023 214.498 103.023 214.033V212.45C103.023 203.977 103.023 195.132 103.023 186.194C103.023 168.225 103.023 149.324 103.023 129.772C103.023 119.996 103.023 110.034 103.023 99.9781C103.023 94.9504 103.023 89.8295 103.023 84.7087C103.023 82.1017 103.023 79.5879 103.023 76.9809V75.0257C103.023 74.3739 103.209 73.6291 103.489 73.0704C104.141 71.8601 105.537 71.1152 106.934 71.1152C148.366 71.1152 187.936 71.1152 223.875 71.1152C232.813 71.1152 241.658 71.1152 250.131 71.1152C252.272 71.1152 254.321 71.1152 256.462 71.1152C257.579 71.2083 258.603 71.8601 259.255 72.7911C259.534 73.2567 259.814 73.7222 259.907 74.2808C260 74.8395 260 75.3981 260 75.8636C260 79.9603 260 84.057 260 88.0605C260 104.075 260 118.972 260 132.472C260 159.659 259.907 181.632 259.907 196.808C259.907 204.443 259.907 210.309 259.907 214.312C260 215.336 259.628 216.174 259.162 216.826C258.697 217.478 258.138 217.85 257.672 218.036C257.207 218.223 256.834 218.316 256.555 218.316C256.09 218.502 255.903 218.502 255.903 218.502Z" fill="#263238"/>
<path d="M259.533 83.9805C259.533 84.0736 224.711 84.2598 181.696 84.2598C138.681 84.2598 103.859 84.1667 103.859 83.9805C103.859 83.8874 138.681 83.7012 181.696 83.7012C224.711 83.7012 259.533 83.7943 259.533 83.9805Z" fill="#263238"/>
<path d="M111.403 77.8321C111.403 78.577 110.751 79.2287 110.006 79.2287C109.261 79.2287 108.609 78.577 108.609 77.8321C108.609 77.0873 109.261 76.4355 110.006 76.4355C110.751 76.4355 111.403 77.0873 111.403 77.8321Z" fill="#263238"/>
<path d="M117.828 77.8321C117.828 78.577 117.177 79.2287 116.432 79.2287C115.687 79.2287 115.035 78.577 115.035 77.8321C115.035 77.0873 115.687 76.4355 116.432 76.4355C117.177 76.5287 117.828 77.0873 117.828 77.8321Z" fill="#263238"/>
<path d="M124.25 77.8321C124.25 78.577 123.598 79.2287 122.854 79.2287C122.109 79.2287 121.457 78.577 121.457 77.8321C121.457 77.0873 122.109 76.4355 122.854 76.4355C123.598 76.5287 124.25 77.0873 124.25 77.8321Z" fill="#263238"/>
<path d="M218.568 140.962C218.568 140.962 235.979 106.699 237.562 103.999C240.541 99.2505 227.693 62.7529 227.693 62.7529L215.31 64.2426L221.361 97.2952L201.902 130.627L218.568 140.962Z" fill="#FFBE9D"/>
<path d="M219.966 139.664C219.966 139.664 204.79 168.993 204.603 168.248C204.51 167.503 187.938 149.161 187.938 149.161L201.81 126.164L219.966 139.664Z" fill="#F06428"/>
<path d="M180.487 211.35C180.394 211.443 182.443 212.374 184.957 213.305C187.47 214.236 189.612 214.888 189.612 214.795C189.705 214.702 187.657 213.771 185.143 212.84C182.629 211.816 180.581 211.164 180.487 211.35Z" fill="#EB996E"/>
<path d="M201.435 149.621L218.194 218.334C218.194 218.334 194.917 218.334 195.848 218.52L165.589 218.054L160.747 201.109L146.223 156.977C150.226 149.528 157.954 147.759 160.561 147.48L181.324 145.99L201.435 149.621Z" fill="#F06428"/>
<path d="M204.32 160.697C204.32 160.697 204.413 161.349 204.6 162.373C204.879 163.49 205.251 165.073 205.624 166.935C206.555 170.753 207.765 176.06 209.255 181.925C210.652 187.791 212.048 193.098 212.979 196.915C213.445 198.778 213.91 200.267 214.19 201.478C214.469 202.502 214.655 203.154 214.655 203.154C214.655 203.154 214.562 202.502 214.376 201.478C214.096 200.36 213.724 198.778 213.352 196.915C212.421 193.098 211.21 187.791 209.72 181.925C208.324 176.06 206.927 170.753 205.996 166.935C205.531 165.073 205.065 163.584 204.786 162.373C204.6 161.349 204.413 160.697 204.32 160.697Z" fill="#263238"/>
<g opacity="0.3">
<g opacity="0.3">
<g opacity="0.3">
<path opacity="0.3" d="M171.362 160.339C175.552 172.35 167.079 185.85 159.072 195.719L157.023 189.575C157.023 189.575 167.172 148.329 171.362 160.339Z" fill="black"/>
</g>
</g>
</g>
<path d="M185.142 218.32L181.418 204.727L152.462 201.003L166.428 171.302C169.594 164.039 168.942 156.684 161.68 153.425C154.231 150.074 146.131 156.218 142.965 163.853L132.072 191.692C129.186 200.071 129.279 209.196 132.165 217.575L185.142 218.32Z" fill="#FFBE9D"/>
<path d="M167.639 172.978C163.45 180.054 157.025 190.947 157.025 190.947L133.004 180.985C133.004 180.985 143.339 161.433 146.691 156.405C147.994 154.357 151.066 150.26 159.818 149.143C160.005 149.143 161.122 149.422 162.519 149.887C166.615 151.098 169.781 154.543 170.619 158.732L170.805 159.757C171.364 164.133 169.874 169.16 167.639 172.978Z" fill="#F06428"/>
<path d="M157.023 190.863C157.023 190.863 157.396 190.398 158.048 189.467C158.699 188.443 159.537 187.139 160.561 185.463C161.586 183.787 162.889 181.739 164.286 179.598C165.682 177.363 167.265 174.942 168.662 172.242C169.407 170.846 169.965 169.542 170.338 168.145C170.803 166.749 170.989 165.352 171.082 164.049C171.269 161.442 171.176 159.021 170.617 157.066C170.151 155.111 169.22 153.714 168.475 152.876C168.289 152.69 168.103 152.504 167.917 152.317C167.731 152.224 167.638 152.131 167.451 152.038C167.172 151.852 167.079 151.759 167.079 151.759C167.079 151.759 167.172 151.852 167.358 152.038C167.451 152.131 167.638 152.224 167.731 152.411C167.917 152.597 168.01 152.783 168.196 152.969C168.941 153.807 169.779 155.204 170.151 157.066C170.617 158.928 170.71 161.349 170.524 163.956C170.431 165.259 170.245 166.563 169.779 167.959C169.407 169.263 168.755 170.659 168.103 171.963C166.706 174.663 165.124 177.084 163.727 179.318C162.424 181.553 161.12 183.601 160.096 185.277C159.072 186.953 158.327 188.256 157.675 189.28C157.303 190.305 157.023 190.863 157.023 190.863Z" fill="#263238"/>
<path d="M137.191 207.904C137.285 207.904 137.75 206.973 138.774 205.669C139.798 204.366 141.567 202.783 143.895 201.759C146.223 200.735 148.55 200.642 150.226 200.735C151.902 200.921 152.926 201.2 152.926 201.107C152.926 201.107 152.74 200.921 152.275 200.828C151.809 200.642 151.157 200.455 150.319 200.362C148.643 200.083 146.223 200.176 143.709 201.2C141.288 202.224 139.519 203.9 138.495 205.297C138.029 205.949 137.657 206.6 137.471 207.066C137.285 207.625 137.191 207.904 137.191 207.904Z" fill="#EB996E"/>
<path d="M219.686 67.0389C219.686 67.0389 216.148 66.7596 214.565 64.8974C212.889 63.1284 205.906 50.9315 205.906 50.9315C205.906 50.9315 207.303 49.7212 209.444 51.5833C211.027 52.9799 213.913 56.5179 213.913 56.5179C213.913 56.5179 212.051 48.6039 211.4 45.8107C210.841 43.39 210.096 39.7588 211.213 39.1071C212.331 38.4553 213.541 43.1106 214.472 44.9728C215.403 46.8349 216.52 49.4418 216.52 49.4418C216.52 49.628 214.472 39.945 214.658 37.2449C214.751 35.2897 217.265 35.7553 217.545 37.9898C217.545 37.9898 218.196 35.5691 219.5 37.1519C220.71 38.6416 222.572 48.0453 223.224 47.8591C223.876 47.5797 222.758 39.945 223.69 39.1071C224.248 38.6415 225.086 39.2933 225.459 41.2485C225.831 43.2037 228.438 57.9145 228.345 59.9628C228.252 62.0112 227.507 62.8491 227.507 62.8491L219.686 67.0389Z" fill="#FFBE9D"/>
<path d="M223.316 55.6801C223.316 55.587 222.758 55.9594 222.013 56.7042C221.268 57.4491 220.337 58.5664 219.778 60.1492L220.244 60.056L220.151 59.963C218.94 58.8457 217.637 58.0077 216.706 57.6353C215.681 57.1698 215.03 57.0767 215.03 57.1698C214.937 57.356 217.544 58.1008 219.778 60.4285L219.871 60.5216L220.151 60.8009L220.337 60.4285C221.361 57.356 223.409 55.7732 223.316 55.6801Z" fill="#EB996E"/>
<path d="M217.635 37.6221C217.542 37.6221 217.821 40.3221 218.38 43.674C218.938 47.0258 219.776 49.6327 219.962 49.6327C220.056 49.6327 219.497 46.9327 218.938 43.5808C218.38 40.3221 217.728 37.6221 217.635 37.6221Z" fill="#EB996E"/>
<path d="M198.924 108.121C198.273 99.2762 190.917 92.4795 182.072 92.4795H181.234C171.737 93.0381 166.896 101.325 167.734 110.821L169.41 148.716L191.103 157.188L191.01 140.243C191.01 140.243 200.135 138.846 200.228 129.722C200.135 125.439 199.483 116.315 198.924 108.121Z" fill="#FFBE9D"/>
<path d="M190.918 140.347C190.918 140.347 185.145 140.719 179 136.809C179 136.809 181.793 143.326 190.918 142.581V140.347Z" fill="#EB996E"/>
<path d="M196.318 114.845C196.318 115.497 195.759 116.149 195.014 116.149C194.27 116.149 193.711 115.683 193.711 114.938C193.711 114.287 194.27 113.635 194.921 113.635C195.666 113.635 196.225 114.1 196.318 114.845Z" fill="#263238"/>
<path d="M196.875 112.6C196.688 112.786 195.757 112.041 194.361 112.041C192.964 112.041 191.94 112.786 191.754 112.6C191.661 112.507 191.847 112.227 192.312 111.855C192.778 111.576 193.523 111.203 194.361 111.203C195.199 111.203 195.944 111.576 196.409 111.855C196.875 112.227 196.968 112.507 196.875 112.6Z" fill="#263238"/>
<path d="M183.564 114.814C183.564 115.466 183.005 116.117 182.261 116.117C181.516 116.117 180.957 115.652 180.957 114.907C180.957 114.255 181.516 113.604 182.167 113.604C182.912 113.604 183.564 114.069 183.564 114.814Z" fill="#263238"/>
<path d="M183.191 112.777C183.005 112.964 182.074 112.219 180.677 112.219C179.281 112.219 178.256 112.964 178.07 112.777C177.977 112.684 178.163 112.405 178.629 112.033C179.094 111.753 179.839 111.381 180.677 111.381C181.515 111.381 182.26 111.753 182.725 112.033C183.098 112.405 183.191 112.777 183.191 112.777Z" fill="#263238"/>
<path d="M188.217 123.156C188.217 123.063 189.055 122.97 190.451 122.783C190.824 122.783 191.103 122.69 191.196 122.411C191.289 122.132 191.103 121.759 190.917 121.387C190.544 120.549 190.265 119.618 189.892 118.687C188.403 114.776 187.379 111.611 187.565 111.518C187.751 111.425 189.055 114.59 190.451 118.407C190.824 119.339 191.103 120.27 191.475 121.108C191.568 121.48 191.848 121.945 191.661 122.504C191.568 122.783 191.289 122.97 191.103 123.063C190.917 123.156 190.637 123.156 190.451 123.156C189.055 123.249 188.217 123.249 188.217 123.156Z" fill="#263238"/>
<path d="M184.123 124.062C184.309 124.062 184.309 125.552 185.613 126.669C186.916 127.787 188.499 127.601 188.499 127.787C188.499 127.88 188.127 128.066 187.475 128.066C186.823 128.066 185.799 127.88 185.054 127.228C184.216 126.576 183.937 125.645 183.844 125.087C183.844 124.435 184.03 124.062 184.123 124.062Z" fill="#263238"/>
<path d="M183.561 107.332C183.468 107.705 182.071 107.519 180.395 107.705C178.72 107.891 177.416 108.357 177.23 107.984C177.137 107.798 177.323 107.426 177.882 107.053C178.44 106.681 179.278 106.308 180.209 106.215C181.233 106.122 182.071 106.308 182.723 106.495C183.282 106.774 183.561 107.146 183.561 107.332Z" fill="#263238"/>
<path d="M196.409 108.492C196.13 108.772 195.199 108.492 194.082 108.492C192.965 108.399 191.94 108.679 191.754 108.399C191.661 108.213 191.847 107.934 192.22 107.654C192.685 107.375 193.337 107.096 194.175 107.096C195.013 107.096 195.665 107.375 196.037 107.747C196.41 108.027 196.503 108.399 196.409 108.492Z" fill="#263238"/>
<path d="M202.275 100.186C202.089 99.3479 201.344 98.603 200.506 98.6961C200.972 98.5099 201.437 98.4168 201.81 98.1375C202.182 97.8582 202.369 97.2995 202.275 96.834C202.089 96.0891 201.158 95.9961 200.413 95.7167C199.482 95.4374 198.644 94.8788 198.086 94.0408C197.248 92.9235 196.968 91.5269 196.224 90.3166C195.292 88.7338 193.617 87.7096 191.848 87.4303C190.079 87.151 188.216 87.8027 186.82 89.0131C185.423 87.5234 183.375 86.7785 181.42 87.0579C179.464 87.3372 177.602 88.5476 176.671 90.3166C174.251 89.1993 171.364 89.5717 169.223 91.1545C167.174 92.7374 165.964 95.5305 166.337 98.0444L171.923 101.676C172.109 99.9065 174.064 98.603 175.74 99.1616C177.416 99.7203 178.44 101.676 180.209 101.862C181.606 102.048 182.816 100.931 184.12 100.651C185.796 100.279 187.472 100.931 188.868 101.862C190.358 102.7 191.661 103.817 193.337 104.282C195.199 104.841 197.248 104.469 199.11 103.724C199.855 103.445 200.693 103.072 201.251 102.42C201.996 101.862 202.369 100.931 202.275 100.186Z" fill="#263238"/>
<path d="M173.041 99.0533L199.017 99.6119C198.179 97.8429 196.783 96.3532 195.2 95.2359C191.848 92.7221 187.658 91.0462 183.469 91.0462C179.279 90.953 170.62 96.167 167.548 99.0533C165.127 101.381 165.127 103.429 165.127 103.429C164.754 106.781 166.617 110.598 167.361 113.95C167.734 115.626 168.479 120.84 168.479 120.84C169.875 120.84 170.434 119.723 170.248 118.326L169.968 112.74C169.968 112.74 174.81 109.295 172.575 102.964C172.11 102.312 171.365 99.9843 173.041 99.0533Z" fill="#263238"/>
<path d="M178.534 118.723C178.441 118.723 178.348 118.723 178.348 118.63C178.348 118.536 178.348 118.443 178.441 118.443C178.534 118.443 178.627 118.443 178.627 118.536C178.627 118.63 178.534 118.723 178.534 118.723Z" fill="#EB996E"/>
<path d="M181.139 118.129C181.046 118.129 180.953 118.036 180.953 117.943C180.953 117.85 180.953 117.757 181.046 117.757C181.139 117.757 181.232 117.85 181.232 117.943C181.326 118.036 181.232 118.129 181.139 118.129Z" fill="#EB996E"/>
<path d="M183.003 118.061C182.91 118.061 182.816 117.968 182.816 117.875C182.816 117.782 182.816 117.596 182.91 117.596C183.003 117.596 183.096 117.689 183.096 117.782C183.096 117.968 183.096 118.061 183.003 118.061Z" fill="#EB996E"/>
<path d="M179.839 120.405C179.745 120.405 179.652 120.405 179.652 120.312C179.652 120.219 179.745 120.219 179.839 120.219C179.932 120.219 180.025 120.219 180.025 120.312C179.932 120.405 179.932 120.405 179.839 120.405Z" fill="#EB996E"/>
<path d="M182.257 119.816C182.163 119.816 182.07 119.723 182.07 119.63C182.07 119.536 182.163 119.443 182.163 119.443C182.257 119.443 182.35 119.536 182.35 119.63C182.443 119.723 182.35 119.816 182.257 119.816Z" fill="#EB996E"/>
<path d="M195.014 118.33C194.921 118.33 194.828 118.237 194.828 118.144C194.828 118.051 194.828 117.958 194.921 117.958C195.014 117.958 195.107 117.958 195.107 118.144C195.201 118.237 195.107 118.33 195.014 118.33Z" fill="#EB996E"/>
<path d="M196.878 118.129C196.785 118.129 196.691 118.036 196.691 117.943C196.691 117.85 196.785 117.757 196.785 117.757C196.878 117.757 196.971 117.85 196.971 117.943C196.971 118.036 196.971 118.129 196.878 118.129Z" fill="#EB996E"/>
<path d="M193.432 118.432C193.339 118.432 193.246 118.432 193.246 118.339C193.246 118.245 193.246 118.152 193.339 118.152C193.432 118.152 193.525 118.152 193.525 118.245C193.525 118.339 193.525 118.339 193.432 118.432Z" fill="#EB996E"/>
<path d="M194.737 120.208C194.644 120.208 194.551 120.208 194.551 120.115C194.551 120.022 194.551 119.929 194.644 119.929C194.737 119.929 194.83 119.929 194.83 120.022C194.83 120.115 194.83 120.208 194.737 120.208Z" fill="#EB996E"/>
<path d="M196.316 119.936C196.223 119.936 196.223 119.842 196.223 119.749C196.223 119.656 196.316 119.656 196.409 119.656C196.502 119.656 196.502 119.749 196.502 119.842C196.502 119.936 196.409 119.936 196.316 119.936Z" fill="#EB996E"/>
<path d="M169.501 112.198C168.291 107.543 167.267 102.608 168.757 98.0462C168.477 98.0462 168.198 98.0462 168.012 97.9531L167.639 98.1393C166.243 97.5806 164.474 98.1393 163.543 99.3496C162.612 100.56 162.518 102.422 163.449 103.633C161.96 103.539 160.377 104.75 160.191 106.333C160.098 107.357 160.47 108.381 160.936 109.405C161.401 110.336 161.867 111.36 161.867 112.478C161.867 113.502 161.122 114.712 160.098 114.805C160.563 115.923 161.867 116.574 162.984 116.295C162.612 117.226 161.96 117.971 161.122 118.529C162.798 119.74 165.125 119.367 166.987 118.529C168.105 118.064 169.222 117.319 169.688 116.202C170.153 114.898 169.874 113.502 169.501 112.198Z" fill="#263238"/>
<path d="M168.943 117.624C168.757 117.531 162.705 115.762 162.891 122C163.077 128.239 169.315 126.749 169.315 126.563C169.315 126.376 168.943 117.624 168.943 117.624Z" fill="#FFBE9D"/>
<path d="M167.822 124.257C167.822 124.257 167.729 124.35 167.543 124.443C167.356 124.536 167.077 124.629 166.705 124.443C166.053 124.257 165.494 123.233 165.401 122.115C165.401 121.557 165.494 120.998 165.68 120.533C165.867 120.067 166.146 119.788 166.425 119.695C166.798 119.602 166.984 119.788 167.077 119.974C167.17 120.16 167.17 120.253 167.17 120.253C167.17 120.253 167.263 120.16 167.263 119.881C167.263 119.788 167.17 119.602 166.984 119.508C166.798 119.415 166.611 119.322 166.425 119.322C165.96 119.415 165.494 119.788 165.308 120.346C165.122 120.812 164.936 121.464 165.029 122.115C165.122 123.326 165.774 124.536 166.705 124.722C167.17 124.816 167.543 124.722 167.729 124.536C167.822 124.35 167.915 124.257 167.822 124.257Z" fill="#EB996E"/>
<path d="M162.611 112.193C162.611 112.193 162.425 111.914 162.518 111.449C162.611 110.983 162.984 110.331 163.729 109.866C164.473 109.4 165.498 109.307 166.615 109.214C167.639 109.121 168.849 108.842 169.501 107.817C170.153 106.793 170.153 105.583 170.06 104.559C169.967 103.535 169.687 102.51 169.594 101.765C169.315 100.09 169.687 99.0654 169.687 99.0654C169.781 99.0654 169.594 100.09 169.874 101.672C170.06 102.51 170.339 103.441 170.432 104.466C170.525 105.583 170.525 106.886 169.781 108.004C169.408 108.562 168.849 109.028 168.291 109.214C167.732 109.4 167.08 109.493 166.522 109.586C165.405 109.68 164.473 109.68 163.729 110.052C163.077 110.424 162.704 110.983 162.518 111.355C162.611 111.914 162.704 112.193 162.611 112.193Z" fill="#455A64"/>
<path d="M161.214 109.497C161.214 109.497 161.12 109.31 161.027 108.938C161.027 108.566 161.027 108.007 161.4 107.355C161.586 107.076 161.865 106.703 162.145 106.517C162.517 106.238 162.889 106.052 163.355 105.959C163.821 105.865 164.193 105.772 164.565 105.493C164.845 105.214 165.031 104.841 165.031 104.376C165.031 103.91 165.031 103.445 165.031 102.886C165.031 102.421 165.124 101.955 165.217 101.489C165.403 100.652 165.776 99.9067 166.148 99.2549C166.521 98.6963 167.172 98.417 167.545 98.417C167.917 98.417 168.103 98.6032 168.103 98.6032C168.103 98.6032 167.917 98.5101 167.545 98.6032C167.172 98.6032 166.707 98.8825 166.427 99.4412C166.148 99.9998 165.776 100.745 165.59 101.583C165.496 101.955 165.403 102.421 165.403 102.886C165.403 103.352 165.403 103.817 165.403 104.376C165.403 104.934 165.217 105.493 164.658 105.865C164.193 106.238 163.727 106.238 163.262 106.331C162.424 106.517 161.865 106.89 161.493 107.448C161.027 108.566 161.307 109.497 161.214 109.497Z" fill="#455A64"/>
<path d="M198.085 94.0465C198.085 94.0465 197.62 94.4189 196.782 93.9534C196.41 93.7672 196.037 93.3947 195.665 92.9292C195.292 92.4637 194.92 91.9982 194.268 91.6257C193.058 90.8809 191.102 90.6947 189.613 91.8119C188.868 92.3706 188.123 93.1154 187.192 93.7672C186.727 94.0465 186.168 94.3258 185.609 94.4189C185.051 94.512 184.399 94.4189 183.84 94.2327C182.723 93.7672 181.885 93.1154 180.861 92.743C179.93 92.3706 178.906 92.1844 177.975 92.0913C176.019 91.9982 174.343 92.743 173.226 93.5809C172.016 94.4189 171.364 95.4431 170.898 96.0948C170.526 96.8397 170.34 97.2121 170.34 97.2121C170.34 97.2121 170.34 97.119 170.433 96.8396C170.526 96.6534 170.619 96.281 170.805 95.9086C171.178 95.1637 171.83 94.1396 173.04 93.2085C174.25 92.2775 176.019 91.5326 177.975 91.5326C178.999 91.5326 180.023 91.7188 181.047 92.1843C182.071 92.5568 183.002 93.3016 183.933 93.674C184.399 93.8603 184.957 93.9534 185.423 93.8603C185.889 93.7672 186.354 93.5809 186.82 93.3016C187.658 92.743 188.402 91.9981 189.24 91.4395C190.078 90.8809 191.102 90.6016 191.94 90.6016C192.871 90.6016 193.709 90.8809 194.361 91.3464C195.013 91.7188 195.478 92.2775 195.758 92.8361C196.13 93.3016 196.41 93.6741 196.782 93.8603C197.527 94.2327 198.085 94.0465 198.085 94.0465Z" fill="#455A64"/>
<path d="M179.182 204.083C179.182 204.083 187.655 201.755 189.145 201.662C190.262 201.662 196.686 202.686 199.666 203.245C200.783 203.431 201.714 204.455 201.435 205.666C201.435 205.759 201.435 205.852 201.342 205.852C200.969 207.062 199.666 207.062 199.666 207.062C199.666 207.062 201.155 207.714 200.876 209.39C200.69 211.066 198.548 211.159 198.548 211.159C198.548 211.159 198.642 211.252 198.828 211.438C199.759 212.742 198.921 214.511 197.338 214.604L196.407 214.697C196.407 214.697 197.524 215.442 197.338 216.559C196.966 218.794 191.938 218.421 191.938 218.421L178.438 218.142L179.182 204.083Z" fill="#FFBE9D"/>
<path d="M198.826 200.55C198.64 201.295 198.268 202.784 196.871 203.343L190.074 202.039C190.074 202.039 195.381 201.015 196.312 200.27C196.592 199.991 197.057 199.712 197.43 199.432C198.174 199.06 199.012 199.712 198.826 200.55Z" fill="#FFBE9D"/>
<path d="M193.426 202.417C193.426 202.51 194.822 202.882 196.498 203.069C198.174 203.255 199.664 203.441 199.664 203.348C199.664 203.255 198.267 202.882 196.591 202.696C194.822 202.417 193.426 202.231 193.426 202.417Z" fill="#EB996E"/>
<path d="M194.359 206.422C194.359 206.515 195.477 206.887 196.966 207.074C198.456 207.26 199.666 207.167 199.666 206.98C199.666 206.887 198.456 206.794 196.966 206.608C195.57 206.515 194.359 206.329 194.359 206.422Z" fill="#EB996E"/>
<path d="M190.914 205.385C190.821 205.478 190.914 205.85 191.193 206.13C191.566 206.409 191.938 206.502 191.938 206.316C191.938 206.223 191.752 206.036 191.472 205.757C191.286 205.571 191.007 205.385 190.914 205.385Z" fill="#EB996E"/>
<path d="M192.961 210.612C192.961 210.705 194.264 210.984 195.847 211.17C197.43 211.357 198.827 211.45 198.827 211.264C198.827 211.17 197.523 210.891 195.94 210.705C194.264 210.612 192.961 210.519 192.961 210.612Z" fill="#EB996E"/>
<path d="M189.331 208.179C189.238 208.179 189.145 208.272 189.052 208.551C188.959 208.83 188.959 209.203 189.238 209.575C189.424 209.948 189.797 210.134 190.076 210.227C190.355 210.32 190.541 210.227 190.541 210.227C190.541 210.134 189.983 209.948 189.704 209.389C189.238 208.83 189.424 208.272 189.331 208.179Z" fill="#EB996E"/>
<path d="M191.285 214.706C191.285 214.799 192.496 214.985 193.985 214.985C195.475 214.985 196.685 214.985 196.685 214.799C196.685 214.706 195.475 214.52 193.985 214.52C192.496 214.52 191.285 214.613 191.285 214.706Z" fill="#EB996E"/>
<path d="M187.749 211.999C187.656 211.999 187.563 212.092 187.563 212.371C187.563 212.651 187.562 213.023 187.749 213.396C188.121 214.047 188.68 214.42 188.773 214.327C188.866 214.234 188.494 213.768 188.121 213.209C187.842 212.558 187.842 211.999 187.749 211.999Z" fill="#EB996E"/>
<path d="M167.918 172.437C167.825 172.53 162.425 170.203 155.722 167.037C149.018 163.965 143.711 161.358 143.711 161.264C143.804 161.171 149.204 163.499 155.908 166.665C162.611 169.737 168.012 172.344 167.918 172.437Z" fill="white"/>
<path d="M165.312 176.064C165.312 176.064 164.94 175.971 164.381 175.692C163.73 175.319 162.892 174.947 161.867 174.481C159.726 173.457 156.84 172.061 153.581 170.571C150.322 169.081 147.343 167.871 145.108 166.94C144.084 166.567 143.246 166.195 142.501 165.916C141.85 165.636 141.57 165.543 141.57 165.45C141.57 165.45 141.943 165.543 142.594 165.73C143.246 165.916 144.084 166.288 145.201 166.661C147.436 167.499 150.415 168.709 153.674 170.105C156.933 171.595 159.912 172.992 161.961 174.109C162.985 174.668 163.823 175.133 164.381 175.413C165.033 175.878 165.312 176.064 165.312 176.064Z" fill="white"/>
<path d="M212.049 154.567C212.049 154.66 210.932 153.915 209.256 152.705C207.487 151.587 205.159 150.004 202.459 148.329C199.759 146.653 197.338 145.256 195.476 144.232C193.707 143.208 192.59 142.556 192.59 142.463C192.59 142.463 192.869 142.556 193.428 142.835C193.986 143.115 194.731 143.487 195.662 143.953C197.524 144.884 200.038 146.28 202.738 147.956C205.438 149.632 207.766 151.215 209.442 152.518C210.28 153.17 210.932 153.636 211.397 154.008C211.863 154.287 212.049 154.474 212.049 154.567Z" fill="white"/>
<path d="M213.165 151.77C213.165 151.864 212.048 151.119 210.372 150.001C208.603 148.791 206.276 147.301 203.762 145.625C201.155 143.95 198.827 142.46 197.058 141.436C196.22 140.97 195.475 140.598 194.917 140.318C194.637 140.225 194.451 140.132 194.358 140.132C194.265 140.132 194.172 140.132 194.172 140.132C194.172 140.132 194.265 140.132 194.451 140.039C194.637 140.039 194.824 140.039 195.103 140.132C195.662 140.318 196.406 140.598 197.337 141.156C199.106 142.087 201.527 143.577 204.134 145.253C206.741 146.929 209.069 148.512 210.652 149.722C212.141 150.932 213.165 151.77 213.165 151.77Z" fill="white"/>
</svg>
