<?xml version="1.0" encoding="utf-8"?>
<!-- Generator: Adobe Illustrator 24.1.0, SVG Export Plug-In . SVG Version: 6.00 Build 0)  -->
<svg version="1.1" id="Layer_1" xmlns="http://www.w3.org/2000/svg" xmlns:xlink="http://www.w3.org/1999/xlink" x="0px" y="0px"
	 viewBox="0 0 90 74" style="enable-background:new 0 0 90 74;" xml:space="preserve">
<style type="text/css">
	.st0{clip-path:url(#SVGID_2_);}
	.st1{fill-rule:evenodd;clip-rule:evenodd;fill:#C2D7F9;}
	.st2{fill-rule:evenodd;clip-rule:evenodd;fill:#FFFFFF;}
	.st3{fill:#FFFFFF;stroke:#FFFFFF;stroke-width:2.3746;stroke-miterlimit:10;}
	.st4{fill:#C2D7F9;}
</style>
<g>
	<defs>
		<rect id="SVGID_1_" width="90" height="74"/>
	</defs>
	<clipPath id="SVGID_2_">
		<use xlink:href="#SVGID_1_"  style="overflow:visible;"/>
	</clipPath>
	<g class="st0">
		<path class="st1" d="M16.6,14.8c-1.5-1.2-1.9-2.1-1.9-2.9c0-0.7,0.4-1.7,1.9-2.9c1.5-1.1,3.7-2.2,6.6-3.2c5.8-1.9,13.9-3.2,23-3.2
			c9.1,0,17.2,1.2,23,3.2c2.9,1,5.1,2.1,6.6,3.2c1.5,1.2,1.9,2.1,1.9,2.9c0,0.7-0.4,1.7-1.9,2.9C74.2,16,72,17.1,69.1,18
			c-5.8,1.9-13.9,3.2-23,3.2c-9.1,0-17.2-1.2-23-3.2C20.3,17.1,18.1,16,16.6,14.8z"/>
		<path class="st1" d="M14.7,18c1.9,1.4,4.4,2.6,7.3,3.5c6.3,2.1,14.8,3.3,24.1,3.3c9.3,0,17.9-1.3,24.1-3.3c2.9-1,5.4-2.2,7.3-3.5
			v19.8c0,0.7-0.4,1.7-1.9,2.9c-1.4,1.2-3.7,2.3-6.6,3.2c-5.8,1.9-13.9,3.1-23,3.1c-9.1,0-17.2-1.2-23-3.1c-2.9-1-5.1-2.1-6.6-3.2
			c-1.5-1.2-1.9-2.1-1.9-2.9V18z"/>
		<path class="st1" d="M60,59.8c0,4.5,1.9,8.5,4.9,11.2c-5.2,1.2-11.7,2-18.7,2c-9.1,0-17.2-1.2-23-3.2c-2.9-1-5.1-2.1-6.6-3.2
			c-1.5-1.2-1.9-2.2-1.9-2.9V43.9c1.9,1.4,4.4,2.6,7.3,3.5c6.2,2.1,14.8,3.3,24.2,3.3c6.7,0,13-0.6,18.2-1.8
			C61.7,51.8,60,55.6,60,59.8z"/>
		<path d="M79.5,59.1v1.5c0-0.2,0.1-0.5,0.1-0.8C79.5,59.6,79.5,59.3,79.5,59.1z"/>
		<path class="st2" d="M79.5,59.1v1.5c0-0.2,0.1-0.5,0.1-0.8C79.5,59.6,79.5,59.3,79.5,59.1z"/>
		<path class="st3" d="M79.5,59.8c0,0.3,0,0.5-0.1,0.8v-1.5C79.5,59.3,79.5,59.6,79.5,59.8z"/>
		<path class="st4" d="M88.2,59.7l-0.2,3.6v0.1h-3.8l-1.4,2.4L85,69l-3.2,2.7L78.8,69l-0.2,0l-2.1,0.5l-0.2,1.1l-0.4,2.8l-4.1-0.6v0
			l0-1.5l0-0.9l0-1.5v0l-2.1-1.2L66.1,70l-2.3-3.4l2.6-2.7l-0.6-2.7l-4.1-0.6l0.6-4.1l3.9-0.1c0,0,0.6-1.5,1.2-2.1l-2.1-3.3l3.2-2.7
			l2.7,2.7l2.3-0.9l0.9-3.9l3.1,0.4l1,0.1v6.5c-0.3-0.2-0.7-0.3-1-0.5c-0.8-0.3-1.6-0.4-2.4-0.4c-4,0-7.2,3.3-7.2,7.4
			c0,4,3.1,7.2,7,7.3c0.1,0,0.1,0,0.2,0c0.9,0,1.8-0.2,2.6-0.5c0.3-0.1,0.6-0.2,0.9-0.4v0c0.3-0.2,0.5-0.3,0.8-0.5c0,0,0,0,0,0
			c0.8-0.6,1.4-1.3,1.9-2.2c0.6-1.1,1-2.3,1-3.7c0-0.6-0.1-1.1-0.2-1.6L88.2,59.7z"/>
		<g>
			<path class="st4" d="M79.5,59.8c0,0.3,0,0.5-0.1,0.8c-0.1,0.4-0.2,0.8-0.4,1.2c-0.1,0.1-0.1,0.2-0.2,0.4
				c-0.1,0.2-0.2,0.3-0.4,0.5c0,0.1-0.1,0.1-0.2,0.2L78.2,63c-0.2,0.2-0.3,0.3-0.5,0.4c-0.2,0.2-0.5,0.3-0.8,0.4
				c-0.5,0.2-0.9,0.3-1.5,0.3c-2.3,0-4.2-1.9-4.2-4.2c0-2.3,1.9-4.2,4.2-4.2c0.6,0,1.2,0.1,1.8,0.4c0.2,0.1,0.3,0.2,0.5,0.3
				c0.2,0.1,0.4,0.3,0.6,0.5c0.1,0.1,0.2,0.2,0.3,0.3c0.1,0.1,0.2,0.3,0.3,0.4c0.1,0.1,0.1,0.2,0.2,0.4c0.2,0.4,0.3,0.8,0.4,1.2
				C79.5,59.3,79.5,59.6,79.5,59.8z"/>
		</g>
	</g>
</g>
</svg>
