<?xml version="1.0" encoding="utf-8"?>
<!-- Generator: Adobe Illustrator 24.1.0, SVG Export Plug-In . SVG Version: 6.00 Build 0)  -->
<svg version="1.1" id="Layer_1" xmlns="http://www.w3.org/2000/svg" xmlns:xlink="http://www.w3.org/1999/xlink" x="0px" y="0px"
	 viewBox="0 0 90 75" style="enable-background:new 0 0 90 75;" xml:space="preserve">
<style type="text/css">
	.st0{fill:#C2D7F9;}
</style>
<g>
	<path class="st0" d="M73.3,36.5l-0.7,9.9v0.2H62.3L58.3,53l6.3,9l-8.9,7.3l-8-7.3l-6.3,1.6l-1.5,10.6l-11.2-1.6l-0.3-10.9l-5.6-3.3
		l-9.6,6.4l-6.3-9.2l7.2-7.3L12.5,41L1.2,39.4l1.7-11.3l10.7-0.4c0,0,1.7-4.2,3.2-5.7l-5.6-9L20,5.7l7.3,7.3l6.3-2.4L36,0l11.2,1.6
		v15.2c-0.4,0.7-0.8,1.4-1.1,2.2c-2.6-1.2-5.3-1.9-8.3-1.9c-10.9,0-19.6,9-19.8,20.1c0,11.1,8.7,20,19.6,20c10.8,0,19.6-8.9,19.6-20
		c0-1.6-0.2-3.1-0.5-4.5L73.3,36.5z"/>
</g>
<g>
	<path class="st0" d="M54.1,37c0,8.8-7.1,15.9-15.9,15.9c-8.8,0-15.9-7.1-15.9-15.9s7.1-15.9,15.9-15.9c2.5,0,4.9,0.6,7,1.6
		c-0.4,3.3,0.1,6.8,1.9,10l0.5,0.9l3.5-1.9l-0.5-0.9c-0.7-1.4-1.1-3-0.9-4.3c0-0.1,0-0.3,0.1-0.5C52.5,29,54.1,32.8,54.1,37z"/>
</g>
<g>
	<path class="st0" d="M59.1,22.9l1.5-4.3l-1-0.3c-0.5-0.1-1.1-0.2-1.9-0.3c-3.5-0.2-6.7,1.5-8.5,4.2c-0.2,0.4-0.5,0.7-0.6,1.1
		c-0.2,0.4-0.4,0.8-0.5,1.3c-0.2,0.6-0.3,1.2-0.4,1.8c-0.2,1.4,0,3,0.7,4.5l0,0c-1-2.3-1.5-4.7-1.3-7c0-0.5,0.1-1,0.2-1.4
		c0.1-0.5,0.2-0.9,0.3-1.3c0.9-3.4,3.2-6.5,6.4-8.4c2-1.2,4.3-1.9,6.8-1.9c0.6,0,1.3,0,2,0.1l0.8,0.1L65,7L75.4,20L59.1,22.9z"/>
</g>
</svg>
