<svg width="14" height="25" viewBox="0 0 14 25" fill="none" xmlns="http://www.w3.org/2000/svg">
<path d="M13.9939 12.7713C13.9939 12.2113 13.7581 11.6513 13.3807 11.2313L4.41867 1.57163C3.94699 1.05831 3.33379 0.77832 2.62626 0.77832C2.01307 0.77832 1.44705 1.01165 0.975363 1.43163C-0.0151775 2.31827 -0.0623458 3.85823 0.833858 4.8382L7.43746 11.9313L8.33367 12.8646L7.43746 13.7979L0.833858 20.891C-0.0623458 21.871 -0.0151775 23.3643 0.975363 24.2976C1.44705 24.7176 2.01307 24.9509 2.62626 24.9509C3.33379 24.9509 3.94699 24.6709 4.41867 24.1576L13.3807 14.4979C13.7581 14.0779 13.9939 13.5179 13.9939 12.958V12.9113V12.8646V12.7713Z" fill="white"/>
</svg>
