<svg width="40" height="40" viewBox="0 0 40 40" fill="none" xmlns="http://www.w3.org/2000/svg">
<path d="M16.5539 27.8571H36.4005C37.8739 27.8571 39.0872 26.6571 39.0872 25.2V5.65714C39.0005 4.2 37.7872 3 36.3139 3H16.5539C15.0805 3 13.8672 4.2 13.8672 5.65714V25.2857C13.8672 26.6571 15.0805 27.8571 16.5539 27.8571Z" fill="#F06428"/>
<path d="M3.03333 39H15.08C16.8133 39 18.1133 37.6286 18.1133 36V24C18.1133 22.2857 16.7267 21 15.08 21H3.03333C1.3 21 0 22.3714 0 24V35.9143C0 37.6286 1.38667 39 3.03333 39Z" fill="#F06428"/>
<path d="M22.1863 25.3714V18.8571H15.5996V17.2285H23.8329V25.3714H22.1863Z" fill="white" stroke="white" stroke-miterlimit="10"/>
<path d="M22.0605 18.0447L12.1328 27.8633L13.2972 29.0148L23.2249 19.1963L22.0605 18.0447Z" fill="white" stroke="white" stroke-miterlimit="10"/>
</svg>
