<svg width="52" height="41" viewBox="0 0 52 41" fill="none" xmlns="http://www.w3.org/2000/svg">
<rect x="1.125" y="1.125" width="49.75" height="38.75" rx="2.875" fill="#F06428" stroke="#F06428" stroke-width="2.25"/>
<mask id="path-2-inside-1" fill="white">
<path d="M0 4C0 1.79086 1.79086 0 4 0H48C50.2091 0 52 1.79086 52 4V7C52 8.10457 51.1046 9 50 9H2C0.895432 9 0 8.10457 0 7V4Z"/>
</mask>
<path d="M0 4C0 1.79086 1.79086 0 4 0H48C50.2091 0 52 1.79086 52 4V7C52 8.10457 51.1046 9 50 9H2C0.895432 9 0 8.10457 0 7V4Z" fill="white" stroke="#F06428" stroke-width="4.5" mask="url(#path-2-inside-1)"/>
<ellipse cx="38.8116" cy="4.43185" rx="0.811594" ry="0.803922" fill="#F06428"/>
<ellipse cx="42.8702" cy="4.43185" rx="0.811594" ry="0.803922" fill="#F06428"/>
<ellipse cx="46.9288" cy="4.43185" rx="0.811594" ry="0.803922" fill="#F06428"/>
<path d="M23.2929 34.3217C23.1475 34.2609 23.0268 34.154 22.9496 34.0177C22.8725 33.8814 22.8433 33.7235 22.8668 33.569L24.1592 25.2334H20.7292C20.6205 25.2363 20.5125 25.2144 20.4137 25.1694C20.3148 25.1244 20.2278 25.0575 20.1591 24.9739C20.0905 24.8903 20.0422 24.7922 20.0179 24.6872C19.9936 24.5822 19.994 24.473 20.0191 24.3681L22.1495 15.2235C22.187 15.0662 22.2781 14.9264 22.4074 14.8277C22.5368 14.7291 22.6965 14.6776 22.8597 14.6819H29.9611C30.0672 14.6815 30.172 14.7047 30.2679 14.7498C30.3638 14.7948 30.4482 14.8605 30.515 14.9422C30.5828 15.0247 30.6308 15.1214 30.6554 15.225C30.68 15.3285 30.6806 15.4363 30.6571 15.5401L29.4285 21.0128H32.8017C32.9348 21.0125 33.0653 21.0493 33.1783 21.119C33.2913 21.1886 33.3823 21.2883 33.4408 21.4067C33.4917 21.5203 33.5113 21.6453 33.4976 21.7689C33.4839 21.8924 33.4373 22.0102 33.3627 22.1101L24.1308 34.0685C24.0684 34.1601 23.9851 34.2358 23.8877 34.2896C23.7902 34.3434 23.6813 34.3737 23.5698 34.378C23.4748 34.3762 23.3809 34.3571 23.2929 34.3217Z" fill="white"/>
</svg>
