<svg width="27" height="26" viewBox="0 0 27 26" fill="none" xmlns="http://www.w3.org/2000/svg">
<path d="M19 13.2773C19 16.5911 16.5376 19.2773 13.5 19.2773C10.4624 19.2773 8 16.5911 8 13.2773C8 9.96364 10.4624 7.27734 13.5 7.27734C16.5376 7.27734 19 9.96364 19 13.2773Z" fill="white"/>
<path fill-rule="evenodd" clip-rule="evenodd" d="M13.5004 0C14.2061 0 14.7782 0.572081 14.7782 1.27778V2.55556C14.7782 3.26125 14.2061 3.83333 13.5004 3.83333C12.7947 3.83333 12.2227 3.26125 12.2227 2.55556V1.27778C12.2227 0.572081 12.7947 0 13.5004 0ZM4.46513 3.74248C4.96413 3.24347 5.77318 3.24347 6.27218 3.74248L7.17557 4.64586C7.67457 5.14487 7.67457 5.95391 7.17557 6.45291C6.67657 6.95192 5.86752 6.95192 5.36852 6.45291L4.46513 5.54953C3.96613 5.05052 3.96613 4.24148 4.46513 3.74248ZM22.5357 3.74248C23.0347 4.24148 23.0347 5.05052 22.5357 5.54953L21.6323 6.45292C21.1333 6.95192 20.3243 6.95192 19.8253 6.45291C19.3263 5.95391 19.3263 5.14487 19.8253 4.64586L20.7287 3.74247C21.2277 3.24347 22.0367 3.24347 22.5357 3.74248ZM13.5004 7.66786C12.4896 7.66786 11.5015 7.96759 10.661 8.52914C9.82051 9.0907 9.1654 9.88887 8.77851 10.8227C8.39162 11.7566 8.29033 12.7842 8.48743 13.7756C8.6845 14.7669 9.17103 15.6774 9.8855 16.3922L10.586 17.0914C10.8324 17.3378 11.0534 17.605 11.2474 17.8889H15.7534C15.9482 17.6039 16.1695 17.3368 16.4148 17.0915L17.115 16.3926L17.1158 16.3918C17.83 15.6771 18.3164 14.7667 18.5134 13.7756C18.7105 12.7842 18.6092 11.7566 18.2224 10.8227C17.8355 9.88887 17.1804 9.0907 16.3399 8.52914C15.4994 7.96759 14.5113 7.66786 13.5004 7.66786ZM14.8104 20.4444H12.1904C12.2118 20.6426 12.2227 20.8426 12.2227 21.0437V21.7222C12.2227 22.0611 12.3573 22.3861 12.5969 22.6257C12.8365 22.8654 13.1615 23 13.5004 23C13.8393 23 14.1643 22.8654 14.404 22.6257C14.6436 22.3861 14.7782 22.0611 14.7782 21.7222V21.0439C14.7782 20.8433 14.789 20.6431 14.8104 20.4444ZM9.34686 19.687C9.35749 19.7108 9.36882 19.7342 9.38083 19.7572C9.56747 20.1561 9.6671 20.5949 9.6671 21.0437V21.7222C9.6671 22.7389 10.071 23.7139 10.7899 24.4328C11.5087 25.1517 12.4838 25.5556 13.5004 25.5556C14.5171 25.5556 15.4921 25.1517 16.211 24.4328C16.9299 23.7139 17.3338 22.7389 17.3338 21.7222V21.0437C17.3337 20.6453 17.4121 20.2507 17.5645 19.8826C17.717 19.5146 17.9404 19.1801 18.222 18.8984L18.9223 18.1994C19.9943 17.1271 20.7243 15.761 21.0199 14.2739C21.3156 12.7868 21.1637 11.2454 20.5833 9.8446C20.003 8.44381 19.0203 7.24656 17.7596 6.40423C16.4989 5.56189 15.0167 5.1123 13.5004 5.1123C11.9842 5.1123 10.502 5.56189 9.24127 6.40423C7.98054 7.24656 6.99788 8.44381 6.41755 9.8446C5.83722 11.2454 5.68528 12.7868 5.98093 14.2739C6.27659 15.761 7.00657 17.1271 8.07857 18.1994L8.77891 18.8985L8.77973 18.8993C9.01183 19.1316 9.20253 19.3981 9.34686 19.687ZM0.722656 12.7778C0.722656 12.0721 1.29474 11.5 2.00043 11.5H3.27821C3.98391 11.5 4.55599 12.0721 4.55599 12.7778C4.55599 13.4835 3.98391 14.0556 3.27821 14.0556H2.00043C1.29474 14.0556 0.722656 13.4835 0.722656 12.7778ZM22.4449 12.7778C22.4449 12.0721 23.017 11.5 23.7227 11.5H25.0004C25.7061 11.5 26.2782 12.0721 26.2782 12.7778C26.2782 13.4835 25.7061 14.0556 25.0004 14.0556H23.7227C23.017 14.0556 22.4449 13.4835 22.4449 12.7778Z" fill="white"/>
</svg>
