<svg width="46" height="46" viewBox="0 0 46 46" fill="none" xmlns="http://www.w3.org/2000/svg">
<circle cx="22.838" cy="22.838" r="22.838" fill="#F06428"/>
<path d="M10.1016 14.1016C10.1016 13.5493 10.5493 13.1016 11.1016 13.1016H35.1016C35.6538 13.1016 36.1016 13.5493 36.1016 14.1016V32.1016C36.1016 32.6538 35.6538 33.1016 35.1016 33.1016H11.1016C10.5493 33.1016 10.1016 32.6538 10.1016 32.1016V14.1016Z" fill="white"/>
<path d="M35.262 13.1016H11.2246C10.6096 13.1016 10.1016 13.6096 10.1016 14.2246V31.9786C10.1016 32.5935 10.6096 33.1016 11.2246 33.1016H35.262C35.877 33.1016 36.385 32.5935 36.385 31.9786V14.2246C36.385 13.6096 35.877 13.1016 35.262 13.1016ZM11.2246 14.1711H35.262C35.2887 14.1711 35.3155 14.1978 35.3155 14.2246V16.9251H11.1711V14.2246C11.1711 14.1978 11.1978 14.1711 11.2246 14.1711ZM35.262 32.032H11.2246C11.1978 32.032 11.1711 32.0053 11.1711 31.9786V17.9946H35.2887V31.9786C35.3155 32.0053 35.2887 32.032 35.262 32.032Z" fill="#F06428"/>
<path fill-rule="evenodd" clip-rule="evenodd" d="M10 14.2247C10 13.5536 10.5536 13 11.2247 13H35.2622C35.9333 13 36.4869 13.5536 36.4869 14.2247V31.9787C36.4869 32.6499 35.9333 33.2035 35.2622 33.2035H11.2247C10.5536 33.2035 10 32.6499 10 31.9787V14.2247ZM11.2247 13.2035C10.6659 13.2035 10.2035 13.6659 10.2035 14.2247V31.9787C10.2035 32.5375 10.6659 33 11.2247 33H35.2622C35.8209 33 36.2834 32.5375 36.2834 31.9787V14.2247C36.2834 13.6659 35.8209 13.2035 35.2622 13.2035H11.2247ZM11.273 14.273V16.8235H35.2139V14.273H11.273ZM11.116 14.116C11.1403 14.0917 11.1783 14.0695 11.2247 14.0695H35.2622C35.3086 14.0695 35.3465 14.0917 35.3709 14.116C35.3952 14.1403 35.4174 14.1783 35.4174 14.2247V17.027H11.0695V14.2247C11.0695 14.1783 11.0917 14.1403 11.116 14.116ZM11.0695 17.893H35.3906V31.9497C35.3954 31.9604 35.3989 31.9721 35.4006 31.9849C35.4051 32.0187 35.3955 32.049 35.3802 32.0719C35.3524 32.1137 35.3052 32.1339 35.2622 32.1339H11.2247C11.1783 32.1339 11.1403 32.1117 11.116 32.0874C11.0917 32.0631 11.0695 32.0252 11.0695 31.9787V17.893ZM11.273 18.0965V31.9305H35.1872V18.0965H11.273Z" fill="#F06428"/>
<path d="M26.5992 16.0949H27.5618C27.8559 16.0949 28.0965 15.8543 28.0965 15.5601C28.0965 15.266 27.8559 15.0254 27.5618 15.0254H26.5992C26.3051 15.0254 26.0645 15.266 26.0645 15.5601C26.0645 15.8543 26.3051 16.0949 26.5992 16.0949Z" fill="#F06428"/>
<path fill-rule="evenodd" clip-rule="evenodd" d="M25.9629 15.5603C25.9629 15.21 26.2491 14.9238 26.5994 14.9238H27.5619C27.9122 14.9238 28.1984 15.21 28.1984 15.5603C28.1984 15.9106 27.9122 16.1968 27.5619 16.1968H26.5994C26.2491 16.1968 25.9629 15.9106 25.9629 15.5603ZM26.5994 15.1273C26.3614 15.1273 26.1663 15.3224 26.1663 15.5603C26.1663 15.7983 26.3614 15.9933 26.5994 15.9933H27.5619C27.7999 15.9933 27.995 15.7983 27.995 15.5603C27.995 15.3224 27.7999 15.1273 27.5619 15.1273H26.5994Z" fill="#F06428"/>
<path d="M29.8092 16.0949H30.7717C31.0659 16.0949 31.3065 15.8543 31.3065 15.5601C31.3065 15.266 31.0659 15.0254 30.7717 15.0254H29.8092C29.5151 15.0254 29.2744 15.266 29.2744 15.5601C29.2744 15.8543 29.5151 16.0949 29.8092 16.0949Z" fill="#F06428"/>
<path fill-rule="evenodd" clip-rule="evenodd" d="M29.1729 15.5603C29.1729 15.21 29.459 14.9238 29.8093 14.9238H30.7719C31.1222 14.9238 31.4084 15.21 31.4084 15.5603C31.4084 15.9106 31.1222 16.1968 30.7719 16.1968H29.8093C29.459 16.1968 29.1729 15.9106 29.1729 15.5603ZM29.8093 15.1273C29.5714 15.1273 29.3763 15.3224 29.3763 15.5603C29.3763 15.7983 29.5714 15.9933 29.8093 15.9933H30.7719C31.0098 15.9933 31.2049 15.7983 31.2049 15.5603C31.2049 15.3224 31.0098 15.1273 30.7719 15.1273H29.8093Z" fill="#F06428"/>
<path d="M32.8814 16.0949H33.844C34.1381 16.0949 34.3788 15.8543 34.3788 15.5601C34.3788 15.266 34.1381 15.0254 33.844 15.0254H32.8814C32.5873 15.0254 32.3467 15.266 32.3467 15.5601C32.3467 15.8543 32.5873 16.0949 32.8814 16.0949Z" fill="#F06428"/>
<path fill-rule="evenodd" clip-rule="evenodd" d="M32.2451 15.5603C32.2451 15.21 32.5313 14.9238 32.8816 14.9238H33.8442C34.1945 14.9238 34.4807 15.21 34.4807 15.5603C34.4807 15.9106 34.1945 16.1968 33.8442 16.1968H32.8816C32.5313 16.1968 32.2451 15.9106 32.2451 15.5603ZM32.8816 15.1273C32.6437 15.1273 32.4486 15.3224 32.4486 15.5603C32.4486 15.7983 32.6437 15.9933 32.8816 15.9933H33.8442C34.0821 15.9933 34.2772 15.7983 34.2772 15.5603C34.2772 15.3224 34.0821 15.1273 33.8442 15.1273H32.8816Z" fill="#F06428"/>
<path d="M30.4238 24.4635L26.8943 21.6828C26.6537 21.4956 26.3328 21.5491 26.1457 21.763C25.9585 22.0036 26.012 22.3245 26.2259 22.5117L29.381 24.9716L26.3863 27.6454C26.1724 27.8325 26.1457 28.1801 26.3328 28.394C26.4398 28.501 26.5735 28.5812 26.7339 28.5812C26.8676 28.5812 26.9746 28.5277 27.0815 28.4475L30.4505 25.4528C30.6109 25.3192 30.6911 25.132 30.6644 24.9448C30.6644 24.7577 30.5842 24.5705 30.4238 24.4635Z" fill="#F06428"/>
<path fill-rule="evenodd" clip-rule="evenodd" d="M26.0684 21.6963C26.2875 21.4459 26.6687 21.3792 26.9561 21.6027L30.483 24.3815C30.6726 24.5098 30.7634 24.7273 30.7654 24.9379C30.7947 25.1619 30.6969 25.379 30.5162 25.5302L27.1421 28.5294C27.0262 28.6163 26.8978 28.6832 26.7332 28.6832C26.5363 28.6832 26.3783 28.5843 26.2602 28.4662L26.2554 28.4614C26.0306 28.2044 26.0634 27.7928 26.3182 27.5694C26.3184 27.5693 26.3181 27.5695 26.3182 27.5694L29.2216 24.9771L26.1581 22.5886C25.9078 22.3696 25.8412 21.9882 26.0647 21.7008L26.0684 21.6963ZM26.2235 21.828C26.0754 22.0209 26.1151 22.2787 26.2901 22.4336L29.539 24.9665L26.4526 27.7222C26.2809 27.8724 26.2596 28.1539 26.4066 28.3248C26.5018 28.4193 26.6104 28.4797 26.7332 28.4797C26.8349 28.4797 26.9198 28.4408 27.0165 28.3689L30.3847 25.3749C30.5221 25.2604 30.5841 25.1068 30.563 24.9595L30.562 24.9523V24.9451C30.562 24.7849 30.4934 24.6329 30.3667 24.5484L30.3599 24.544L26.8312 21.7634C26.8311 21.7633 26.8313 21.7634 26.8312 21.7634C26.6381 21.6134 26.3789 21.6525 26.2235 21.828Z" fill="#F06428"/>
<path d="M19.5669 21.6831L16.1445 24.3301C15.9306 24.4906 15.8236 24.7045 15.7969 24.9718C15.7969 25.2125 15.9038 25.4531 16.091 25.6403L19.353 28.5013C19.46 28.5815 19.5669 28.6349 19.7006 28.6349C19.861 28.6349 19.9947 28.5815 20.1017 28.4478C20.2889 28.2339 20.2621 27.8863 20.0482 27.6991L17.0001 25.0253L20.2086 22.5654C20.4493 22.3783 20.476 22.0574 20.3156 21.8168C20.1284 21.5494 19.7808 21.4959 19.5669 21.6831Z" fill="#F06428"/>
<path fill-rule="evenodd" clip-rule="evenodd" d="M19.5025 21.6049C19.7693 21.3741 20.1836 21.4511 20.3991 21.7589L20.4004 21.7608C20.5866 22.04 20.5592 22.4222 20.2713 22.6462L17.1605 25.0311L20.1154 27.623C20.1154 27.623 20.1153 27.623 20.1154 27.623M19.5025 21.6049L16.083 24.2497C15.8438 24.4293 15.725 24.6705 15.6958 24.9622L15.6953 24.9723C15.6953 25.2432 15.8154 25.5089 16.0192 25.7127L19.2861 28.5782L19.2922 28.5831C19.408 28.67 19.5363 28.7371 19.7008 28.7371C19.8876 28.7371 20.0515 28.673 20.1799 28.5135M20.2318 21.8746C20.0734 21.6494 19.795 21.6193 19.6341 21.7601L19.6294 21.7641L16.2057 24.412C16.0188 24.5522 15.9239 24.7369 15.8988 24.9773C15.9003 25.1852 15.9931 25.3977 16.1608 25.5665L19.4173 28.4226C19.514 28.4947 19.599 28.5337 19.7008 28.5337C19.8342 28.5337 19.9371 28.4914 20.0224 28.3847L20.0252 28.3812C20.1746 28.2105 20.1539 27.9271 19.9814 27.7761L16.84 25.0205L20.1464 22.4856C20.1464 22.4855 20.1463 22.4857 20.1464 22.4856C20.3391 22.3354 20.3657 22.0764 20.2318 21.8746Z" fill="#F06428"/>
<path d="M24.3807 19.9447C24.0866 19.8912 23.8192 20.0783 23.7658 20.3725L21.9476 29.8912C21.8941 30.1853 22.0813 30.4527 22.3754 30.5061C22.4021 30.5061 22.4556 30.5061 22.4823 30.5061C22.723 30.5061 22.9636 30.319 23.0171 30.0783L24.8353 20.5596C24.862 20.2655 24.6749 19.9981 24.3807 19.9447Z" fill="#F06428"/>
<path fill-rule="evenodd" clip-rule="evenodd" d="M23.666 20.354C23.7296 20.0055 24.0493 19.7811 24.3991 19.8448C24.7489 19.9083 24.9679 20.2264 24.9368 20.569L24.9359 20.579L23.1166 30.1006C23.0526 30.3887 22.7699 30.6081 22.4825 30.6081H22.3664L22.3574 30.6064C22.0086 30.543 21.7841 30.2232 21.8477 29.8732L23.666 20.354C23.6659 20.3541 23.666 20.3538 23.666 20.354ZM24.3627 20.0449C24.1245 20.0016 23.9096 20.1514 23.866 20.3908L22.0479 29.9096C22.0478 29.9097 22.0479 29.9094 22.0479 29.9096C22.0053 30.1448 22.1509 30.3576 22.3852 30.4046H22.4825C22.676 30.4046 22.8741 30.2504 22.9177 30.0579L24.7346 20.5459C24.7545 20.3022 24.5997 20.088 24.3627 20.0449Z" fill="#F06428"/>
</svg>
