<svg width="30" height="27" viewBox="0 0 30 27" fill="none" xmlns="http://www.w3.org/2000/svg">
<path d="M9.63164 26.5011C20.5751 26.5011 26.5607 16.6319 26.5607 8.07338C26.5607 7.79307 26.5607 7.51401 26.5433 7.23622C27.7077 6.31939 28.7129 5.18419 29.5117 3.88378C28.4258 4.40754 27.2739 4.75103 26.0944 4.90277C27.3364 4.09336 28.266 2.8203 28.7102 1.32051C27.5422 2.07491 26.2645 2.60658 24.932 2.89256C23.0877 0.75785 20.1572 0.235371 17.7836 1.6181C15.41 3.00083 14.1838 5.9449 14.7925 8.79943C10.0085 8.53837 5.55131 6.07874 2.53012 2.03267C0.950921 4.99197 1.75754 8.77779 4.3722 10.6783C3.42534 10.6478 2.49912 10.3697 1.67172 9.86767C1.67172 9.89418 1.67172 9.92196 1.67172 9.94974C1.67249 13.0327 3.66895 15.6881 6.44512 16.2986C5.56917 16.5586 4.65011 16.5966 3.75856 16.4097C4.53802 19.048 6.77175 20.8553 9.31728 20.9074C7.21041 22.7098 4.60775 23.6882 1.92808 23.6853C1.45469 23.6843 0.981755 23.6531 0.511719 23.5919C3.23266 25.4926 6.39862 26.5007 9.63164 26.496" fill="#55ADEE"/>
</svg>
